<svg width="53" height="52" viewBox="0 0 53 52" fill="none" xmlns="http://www.w3.org/2000/svg">
<mask id="mask0_2_6728" style="mask-type:alpha" maskUnits="userSpaceOnUse" x="0" y="0" width="53" height="52">
<circle cx="26.5" cy="26" r="26" fill="#C4C4C4"/>
</mask>
<g mask="url(#mask0_2_6728)">
<path d="M65.5 -7.00003H-14.5V73H65.5V-7.00003Z" fill="#81B1FF"/>
<path d="M47.3934 44.278C47.3704 44.382 47.137 44.4256 46.807 44.4052C46.7257 44.4002 46.6449 44.4211 46.5762 44.4649C46.5075 44.5087 46.4545 44.5732 46.4248 44.649C46.3048 44.9568 46.1662 45.1502 46.0622 45.1272C45.9582 45.1042 45.9144 44.8706 45.9348 44.5408C45.9398 44.4595 45.9189 44.3787 45.8751 44.31C45.8313 44.2413 45.7668 44.1882 45.691 44.1584C45.383 44.0384 45.189 43.8998 45.211 43.7956C45.233 43.6914 45.4682 43.6472 45.798 43.668C45.8794 43.6731 45.9603 43.6523 46.0291 43.6084C46.0979 43.5646 46.151 43.5001 46.1808 43.4242C46.3008 43.116 46.4394 42.9228 46.5434 42.9458C46.6474 42.9688 46.6912 43.2024 46.6706 43.5326C46.6656 43.614 46.6866 43.6949 46.7304 43.7636C46.7743 43.8323 46.8389 43.8853 46.9148 43.915C47.2234 44.0352 47.4166 44.1732 47.3934 44.278Z" fill="white"/>
<path d="M54.12 8.91678C54.12 9.04238 53.8624 9.15178 53.4778 9.21218C53.383 9.22708 53.2954 9.27166 53.2275 9.33951C53.1596 9.40735 53.115 9.49498 53.1 9.58978C53.04 9.97438 52.93 10.232 52.8044 10.232C52.6788 10.232 52.5692 9.97438 52.509 9.58978C52.494 9.495 52.4494 9.40741 52.3815 9.33957C52.3136 9.27174 52.226 9.22714 52.1312 9.21218C51.7464 9.15218 51.4882 9.04238 51.4882 8.91678C51.4882 8.79118 51.7452 8.67998 52.13 8.61998C52.2249 8.60506 52.3126 8.56045 52.3806 8.49258C52.4485 8.4247 52.4932 8.33704 52.5082 8.24218C52.5682 7.85718 52.678 7.59958 52.8036 7.59958C52.9292 7.59958 53.0388 7.85718 53.0992 8.24218C53.1142 8.33704 53.1588 8.42471 53.2267 8.49259C53.2947 8.56048 53.3824 8.60508 53.4772 8.61998C53.8616 8.67998 54.12 8.79038 54.12 8.91678Z" fill="white"/>
<path d="M45.6335 27.9245C45.7776 27.7804 45.7776 27.5468 45.6335 27.4027C45.4894 27.2585 45.2557 27.2585 45.1116 27.4027C44.9675 27.5468 44.9675 27.7804 45.1116 27.9245C45.2557 28.0686 45.4894 28.0686 45.6335 27.9245Z" fill="white"/>
<path d="M35.9506 52.3035C36.1844 52.2425 36.3244 52.0036 36.2635 51.7698C36.2025 51.5361 35.9636 51.396 35.7298 51.457C35.4961 51.518 35.356 51.7569 35.417 51.9906C35.478 52.2244 35.7169 52.3644 35.9506 52.3035Z" fill="white"/>
<path d="M2.2211 17.8949C2.29627 17.6173 2.13214 17.3313 1.85451 17.2561C1.57688 17.1809 1.29087 17.3451 1.2157 17.6227C1.14053 17.9003 1.30466 18.1863 1.58229 18.2615C1.85992 18.3367 2.14593 18.1726 2.2211 17.8949Z" fill="white"/>
<path d="M47.1925 2.16555C47.3366 2.02145 47.3366 1.78781 47.1925 1.64371C47.0484 1.4996 46.8148 1.4996 46.6707 1.64371C46.5266 1.78781 46.5265 2.02145 46.6707 2.16556C46.8148 2.30966 47.0484 2.30966 47.1925 2.16555Z" fill="white"/>
<path d="M10.7476 3.7398C11.0323 3.69838 11.2294 3.43406 11.188 3.14943C11.1466 2.8648 10.8823 2.66763 10.5976 2.70906C10.313 2.75048 10.1159 3.0148 10.1573 3.29943C10.1987 3.58406 10.463 3.78122 10.7476 3.7398Z" fill="white"/>
<path d="M14.7492 12.8614C14.8692 12.775 14.8965 12.6077 14.8102 12.4876C14.7238 12.3675 14.5565 12.3402 14.4364 12.4266C14.3163 12.513 14.289 12.6803 14.3754 12.8004C14.4618 12.9204 14.6291 12.9477 14.7492 12.8614Z" fill="white"/>
<path d="M5.52702 23.8178C5.52968 23.8707 5.5166 23.9232 5.48943 23.9687C5.46226 24.0141 5.42221 24.0505 5.37437 24.0732C5.32652 24.0959 5.27301 24.1039 5.22061 24.0962C5.16821 24.0885 5.11927 24.0655 5.07998 24.0299C5.04069 23.9944 5.01282 23.9481 4.99988 23.8967C4.98694 23.8453 4.98952 23.7913 5.00729 23.7414C5.02506 23.6915 5.05723 23.648 5.09972 23.6164C5.14221 23.5848 5.19313 23.5665 5.24602 23.5638C5.28115 23.562 5.31629 23.5672 5.34942 23.579C5.38256 23.5908 5.41304 23.609 5.43914 23.6326C5.46523 23.6562 5.48642 23.6847 5.5015 23.7165C5.51658 23.7483 5.52525 23.7827 5.52702 23.8178Z" fill="white"/>
<path d="M3.31281 41.7445C3.31277 41.7867 3.30023 41.8279 3.27676 41.863C3.25329 41.898 3.21995 41.9253 3.18097 41.9414C3.14199 41.9575 3.0991 41.9617 3.05775 41.9534C3.0164 41.9451 2.97843 41.9247 2.94865 41.8949C2.91887 41.865 2.89861 41.827 2.89045 41.7856C2.88228 41.7442 2.88657 41.7014 2.90278 41.6624C2.91898 41.6235 2.94637 41.5902 2.98148 41.5669C3.01659 41.5435 3.05784 41.531 3.10001 41.5311C3.15651 41.5313 3.21063 41.5538 3.25052 41.5938C3.29041 41.6338 3.31281 41.688 3.31281 41.7445Z" fill="white"/>
<path d="M33.8904 32.5716C33.8374 32.5716 33.7865 32.5505 33.749 32.513C33.7115 32.4755 33.6904 32.4246 33.6904 32.3716V23.827C33.6904 23.7739 33.7115 23.723 33.749 23.6855C33.7865 23.648 33.8374 23.627 33.8904 23.627C33.9435 23.627 33.9943 23.648 34.0319 23.6855C34.0694 23.723 34.0904 23.7739 34.0904 23.827V32.3716C34.0904 32.4246 34.0694 32.4755 34.0319 32.513C33.9943 32.5505 33.9435 32.5716 33.8904 32.5716Z" fill="#371A45"/>
<path d="M33.08 32.2154C33.0326 32.2154 32.9868 32.1985 32.9506 32.1678C32.9145 32.1371 32.8905 32.0946 32.8828 32.0478L30.8284 19.5878C30.8198 19.5355 30.8323 19.4818 30.8632 19.4387C30.8942 19.3956 30.941 19.3665 30.9933 19.3579C31.0457 19.3493 31.0993 19.3618 31.1424 19.3927C31.1855 19.4237 31.2146 19.4705 31.2232 19.5228L33.2774 31.9828C33.286 32.0351 33.2735 32.0887 33.2426 32.1318C33.2117 32.1749 33.1649 32.204 33.1126 32.2126C33.1018 32.2145 33.0909 32.2155 33.08 32.2154Z" fill="#371A45"/>
<path d="M34.436 33.0924C34.4237 33.0925 34.4113 33.0913 34.3992 33.089C34.3471 33.0793 34.3009 33.0493 34.2709 33.0055C34.2409 32.9618 34.2295 32.908 34.2392 32.8558L37.0572 17.7358C37.0619 17.7099 37.0717 17.6851 37.0859 17.6629C37.1002 17.6408 37.1188 17.6216 37.1405 17.6067C37.1622 17.5917 37.1866 17.5812 37.2124 17.5757C37.2382 17.5702 37.2648 17.5698 37.2907 17.5747C37.3167 17.5795 37.3414 17.5894 37.3634 17.6039C37.3855 17.6183 37.4045 17.6369 37.4194 17.6587C37.4342 17.6805 37.4446 17.705 37.4499 17.7309C37.4552 17.7567 37.4554 17.7833 37.4504 17.8092L34.6324 32.9292C34.6238 32.975 34.5995 33.0164 34.5637 33.0462C34.5278 33.076 34.4826 33.0924 34.436 33.0924Z" fill="#371A45"/>
<path d="M17.8026 42.9066L17.7406 44.2066L17.7092 44.8694L17.165 56.2964C17.165 56.2964 16.388 56.215 15.3548 56.0222C15.1526 55.9844 14.9408 55.9422 14.723 55.8962C13.0998 55.5512 11.15 54.9572 10.495 54.0226C9.51497 52.6254 10.0676 46.4438 11.3708 44.1226C11.9678 43.0586 14.3768 42.8536 16.0708 42.8468C16.2602 42.8456 16.4408 42.8468 16.6086 42.8508C17.3166 42.8654 17.8026 42.9066 17.8026 42.9066Z" fill="white"/>
<g opacity="0.35">
<path opacity="0.35" d="M17.74 44.2074L17.7086 44.8702L17.2766 53.9434L17.1644 56.2972L17.1174 56.292L17.0872 56.2884L17.0588 56.285C17.0512 56.285 17.0436 56.2832 17.036 56.2826C17.0332 56.2826 17.0296 56.2826 17.0268 56.2814C17.0128 56.2798 16.9972 56.278 16.981 56.2756C16.9773 56.2755 16.9735 56.2751 16.9698 56.2744L16.9274 56.2692C16.9074 56.267 16.8862 56.264 16.8642 56.2612C16.8484 56.2588 16.8316 56.257 16.8148 56.2548L16.762 56.2478C16.7394 56.2448 16.7154 56.2414 16.6912 56.2384C16.6418 56.2316 16.5894 56.2246 16.5342 56.2164C16.4856 56.21 16.4342 56.2024 16.381 56.1944C16.3194 56.185 16.255 56.1758 16.1882 56.1654C15.9414 56.127 15.659 56.08 15.3542 56.023C15.2942 56.012 15.2342 56.0004 15.1742 55.9888L15.0446 55.9632C14.9396 55.9432 14.8316 55.9202 14.723 55.897C13.0992 55.552 11.15 54.958 10.4956 54.0234C9.68903 52.873 9.92003 48.4784 10.7556 45.6664C10.3712 48.1526 10.3892 50.8612 10.9972 51.7284C11.2972 52.157 11.914 52.5156 12.6532 52.812C12.9682 52.9382 13.2956 52.666 13.2386 52.332C13.2386 52.3294 13.2376 52.3266 13.2372 52.324C13.135 51.7108 13.1064 51.0184 13.1948 50.2176C13.384 48.5014 13.8998 46.0594 15.9842 44.2688C16.0326 44.226 16.8056 44.2144 17.74 44.2074Z" fill="#371A45"/>
</g>
<path d="M17.469 56.651L17.132 56.6158C16.9022 56.5918 11.4936 56.0066 10.232 54.2074C9.48899 53.1474 9.68059 50.2534 9.75719 49.3916C9.91239 47.6404 10.3444 45.2954 11.0906 43.9668C12.1078 42.1554 17.2464 42.538 17.829 42.5868L18.1364 42.613L17.469 56.651ZM16.174 43.1644C14.4218 43.1644 12.1572 43.3768 11.6498 44.2804C10.3248 46.6404 9.92339 52.6498 10.7572 53.8404C11.6036 55.0482 15.1782 55.7274 16.8618 55.9404L17.468 43.204C17.1088 43.18 16.661 43.1644 16.174 43.1644Z" fill="#371A45"/>
<path d="M11.08 49.4646L13.2976 49.8416C13.3939 49.8577 13.4821 49.9054 13.5483 49.9772C13.6144 50.049 13.6549 50.1407 13.6632 50.238C13.726 50.9708 13.7832 52.6706 13.0304 53.1594C12.4056 53.5654 11.4662 53.4228 10.9566 52.9024C10.3868 52.3204 10.4808 50.6674 10.5672 49.8528C10.5734 49.7928 10.5919 49.7347 10.6215 49.6821C10.6511 49.6296 10.6912 49.5837 10.7393 49.5473C10.7874 49.5109 10.8424 49.4848 10.9011 49.4705C10.9597 49.4563 11.0206 49.4543 11.08 49.4646Z" fill="white"/>
<g opacity="0.35">
<path opacity="0.35" d="M13.6636 50.2382C13.7266 50.9708 13.7836 52.6706 13.0306 53.1594C12.4056 53.5654 11.4666 53.4228 10.9568 52.9022C10.6066 52.544 10.5072 51.781 10.5028 51.0572C10.5698 51.4248 10.7004 51.7306 10.879 51.94C11.9022 53.14 12.8634 51.9284 12.8634 51.9284C12.8634 51.9284 12.9798 52.2552 13.0944 52.2838C13.5744 52.4038 13.6156 50.8728 13.619 50.0802C13.6439 50.1295 13.659 50.1831 13.6636 50.2382Z" fill="#371A45"/>
</g>
<path d="M12.188 53.7136C11.6514 53.7136 11.1044 53.5106 10.728 53.1264C10.108 52.4942 10.1258 50.9788 10.248 49.819C10.259 49.7156 10.291 49.6155 10.3422 49.525C10.3933 49.4344 10.4625 49.3553 10.5454 49.2925C10.6283 49.2297 10.7232 49.1845 10.8242 49.1598C10.9253 49.1351 11.0303 49.1314 11.1328 49.1488L13.3504 49.5258C13.5165 49.554 13.6686 49.6366 13.7828 49.7605C13.897 49.8844 13.9668 50.0427 13.9814 50.2106C14.0636 51.1706 14.0718 52.8642 13.2038 53.428C12.9086 53.62 12.5506 53.7136 12.188 53.7136ZM11.0058 49.7784C10.9796 49.7785 10.9541 49.7872 10.9332 49.803C10.92 49.813 10.9091 49.8255 10.901 49.8399C10.8929 49.8543 10.8879 49.8702 10.8862 49.8866C10.7392 51.2698 10.854 52.3396 11.1862 52.6784C11.6 53.1 12.38 53.2 12.8564 52.891C13.2732 52.6202 13.4602 51.6142 13.3446 50.2654C13.3423 50.2388 13.3313 50.2137 13.3132 50.1942C13.295 50.1746 13.2709 50.1616 13.2446 50.1572L11.0268 49.78C11.0199 49.7789 11.0128 49.7784 11.0058 49.7784Z" fill="#371A45"/>
<path d="M11.8214 53.183C11.8426 53.1762 11.8632 53.1678 11.8832 53.158C11.907 53.1464 11.9312 53.1342 11.955 53.1198C12.0038 53.0916 12.0506 53.06 12.095 53.0252C12.1876 52.9539 12.2717 52.8723 12.3458 52.782C12.5008 52.594 12.622 52.3806 12.704 52.1512C12.789 51.9186 12.8426 51.6712 12.884 51.4184C12.9216 51.167 12.955 50.9112 12.9258 50.6558C12.9882 50.9066 12.9884 51.1694 12.9836 51.4276C12.9756 51.6856 12.9544 51.9476 12.8962 52.2076C12.838 52.4732 12.7343 52.7267 12.5896 52.957C12.5151 53.0761 12.4274 53.1865 12.3282 53.286C12.2775 53.3373 12.2234 53.3851 12.1662 53.429C12.1378 53.4516 12.1062 53.473 12.0756 53.4936C12.0406 53.5169 12.0039 53.5375 11.9658 53.5554L11.9488 53.5632C11.9247 53.5744 11.8987 53.5807 11.8722 53.5819C11.8456 53.583 11.8192 53.5789 11.7942 53.5698C11.7693 53.5607 11.7464 53.5468 11.7268 53.5289C11.7073 53.5109 11.6915 53.4893 11.6803 53.4653C11.6691 53.4412 11.6627 53.4152 11.6616 53.3887C11.6604 53.3621 11.6645 53.3357 11.6736 53.3107C11.6827 53.2858 11.6966 53.2629 11.7145 53.2433C11.7325 53.2238 11.7541 53.208 11.7782 53.1968C11.792 53.1907 11.8065 53.186 11.8214 53.183Z" fill="#371A45"/>
<path d="M14.7304 44.43C14.4622 44.39 14.1886 44.3564 13.9172 44.3272C13.6458 44.298 13.3732 44.2734 13.102 44.2566C12.8308 44.2398 12.5598 44.2278 12.2924 44.2302C12.025 44.2326 11.7598 44.2438 11.514 44.2828C11.4724 44.2894 11.43 44.2877 11.3891 44.2779C11.3481 44.268 11.3095 44.2502 11.2755 44.2254C11.2415 44.2007 11.2126 44.1695 11.1907 44.1336C11.1687 44.0977 11.154 44.0578 11.1474 44.0162C11.1409 43.9746 11.1425 43.9322 11.1524 43.8913C11.1622 43.8503 11.18 43.8118 11.2048 43.7777C11.2295 43.7437 11.2608 43.7148 11.2967 43.6929C11.3326 43.6709 11.3724 43.6562 11.414 43.6496C11.424 43.648 11.434 43.6468 11.4444 43.6462C11.7476 43.6274 12.0342 43.6438 12.3184 43.6678C12.6026 43.6918 12.8806 43.7308 13.1584 43.7742C13.4362 43.8176 13.7094 43.8686 13.9824 43.924C14.2554 43.9794 14.526 44.039 14.7988 44.1062C14.8403 44.1161 14.8763 44.1417 14.8993 44.1775C14.9224 44.2133 14.9307 44.2567 14.9225 44.2985C14.9144 44.3403 14.8904 44.3774 14.8555 44.4019C14.8207 44.4265 14.7777 44.4366 14.7356 44.4302L14.7304 44.43Z" fill="#371A45"/>
<path d="M35.6522 6.56381C35.6427 6.58502 35.6353 6.60714 35.6302 6.62982L35.6522 6.56381Z" fill="#D66B09"/>
<path d="M36.0548 13.5785L36.9418 14.6671C36.9997 14.7379 37.0379 14.8227 37.0525 14.913C37.0672 15.0033 37.0579 15.0958 37.0254 15.1813C36.993 15.2669 36.9386 15.3423 36.8678 15.4002C36.7969 15.458 36.7121 15.4962 36.6218 15.5109L35.2354 15.7349C35.1451 15.7494 35.0525 15.74 34.967 15.7075C34.8814 15.6749 34.806 15.6204 34.7482 15.5495C34.6904 15.4785 34.6523 15.3936 34.6377 15.3033C34.6232 15.213 34.6327 15.1204 34.6652 15.0349L35.1652 13.7223C35.1979 13.6371 35.2524 13.5621 35.3232 13.5046C35.394 13.4471 35.4787 13.4092 35.5687 13.3947C35.6587 13.3801 35.751 13.3894 35.8363 13.4217C35.9216 13.4539 35.9969 13.508 36.0548 13.5785Z" fill="#E25A5A"/>
<g opacity="0.35">
<path opacity="0.35" d="M36.0954 13.5663L36.9892 14.6495C37.0474 14.7201 37.0861 14.8047 37.1012 14.895C37.1164 14.9852 37.1075 15.0779 37.0755 15.1636C37.0435 15.2493 36.9895 15.3251 36.9189 15.3833C36.8483 15.4416 36.7636 15.4802 36.6734 15.4953L35.2886 15.7277C35.1983 15.7429 35.1057 15.734 35.02 15.702C34.9342 15.67 34.8584 15.616 34.8002 15.5454C34.742 15.4748 34.7033 15.3902 34.6882 15.2999C34.6731 15.2097 34.682 15.117 34.714 15.0313L35.205 13.7157C35.237 13.63 35.2911 13.5543 35.3616 13.4961C35.4322 13.4379 35.5169 13.3992 35.6071 13.3841C35.6973 13.369 35.7899 13.3778 35.8756 13.4098C35.9613 13.4418 36.0371 13.4958 36.0954 13.5663Z" fill="#371A45"/>
</g>
<path d="M35.1476 16.0876C35.0075 16.0868 34.8697 16.0522 34.7459 15.9865C34.6221 15.9209 34.5161 15.8263 34.4368 15.7108C34.3576 15.5952 34.3075 15.4622 34.2908 15.3231C34.2742 15.184 34.2914 15.043 34.3412 14.912L34.8412 13.5994C34.8952 13.4571 34.9857 13.3316 35.1037 13.2354C35.2216 13.1392 35.3628 13.0758 35.513 13.0514C35.6632 13.0271 35.8172 13.0428 35.9595 13.0968C36.1017 13.1509 36.2272 13.2414 36.3234 13.3594L37.2106 14.448C37.3067 14.566 37.3701 14.7071 37.3944 14.8574C37.4187 15.0076 37.403 15.1616 37.3489 15.3038C37.2948 15.4461 37.2042 15.5715 37.0862 15.6677C36.9682 15.7638 36.827 15.8272 36.6768 15.8514L35.2906 16.0754C35.2433 16.0833 35.1955 16.0874 35.1476 16.0876ZM35.6516 13.7322C35.6419 13.7321 35.6322 13.7329 35.6226 13.7344C35.5921 13.739 35.5634 13.7517 35.5395 13.7712C35.5155 13.7907 35.4973 13.8163 35.4866 13.8452L34.9876 15.1578C34.9765 15.1866 34.9733 15.2178 34.9782 15.2482C34.9831 15.2787 34.9959 15.3073 35.0154 15.3312C35.0348 15.3551 35.0603 15.3734 35.0891 15.3844C35.118 15.3953 35.1492 15.3984 35.1796 15.3934L36.5658 15.1694C36.5962 15.1645 36.6248 15.1517 36.6487 15.1323C36.6726 15.1128 36.691 15.0874 36.7019 15.0587C36.7129 15.0299 36.7161 14.9987 36.7112 14.9683C36.7063 14.9379 36.6934 14.9093 36.674 14.8854L35.7868 13.7968C35.7707 13.7764 35.7501 13.76 35.7267 13.7488C35.7032 13.7376 35.6776 13.7319 35.6516 13.7322Z" fill="#371A45"/>
<path d="M27.5227 6.58109C28.3573 10.5077 33.2355 14.5611 35.7169 14.0339C38.1983 13.5067 41.0057 7.81889 40.1709 3.89249C39.3361 -0.0339087 35.8283 -2.61511 32.3355 -1.87251C28.8427 -1.12991 26.6879 2.65469 27.5227 6.58109Z" fill="#00D7ED"/>
<g opacity="0.7">
<path opacity="0.7" d="M27.5227 6.5811C27.5253 6.5927 27.5277 6.6043 27.5303 6.6161C27.1411 3.0007 29.2303 -0.315099 32.4757 -1.0039C35.9341 -1.7389 39.4079 0.784301 40.2855 4.6461C40.2617 4.39326 40.2234 4.14199 40.1709 3.8935C39.3361 -0.0330995 35.8283 -2.6143 32.3355 -1.8719C28.8427 -1.1295 26.6879 2.6545 27.5227 6.5811Z" fill="white"/>
</g>
<g opacity="0.35">
<path opacity="0.35" d="M27.5228 6.58128C28.3576 10.5079 33.2356 14.5613 35.7168 14.0341C38.198 13.5069 41.0058 7.81868 40.171 3.89268C40.1632 3.85628 40.1556 3.82068 40.1472 3.78528C40.0858 6.93288 37.4822 10.8285 35.2746 11.2977C32.7934 11.8253 28.0914 8.60008 27.3988 5.34248C27.3788 5.24668 27.3608 5.15028 27.3454 5.05488C27.3562 5.56814 27.4156 6.07922 27.5228 6.58128Z" fill="#371A45"/>
</g>
<path d="M35.2666 14.424C34.0134 14.424 32.3502 13.624 30.774 12.2372C28.9234 10.6084 27.5816 8.52077 27.1846 6.65297C26.3116 2.54637 28.59 -1.42983 32.2636 -2.21083C35.9372 -2.99183 39.6362 -0.286226 40.5092 3.81997C40.9064 5.68777 40.5292 8.13997 39.5018 10.3814C38.4982 12.5692 37.0756 14.098 35.7888 14.3716C35.6171 14.4072 35.442 14.4247 35.2666 14.424ZM33.54 -1.65383C33.1592 -1.65355 32.7795 -1.61333 32.407 -1.53383C29.107 -0.832027 27.067 2.77637 27.8606 6.50997C28.6094 10.0328 32.851 13.7366 35.238 13.7368C35.3747 13.7377 35.511 13.7242 35.6448 13.6968C37.9192 13.2132 40.6262 7.69857 39.8326 3.96537C39.1302 0.658774 36.4388 -1.65383 33.54 -1.65383Z" fill="#371A45"/>
<g opacity="0.5">
<path opacity="0.5" d="M32.876 0.0469223C31.1542 0.201122 30.054 0.906922 29.3082 2.08052C28.5172 3.32472 28.9398 4.34152 29.8966 4.18692C30.8534 4.03232 30.9966 2.48972 33.134 1.45212C34.515 0.781322 34.235 -0.0748777 32.876 0.0469223Z" fill="white"/>
</g>
<path d="M30.7288 13.1285C30.7191 13.1497 30.7117 13.1718 30.7066 13.1945L30.7288 13.1285Z" fill="#D66B09"/>
<path d="M22.6 13.1458C23.4346 17.0722 28.313 21.1258 30.7942 20.5984C33.2754 20.071 36.083 14.3834 35.2484 10.457C34.4138 6.53061 30.9048 3.94961 27.412 4.69201C23.9192 5.43441 21.7646 9.22001 22.6 13.1458Z" fill="#FF2222"/>
<g opacity="0.7">
<path opacity="0.7" d="M22.6 13.1457C22.6026 13.1575 22.6052 13.1691 22.6076 13.1807C22.2186 9.56548 24.3076 6.24948 27.5532 5.56068C31.0114 4.82568 34.4852 7.34868 35.363 11.2105C35.3391 10.9576 35.3007 10.7064 35.2482 10.4579C34.4134 6.53128 30.9056 3.95028 27.4128 4.69268C23.92 5.43508 21.7644 9.21988 22.6 13.1457Z" fill="white"/>
</g>
<g opacity="0.35">
<path opacity="0.35" d="M22.7 12.3458C23.5348 16.2724 28.4128 20.3258 30.894 19.7988C33.3752 19.2718 36.183 13.5832 35.3482 9.65717C35.3406 9.62097 35.3328 9.58537 35.3246 9.54977C35.263 12.6976 32.6594 16.593 30.4518 17.0624C27.9708 17.5898 23.2686 14.3652 22.5762 11.1072C22.5562 11.0114 22.5382 10.915 22.5226 10.8196C22.5334 11.3328 22.5928 11.8438 22.7 12.3458Z" fill="#371A45"/>
</g>
<path d="M30.343 20.9887C29.09 20.9887 27.4266 20.1887 25.8504 18.8019C24 17.1731 22.6582 15.0855 22.261 13.2177C21.8398 11.2359 22.1314 9.22448 23.0824 7.55388C24.041 5.87028 25.5532 4.73388 27.3402 4.35388C29.1272 3.97388 30.971 4.39728 32.5314 5.54528C34.0798 6.68528 35.1644 8.40328 35.5858 10.3853C35.9828 12.2531 35.6058 14.7053 34.5782 16.9467C33.5746 19.1343 32.152 20.6633 30.8654 20.9367C30.6936 20.9722 30.5185 20.9897 30.343 20.9887ZM28.6256 4.90988C28.2419 4.90981 27.8593 4.95003 27.484 5.02988C25.8926 5.36808 24.5428 6.38588 23.684 7.89568C22.8168 9.41868 22.552 11.2575 22.938 13.0737C23.6868 16.5963 27.9284 20.3001 30.3156 20.3005C30.4522 20.3013 30.5884 20.2879 30.7222 20.2605C32.9968 19.7769 35.7036 14.2623 34.91 10.5289C34.524 8.71288 33.534 7.14088 32.1222 6.10228C31.0554 5.31768 29.8454 4.90988 28.6256 4.90988Z" fill="#371A45"/>
<g opacity="0.5">
<path opacity="0.5" d="M27.9524 6.4117C26.2306 6.5659 25.1304 7.2729 24.3848 8.4455C23.5936 9.6895 24.0164 10.7055 24.9732 10.5517C25.93 10.3979 26.0732 8.8547 28.2104 7.8169C29.5916 7.1463 29.3114 6.2899 27.9524 6.4117Z" fill="white"/>
</g>
<path d="M39.7683 13.2516C39.7497 13.2655 39.7325 13.2813 39.7172 13.2988L39.7683 13.2516Z" fill="#D66B09"/>
<path d="M36.7468 19.595L37.001 20.975C37.0176 21.065 37.0102 21.1577 36.9795 21.2439C36.9489 21.3301 36.8961 21.4067 36.8264 21.4661C36.7568 21.5254 36.6727 21.5653 36.5827 21.5819C36.4928 21.5985 36.4 21.591 36.3138 21.5604L34.9906 21.09C34.9044 21.0593 34.8278 21.0065 34.7685 20.9369C34.7092 20.8673 34.6692 20.7832 34.6527 20.6933C34.6361 20.6033 34.6435 20.5105 34.6742 20.4243C34.7048 20.3381 34.7576 20.2615 34.8272 20.2022L35.8962 19.2914C35.9659 19.232 36.0501 19.1921 36.1401 19.1756C36.2302 19.1591 36.323 19.1666 36.4092 19.1974C36.4955 19.2282 36.5721 19.2811 36.6313 19.3509C36.6906 19.4207 36.7304 19.5049 36.7468 19.595Z" fill="#3BD8E0"/>
<g opacity="0.35">
<path opacity="0.35" d="M36.7882 19.6041L37.0508 20.9841C37.0679 21.0739 37.061 21.1667 37.0309 21.2531C37.0008 21.3395 36.9485 21.4164 36.8792 21.4762C36.8099 21.536 36.7261 21.5764 36.6362 21.5935C36.5464 21.6106 36.4536 21.6038 36.3672 21.5737L35.0412 21.1113C34.9548 21.0812 34.8778 21.0289 34.818 20.9596C34.7582 20.8903 34.7177 20.8065 34.7006 20.7166C34.6835 20.6267 34.6904 20.5339 34.7205 20.4475C34.7507 20.3611 34.803 20.2842 34.8724 20.2245L35.9358 19.3073C36.005 19.2475 36.0888 19.207 36.1786 19.1899C36.2685 19.1728 36.3612 19.1796 36.4476 19.2097C36.534 19.2398 36.6109 19.292 36.6707 19.3613C36.7305 19.4305 36.771 19.5142 36.7882 19.6041Z" fill="#371A45"/>
</g>
<path d="M36.4916 21.9384C36.3916 21.9382 36.2922 21.9209 36.198 21.8872L34.8748 21.4167C34.7315 21.3658 34.604 21.2779 34.5053 21.1621C34.4067 21.0462 34.3402 20.9065 34.3127 20.7568C34.2851 20.6071 34.2974 20.4529 34.3484 20.3095C34.3994 20.1661 34.4872 20.0386 34.603 19.94L35.6718 19.0294C35.7877 18.9306 35.9275 18.8642 36.0771 18.8366C36.2268 18.809 36.3811 18.8214 36.5245 18.8723C36.668 18.9233 36.7954 19.0112 36.8941 19.127C36.9928 19.2429 37.0593 19.3827 37.0868 19.5324L37.341 20.9134C37.3639 21.0382 37.3591 21.1665 37.327 21.2893C37.295 21.412 37.2364 21.5263 37.1554 21.624C37.0745 21.7217 36.9731 21.8005 36.8584 21.8548C36.7437 21.9091 36.6185 21.9376 36.4916 21.9384ZM36.2316 19.5134C36.1905 19.5133 36.1508 19.5283 36.12 19.5556L35.051 20.4662C35.0273 20.4861 35.0094 20.512 34.9989 20.5411C34.9884 20.5703 34.9859 20.6017 34.9914 20.6321C34.997 20.6626 35.0106 20.691 35.0307 20.7146C35.0508 20.7381 35.0768 20.7559 35.106 20.7662L36.4292 21.2365C36.4583 21.2468 36.4895 21.2493 36.5198 21.2437C36.5501 21.2381 36.5784 21.2247 36.6018 21.2047C36.6253 21.1847 36.643 21.1589 36.6534 21.1299C36.6637 21.1009 36.6662 21.0696 36.6606 21.0393L36.4064 19.6594C36.4011 19.6289 36.3878 19.6005 36.3678 19.5769C36.3478 19.5534 36.3218 19.5357 36.2926 19.5256C36.2732 19.5182 36.2528 19.5141 36.232 19.5134H36.2316Z" fill="#371A45"/>
<path d="M32.6325 9.35632C31.4757 13.2001 33.8025 19.1005 36.2325 19.8317C38.6625 20.5629 43.8587 16.9269 45.0157 13.0829C46.1727 9.23892 44.3377 5.28892 40.9185 4.25992C37.4993 3.23092 33.7895 5.51232 32.6325 9.35632Z" fill="#068FFF"/>
<g opacity="0.7">
<path opacity="0.7" d="M32.6324 9.35632L32.6222 9.39072C34.02 6.03392 37.4472 4.13192 40.6238 5.08812C44.0094 6.10812 45.8412 9.99012 44.753 13.7981C44.8537 13.5649 44.941 13.3262 45.0146 13.0831C46.1714 9.23992 44.3376 5.28892 40.9184 4.25992C37.4992 3.23092 33.7894 5.51232 32.6324 9.35632Z" fill="white"/>
</g>
<g opacity="0.35">
<path opacity="0.35" d="M32.6325 8.45645C31.4757 12.3004 33.8027 18.2002 36.2313 18.9318C38.6599 19.6634 43.8581 16.0266 45.0147 12.1832C45.0253 12.1478 45.0357 12.1128 45.0455 12.0776C43.4775 14.8078 39.3211 16.9706 37.1599 16.3202C34.7311 15.5892 32.1599 10.5002 33.1199 7.31085C33.1481 7.21705 33.1799 7.12405 33.2115 7.03305C32.9739 7.48815 32.7801 7.96475 32.6325 8.45645Z" fill="#371A45"/>
</g>
<path d="M36.9114 20.2684C36.6476 20.2714 36.3849 20.2358 36.1314 20.1628C34.8714 19.7828 33.5806 18.1428 32.7616 15.879C31.9228 13.5608 31.7504 11.0852 32.3016 9.25681C32.8856 7.31681 34.109 5.69341 35.7462 4.68641C37.3964 3.67141 39.2688 3.40241 41.0182 3.92901C42.7676 4.45561 44.18 5.71321 44.9962 7.47041C45.8056 9.21381 45.9298 11.2426 45.3458 13.1828C44.7954 15.0112 43.2858 16.9806 41.3058 18.4506C39.7366 19.6166 38.133 20.2684 36.9114 20.2684ZM32.9634 9.45601C31.8634 13.1108 34.1046 18.8306 36.3312 19.5006C38.5578 20.1706 43.5838 16.6382 44.6838 12.9834C45.2188 11.2056 45.107 9.35121 44.369 7.76161C43.6376 6.18581 42.3766 5.05981 40.8188 4.59101C39.261 4.12221 37.588 4.36521 36.1082 5.27521C34.6154 6.19341 33.4986 7.67821 32.9634 9.45521V9.45601Z" fill="#371A45"/>
<g opacity="0.5">
<path opacity="0.5" d="M40.565 6.02746C38.9814 5.33446 37.6768 5.42507 36.4588 6.09427C35.1668 6.80447 35.0484 7.89927 35.9616 8.22407C36.8748 8.54887 37.7426 7.26547 40.1152 7.38407C41.6486 7.46007 41.815 6.57446 40.565 6.02746Z" fill="white"/>
</g>
<path d="M33.4024 38.0566C32.7572 38.1876 32.2824 38.1028 32.2824 38.1028C32.2654 38.1334 32.2474 38.1646 32.2296 38.195C30.1134 41.9484 28.2806 44.1062 26.9442 45.3362C26.7376 45.5228 26.4954 45.6656 26.2322 45.7562C24.6122 46.3394 22.15 45.3662 22.15 45.3662L22.438 44.0388L23.138 40.804C23.138 40.804 23.5004 40.6128 24.121 40.164C24.1866 40.1156 24.2558 40.065 24.3272 40.0114C24.8718 39.6044 25.5772 39.0248 26.389 38.2382C27.675 36.9918 29.229 35.2254 30.8328 32.7996C30.8328 32.7996 31.4974 31.6126 33.0786 32.0144C33.9216 32.2288 34.36 32.5822 34.5014 33.0636C34.5014 33.0636 35.2968 32.9758 35.3192 34.1036C35.34 35.0616 34.9226 37.7486 33.4024 38.0566Z" fill="white"/>
<g opacity="0.35">
<path opacity="0.35" d="M32.2288 38.1966C30.1126 41.9492 28.2806 44.1062 26.9442 45.3366C25.4798 46.6836 22.15 45.3672 22.15 45.3672L22.5034 43.7362C23.6046 43.9892 24.9738 43.5986 26.071 43.1044C30.4162 41.1474 30.785 38.1934 31.0458 36.7162C31.08 37.1824 31.3248 37.7828 32.2288 38.1966Z" fill="#371A45"/>
</g>
<g opacity="0.35">
<path opacity="0.35" d="M32.7778 38.1284C32.7778 38.1284 31.434 38.2454 31.1178 36.1766C31.1178 36.1766 31.5248 36.5382 32.7008 36.7916C33.8684 37.0432 34.9454 36.1578 34.9454 36.1578C34.9454 36.1578 34.4882 38.1722 32.7778 38.1284Z" fill="#371A45"/>
</g>
<path d="M23.389 40.8648C23.3166 40.865 23.2463 40.8407 23.1895 40.7958C23.1327 40.7509 23.0928 40.688 23.0763 40.6175C23.0598 40.547 23.0678 40.473 23.0988 40.4076C23.1299 40.3422 23.1822 40.2892 23.2472 40.2574C23.281 40.2406 26.663 38.5216 30.5602 32.6334C30.8388 32.1472 31.7298 31.3424 33.1586 31.705C33.9662 31.91 34.4766 32.249 34.7186 32.7412C34.9718 33.2562 34.9186 33.894 34.548 34.7482C34.1866 35.5838 33.4374 36.0366 32.8036 35.8C32.221 35.5828 31.7836 34.7632 32.3036 33.1146C32.3292 33.0336 32.3859 32.966 32.4612 32.9269C32.5366 32.8877 32.6244 32.88 32.7054 32.9056C32.7864 32.9311 32.8539 32.9878 32.8931 33.0632C32.9323 33.1385 32.94 33.2264 32.9144 33.3074C32.5544 34.445 32.7208 35.086 33.0268 35.2C33.2868 35.2974 33.7172 35.0546 33.9598 34.4938C34.2452 33.8338 34.3052 33.3538 34.1432 33.0238C33.989 32.7102 33.6152 32.4818 33.0002 32.3258C31.6722 31.9886 31.1174 32.9474 31.1122 32.9574L31.0998 32.9774C27.0922 39.0362 23.6728 40.7614 23.5292 40.8318C23.4856 40.8533 23.4377 40.8646 23.389 40.8648Z" fill="#371A45"/>
<path d="M24.6088 47.2379C24.5308 47.2384 24.4553 47.2104 24.3965 47.1592C24.3377 47.1079 24.2996 47.037 24.2894 46.9597C24.2792 46.8824 24.2976 46.804 24.3412 46.7393C24.3847 46.6746 24.4503 46.628 24.5258 46.6083C24.5546 46.6001 27.6892 45.6297 32.003 37.9463L32.1144 37.7479L32.3384 37.7879C32.3414 37.7879 32.768 37.8589 33.3384 37.7433C34.641 37.4789 35.0184 34.9523 35.0006 34.1113C34.9944 33.8141 34.9258 33.5969 34.8016 33.4835C34.7274 33.4168 34.6305 33.381 34.5308 33.3835C34.4891 33.3881 34.4469 33.3844 34.4067 33.3726C34.3664 33.3609 34.3289 33.3413 34.2963 33.3149C34.2637 33.2885 34.2366 33.256 34.2167 33.2191C34.1967 33.1822 34.1842 33.1418 34.18 33.1001C34.1712 33.0153 34.1964 32.9305 34.25 32.8642C34.3036 32.7979 34.3812 32.7555 34.466 32.7463C34.6016 32.7361 34.7379 32.753 34.8669 32.7959C34.996 32.8388 35.1152 32.9069 35.2178 32.9963C35.4882 33.2335 35.6304 33.6041 35.6404 34.0977C35.6644 35.2931 35.15 38.0285 33.4654 38.3701C33.1341 38.4378 32.7954 38.4622 32.4578 38.4427C28.0326 46.2513 24.8272 47.1899 24.692 47.2263C24.6649 47.2338 24.6369 47.2377 24.6088 47.2379Z" fill="#371A45"/>
<path d="M32.2826 38.4232C32.2678 38.4232 32.2529 38.4222 32.2382 38.4202C31.6732 38.342 31.2622 38.0914 31.0162 37.6752C30.6222 37.0084 30.6918 35.9672 31.2232 34.5806C31.7396 33.2332 32.4154 33.1824 32.5432 33.186L32.526 33.826C32.5337 33.8271 32.5414 33.8271 32.549 33.826C32.5454 33.826 32.176 33.886 31.8216 34.8102C31.3764 35.9714 31.2864 36.8734 31.568 37.3502C31.7114 37.593 31.9594 37.7358 32.3264 37.7866C32.4074 37.797 32.4813 37.8379 32.5331 37.9009C32.5849 37.9639 32.6106 38.0444 32.6051 38.1258C32.5995 38.2072 32.5631 38.2834 32.5032 38.3388C32.4434 38.3943 32.3646 38.4247 32.283 38.424L32.2826 38.4232Z" fill="#371A45"/>
<path d="M26.2462 54.7432C25.9152 56.4432 25.139 60.4246 22.7996 62.7126C22.7996 62.7126 22.9834 65.7688 21.7154 66.8686C20.85 67.6194 18.3304 67.0842 17.797 65.3698C17.337 63.8914 18.0098 61.6122 18.3892 60.9312C19.2382 59.4096 19.8454 57.4808 19.8402 56.6112L18.8082 56.562C18.1802 58.1976 16.6082 60.6204 15.3704 61.724C15.3704 61.724 15.3104 64.4668 13.5504 65.5732C12.2744 66.3762 9.8068 65.9162 9.324 63.7844C8.9862 62.2932 9.8872 60.1934 10.4022 59.3882C11.2176 58.115 12.7088 55.117 13.3034 52.8742C13.3434 52.7202 13.3808 52.5692 13.4128 52.4226C13.5468 51.8094 13.6792 51.1844 13.808 50.569C13.9254 50.005 14.0408 49.449 14.1502 48.9156C14.462 47.3992 14.7328 46.0716 14.9166 45.3016C14.9166 45.3016 14.9992 44.7516 15.1406 44.0052C15.2508 43.4264 15.3966 42.7292 15.5684 42.0788C15.8624 40.9648 16.2314 39.9908 16.6222 39.9908H23.1382C23.5156 39.9908 23.8408 40.0548 24.1212 40.165C24.7012 40.3904 25.0916 40.8094 25.352 41.2566C25.8252 42.0654 25.8766 42.9636 25.8766 42.9636C25.9688 43.7516 26.1036 44.7026 26.2316 45.757C26.555 48.42 26.8318 51.7422 26.2462 54.7432Z" fill="white"/>
<g opacity="0.35">
<path opacity="0.35" d="M14.572 50.6574C14.5534 50.746 14.5348 50.8344 14.5154 50.923C14.265 50.8372 14.0272 50.7181 13.8086 50.5688C13.81 50.5628 13.8108 50.557 13.8122 50.551L14.572 50.6574Z" fill="#371A45"/>
</g>
<path d="M15.021 45.3262C14.7274 47.7494 14.2644 50.142 13.7396 52.5294C13.6022 53.146 13.4086 53.7374 13.195 54.318C12.9814 54.8986 12.7468 55.4688 12.4982 56.0318C12.2496 56.5948 11.9856 57.1504 11.7088 57.6998C11.432 58.2492 11.1416 58.7918 10.8186 59.3248L10.5826 59.709L10.4772 59.898L10.3772 60.0928C10.2478 60.3556 10.1322 60.627 10.0278 60.902C9.92339 61.177 9.83699 61.4582 9.76079 61.7402C9.68854 62.0206 9.63462 62.3055 9.59939 62.593C9.57179 62.8768 9.56079 63.1608 9.59119 63.433C9.62519 63.701 9.69119 63.9694 9.80459 64.213C9.91669 64.4563 10.0699 64.6784 10.2574 64.8698C10.4475 65.0609 10.6684 65.2188 10.9108 65.337C11.4057 65.5777 11.9601 65.6688 12.506 65.599C12.771 65.5663 13.0282 65.4875 13.266 65.3662C13.3236 65.3352 13.3796 65.3011 13.4336 65.2642L13.5178 65.2074L13.5978 65.145C13.7049 65.0606 13.8059 64.9686 13.8998 64.8698C14.0881 64.6645 14.2515 64.4376 14.3866 64.194C14.5234 63.9434 14.6378 63.6813 14.7284 63.4106C14.8205 63.136 14.8935 62.8553 14.9466 62.5706C14.974 62.4276 14.9958 62.2836 15.0138 62.1394C15.0318 61.9952 15.0448 61.8454 15.0496 61.716L15.0548 61.576L15.1566 61.4836C15.521 61.1538 15.8566 60.7716 16.174 60.375C16.4914 59.9784 16.7886 59.5606 17.0702 59.1334C17.3518 58.7062 17.6156 58.2668 17.8594 57.8186C18.1032 57.3704 18.3266 56.912 18.5078 56.4464L18.592 56.2302L18.822 56.2412L19.8548 56.2902L20.1654 56.305L20.1598 56.6084C20.1514 57.0472 20.069 57.4324 19.974 57.817C19.879 58.2016 19.7604 58.573 19.6302 58.941C19.3687 59.6775 19.0486 60.3919 18.673 61.0774C18.5176 61.3704 18.393 61.7272 18.2906 62.0774C18.1876 62.431 18.1074 62.791 18.0506 63.155C17.9924 63.5145 17.9632 63.8781 17.9632 64.2424C17.9658 64.601 18.0032 64.9572 18.1032 65.2792C18.2063 65.5926 18.3857 65.8754 18.6254 66.1022C18.8672 66.3344 19.1654 66.517 19.4854 66.6486C19.8052 66.7805 20.1452 66.857 20.4908 66.8748C20.6572 66.8835 20.824 66.8735 20.9882 66.845C21.147 66.8168 21.2952 66.765 21.4114 66.6922C21.4399 66.675 21.4671 66.6557 21.4926 66.6344C21.519 66.6144 21.5488 66.582 21.577 66.5568C21.6342 66.5001 21.6871 66.4392 21.7352 66.3746C21.8363 66.2394 21.9234 66.0943 21.9952 65.9416C22.1412 65.627 22.2454 65.2816 22.3182 64.9248C22.3909 64.5646 22.4394 64.2 22.4634 63.8334C22.4895 63.4663 22.4949 63.098 22.4796 62.7304L22.473 62.583L22.5754 62.483C23.1618 61.9068 23.6458 61.2212 24.0492 60.4894C24.4526 59.7576 24.778 58.9756 25.0492 58.1754C25.3186 57.3706 25.5425 56.5514 25.72 55.7216C25.7656 55.5136 25.8093 55.3048 25.851 55.0952C25.8926 54.8858 25.9362 54.6738 25.9688 54.467C26.0014 54.2602 26.042 54.0516 26.0716 53.8426L26.1484 53.213C26.2315 52.3683 26.2712 51.5199 26.2674 50.6712C26.2626 49.8202 26.2118 48.9682 26.1344 48.118L25.8876 45.5632C25.8502 45.1356 25.8138 44.7072 25.792 44.2762C25.7702 43.8452 25.7552 43.4118 25.772 42.9762C25.7729 42.9504 25.7829 42.9259 25.8003 42.9069C25.8177 42.888 25.8413 42.8759 25.8669 42.8727C25.8924 42.8696 25.9182 42.8757 25.9396 42.89C25.9611 42.9042 25.9767 42.9256 25.9838 42.9504V42.9514C26.1026 43.3696 26.1986 43.7896 26.2872 44.2114C26.3758 44.6332 26.4516 45.0584 26.52 45.4848C26.6542 46.3378 26.7516 47.1988 26.807 48.0648C26.8624 48.9308 26.9012 49.7978 26.907 50.668C26.9109 51.5403 26.87 52.4124 26.7844 53.2806L26.7044 53.9322C26.674 54.149 26.633 54.3648 26.5978 54.5812C26.5626 54.7976 26.5198 55.0088 26.4778 55.2212C26.4358 55.4336 26.3912 55.6458 26.3446 55.8582C26.1623 56.7115 25.9322 57.5539 25.6554 58.3814C25.3754 59.21 25.0354 60.0244 24.6092 60.7994C24.183 61.5744 23.6654 62.3096 23.0226 62.9414L23.1184 62.6934C23.1355 63.0886 23.1299 63.4845 23.1016 63.8792C23.0758 64.2746 23.0234 64.6678 22.9448 65.0562C22.8648 65.4474 22.7492 65.8382 22.5736 66.2162C22.4829 66.4092 22.3728 66.5925 22.245 66.7632C22.1788 66.8515 22.1062 66.9348 22.0278 67.0126C21.9856 67.0514 21.9502 67.0894 21.9016 67.1284C21.8538 67.1681 21.8031 67.2042 21.75 67.2366C21.5521 67.3568 21.333 67.4383 21.1046 67.4766C20.8924 67.5141 20.6767 67.5275 20.4616 67.5166C20.0429 67.4955 19.6308 67.4031 19.2432 67.2434C18.8578 67.0844 18.4924 66.8634 18.1832 66.566C17.874 66.2686 17.6262 65.8932 17.4938 65.4738C17.367 65.0652 17.327 64.6538 17.3232 64.2498C17.323 63.8503 17.3548 63.4515 17.4184 63.0572C17.4796 62.6666 17.5658 62.2803 17.6764 61.9008C17.7892 61.5198 17.9126 61.15 18.1144 60.7674C18.4728 60.1128 18.7782 59.4306 19.0278 58.7274C19.1522 58.3758 19.2636 58.0196 19.354 57.662C19.4444 57.3044 19.514 56.9386 19.5204 56.6128L19.8252 56.931L18.7926 56.8818L19.1068 56.6768C18.9104 57.1812 18.6758 57.659 18.4232 58.1254C18.1706 58.5918 17.8976 59.0454 17.6062 59.4864C17.3148 59.9274 17.0062 60.3588 16.6758 60.775C16.3454 61.1912 15.9912 61.5936 15.5838 61.9626L15.6908 61.7308C15.6844 61.9058 15.6696 62.057 15.6508 62.2178C15.632 62.3786 15.6072 62.5334 15.5774 62.6898C15.519 63.004 15.4388 63.3138 15.3374 63.617C15.2344 63.9244 15.1043 64.222 14.9486 64.5064C14.7879 64.7962 14.5932 65.0659 14.3686 65.3096C14.1358 65.5576 13.8659 65.7681 13.5686 65.9334C13.2631 66.0906 12.9323 66.1928 12.5914 66.2352C11.9201 66.3216 11.2382 66.2095 10.63 65.9126C10.3236 65.7628 10.0444 65.5629 9.80398 65.321C9.56378 65.0764 9.36757 64.7922 9.22398 64.481C9.08138 64.1706 8.99878 63.841 8.95658 63.5058C8.91958 63.172 8.93319 62.8442 8.96479 62.5222C9.0033 62.2046 9.06269 61.8899 9.14259 61.5802C9.22318 61.2746 9.3191 60.9733 9.42999 60.6774C9.54179 60.3828 9.66519 60.093 9.80519 59.8092L9.91378 59.5972L10.0308 59.387L10.273 58.9924C10.5818 58.4832 10.866 57.9492 11.1386 57.4124C11.4112 56.8756 11.6674 56.327 11.9064 55.7724C12.1454 55.2178 12.371 54.6596 12.5698 54.0934C12.7707 53.5331 12.9384 52.9615 13.072 52.3816C13.3264 51.1946 13.5812 50.0026 13.852 48.8146C13.9884 48.2208 14.1296 47.6274 14.2874 47.0372C14.4452 46.447 14.6098 45.8572 14.8156 45.2772C14.8245 45.2523 14.8422 45.2316 14.8654 45.2189C14.8886 45.2063 14.9156 45.2027 14.9413 45.2087C14.967 45.2147 14.9896 45.23 15.0047 45.2517C15.0199 45.2733 15.0265 45.2997 15.0234 45.326L15.021 45.3262Z" fill="#371A45"/>
<path d="M30.732 48.3816C30.0338 48.3816 29.5424 48.1256 29.532 48.12C29.4853 48.0948 29.4506 48.0521 29.4354 48.0013C29.4202 47.9504 29.4258 47.8957 29.451 47.849C29.4762 47.8023 29.5189 47.7676 29.5697 47.7524C29.6206 47.7372 29.6753 47.7428 29.722 47.768C29.802 47.8104 31.7078 48.7858 33.254 46.306C34.1352 44.893 33.6268 43.4494 33.0886 41.921C32.6526 40.6824 32.2016 39.401 32.4968 38.086C32.5095 38.0354 32.5415 37.9918 32.5859 37.9644C32.6303 37.9371 32.6836 37.9281 32.7345 37.9395C32.7854 37.9509 32.8298 37.9818 32.8583 38.0254C32.8868 38.0691 32.8971 38.1222 32.887 38.1734C32.617 39.377 33.0486 40.6028 33.466 41.7882C34.0118 43.3386 34.5762 44.9416 33.5934 46.5178C32.6496 48.0308 31.5492 48.3816 30.732 48.3816Z" fill="#371A45"/>
<path d="M27.6456 50.582C27.6891 49.9647 27.224 49.4291 26.6067 49.3856C25.9895 49.3421 25.4538 49.8073 25.4103 50.4245C25.3669 51.0418 25.832 51.5774 26.4492 51.6209C27.0665 51.6644 27.6021 51.1992 27.6456 50.582Z" fill="white"/>
<g opacity="0.35">
<path opacity="0.35" d="M27.6502 50.5229C27.6481 50.67 27.617 50.8152 27.5588 50.9503C27.5006 51.0854 27.4163 51.2076 27.3108 51.3102C27.2053 51.4127 27.0806 51.4934 26.9439 51.5477C26.8072 51.602 26.6612 51.6289 26.5141 51.6268C26.367 51.6247 26.2218 51.5936 26.0867 51.5354C25.9517 51.4772 25.8294 51.3929 25.7269 51.2874C25.6244 51.1819 25.5436 51.0572 25.4893 50.9205C25.435 50.7838 25.4081 50.6378 25.4102 50.4907C25.4122 50.325 25.4514 50.1619 25.5248 50.0133C25.6127 50.2065 25.7537 50.3707 25.9313 50.4868C26.1089 50.6029 26.3159 50.6662 26.5281 50.6693C26.7403 50.6723 26.9489 50.615 27.1298 50.5041C27.3107 50.3931 27.4564 50.233 27.5498 50.0425C27.6189 50.1931 27.6532 50.3573 27.6502 50.5229Z" fill="#371A45"/>
</g>
<path d="M26.5308 51.8774H26.5108C26.1419 51.8747 25.7891 51.726 25.5297 51.4637C25.2702 51.2015 25.1253 50.8471 25.1266 50.4782C25.1279 50.1093 25.2754 49.756 25.5367 49.4956C25.798 49.2352 26.1519 49.089 26.5208 49.089C26.8897 49.089 27.2435 49.2352 27.5049 49.4956C27.7662 49.756 27.9137 50.1093 27.915 50.4782C27.9163 50.8471 27.7714 51.2015 27.5119 51.4637C27.2525 51.726 26.8997 51.8747 26.5308 51.8774ZM26.5308 49.6374C26.3044 49.6424 26.089 49.7355 25.9301 49.8968C25.7713 50.0582 25.6816 50.275 25.68 50.5014C25.6784 50.7278 25.7651 50.9459 25.9216 51.1095C26.0782 51.273 26.2923 51.3691 26.5186 51.3774H26.5312C26.7589 51.3744 26.9764 51.2822 27.1369 51.1207C27.2975 50.9592 27.3883 50.7412 27.39 50.5134C27.3916 50.2857 27.3039 50.0664 27.1456 49.9026C26.9874 49.7388 26.7712 49.6436 26.5436 49.6374H26.5308Z" fill="#371A45"/>
<g opacity="0.35">
<path opacity="0.35" d="M25.6 53.1748C25.6127 53.4767 25.5054 53.7714 25.3016 53.9944C25.0978 54.2174 24.814 54.3508 24.5122 54.3652L19.2216 54.6034C18.9196 54.6163 18.6249 54.5091 18.4018 54.3053C18.1787 54.1014 18.0454 53.8175 18.031 53.5156L18.0162 53.177C16.0162 53.5528 14.6818 53.3504 13.9794 53.1554C13.3052 55.3058 11.9978 57.9058 11.253 59.068C10.738 59.8732 9.83678 61.973 10.1746 63.4642C10.5638 65.1842 12.2448 65.8156 13.55 65.5738C12.273 66.376 9.80778 65.9154 9.32498 63.7842C8.98718 62.293 9.88818 60.1932 10.4032 59.388C11.2186 58.1148 12.7098 55.1168 13.3044 52.874C13.3444 52.72 13.3818 52.569 13.4138 52.4224C13.5478 51.8092 13.6802 51.1842 13.809 50.5688C14.0276 50.7181 14.2653 50.8372 14.5158 50.923C15.7726 51.371 17.4588 51.2474 17.9268 51.202L17.904 50.7C17.8908 50.398 17.9979 50.103 18.2019 49.8798C18.4058 49.6567 18.69 49.5234 18.992 49.5094L24.2818 49.2714C24.5837 49.2585 24.8786 49.3656 25.1017 49.5695C25.3248 49.7734 25.4581 50.0573 25.4724 50.3592L25.5724 52.5892L25.6 53.1748Z" fill="#371A45"/>
</g>
<path d="M24.91 53.4723L19.62 53.7105C19.3181 53.7233 19.0234 53.616 18.8003 53.4122C18.5772 53.2084 18.4439 52.9245 18.4294 52.6227L18.3028 49.8071C18.2918 49.5446 18.3714 49.2864 18.5282 49.0757C18.6851 48.865 18.9097 48.7147 19.1642 48.6501C19.2384 48.631 19.3143 48.6198 19.3908 48.6167L24.68 48.3783C24.982 48.3653 25.2769 48.4725 25.5 48.6764C25.7231 48.8803 25.8564 49.1643 25.8706 49.4663L25.9706 51.6961L25.9972 52.2817C26.01 52.5835 25.9028 52.8781 25.6991 53.1011C25.4954 53.3242 25.2118 53.4576 24.91 53.4723Z" fill="white"/>
<g opacity="0.35">
<path opacity="0.35" d="M24.91 53.4721L19.62 53.7103C19.3181 53.7231 19.0234 53.6159 18.8003 53.4121C18.5772 53.2082 18.4439 52.9244 18.4294 52.6225L18.3028 49.8069C18.2918 49.5445 18.3714 49.2862 18.5282 49.0756C18.6851 48.8649 18.9097 48.7146 19.1642 48.6499C19.4736 48.8359 19.6702 48.9549 19.6702 48.9549C20.0302 51.2033 20.7238 52.3011 23.5322 52.2205C24.7446 52.1855 25.5008 51.9663 25.9722 51.6959L25.9988 52.2815C26.0116 52.5836 25.9042 52.8784 25.7002 53.1015C25.4961 53.3246 25.212 53.4579 24.91 53.4721Z" fill="#371A45"/>
</g>
<path d="M19.5672 53.962C19.2097 53.9608 18.8663 53.8224 18.608 53.5752C18.3497 53.3281 18.1962 52.9911 18.1792 52.634L18.0522 49.8182C18.0361 49.4499 18.1667 49.0903 18.4153 48.8182C18.664 48.546 19.0104 48.3836 19.3786 48.3666L24.669 48.1284C25.0372 48.1127 25.3965 48.2434 25.6685 48.4919C25.9406 48.7404 26.1031 49.0865 26.1206 49.4546L26.2474 52.2704C26.2631 52.6385 26.1324 52.9979 25.8838 53.2699C25.6353 53.542 25.2891 53.7045 24.921 53.722L19.6308 53.96C19.6096 53.9614 19.5882 53.962 19.5672 53.962ZM24.732 48.6268C24.7184 48.6268 24.705 48.6268 24.692 48.6268L19.4016 48.8652C19.1658 48.8761 18.944 48.9801 18.7848 49.1544C18.6255 49.3287 18.5419 49.5589 18.5522 49.7948L18.6792 52.6106C18.6908 52.8462 18.7949 53.0677 18.9691 53.2268C19.1432 53.3859 19.3732 53.4697 19.6088 53.46L24.899 53.2216C25.1346 53.2101 25.3561 53.1059 25.5152 52.9317C25.6743 52.7576 25.7582 52.5277 25.7484 52.292L25.6216 49.4762C25.6103 49.2476 25.5118 49.032 25.3464 48.8738C25.181 48.7157 24.9613 48.6269 24.7324 48.6258L24.732 48.6268Z" fill="#371A45"/>
<path d="M25.1214 53.4418C25.0522 53.4594 24.9814 53.4695 24.91 53.4722L19.62 53.7104C19.4012 53.7198 19.1844 53.666 18.9953 53.5556C18.8062 53.4452 18.6528 53.2827 18.5534 53.0876C18.4792 52.9434 18.4372 52.7847 18.4302 52.6226L18.3734 51.3718L18.3548 50.959L18.3028 49.807C18.2902 49.5051 18.3975 49.2105 18.6013 48.9875C18.8052 48.7644 19.089 48.6311 19.3908 48.6166L20.534 48.5654C20.2758 48.6268 20.0469 48.7761 19.8867 48.9878C19.7264 49.1994 19.6448 49.4602 19.6558 49.7254L19.724 51.2454L19.7826 52.5408C19.7972 52.8426 19.9305 53.1264 20.1536 53.3302C20.3766 53.534 20.6712 53.6414 20.973 53.6288L25.1214 53.4418Z" fill="white"/>
<g opacity="0.35">
<path opacity="0.35" d="M25.1214 53.4418C25.0522 53.4593 24.9813 53.4695 24.91 53.4722L19.62 53.7104C19.3181 53.7233 19.0234 53.6161 18.8004 53.4122C18.5774 53.2083 18.4443 52.9244 18.4302 52.6226L18.354 50.96C18.5002 51.248 18.7556 51.598 19.1398 51.6186C19.3506 51.6304 19.5504 51.4702 19.7232 51.2472L19.7818 52.5426C19.7964 52.8443 19.9297 53.1281 20.1527 53.3319C20.3758 53.5358 20.6703 53.6431 20.9722 53.6306L25.1214 53.4418Z" fill="#371A45"/>
</g>
<path d="M19.5664 53.962C19.209 53.9607 18.8658 53.8221 18.6077 53.575C18.3495 53.3278 18.1962 52.991 18.1794 52.634L18.0526 49.8182C18.0369 49.4501 18.1676 49.0907 18.4161 48.8187C18.6646 48.5467 19.0108 48.3841 19.3788 48.3666L20.5216 48.3152L20.5904 48.8082C20.3885 48.8559 20.2096 48.9725 20.0845 49.138C19.9593 49.3034 19.8958 49.5073 19.9048 49.7146L20.0318 52.5304C20.0432 52.7658 20.1471 52.9872 20.3209 53.1463C20.4948 53.3055 20.7245 53.3894 20.96 53.38L25.1098 53.1926L25.181 53.685C25.0953 53.7062 25.0076 53.7186 24.9194 53.7222L19.6304 53.96C19.609 53.9614 19.5876 53.962 19.5664 53.962ZM19.6728 48.8538L19.4014 48.866C19.1658 48.8775 18.9443 48.9817 18.7852 49.1558C18.6261 49.3299 18.5423 49.5599 18.552 49.7956L18.6788 52.6118C18.6902 52.8473 18.7942 53.0688 18.9683 53.2279C19.1423 53.387 19.3722 53.4708 19.6078 53.461L19.914 53.4472C19.6823 53.2054 19.5466 52.8874 19.5324 52.5528L19.4054 49.737C19.391 49.4207 19.4854 49.109 19.6728 48.8538Z" fill="#371A45"/>
<path d="M22.0055 51.0624C22.0095 51.1666 21.8961 52.013 21.8961 52.013L21.3029 52.0364C20.8943 52.0524 20.5465 51.6424 20.5259 51.1206C20.5053 50.5988 20.8199 50.1628 21.2285 50.1466L21.8219 50.1234C21.8219 50.1234 21.9987 50.8928 22.0055 51.0624Z" fill="#22A7F0"/>
<g opacity="0.35">
<path opacity="0.35" d="M22.1056 51.0624C22.1096 51.1666 21.9962 52.013 21.9962 52.013L21.403 52.0364C20.9944 52.0524 20.6466 51.6424 20.626 51.1206C20.6054 50.5988 20.92 50.1628 21.3286 50.1466L21.922 50.1234C21.922 50.1234 22.0988 50.8928 22.1056 51.0624Z" fill="#371A45"/>
</g>
<path d="M21.38 52.237C20.8752 52.237 20.4504 51.7472 20.426 51.1286C20.4012 50.4974 20.8024 49.9672 21.3206 49.9468L21.7348 49.9306C21.8322 49.9261 21.9281 49.9563 22.0054 50.0158C22.0826 50.0754 22.1362 50.1604 22.1566 50.2558C22.251 50.6836 22.3012 50.9524 22.3052 51.0546C22.3052 51.0824 22.3092 51.1564 22.218 51.8586C22.2056 51.9559 22.159 52.0457 22.0866 52.1118C22.0142 52.178 21.9206 52.2162 21.8226 52.2198L21.4106 52.236C21.4 52.2368 21.3904 52.237 21.38 52.237ZM21.751 50.3302L21.337 50.3464C21.0442 50.358 20.8104 50.709 20.8262 51.1128C20.842 51.5098 21.0942 51.837 21.3808 51.837H21.3956L21.8076 51.8208C21.8111 51.8207 21.8145 51.8194 21.8171 51.817C21.8198 51.8147 21.8215 51.8115 21.822 51.808C21.8842 51.3292 21.906 51.1114 21.906 51.0696C21.9034 51.0106 21.866 50.7896 21.766 50.3424C21.7654 50.339 21.7635 50.3359 21.7608 50.3336C21.7581 50.3314 21.7547 50.3302 21.7512 50.3302H21.751Z" fill="#371A45"/>
<path d="M21.995 52.0141C22.4036 51.9981 22.7183 51.562 22.6978 51.0402C22.6772 50.5183 22.3294 50.1083 21.9208 50.1244C21.5122 50.1404 21.1976 50.5765 21.2181 51.0983C21.2386 51.6202 21.5865 52.0302 21.995 52.0141Z" fill="#22A7F0"/>
<g opacity="0.7">
<path opacity="0.7" d="M22.6986 51.04C22.7013 51.1027 22.6989 51.1655 22.6914 51.2278C22.5914 50.8304 22.2914 50.5478 21.9514 50.5608C21.5932 50.5744 21.3076 50.9108 21.2554 51.3454C21.2348 51.2644 21.2228 51.1815 21.2198 51.098C21.1998 50.5762 21.5144 50.1402 21.9228 50.1238C22.3312 50.1074 22.6788 50.5174 22.6986 51.04Z" fill="white"/>
</g>
<g opacity="0.35">
<path opacity="0.35" d="M22.6986 51.0401C22.7186 51.5617 22.4048 51.9979 21.9964 52.0141C21.588 52.0303 21.2398 51.6197 21.2192 51.0981C21.2156 51.0138 21.2211 50.9294 21.2358 50.8463C21.3522 51.2097 21.6374 51.4627 21.9594 51.4499C22.2994 51.4365 22.5744 51.1311 22.645 50.7283C22.6767 50.8294 22.6947 50.9342 22.6986 51.0401Z" fill="#371A45"/>
</g>
<path d="M21.9736 52.2137C21.4686 52.2137 21.0438 51.7239 21.0196 51.1051C20.9948 50.4741 21.396 49.9441 21.914 49.9237C21.9244 49.9237 21.934 49.9237 21.9448 49.9237C22.4496 49.9237 22.8744 50.4135 22.8988 51.0323C22.9236 51.6633 22.5222 52.1923 22.0042 52.2137C21.994 52.2135 21.9838 52.2137 21.9736 52.2137ZM21.9446 50.3229H21.9298C21.6372 50.3345 21.4034 50.6853 21.4192 51.0891C21.435 51.4929 21.692 51.8253 21.9884 51.8129C22.281 51.8013 22.515 51.4505 22.4992 51.0467C22.4836 50.6501 22.2312 50.3229 21.9446 50.3229Z" fill="#371A45"/>
<path d="M23.4642 53.726C23.4119 53.726 23.3616 53.7055 23.3242 53.6689C23.2868 53.6323 23.2653 53.5825 23.2642 53.5302L23.2338 52.1046C23.2293 51.9088 23.2735 51.7149 23.3624 51.5403C23.4514 51.3658 23.5823 51.2161 23.7434 51.1046C23.8525 51.0295 23.9406 50.9279 23.9996 50.8093C24.0586 50.6908 24.0864 50.5591 24.0804 50.4268L23.997 48.42C23.9959 48.3938 24 48.3675 24.009 48.3429C24.0181 48.3182 24.0319 48.2955 24.0497 48.2762C24.0856 48.2371 24.1356 48.2139 24.1887 48.2117C24.2417 48.2095 24.2935 48.2285 24.3325 48.2644C24.3519 48.2822 24.3675 48.3037 24.3786 48.3275C24.3896 48.3514 24.3959 48.3772 24.397 48.4034L24.4804 50.4118C24.4893 50.6115 24.4473 50.8101 24.3583 50.9891C24.2693 51.168 24.1363 51.3214 23.9718 51.4348C23.8651 51.5087 23.7784 51.6078 23.7195 51.7234C23.6606 51.8389 23.6313 51.9673 23.6342 52.097L23.6646 53.5226C23.6652 53.5489 23.6606 53.575 23.651 53.5995C23.6415 53.624 23.6273 53.6464 23.6091 53.6653C23.591 53.6843 23.5692 53.6995 23.5452 53.7101C23.5211 53.7207 23.4952 53.7265 23.469 53.727L23.4642 53.726Z" fill="#371A45"/>
<path d="M14.0702 49.5724C14.0702 49.5724 13.1612 49.7488 13.1272 50.8172C13.1026 51.5852 13.783 52.0436 13.783 52.0436C13.783 52.0436 15.317 52.893 18.5274 52.2622C18.5274 52.2622 19.4874 51.0318 18.4492 50.2958C18.4492 50.2958 15.4038 50.6786 14.0702 49.5724Z" fill="white"/>
<g opacity="0.35">
<path opacity="0.35" d="M18.5276 52.2624C15.3168 52.8926 13.7832 52.0436 13.7832 52.0436C13.7832 52.0436 13.1032 51.5852 13.127 50.8174C13.129 50.7562 13.1342 50.6951 13.1426 50.6344C13.2655 50.8831 13.4465 51.0985 13.6702 51.2624C13.6702 51.2624 15.0084 52.0024 17.8 51.5868C18.2876 51.514 18.6898 51.1532 18.7898 50.6702C18.7898 50.6658 18.7916 50.6612 18.7926 50.6566C19.22 51.3748 18.5276 52.2624 18.5276 52.2624Z" fill="#371A45"/>
</g>
<path d="M16.28 52.746C14.562 52.746 13.7096 52.2888 13.6616 52.2624L13.643 52.251C13.6106 52.229 12.8484 51.705 12.8768 50.8092C12.9088 49.8064 13.64 49.4012 14.0222 49.327L14.1384 49.3044L14.2294 49.38C15.4652 50.405 18.388 50.0512 18.4176 50.0478L18.514 50.0356L18.594 50.0918C18.9224 50.3246 19.1156 50.624 19.168 50.9818C19.274 51.7018 18.748 52.3872 18.7248 52.416L18.6674 52.4896L18.5758 52.5076C17.6874 52.682 16.9232 52.746 16.28 52.746ZM13.9136 51.83C14.0468 51.8962 15.5136 52.5772 18.3808 52.0358C18.4898 51.8708 18.732 51.4508 18.6726 51.0526C18.6438 50.8592 18.5468 50.6958 18.377 50.5554C17.8304 50.6122 15.3256 50.8108 14.017 49.848C13.8142 49.9232 13.3982 50.1582 13.377 50.8252C13.3588 51.3962 13.84 51.7748 13.914 51.83H13.9136Z" fill="#371A45"/>
<path d="M31.0256 40.4642C31.0073 40.4642 30.9891 40.4622 30.9712 40.4582C27.5546 39.7 27.815 36.4718 27.818 36.44C27.8248 36.3743 27.8571 36.3138 27.9079 36.2716C27.9588 36.2294 28.0241 36.2088 28.09 36.2142C28.156 36.2204 28.2168 36.2524 28.2591 36.3034C28.3015 36.3544 28.3219 36.4201 28.3158 36.486C28.3056 36.6014 28.0998 39.3094 31.0796 39.971C31.1396 39.9844 31.1926 40.0195 31.2284 40.0695C31.2643 40.1196 31.2804 40.181 31.2737 40.2422C31.267 40.3034 31.238 40.3599 31.1922 40.401C31.1464 40.4421 31.0871 40.4649 31.0256 40.465V40.4642Z" fill="#371A45"/>
<path d="M34.3228 23.8866L35.0248 25.1026C35.0706 25.1819 35.0947 25.2718 35.0947 25.3633C35.0948 25.4548 35.0707 25.5447 35.0249 25.624C34.9792 25.7033 34.9134 25.7691 34.8341 25.8148C34.7548 25.8606 34.6649 25.8846 34.5734 25.8846H33.1692C33.0777 25.8846 32.9878 25.8605 32.9086 25.8147C32.8294 25.7689 32.7636 25.7031 32.7178 25.6239C32.6721 25.5446 32.648 25.4548 32.648 25.3633C32.648 25.2718 32.6721 25.1819 32.7178 25.1026L33.42 23.8866C33.4657 23.8074 33.5315 23.7416 33.6108 23.6958C33.69 23.6501 33.7799 23.626 33.8714 23.626C33.9629 23.626 34.0528 23.6501 34.132 23.6958C34.2113 23.7416 34.2771 23.8074 34.3228 23.8866Z" fill="#FFE000"/>
<g opacity="0.35">
<path opacity="0.35" d="M32.6632 25.2359C32.644 25.3129 32.6425 25.3932 32.6589 25.4708C32.6753 25.5483 32.7092 25.6212 32.758 25.6837C32.8068 25.7462 32.8691 25.7968 32.9404 25.8316C33.0117 25.8664 33.0899 25.8845 33.1692 25.8845C33.0899 25.8845 33.0117 25.8664 32.9404 25.8316C32.8691 25.7968 32.8068 25.7462 32.758 25.6837C32.7092 25.6212 32.6753 25.5483 32.6589 25.4708C32.6425 25.3932 32.644 25.3129 32.6632 25.2359Z" fill="#371A45"/>
</g>
<g opacity="0.35">
<path opacity="0.35" d="M33.1692 25.2846H34.5734C34.6574 25.2849 34.7403 25.2645 34.8146 25.2254C34.889 25.1862 34.9526 25.1294 35 25.06L34.3222 23.886C34.2765 23.8068 34.2107 23.741 34.1314 23.6952C34.0522 23.6495 33.9623 23.6254 33.8708 23.6254C33.7793 23.6254 33.6894 23.6495 33.6102 23.6952C33.5309 23.741 33.4651 23.8068 33.4194 23.886L32.7414 25.06C32.7889 25.1296 32.8527 25.1865 32.9273 25.2256C33.0019 25.2648 33.085 25.285 33.1692 25.2846Z" fill="#371A45"/>
</g>
<g opacity="0.35">
<path opacity="0.35" d="M34.6468 25.8801C34.7473 25.866 34.8415 25.8228 34.9177 25.7559C34.994 25.6889 35.049 25.6011 35.076 25.5033C35.049 25.6011 34.994 25.6889 34.9177 25.7559C34.8415 25.8228 34.7473 25.866 34.6468 25.8801Z" fill="#371A45"/>
</g>
<g opacity="0.35">
<path opacity="0.35" d="M35.076 25.5029C35.0883 25.4601 35.095 25.4159 35.096 25.3715C35.095 25.4159 35.0883 25.4601 35.076 25.5029Z" fill="#371A45"/>
</g>
<path d="M34.5734 26.2303H33.1692C33.0171 26.2302 32.8677 26.1901 32.736 26.114C32.6042 26.038 32.4948 25.9286 32.4188 25.7969C32.3427 25.6651 32.3026 25.5157 32.3026 25.3636C32.3025 25.2115 32.3424 25.062 32.4184 24.9303L33.1206 23.7141C33.196 23.5817 33.3052 23.4717 33.4371 23.3956C33.5691 23.3194 33.7189 23.2797 33.8712 23.2807C34.0236 23.2797 34.1734 23.3194 34.3054 23.3956C34.4373 23.4718 34.5466 23.5817 34.622 23.7141L35.3242 24.9303C35.4002 25.0621 35.4402 25.2115 35.4401 25.3637C35.44 25.5158 35.3999 25.6652 35.3238 25.7969C35.2477 25.9287 35.1383 26.0381 35.0065 26.1141C34.8748 26.1902 34.7253 26.2302 34.5732 26.2303H34.5734ZM33.8714 23.9717C33.8405 23.9713 33.8101 23.9793 33.7834 23.9947C33.7566 24.0102 33.7346 24.0325 33.7194 24.0595L33.0172 25.2757C33.0019 25.3023 32.9938 25.3326 32.9938 25.3634C32.9938 25.3942 33.0019 25.4244 33.0173 25.4511C33.0327 25.4777 33.0549 25.4999 33.0815 25.5153C33.1082 25.5307 33.1384 25.5388 33.1692 25.5389H34.5734C34.6043 25.5389 34.6345 25.5308 34.6613 25.5154C34.688 25.5 34.7102 25.4778 34.7256 25.4511C34.741 25.4244 34.7491 25.3941 34.7491 25.3633C34.7491 25.3325 34.741 25.3022 34.7256 25.2755L34.0234 24.0595C34.0082 24.0326 33.9861 24.0102 33.9594 23.9948C33.9327 23.9793 33.9023 23.9714 33.8714 23.9717Z" fill="#371A45"/>
<path d="M27.0164 15.6179C27.214 19.6271 31.383 24.4071 33.9164 24.2823C36.4498 24.1575 40.129 18.9907 39.9314 14.9823C39.7338 10.9739 36.6826 7.86426 33.1162 8.04006C29.5498 8.21586 26.8188 11.6085 27.0164 15.6179Z" fill="#FFE000"/>
<g opacity="0.7">
<path opacity="0.7" d="M27.0164 15.6179L27.0182 15.6537C27.211 12.0227 29.8028 9.08245 33.1162 8.91925C36.6476 8.74545 39.6742 11.7904 39.9246 15.7427C39.9413 15.4893 39.9436 15.2351 39.9316 14.9814C39.7338 10.972 36.6826 7.86445 33.1162 8.04005C29.5498 8.21565 26.8186 11.6084 27.0164 15.6179Z" fill="white"/>
</g>
<g opacity="0.35">
<path opacity="0.35" d="M27.0164 14.7177C27.214 18.7271 31.383 23.5067 33.9164 23.3825C36.4498 23.2583 40.1292 18.0903 39.9316 14.0813C39.9296 14.0443 39.9278 14.0079 39.9252 13.9715C39.3624 17.0691 36.1706 20.4995 33.9164 20.6115C31.383 20.7363 27.2554 16.8029 27.0916 13.4761C27.0866 13.3783 27.0848 13.2803 27.0848 13.1837C27.0135 13.6918 26.9906 14.2054 27.0164 14.7177Z" fill="#371A45"/>
</g>
<path d="M33.8238 24.6302C32.5226 24.6302 30.8112 23.5268 29.3238 21.72C27.7568 19.8168 26.7652 17.542 26.6712 15.6348C26.5712 13.611 27.1804 11.6718 28.3856 10.1748C29.6006 8.66563 31.2746 7.78503 33.0994 7.69483C36.848 7.51003 40.0704 10.771 40.2772 14.9642C40.3712 16.8716 39.608 19.2328 38.2358 21.2808C36.8958 23.2808 35.2476 24.5628 33.9338 24.6276C33.8974 24.6292 33.86 24.6302 33.8238 24.6302ZM33.4038 8.37863C33.314 8.37863 33.2238 8.38083 33.134 8.38543C31.5092 8.46543 30.014 9.25483 28.9248 10.6082C27.826 11.9732 27.271 13.7464 27.3624 15.6008C27.4494 17.3648 28.3824 19.488 29.8582 21.2808C31.2308 22.9478 32.822 23.9904 33.9004 23.9372C36.223 23.8226 39.775 18.8106 39.5872 14.9984C39.4034 11.288 36.6566 8.37863 33.403 8.37863H33.4038Z" fill="#371A45"/>
<g opacity="0.7">
<path opacity="0.7" d="M33.3752 10.0238C31.651 9.90139 30.4522 10.4238 29.5288 11.4624C28.5488 12.5642 28.8044 13.6356 29.7738 13.6356C30.7432 13.6356 31.1306 12.1356 33.4058 11.4522C34.8762 11.0104 34.7364 10.12 33.3752 10.0238Z" fill="white"/>
</g>
<path d="M16.3542 41.7832L15.7104 44.2886L14.56 48.7666C14.4328 48.8134 14.2966 48.8618 14.15 48.9154C13.37 49.2012 12.31 49.6498 10.91 51.0228C10.4196 51.5042 9.87116 51.8628 9.01176 52.389C7.16436 53.52 3.89997 51.68 6.50217 48.152C8.74937 45.1064 11.3514 43.709 13.5422 42.8286C14.2736 42.5354 14.959 42.2988 15.5698 42.0786C15.8474 41.9782 16.11 41.88 16.3542 41.7832Z" fill="white"/>
<g opacity="0.35">
<path opacity="0.35" d="M14.56 48.7666C13.7542 49.0666 12.5718 49.3932 10.911 51.0228C10.4206 51.5042 9.87223 51.8628 9.01283 52.389C7.48063 53.325 4.97743 52.2238 5.64343 49.812C6.23323 53.9636 9.82343 51.2674 11.0834 49.9192C13.0918 47.7712 15.4518 47.1272 15.6794 47.538C15.907 47.9488 14.56 48.7666 14.56 48.7666Z" fill="#371A45"/>
</g>
<path d="M7.80003 53.04C7.06263 53.04 6.32643 52.7518 5.82703 52.2072C4.88543 51.1798 5.04143 49.593 6.24463 47.9624C9.14323 44.0334 12.5682 42.8108 15.069 41.918C15.489 41.7684 15.8838 41.627 16.2348 41.4868C16.2739 41.4712 16.3156 41.4634 16.3576 41.4639C16.3996 41.4644 16.4412 41.4732 16.4798 41.4897C16.5184 41.5063 16.5534 41.5303 16.5828 41.5604C16.6122 41.5905 16.6353 41.626 16.6509 41.6651C16.6665 41.7041 16.6743 41.7458 16.6738 41.7879C16.6733 41.8299 16.6645 41.8714 16.648 41.91C16.6314 41.9487 16.6074 41.9837 16.5773 42.013C16.5472 42.0424 16.5117 42.0656 16.4726 42.0812C16.1106 42.226 15.7092 42.3694 15.2844 42.5212C12.8612 43.3864 9.54263 44.571 6.76003 48.3428C5.73783 49.7282 5.56983 50.979 6.30003 51.7746C6.92543 52.4568 8.04443 52.607 8.84723 52.116C9.73703 51.5718 10.2394 51.236 10.6872 50.795C12.2538 49.2576 13.4458 48.8292 14.2344 48.5456C14.3088 48.5186 14.3806 48.493 14.4494 48.4674C14.4888 48.4527 14.5307 48.446 14.5727 48.4476C14.6147 48.4491 14.656 48.459 14.6942 48.4765C14.7324 48.494 14.7668 48.5188 14.7954 48.5496C14.824 48.5804 14.8462 48.6166 14.8608 48.656C14.8755 48.6954 14.8822 48.7373 14.8806 48.7793C14.8791 48.8213 14.8692 48.8625 14.8517 48.9007C14.8342 48.9389 14.8094 48.9733 14.7786 49.0019C14.7478 49.0305 14.7116 49.0527 14.6722 49.0674C14.6014 49.0936 14.5278 49.1202 14.451 49.1474C13.671 49.4274 12.6024 49.812 11.1358 51.2512C10.6426 51.7352 10.1124 52.0912 9.18023 52.6616C8.76363 52.9166 8.28163 53.04 7.80003 53.04Z" fill="#371A45"/>
<path d="M27.9128 34.6986C27.8885 34.7052 27.863 34.707 27.838 34.7037C27.813 34.7005 27.7889 34.6924 27.767 34.6798C27.7451 34.6673 27.7259 34.6505 27.7105 34.6306C27.6951 34.6106 27.6838 34.5878 27.6772 34.5634L26.2302 29.2234C26.2236 29.1991 26.2219 29.1737 26.2251 29.1486C26.2283 29.1236 26.2364 29.0995 26.249 29.0776C26.2615 29.0557 26.2783 29.0365 26.2983 29.0211C26.3182 29.0057 26.3411 28.9944 26.3654 28.9878C26.6208 28.9186 26.8874 28.9004 27.1499 28.9343C27.4123 28.9681 27.6656 29.0533 27.8951 29.185C28.1247 29.3166 28.326 29.4923 28.4877 29.7018C28.6494 29.9113 28.7682 30.1506 28.8374 30.406L29.331 32.226C29.4003 32.4815 29.4185 32.7481 29.3847 33.0106C29.3509 33.2732 29.2658 33.5265 29.1341 33.7561C29.0024 33.9857 28.8267 34.1871 28.6172 34.3488C28.4076 34.5106 28.1683 34.6294 27.9128 34.6986Z" fill="white"/>
<path d="M27.862 34.7734C27.8049 34.7733 27.7495 34.7544 27.7043 34.7197C27.659 34.685 27.6265 34.6363 27.6116 34.5813L26.1646 29.2412C26.1555 29.2082 26.153 29.1737 26.1573 29.1397C26.1616 29.1058 26.1726 29.0729 26.1896 29.0432C26.2066 29.0135 26.2293 28.9874 26.2564 28.9665C26.2835 28.9455 26.3145 28.9302 26.3476 28.9212C26.8808 28.7774 27.4494 28.851 27.9284 29.1258C28.4075 29.4006 28.758 29.8543 28.903 30.3872L29.3964 32.2084C29.468 32.4725 29.4868 32.748 29.4519 33.0194C29.417 33.2907 29.329 33.5525 29.1928 33.7898C29.0567 34.0271 28.8752 34.2353 28.6586 34.4024C28.442 34.5695 28.1946 34.6923 27.9306 34.7638C27.9082 34.77 27.8852 34.7732 27.862 34.7734ZM26.8918 28.9848C26.72 28.9849 26.549 29.0078 26.3832 29.0528C26.3674 29.0571 26.3527 29.0644 26.3397 29.0743C26.3268 29.0842 26.3159 29.0966 26.3078 29.1108C26.2997 29.1249 26.2944 29.1405 26.2923 29.1567C26.2902 29.1729 26.2913 29.1893 26.2956 29.205L27.7426 34.545C27.7468 34.5608 27.7541 34.5756 27.7641 34.5885C27.7741 34.6014 27.7865 34.6123 27.8006 34.6204C27.8148 34.6285 27.8304 34.6338 27.8466 34.6358C27.8628 34.6379 27.8792 34.6368 27.895 34.6325C28.1418 34.5656 28.3731 34.4508 28.5756 34.2945C28.778 34.1383 28.9477 33.9437 29.075 33.7219C29.2022 33.5001 29.2845 33.2554 29.3172 33.0017C29.3499 32.7481 29.3323 32.4905 29.2654 32.2436L28.772 30.4224C28.6594 30.0099 28.4145 29.6458 28.0747 29.386C27.735 29.1263 27.3194 28.9853 26.8918 28.9848Z" fill="#371A45"/>
<g opacity="0.35">
<path opacity="0.35" d="M29.1 31.3727L29.3316 32.2267C29.4009 32.4822 29.4191 32.749 29.3853 33.0116C29.3515 33.2742 29.2663 33.5276 29.1346 33.7573C29.0028 33.987 28.8271 34.1884 28.6175 34.3502C28.4078 34.512 28.1684 34.6309 27.9128 34.7001C27.8636 34.7134 27.8111 34.7066 27.7669 34.6812C27.7227 34.6558 27.6904 34.6139 27.677 34.5647L27.2918 33.1447C27.3152 33.1734 27.3464 33.1947 27.3816 33.2061C27.4168 33.2175 27.4546 33.2186 27.4904 33.2091L27.617 33.1745C28.0207 33.0653 28.3803 32.8331 28.6461 32.5103C28.9118 32.1874 29.0705 31.7898 29.1 31.3727Z" fill="#371A45"/>
</g>
<path d="M27.8616 35.0257C27.7492 35.0254 27.6401 34.9882 27.5509 34.9198C27.4617 34.8514 27.3975 34.7556 27.368 34.6471L25.921 29.3071C25.8854 29.1761 25.9034 29.0363 25.9709 28.9184C26.0384 28.8006 26.15 28.7144 26.281 28.6787C26.8788 28.5176 27.5162 28.6001 28.0533 28.9081C28.5904 29.2162 28.9833 29.7247 29.146 30.3221L29.6394 32.1433C29.8014 32.7412 29.7192 33.379 29.411 33.9162C29.1027 34.4535 28.5937 34.8464 27.9958 35.0083C27.952 35.02 27.9069 35.0259 27.8616 35.0257ZM26.574 29.2673L27.9514 34.3513C28.3544 34.2088 28.6886 33.9193 28.8871 33.5407C29.0856 33.1622 29.1337 32.7227 29.0218 32.3101L28.5284 30.4889C28.4162 30.0767 28.1526 29.722 27.7903 29.4956C27.4281 29.2692 26.9937 29.1877 26.574 29.2673Z" fill="#371A45"/>
<path d="M8.73718 33.7637C8.76153 33.757 8.78694 33.7553 8.81196 33.7585C8.83698 33.7618 8.86112 33.7699 8.883 33.7824C8.90488 33.795 8.92407 33.8117 8.93947 33.8317C8.95488 33.8517 8.9662 33.8745 8.97278 33.8989L10.42 39.2401C10.4266 39.2644 10.4283 39.2898 10.4251 39.3148C10.4219 39.3398 10.4138 39.364 10.4012 39.3859C10.3886 39.4077 10.3719 39.4269 10.3519 39.4423C10.332 39.4578 10.3091 39.4691 10.2848 39.4757C9.76891 39.6154 9.21865 39.5445 8.75504 39.2786C8.29142 39.0127 7.95241 38.5735 7.81258 38.0576L7.31998 36.2359C7.18014 35.7201 7.25089 35.1699 7.51665 34.7063C7.78242 34.2427 8.22145 33.9036 8.73718 33.7637Z" fill="white"/>
<path d="M9.75794 39.6131C9.30038 39.6127 8.85567 39.4618 8.49226 39.1838C8.12885 38.9058 7.8669 38.516 7.74673 38.0745L7.25334 36.2535C7.10951 35.7202 7.18315 35.1516 7.4581 34.6724C7.73306 34.1933 8.18687 33.8428 8.71994 33.6979C8.78648 33.68 8.85744 33.6891 8.91722 33.7234C8.977 33.7578 9.02071 33.8144 9.03873 33.8809L10.4859 39.2209C10.495 39.254 10.4975 39.2885 10.4932 39.3225C10.4889 39.3564 10.478 39.3892 10.4609 39.419C10.4439 39.4487 10.4212 39.4748 10.3941 39.4957C10.367 39.5167 10.336 39.532 10.3029 39.5409C10.1253 39.589 9.942 39.6133 9.75794 39.6131ZM8.75474 33.8289C8.25658 33.9646 7.83256 34.2923 7.57566 34.7401C7.31876 35.188 7.24996 35.7194 7.38433 36.2179L7.87794 38.0399C8.01304 38.5384 8.3406 38.9628 8.78858 39.2197C9.23656 39.4767 9.76826 39.5452 10.2667 39.4101C10.2985 39.4015 10.3256 39.3807 10.342 39.3521C10.3584 39.3236 10.3628 39.2897 10.3543 39.2579L8.90714 33.9179C8.90287 33.9022 8.89555 33.8874 8.88558 33.8745C8.87561 33.8616 8.86319 33.8508 8.84904 33.8427C8.83489 33.8346 8.81928 33.8293 8.80309 33.8272C8.78691 33.8251 8.77048 33.8263 8.75474 33.8305V33.8289Z" fill="#371A45"/>
<g opacity="0.35">
<path opacity="0.35" d="M10.0188 37.7576L10.42 39.24C10.4333 39.2892 10.4265 39.3417 10.4011 39.3859C10.3757 39.4301 10.3338 39.4625 10.2846 39.4758C10.0292 39.5451 9.76265 39.5634 9.50018 39.5297C9.23771 39.4959 8.98446 39.4108 8.75491 39.2791C8.52536 39.1474 8.324 38.9718 8.16235 38.7623C8.0007 38.5528 7.88192 38.3135 7.8128 38.058L7.6048 37.2906C7.85146 37.5893 8.17896 37.8107 8.54812 37.9282C8.91728 38.0456 9.31246 38.0543 9.6864 37.953L9.8812 37.9C9.91482 37.8908 9.94534 37.8728 9.96956 37.8477C9.99377 37.8227 10.0108 37.7915 10.0188 37.7576Z" fill="#371A45"/>
</g>
<path d="M9.75822 39.8656C9.2452 39.8649 8.74661 39.6956 8.33919 39.3838C7.93178 39.0721 7.63813 38.635 7.50342 38.14L7.00982 36.32C6.84864 35.7221 6.93115 35.0847 7.23927 34.5476C7.54739 34.0105 8.05595 33.6175 8.65342 33.4548C8.78449 33.4194 8.92424 33.4374 9.04204 33.5049C9.15984 33.5724 9.24607 33.6838 9.28182 33.8148L10.729 39.1548C10.7646 39.2859 10.7466 39.4257 10.6791 39.5435C10.6116 39.6614 10.5001 39.7476 10.369 39.7832C10.17 39.8376 9.96458 39.8653 9.75822 39.8656ZM8.69822 34.1108C8.29567 34.2539 7.96188 34.5435 7.76346 34.9219C7.56505 35.3002 7.51662 35.7395 7.62782 36.152L8.12122 37.9732C8.23307 38.3857 8.49657 38.7407 8.859 38.9672C9.22143 39.1937 9.65603 39.275 10.0758 39.1948L8.69822 34.1108Z" fill="#371A45"/>
<g opacity="0.35">
<path opacity="0.35" d="M26.3898 38.24C26.2468 39.4256 25.8273 40.5611 25.1652 41.555C24.503 42.5488 23.6166 43.3733 22.5775 43.9619C21.5384 44.5505 20.3756 44.8868 19.1827 44.9437C17.9898 45.0006 16.8002 44.7766 15.7098 44.2896C15.5155 44.2032 15.3258 44.1087 15.1406 44.006C14.5584 43.6851 14.0205 43.2897 13.5406 42.8296C14.272 42.5364 14.9574 42.2998 15.5682 42.0796C15.8622 40.9656 16.2312 39.9916 16.622 39.9916H23.138C23.5154 39.9916 23.8406 40.0556 24.121 40.1658C24.1866 40.1174 24.2558 40.0668 24.3272 40.0132C24.8726 39.6052 25.578 39.0256 26.3898 38.24Z" fill="#371A45"/>
</g>
<path d="M18.326 43.6599C23.5335 43.6599 27.755 39.4384 27.755 34.2309C27.755 29.0234 23.5335 24.8019 18.326 24.8019C13.1185 24.8019 8.89697 29.0234 8.89697 34.2309C8.89697 39.4384 13.1185 43.6599 18.326 43.6599Z" fill="white"/>
<path d="M18.3063 43.7306C16.4385 43.7306 14.6129 43.178 13.0281 42.1128C10.9227 40.6976 9.49452 38.5474 9.00652 36.058C8.51852 33.5686 9.02892 31.038 10.4441 28.933C11.8593 26.828 14.0093 25.3994 16.4987 24.9114C18.9881 24.4234 21.5187 24.9338 23.6239 26.3488C25.7291 27.7638 27.1575 29.9142 27.6455 32.4036C28.6531 37.5424 25.2921 42.5436 20.1533 43.5504C19.5449 43.6699 18.9264 43.7303 18.3063 43.7306ZM18.3463 24.8668C17.7353 24.8671 17.1258 24.9266 16.5263 25.0446C14.0727 25.5258 11.9531 26.9336 10.5581 29.0088C9.16312 31.084 8.66012 33.5782 9.14132 36.032C9.62252 38.4858 11.0301 40.6052 13.1053 42C15.1805 43.3948 17.6749 43.8984 20.1285 43.417C25.1937 42.424 28.5067 37.495 27.5135 32.4298C27.0325 29.976 25.6247 27.8564 23.5495 26.4616C21.9861 25.4118 20.1863 24.8668 18.3455 24.8668H18.3463Z" fill="#371A45"/>
<g opacity="0.35">
<path opacity="0.35" d="M27.24 31.1532C27.3826 31.566 27.4962 31.9882 27.58 32.4168C28.5812 37.527 25.251 42.4816 20.14 43.484C15.029 44.4864 10.075 41.155 9.07261 36.045C9.04381 35.8982 9.01841 35.7504 8.99701 35.605C10.5038 39.9868 15.0486 42.697 19.7242 41.7804C24.6874 40.8062 27.971 36.1048 27.24 31.1532Z" fill="#371A45"/>
</g>
<path d="M18.3058 43.983C16.3884 43.983 14.5144 43.4156 12.8876 42.323C10.7262 40.8701 9.26 38.663 8.759 36.1074C8.258 33.5518 8.782 30.9544 10.2348 28.793C11.6876 26.6316 13.8948 25.1656 16.4504 24.6646C19.006 24.1636 21.6034 24.6876 23.7646 26.1402C25.9258 27.5928 27.3922 29.8002 27.8932 32.3558C28.9274 37.6312 25.4772 42.7644 20.2018 43.7987C19.5772 43.9212 18.9423 43.9829 18.3058 43.983ZM18.3458 25.1192C17.7511 25.1194 17.1579 25.1774 16.5744 25.2922C14.1868 25.7602 12.1244 27.1302 10.767 29.1494C9.4096 31.1686 8.9202 33.5958 9.3884 35.9834C9.8566 38.371 11.2262 40.4334 13.2456 41.7906C15.265 43.1478 17.6918 43.6376 20.0794 43.1694C25.0082 42.2032 28.2318 37.407 27.2654 32.4782C26.7974 30.0906 25.4276 28.0282 23.4082 26.671C21.8876 25.6494 20.1362 25.12 18.345 25.12L18.3458 25.1192Z" fill="#371A45"/>
<path d="M27.596 32.66C27.9782 34.465 27.7472 36.265 27.0388 37.8638C26.5076 39.0624 23.8046 41.5358 19.9988 42.3778C16.4694 43.1578 12.8528 41.9546 11.8814 41.0742C10.5856 39.8998 9.6448 38.3482 9.2614 36.543C8.2498 31.7662 11.9344 28.9168 16.9974 27.8444C22.0604 26.772 26.5842 27.8834 27.596 32.66Z" fill="#371A45"/>
<g opacity="0.5">
<path opacity="0.5" d="M24.5298 34.5092C25.1973 34.4895 25.7165 33.7268 25.6893 32.8057C25.6621 31.8845 25.0989 31.1537 24.4314 31.1734C23.7639 31.1931 23.2447 31.9558 23.2719 32.877C23.2991 33.7981 23.8623 34.5289 24.5298 34.5092Z" fill="white"/>
</g>
<g opacity="0.5">
<path opacity="0.5" d="M24.3655 36.4504C24.4116 36.03 24.1564 35.6571 23.7956 35.6176C23.4348 35.5781 23.105 35.8869 23.059 36.3073C23.0129 36.7277 23.2681 37.1006 23.6289 37.1401C23.9897 37.1796 24.3195 36.8708 24.3655 36.4504Z" fill="white"/>
</g>
<g opacity="0.35">
<path opacity="0.35" d="M24.8692 28.5814C26.2164 29.4134 27.1892 30.7414 27.5958 32.6598C27.9782 34.4654 27.7468 36.2652 27.039 37.864C26.5078 39.0626 23.8044 41.536 19.999 42.3784C18.6552 42.676 17.299 42.6852 16.0802 42.534C20.737 41.3988 24.0262 38.369 24.6848 36.8824C25.5848 34.8532 25.877 32.5686 25.3916 30.2782C25.2705 29.6976 25.0957 29.1296 24.8692 28.5814Z" fill="#111A28"/>
</g>
<path d="M9.08949 32.6228C9.0396 32.6226 8.99054 32.61 8.94674 32.5862C8.90293 32.5623 8.86578 32.5278 8.83864 32.486C8.81149 32.4441 8.79522 32.3962 8.79128 32.3464C8.78734 32.2967 8.79587 32.2468 8.81609 32.2012C9.93889 29.4638 12.8049 27.4232 16.6809 26.6012C20.5283 25.7864 23.9639 26.4438 26.1103 28.4048C26.1668 28.4517 26.2041 28.5177 26.2151 28.5903C26.2262 28.6629 26.2102 28.737 26.1703 28.7986C26.1304 28.8602 26.0692 28.9051 25.9985 28.9246C25.9277 28.9442 25.8522 28.9371 25.7863 28.9048L25.7719 28.897L25.7417 28.88L25.7161 28.8566C23.7161 27.0202 20.4673 26.4118 16.8051 27.1874C13.1233 27.9674 10.4127 29.8796 9.36829 32.434L9.35529 32.4616C9.32994 32.5101 9.29176 32.5508 9.2449 32.5793C9.19804 32.6077 9.14429 32.6227 9.08949 32.6228Z" fill="#371A45"/>
<g opacity="0.5">
<path opacity="0.5" d="M11.9223 38.9488C11.9223 38.9488 9.44493 34.55 11.5867 32.1342C13.7285 29.7184 17.3839 28.9522 17.3481 29.2046C17.3481 29.2046 13.5105 31.0406 12.6051 34.5736C11.9071 37.298 11.9223 38.9488 11.9223 38.9488Z" fill="white"/>
</g>
<path d="M13.0696 49.6401C13.0097 49.6399 12.9518 49.6183 12.9064 49.5791C12.8611 49.5399 12.8314 49.4857 12.8226 49.4265C12.4504 46.9003 10.205 44.6665 10.1826 44.6443C10.1353 44.5978 10.1084 44.5344 10.1079 44.4681C10.1073 44.4018 10.1331 44.3379 10.1796 44.2907C10.2261 44.2434 10.2895 44.2165 10.3558 44.2159C10.4221 44.2154 10.4859 44.2412 10.5332 44.2876C10.6304 44.383 12.9204 46.6589 13.3174 49.3537C13.3271 49.4192 13.3103 49.486 13.2708 49.5392C13.2312 49.5924 13.1722 49.6278 13.1066 49.6375C13.0943 49.6391 13.082 49.64 13.0696 49.6401Z" fill="#371A45"/>
</g>
</svg>
