<svg width="53" height="52" viewBox="0 0 53 52" fill="none" xmlns="http://www.w3.org/2000/svg">
<mask id="mask0_2_7004" style="mask-type:alpha" maskUnits="userSpaceOnUse" x="0" y="0" width="53" height="52">
<circle cx="26.5" cy="26" r="26" fill="#C4C4C4"/>
</mask>
<g mask="url(#mask0_2_7004)">
<path d="M69.5 -7.99997H-15.5V77H69.5V-7.99997Z" fill="#C5C5FF"/>
<path d="M21.8046 26.8926C20.1471 30.3436 18.4985 34.8945 17.6285 35.6051C15.9035 37.0125 13.9364 37.507 12.1318 37.47C12.1318 37.47 10.8181 34.9893 9.88908 35.4323C9.46408 35.6349 9.00742 36.2889 9.77815 37.7106C9.81003 37.769 9.86018 37.8187 9.90565 37.8744C9.90565 37.8744 8.49062 37.7994 7.22815 36.5968C5.82905 35.264 5.5069 36.2962 5.40065 36.9237C5.2944 37.5512 5.0751 41.0188 7.45191 42.5277C9.8402 44.0439 15.4283 44.852 19.711 40.5362L22.8499 36.0129L21.8046 26.8926Z" fill="white"/>
<path d="M44.006 46.114C41.9713 48.6783 36.7988 47.6933 36.7988 47.6933L36.9837 34.3133L37.0417 30.1421L37.047 29.7596L37.0908 26.5972C37.0908 26.5972 39.0246 26.6798 40.9456 27.2228C41.2643 27.3127 41.5856 27.4157 41.8958 27.5343C42.0265 27.5832 42.1551 27.6352 42.2817 27.6894C43.3576 28.1548 44.2652 28.8157 44.594 29.7483C45.7361 32.9924 45.6788 44.006 44.006 46.114Z" fill="white"/>
<g opacity="0.35">
<path opacity="0.35" d="M45.3685 37.0854C45.3748 40.9353 44.945 44.9301 44.0061 46.1139C41.9717 48.6786 36.7983 47.6932 36.7983 47.6932L37.0187 43.055C37.0187 43.055 42.192 44.0403 44.2265 41.4757C44.7775 40.7806 45.1532 39.118 45.3685 37.0854Z" fill="#371A45"/>
</g>
<path d="M39.042 48.2674C37.7561 48.2674 36.7733 48.0834 36.7257 48.0745C36.6757 48.065 36.628 48.0457 36.5854 48.0178C36.5428 47.9898 36.5062 47.9538 36.4775 47.9116C36.4489 47.8695 36.4288 47.8222 36.4184 47.7723C36.4081 47.7225 36.4077 47.671 36.4172 47.621C36.4267 47.571 36.446 47.5233 36.4739 47.4807C36.5018 47.4381 36.5379 47.4015 36.58 47.3728C36.6221 47.3442 36.6695 47.3241 36.7193 47.3137C36.7692 47.3034 36.8206 47.3029 36.8706 47.3125C36.8919 47.3165 37.8377 47.4897 39.0517 47.4897C40.6242 47.4897 42.6498 47.1992 43.7019 45.873C43.9454 45.5661 44.2954 44.8294 44.5806 43.0622C44.7916 41.7554 44.925 40.1253 44.9669 38.3481C45.0519 34.7769 44.7544 31.3726 44.2274 29.877C43.7635 28.5595 41.8801 27.8434 40.3811 27.4758C38.6884 27.0591 37.0897 26.9856 37.0736 26.9847C36.9721 26.9785 36.8771 26.9327 36.8091 26.8572C36.7411 26.7816 36.7054 26.6824 36.7098 26.5808C36.7142 26.4793 36.7583 26.3835 36.8326 26.3141C36.907 26.2448 37.0055 26.2073 37.1072 26.2099C37.1749 26.2127 38.7887 26.2864 40.555 26.7199C41.6056 26.9777 42.4911 27.3105 43.1868 27.7089C44.1005 28.2323 44.6955 28.8755 44.9586 29.6214C45.3175 30.6414 45.5079 32.2103 45.6044 33.3467C45.7334 34.8697 45.7825 36.653 45.7419 38.3683C45.6968 40.2842 45.4669 44.8976 44.309 46.3571C43.799 47.0005 43.0716 47.4897 42.1481 47.811C41.4309 48.0605 40.5928 48.2098 39.6572 48.2547C39.447 48.263 39.24 48.2674 39.042 48.2674Z" fill="#371A45"/>
<path d="M44.9611 38.6975L41.4215 38.9049C41.2679 38.9136 41.1215 38.9731 41.0053 39.0741C40.8892 39.1751 40.8099 39.3118 40.78 39.4627C40.5549 40.5998 40.1714 43.2531 41.2664 44.1494C42.1753 44.8932 43.6717 44.8324 44.5601 44.1052C45.5538 43.292 45.6923 40.6857 45.6977 39.3945C45.6981 39.2995 45.679 39.2054 45.6416 39.118C45.6043 39.0306 45.5494 38.9518 45.4803 38.8865C45.4113 38.8212 45.3296 38.7707 45.2403 38.7382C45.151 38.7057 45.056 38.6919 44.9611 38.6975Z" fill="white"/>
<g opacity="0.35">
<path opacity="0.35" d="M40.7802 39.4631C40.5545 40.5997 40.1716 43.2532 41.2666 44.1491C42.1757 44.8929 43.6717 44.8323 44.5603 44.1049C45.1711 43.6045 45.4588 42.4262 45.5907 41.2927C45.4222 41.8571 45.1647 42.3127 44.8487 42.6102C43.0382 44.3123 41.7417 42.2489 41.7417 42.2489C41.7417 42.2489 41.5027 42.7409 41.3182 42.7657C40.5471 42.8705 40.7445 40.4648 40.8773 39.2223C40.8296 39.2955 40.7967 39.3773 40.7802 39.4631Z" fill="#371A45"/>
</g>
<path d="M42.8636 45.0682C42.1912 45.0682 41.5248 44.8625 41.0208 44.4494C40.4538 43.9853 40.1576 43.1283 40.1404 41.9017C40.1274 40.9716 40.2743 40.0209 40.3996 39.3872C40.4464 39.1522 40.5698 38.9393 40.7505 38.7819C40.9313 38.6245 41.1591 38.5316 41.3984 38.5177L44.938 38.3103C45.0857 38.3015 45.2337 38.3232 45.3728 38.3739C45.5119 38.4245 45.6391 38.5032 45.7466 38.6049C45.8541 38.7066 45.9396 38.8293 45.9979 38.9653C46.0562 39.1014 46.086 39.2479 46.0855 39.3959C46.0827 40.0644 46.0451 41.0579 45.8815 41.9956C45.6722 43.1958 45.3203 43.9842 44.8058 44.4054C44.2665 44.8465 43.5614 45.0682 42.8636 45.0682ZM44.9839 39.0846L41.4441 39.292C41.3762 39.2958 41.3116 39.322 41.2602 39.3665C41.2089 39.411 41.1738 39.4713 41.1604 39.5379C41.0422 40.135 40.9039 41.0281 40.916 41.8909C40.9296 42.8639 41.1357 43.5412 41.5121 43.8493C42.2558 44.4589 43.5402 44.4388 44.3143 43.8051C44.9282 43.3025 45.3003 41.6531 45.3097 39.3927C45.3099 39.3507 45.3014 39.3091 45.2849 39.2704C45.2684 39.2318 45.2441 39.197 45.2135 39.1681C45.183 39.1392 45.1469 39.1169 45.1074 39.1025C45.0679 39.0882 45.0259 39.0821 44.9839 39.0846Z" fill="#371A45"/>
<path d="M41.9081 40.176C41.9351 40.3885 41.9477 40.6036 41.9619 40.8171C41.9761 41.0307 41.9895 41.244 42.0091 41.4546C42.0477 41.8775 42.1075 42.2968 42.2231 42.6897C42.2784 42.8825 42.3521 43.0696 42.443 43.2483C42.5291 43.4177 42.6384 43.5742 42.7679 43.7133C42.8915 43.8445 43.0361 43.9541 43.1957 44.0378C43.3555 44.1194 43.5262 44.1779 43.7025 44.2114C43.7551 44.2219 43.8049 44.2431 43.8489 44.2737C43.8929 44.3043 43.9301 44.3437 43.9582 44.3893C43.9863 44.435 44.0046 44.486 44.0121 44.5391C44.0196 44.5922 44.016 44.6462 44.0016 44.6979C43.9871 44.7495 43.9622 44.7976 43.9284 44.8392C43.8945 44.8807 43.8524 44.9148 43.8047 44.9394C43.7571 44.9639 43.7048 44.9783 43.6513 44.9817C43.5978 44.9852 43.5442 44.9775 43.4938 44.9592L43.4866 44.9564C43.2515 44.8724 43.0296 44.7551 42.8278 44.6081C42.6275 44.4601 42.4532 44.2799 42.3119 44.0748C42.1772 43.8773 42.0707 43.662 41.9955 43.4351C41.9238 43.2187 41.8729 42.9959 41.8433 42.7698C41.7836 42.3257 41.7896 41.8881 41.8148 41.4576C41.8278 41.2423 41.8463 41.0284 41.8648 40.815C41.8833 40.6017 41.9028 40.3902 41.9081 40.176Z" fill="#371A45"/>
<path d="M42.793 29.674C42.7413 29.6296 42.6831 29.5933 42.6204 29.5665C42.5589 29.5391 42.4956 29.5161 42.4309 29.4975C42.3015 29.46 42.17 29.4305 42.0371 29.4093C41.7713 29.3672 41.5032 29.3411 41.2343 29.3311C40.9657 29.3198 40.6973 29.3215 40.4306 29.3343C40.1648 29.3468 39.9 29.3737 39.6371 29.415C39.5064 29.4363 39.3768 29.4603 39.2485 29.4885C39.1201 29.5168 38.9935 29.5502 38.8691 29.5871C38.7448 29.6241 38.6218 29.6658 38.5022 29.7125C38.3825 29.7593 38.2659 29.8109 38.1532 29.8687C38.0411 29.9249 37.9325 29.9878 37.8279 30.057L37.7516 30.1099L37.6774 30.1651C37.6288 30.2027 37.581 30.241 37.5355 30.2816C37.4452 30.3622 37.3609 30.4494 37.2835 30.5425C37.207 30.6353 37.1378 30.7339 37.0767 30.8375L37.0748 30.8409C37.0372 30.9055 36.9758 30.9529 36.9037 30.9729C36.8316 30.9928 36.7546 30.9838 36.6891 30.9477C36.6235 30.9117 36.5747 30.8514 36.5531 30.7798C36.5314 30.7082 36.5386 30.631 36.5731 30.5646C36.6437 30.4266 36.7276 30.2958 36.8236 30.1741C36.9187 30.0526 37.0246 29.94 37.1398 29.8375C37.1966 29.786 37.2558 29.738 37.316 29.6913L37.408 29.6241L37.5021 29.5604C37.6282 29.4793 37.7592 29.4062 37.8944 29.3415C38.1599 29.2162 38.4376 29.1186 38.7232 29.0501C39.0032 28.9818 39.2881 28.9355 39.5753 28.9116C40.1418 28.8611 40.7126 28.8862 41.2725 28.9862C41.5516 29.0357 41.8256 29.1106 42.0911 29.2097C42.2242 29.2601 42.3531 29.3212 42.4763 29.3925C42.5381 29.4285 42.5969 29.4694 42.6521 29.5149C42.6797 29.5375 42.7056 29.5622 42.7296 29.5886C42.7539 29.6146 42.7751 29.6433 42.793 29.674Z" fill="#371A45"/>
<g opacity="0.35">
<path opacity="0.35" d="M41.8962 27.5341C40.563 28.4844 38.9093 29.2479 37.0474 29.7594L37.0912 26.597C37.0912 26.597 39.0249 26.6796 40.9459 27.2226C41.2649 27.3124 41.5856 27.4155 41.8962 27.5341Z" fill="#371A45"/>
</g>
<g opacity="0.35">
<path opacity="0.35" d="M22.8492 36.0119L19.7112 40.535C15.4289 44.851 9.83977 44.0425 7.45212 42.5265C6.59468 41.9825 6.07512 41.182 5.76678 40.3533C6.00967 40.6391 5.56449 37.8009 5.90852 38.0194C6.03602 38.1001 6.11486 39.2844 7.13975 40.4748C7.63806 41.0535 8.4071 41.5171 9.34337 41.8119C9.61962 41.899 9.40223 42.1769 9.7093 42.2112C15.298 42.8331 16.8531 40.6491 17.7703 38.5094L21.2865 28.0074C21.4588 27.6275 21.6325 27.2539 21.8061 26.8927L22.8492 36.0119Z" fill="#371A45"/>
</g>
<path d="M12.163 44.1292C11.3273 44.1302 10.4943 44.0329 9.68124 43.8394C8.7507 43.6169 7.9075 43.2762 7.2428 42.8542C6.64164 42.4717 6.148 41.9479 5.77655 41.2949C5.47501 40.7662 5.25231 40.1525 5.11461 39.471C4.88235 38.321 4.94992 37.2587 5.01814 36.8573C5.06212 36.5982 5.196 35.8101 5.81607 35.6035C6.2823 35.4488 6.83182 35.6811 7.49631 36.3141C7.97309 36.7683 8.54481 37.1109 9.17017 37.3171C8.95767 36.7595 8.91751 36.2708 9.0516 35.8587C9.16529 35.5089 9.40371 35.2325 9.72267 35.0803C9.9594 34.9675 10.3468 34.9035 10.8489 35.2397C11.1071 35.4131 11.3817 35.6834 11.6649 36.0432C11.9205 36.3732 12.1532 36.7202 12.3615 37.0819C13.7166 37.0746 15.6198 36.7419 17.3848 35.3026C17.5259 35.1874 17.8062 34.8187 18.3391 33.7159C18.752 32.8618 19.2229 31.7685 19.7204 30.6108C20.2822 29.3059 20.8634 27.9567 21.4556 26.7233C21.4921 26.6476 21.5522 26.5857 21.6268 26.547C21.7015 26.5083 21.7867 26.495 21.8697 26.5089C21.9526 26.5229 22.0287 26.5635 22.0866 26.6245C22.1444 26.6855 22.1809 26.7637 22.1905 26.8472L23.2349 35.9667C23.2457 36.0602 23.222 36.1545 23.1684 36.2319L20.0293 40.7554C20.0167 40.7739 20.0025 40.7913 19.9868 40.8074C17.504 43.309 14.76 43.9813 12.8957 44.105C12.6511 44.1211 12.4068 44.1292 12.163 44.1292ZM6.10231 36.3354C6.08795 36.3349 6.07361 36.3367 6.05981 36.3407C6.03006 36.3507 5.87706 36.4282 5.78186 36.9875C5.73384 37.2706 5.65649 38.2413 5.87387 39.3174C6.1429 40.6487 6.74321 41.6183 7.65887 42.1993C8.67611 42.8451 10.5725 43.4815 12.8439 43.3311C14.5689 43.2167 17.106 42.595 19.4101 40.2859L22.4461 35.9108L21.5749 28.3046C21.1873 29.1624 20.805 30.0505 20.431 30.9183C19.2382 33.6887 18.476 35.4116 17.8727 35.9042C15.8269 37.573 13.6169 37.8872 12.1226 37.8564C12.0535 37.855 11.9861 37.8351 11.9272 37.7988C11.8684 37.7625 11.8203 37.7112 11.788 37.6501C11.7848 37.6444 11.4664 37.0474 11.0476 36.5168C10.5686 35.9099 10.2038 35.7093 10.055 35.7809C9.98256 35.8156 9.85124 35.9029 9.78749 36.0997C9.68124 36.428 9.7979 36.9338 10.1173 37.5234C10.1237 37.5332 10.1443 37.557 10.1598 37.5744C10.1753 37.5919 10.1906 37.6099 10.2057 37.6284C10.2532 37.6866 10.2827 37.7574 10.2908 37.8321C10.2988 37.9067 10.285 37.9821 10.251 38.0491C10.217 38.1161 10.1642 38.1718 10.0992 38.2093C10.0342 38.2469 9.95961 38.2648 9.8846 38.2608C9.82085 38.2574 8.3121 38.1635 6.96017 36.8768C6.45421 36.3944 6.19751 36.3354 6.10231 36.3354Z" fill="#371A45"/>
<path d="M5.33119 40.3033C5.24442 40.0135 5.19732 39.7133 5.19116 39.4108C5.18312 39.1057 5.21498 38.8009 5.28593 38.5041C5.30378 38.4287 5.32539 38.3534 5.35075 38.278C5.36371 38.2404 5.37561 38.2028 5.39091 38.1652C5.40621 38.1275 5.4196 38.0901 5.43702 38.053C5.50519 37.8951 5.59432 37.7471 5.70201 37.6131L5.74791 37.5606L5.77107 37.5347L5.79678 37.5094C5.814 37.4926 5.831 37.4758 5.84863 37.4592L5.90643 37.4118C5.91621 37.4042 5.92534 37.3961 5.93576 37.3887L5.96784 37.3674C5.98909 37.3532 6.01035 37.3385 6.03308 37.3249C6.05582 37.3113 6.07983 37.2994 6.10342 37.2873L6.12106 37.2782L6.13997 37.2703L6.17801 37.2548C6.28021 37.2129 6.38929 37.1903 6.49973 37.1881H6.54074H6.56199L6.57921 37.1891C6.60237 37.1908 6.62468 37.1917 6.64848 37.1947C6.69658 37.1998 6.74434 37.2077 6.7915 37.2185C6.89297 37.2413 6.9903 37.2796 7.08007 37.3322C7.16884 37.3854 7.2483 37.4528 7.31531 37.5317C7.37401 37.6011 7.42475 37.6769 7.46661 37.7576C7.50306 37.8281 7.53528 37.9007 7.56308 37.975C7.61621 38.1148 7.65531 38.2457 7.69653 38.3704C7.7347 38.4908 7.77947 38.609 7.83062 38.7245C7.9516 39.0071 8.15706 39.2453 8.41882 39.4066C8.47258 39.4404 8.52911 39.4716 8.58712 39.5009C8.70639 39.5589 8.8295 39.6086 8.95559 39.6497C8.96845 39.6538 8.97937 39.6625 8.98632 39.6741C8.99327 39.6857 8.99579 39.6994 8.9934 39.7127C8.99102 39.726 8.98389 39.738 8.97335 39.7465C8.9628 39.7549 8.94955 39.7593 8.93605 39.7587C8.79455 39.7534 8.65384 39.735 8.51572 39.7039C8.37267 39.6719 8.23402 39.6226 8.10283 39.5572C8.03536 39.5237 7.97019 39.4857 7.90776 39.4436C7.84497 39.4002 7.78506 39.3529 7.72841 39.3018C7.61603 39.199 7.51617 39.0833 7.43091 38.9571C7.26091 38.7098 7.14446 38.4391 7.02503 38.223C6.96511 38.1167 6.90221 38.026 6.84292 37.9775C6.81777 37.9559 6.789 37.9389 6.75792 37.9274C6.72741 37.9165 6.69549 37.91 6.66314 37.9082C6.6434 37.9072 6.62361 37.9072 6.60386 37.9082C6.59387 37.9082 6.58261 37.9097 6.57135 37.9102H6.56306L6.55796 37.9116L6.54818 37.914C6.53549 37.9165 6.52299 37.9199 6.51078 37.9242C6.49885 37.9296 6.48728 37.9358 6.47615 37.9427C6.43046 37.9682 6.37924 38.0232 6.32909 38.0959C6.27564 38.1809 6.23194 38.2718 6.19883 38.3666C6.18927 38.3915 6.18098 38.4182 6.17248 38.4446C6.16398 38.4709 6.15655 38.4981 6.14868 38.5253C6.14082 38.5525 6.13466 38.5806 6.12743 38.6082C6.12021 38.6358 6.11468 38.6647 6.10852 38.6932C6.06276 38.9278 6.03906 39.1661 6.03776 39.4051C6.03679 39.6473 6.05334 39.8893 6.08727 40.1291L6.08854 40.1386C6.10206 40.2355 6.07857 40.3339 6.02275 40.4142C5.96693 40.4945 5.88288 40.5508 5.78738 40.5719C5.69188 40.593 5.59195 40.5773 5.50751 40.5279C5.42307 40.4786 5.36034 40.3992 5.33183 40.3057L5.33119 40.3033Z" fill="#371A45"/>
<path d="M27.7786 65.8261C26.769 66.4366 25.0601 66.9653 22.6418 66.9634C19.2599 66.9613 16.4995 66.8062 16.528 64.3724C16.5505 62.441 19.8815 61.5704 19.8815 61.5704C18.3971 56.1478 18.0523 51.4528 18.1685 47.196C18.2084 45.767 18.2992 44.3868 18.4167 43.0444L29.7172 45.139C28.979 48.1791 28.7066 51.1315 28.628 53.8152C28.4422 60.0993 29.3201 64.8952 27.7786 65.8261Z" fill="white"/>
<g opacity="0.35">
<path opacity="0.35" d="M29.7172 45.139C29.6681 45.3403 29.6212 45.5402 29.5774 45.7404C29.5578 45.8241 29.5394 45.9078 29.5221 45.9916C29.4978 46.1026 29.4743 46.2139 29.4518 46.3254C29.4212 46.4722 29.3914 46.6182 29.3638 46.7632C29.3547 46.8101 29.3455 46.8571 29.3375 46.904C29.319 47.002 29.3007 47.0991 29.2833 47.196C29.2588 47.3318 29.2342 47.4676 29.2119 47.6034C29.1966 47.6911 29.1821 47.7789 29.1679 47.8667C29.1078 48.2414 29.0531 48.614 29.0036 48.9846C28.973 49.2133 28.9454 49.4409 28.9186 49.6674C28.9044 49.7889 28.891 49.9094 28.8778 50.0299C28.8666 50.134 28.8553 50.2382 28.8462 50.3423C28.8287 50.5123 28.8124 50.6823 28.7981 50.8523C28.7879 50.9677 28.7769 51.0831 28.7686 51.1974C28.7552 51.3595 28.7442 51.5219 28.7318 51.6832C28.7246 51.7864 28.7176 51.8884 28.7125 51.9904C28.7053 52.0876 28.7002 52.1834 28.694 52.2794C28.6838 52.4469 28.6757 52.6141 28.6675 52.7797C28.6675 52.7909 28.6664 52.8009 28.6655 52.8132C28.6502 53.1511 28.6369 53.486 28.6277 53.8158C28.442 60.0999 29.3198 64.8958 27.7777 65.8267C26.7681 66.4372 25.0592 66.966 22.641 66.964C19.9388 66.9619 17.6328 66.8629 16.8314 65.5817C17.9524 65.9931 19.5795 66.0382 21.3842 66.039C23.8027 66.0401 25.5125 65.5114 26.5221 64.9019C27.5869 64.2587 27.497 61.7712 27.4005 58.2229C27.3349 55.8078 25.8659 53.6318 23.6244 52.7304C20.9257 51.6449 18.7994 49.7794 18.1676 47.1967C18.2076 45.7676 18.2983 44.3874 18.4158 43.045L28.3056 44.8785L29.7172 45.139Z" fill="#371A45"/>
</g>
<path d="M22.6506 67.3525H22.6412C20.0857 67.3512 17.8829 67.2613 16.8077 66.1727C16.3561 65.7156 16.1315 65.1087 16.1402 64.369C16.1515 63.431 16.8037 62.5802 18.0266 61.9083C18.4686 61.669 18.9308 61.469 19.4078 61.3107C18.5438 58.0622 18.0311 54.8866 17.8419 51.616C17.6883 48.9577 17.7478 46.2236 18.0291 43.0117C18.0385 42.9096 18.088 42.8153 18.1667 42.7496C18.2455 42.6838 18.347 42.6519 18.4492 42.6609C18.5514 42.6699 18.6459 42.7189 18.7119 42.7974C18.778 42.8758 18.8103 42.9773 18.8018 43.0795C18.3725 47.9795 18.2091 53.9962 20.2542 61.4694L20.3577 61.8479L19.9782 61.9469C19.9703 61.9491 19.1707 62.1618 18.3868 62.5948C17.7206 62.9629 16.9244 63.5709 16.9148 64.3781C16.9084 64.9105 17.0536 65.3191 17.3583 65.6276C18.2221 66.5021 20.3496 66.5756 22.6406 66.5769H22.6495C25.3791 66.5769 26.9085 65.8996 27.5774 65.4957C27.9401 65.2766 28.1635 64.6597 28.2604 63.6097C28.3607 62.5239 28.3209 61.0619 28.2748 59.3691C28.1722 55.6 28.0315 50.4384 29.3388 45.0489C29.3631 44.949 29.4261 44.8628 29.5139 44.8092C29.6017 44.7557 29.7072 44.7393 29.8072 44.7635C29.9071 44.7878 29.9933 44.8508 30.0469 44.9386C30.1004 45.0264 30.1168 45.1319 30.0926 45.2319C28.8097 50.5206 28.9487 55.6231 29.05 59.3478C29.1497 62.9999 29.2154 65.4126 27.9784 66.1595C27.2414 66.6043 25.568 67.3525 22.6506 67.3525Z" fill="#371A45"/>
<path d="M8.6251 43.108C8.6251 43.108 6.83755 42.3797 6.98503 41.1058C7.12485 39.8971 7.96657 39.3656 8.35587 39.4364C8.94449 39.5426 8.7271 41.2093 8.7271 41.2093C8.7271 41.2093 10.31 40.8457 10.9371 41.1944" fill="white"/>
<g opacity="0.35">
<path opacity="0.35" d="M9.70825 42.2114L8.6245 43.1077C8.6245 43.1077 6.83695 42.3797 6.984 41.1058C7.02778 40.725 7.14125 40.4126 7.28915 40.1635C7.28915 40.1901 7.28724 40.2167 7.28724 40.2443C7.28363 41.8204 9.15788 42.15 9.70825 42.2114Z" fill="#371A45"/>
</g>
<g opacity="0.35">
<path opacity="0.35" d="M27.8655 52.8466C27.8829 52.5087 27.9047 52.1593 27.9309 51.7983C27.9054 52.1587 27.8829 52.5087 27.8655 52.8466Z" fill="#371A45"/>
</g>
<g opacity="0.35">
<path opacity="0.35" d="M27.9535 51.5042C27.9688 51.3073 27.9854 51.1065 28.0034 50.902C27.986 51.1062 27.9688 51.3072 27.9535 51.5042Z" fill="#371A45"/>
</g>
<g opacity="0.35">
<path opacity="0.35" d="M28.0952 49.9577C28.1148 49.7698 28.1362 49.578 28.159 49.3839C28.1362 49.578 28.1156 49.7698 28.0952 49.9577Z" fill="#371A45"/>
</g>
<g opacity="0.35">
<path opacity="0.35" d="M28.1688 49.2942C28.1943 49.0736 28.2219 48.8511 28.2506 48.6235C28.2218 48.8512 28.1945 49.0747 28.1688 49.2942Z" fill="#371A45"/>
</g>
<path d="M39.6438 44.3704C39.6194 44.7188 39.5709 45.065 39.4986 45.4066C39.0668 47.4443 37.8199 48.9826 36.1218 50.0463C29.5768 54.152 16.338 51.2049 17.3959 42.6443C17.9399 38.2445 19.6271 33.7518 20.8758 29.2846C21.0883 28.5292 21.2853 27.7759 21.4638 27.0226C23.5888 22.1236 36.425 24.098 37.0672 25.677C37.2599 26.1518 37.4469 26.6887 37.6254 27.2778C37.8552 28.0249 38.0706 28.8539 38.2717 29.739C39.118 33.4732 39.6875 38.2056 39.712 41.9941C39.7173 42.8402 39.696 43.6395 39.6438 44.3704Z" fill="white"/>
<g opacity="0.35">
<path opacity="0.35" d="M39.6437 44.3704C39.4618 46.9295 38.0961 48.8089 36.1218 50.0463C29.6273 54.1203 16.5443 51.2507 17.3744 42.8425C18.1307 50.0875 30.0275 52.3791 36.1218 48.5562C38.0961 47.3191 39.4618 45.4397 39.6437 42.8804C39.6754 42.4435 39.6958 41.9811 39.706 41.4991C39.7245 42.53 39.7062 43.4987 39.6437 44.3704Z" fill="#371A45"/>
</g>
<path d="M28.9905 52.2651C28.497 52.2651 28.0001 52.2438 27.4996 52.2013C24.709 51.9644 22.1354 51.0793 20.2533 49.7093C19.0846 48.8593 18.2101 47.8474 17.6527 46.7029C17.045 45.4549 16.8293 44.0734 17.0116 42.5972C17.3729 39.6776 18.2203 36.7534 19.1317 33.7646C19.2186 33.4794 19.3058 33.1942 19.3933 32.9091C19.9949 30.9456 20.6169 28.9151 21.0863 26.9331L21.0942 26.8996L21.108 26.8681C21.6346 25.6543 22.771 24.7527 24.4855 24.1881C25.8648 23.734 27.6305 23.5062 29.5867 23.5293C31.3116 23.5506 33.1604 23.7699 34.6591 24.1339C35.3682 24.306 35.9821 24.5075 36.4343 24.7161C36.9817 24.9688 37.3067 25.2357 37.4269 25.5321C39.1531 29.78 40.4185 38.949 40.0309 44.3989C39.9227 45.9196 39.4123 47.2768 38.5139 48.4326C37.6934 49.4879 36.5703 50.3517 35.1755 51.0005C33.3937 51.8284 31.2394 52.2651 28.9905 52.2651ZM21.8326 27.1476C21.3585 29.1427 20.7365 31.1734 20.1347 33.1373C20.0473 33.4223 19.9602 33.7071 19.8734 33.9918C18.9722 36.9466 18.1343 39.8355 17.7813 42.6932C17.3824 45.9232 19.1536 47.9507 20.7096 49.0833C24.3714 51.7485 30.5819 52.2821 34.8482 50.2977C36.7287 49.4233 39.0198 47.6806 39.257 44.3445C39.638 38.987 38.3993 29.9868 36.7083 25.8247C36.6621 25.7113 36.153 25.2956 34.4759 24.8883C33.0309 24.5374 31.2459 24.3251 29.5776 24.3056C27.7042 24.2843 26.0269 24.4981 24.7279 24.9259C23.2479 25.4121 22.274 26.1594 21.8326 27.1463V27.1476Z" fill="#371A45"/>
<path d="M18.3374 43.531C19.2488 43.531 19.9877 42.7922 19.9877 41.8807C19.9877 40.9693 19.2488 40.2305 18.3374 40.2305C17.426 40.2305 16.6871 40.9693 16.6871 41.8807C16.6871 42.7922 17.426 43.531 18.3374 43.531Z" fill="white"/>
<g opacity="0.35">
<path opacity="0.35" d="M16.6874 41.8804C16.6849 42.0987 16.7257 42.3153 16.8076 42.5177C16.8894 42.7201 17.0106 42.9043 17.1641 43.0596C17.3176 43.2148 17.5003 43.3381 17.7018 43.4222C17.9033 43.5063 18.1194 43.5496 18.3377 43.5496C18.5561 43.5496 18.7722 43.5063 18.9737 43.4222C19.1751 43.3381 19.3579 43.2148 19.5114 43.0596C19.6649 42.9043 19.7861 42.7201 19.8679 42.5177C19.9497 42.3153 19.9906 42.0987 19.9881 41.8804C19.9887 41.6363 19.9345 41.3953 19.8296 41.1749C19.6959 41.4574 19.4847 41.6961 19.2206 41.8632C18.9565 42.0304 18.6504 42.1191 18.3379 42.1191C18.0253 42.1191 17.7192 42.0304 17.4551 41.8632C17.191 41.6961 16.9798 41.4574 16.8461 41.1749C16.7411 41.3952 16.6869 41.6363 16.6874 41.8804Z" fill="#371A45"/>
</g>
<path d="M18.3375 43.8749C17.943 43.875 17.5575 43.7581 17.2295 43.539C16.9016 43.3199 16.646 43.0085 16.495 42.6441C16.344 42.2797 16.3045 41.8788 16.3814 41.4919C16.4583 41.1051 16.6483 40.7498 16.9271 40.4709C17.206 40.192 17.5613 40.002 17.9481 39.9251C18.335 39.8481 18.7359 39.8876 19.1003 40.0385C19.4647 40.1894 19.7761 40.445 19.9953 40.773C20.2144 41.1009 20.3313 41.4864 20.3313 41.8809C20.3304 42.4094 20.1201 42.9161 19.7464 43.2898C19.3726 43.6636 18.866 43.874 18.3375 43.8749ZM18.3375 40.5744C18.079 40.5744 17.8264 40.651 17.6115 40.7946C17.3966 40.9382 17.2291 41.1423 17.1302 41.3811C17.0313 41.6198 17.0055 41.8826 17.0559 42.1361C17.1063 42.3895 17.2308 42.6224 17.4136 42.8051C17.5963 42.9878 17.8292 43.1122 18.0827 43.1626C18.3361 43.213 18.5989 43.1871 18.8376 43.0882C19.0764 42.9893 19.2805 42.8218 19.424 42.6068C19.5676 42.3919 19.6442 42.1393 19.6441 41.8809C19.6437 41.5344 19.5059 41.2023 19.261 40.9574C19.016 40.7125 18.6839 40.5747 18.3375 40.5744Z" fill="#371A45"/>
<g opacity="0.35">
<path opacity="0.35" d="M39.6438 44.3704C39.6195 44.7187 39.571 45.065 39.4986 45.4066C38.8076 45.6159 36.6424 46.0496 31.3546 45.6159L31.328 46.0558C31.2668 47.0879 30.3718 47.8811 29.3416 47.8195L20.6318 47.3021C19.6018 47.2398 18.8067 46.3458 18.8681 45.3146L18.9252 44.3509L19.1445 40.6799C19.2049 39.6478 20.0991 38.8548 21.1312 38.9162L29.8388 39.4336C29.9648 39.4411 30.0897 39.4613 30.2115 39.494C30.6292 39.6067 30.9955 39.8597 31.2488 40.2104C31.5021 40.5611 31.6271 40.9883 31.6028 41.4203L31.5558 42.2155C32.7114 42.3593 36.7988 42.7841 39.6612 42.003C39.6776 41.9989 39.695 41.9949 39.7111 41.9919C39.7173 42.8402 39.6961 43.6394 39.6438 44.3704Z" fill="#371A45"/>
</g>
<path d="M20.0576 45.9751L28.7667 46.4931C29.7974 46.5548 30.6918 45.7613 30.7534 44.7294L31.0297 40.095C31.0834 39.1914 30.4816 38.395 29.6382 38.1685C29.5165 38.1356 29.3918 38.1155 29.2659 38.1083L20.5583 37.5902C19.5262 37.5286 18.6318 38.3219 18.5714 39.354L18.3513 43.0243L18.2935 43.988C18.2323 45.0201 19.027 45.9132 20.0576 45.9751Z" fill="white"/>
<g opacity="0.35">
<path opacity="0.35" d="M20.0577 45.9751L28.7668 46.4931C29.7974 46.5548 30.6918 45.7613 30.7534 44.7294L31.0297 40.095C31.0834 39.1914 30.4816 38.395 29.6382 38.1685C29.1242 38.4677 28.7978 38.6589 28.7978 38.6589C28.1524 42.3539 26.9828 44.1459 22.359 43.9465C20.363 43.8601 19.1224 43.481 18.3528 43.0247L18.295 43.9884C18.2323 45.0201 19.027 45.9132 20.0577 45.9751Z" fill="#371A45"/>
</g>
<path d="M28.8796 46.8843C28.8344 46.8843 28.7889 46.8829 28.7432 46.8802L20.0349 46.3622C19.4354 46.3251 18.875 46.0521 18.4762 45.6029C18.0775 45.1537 17.8729 44.5648 17.9072 43.9652L18.1834 39.3299C18.2197 38.7301 18.4925 38.1691 18.9419 37.7702C19.3914 37.3713 19.9807 37.167 20.5806 37.2021L29.2889 37.7204C29.8886 37.7568 30.4495 38.0296 30.8484 38.4789C31.2473 38.9283 31.4517 39.5176 31.4166 40.1174L31.1404 44.7525C31.1047 45.3284 30.8512 45.8692 30.4314 46.2651C30.0116 46.6611 29.4569 46.8824 28.8798 46.8843H28.8796ZM20.4444 37.9737C20.0646 37.9744 19.6993 38.1198 19.4229 38.3804C19.1465 38.6409 18.9799 38.9971 18.9569 39.3762L18.6807 44.0115C18.6587 44.4058 18.7936 44.7928 19.0558 45.0881C19.318 45.3834 19.6863 45.5631 20.0804 45.588L28.7886 46.1063C29.183 46.1283 29.57 45.9935 29.8653 45.7313C30.1606 45.4691 30.3403 45.1007 30.3652 44.7066L30.6414 40.0715C30.6635 39.6772 30.5287 39.2901 30.2665 38.9948C30.0044 38.6994 29.6361 38.5197 29.2419 38.4948L20.5337 37.9767C20.5039 37.9746 20.4739 37.9737 20.4444 37.9737Z" fill="#371A45"/>
<path d="M19.7112 45.9198C19.8248 45.9503 19.9413 45.9688 20.0587 45.9749L28.7678 46.4929C29.1279 46.5133 29.4863 46.4299 29.8004 46.2525C30.1144 46.0751 30.371 45.8112 30.5394 45.4923C30.665 45.2563 30.738 44.9959 30.7532 44.729L30.8764 42.6701L30.917 41.9901L31.0298 40.0937C31.0915 39.0616 30.2967 38.1687 29.2661 38.107L27.3842 37.9955C28.2418 38.2105 28.8568 39.0144 28.8031 39.9271L28.6543 42.4306L28.5268 44.563C28.4652 45.5936 27.5706 46.3884 26.5401 46.3268L19.7112 45.9198Z" fill="white"/>
<g opacity="0.35">
<path opacity="0.35" d="M19.7112 45.9198C19.8248 45.9502 19.9413 45.9687 20.0587 45.9748L28.7678 46.4929C29.2647 46.5211 29.7525 46.3514 30.1246 46.0209C30.4967 45.6903 30.7227 45.2259 30.7532 44.7291L30.917 41.9911C30.6692 42.4617 30.2404 43.0323 29.6069 43.0572C29.2595 43.0716 28.9342 42.8022 28.6549 42.4316L28.5274 44.564C28.4658 45.5946 27.5712 46.3894 26.5408 46.3278L19.7112 45.9198Z" fill="#371A45"/>
</g>
<path d="M28.8808 46.8842C28.8351 46.8842 28.7893 46.8829 28.7436 46.8802L20.036 46.3619C19.8924 46.3541 19.75 46.3317 19.611 46.2952L19.7327 45.5329L26.5631 45.9401C26.9573 45.9621 27.3442 45.8273 27.6394 45.5651C27.9346 45.3029 28.1141 44.9346 28.1388 44.5406L28.415 39.9053C28.4352 39.5586 28.3337 39.2157 28.1281 38.9357C27.9225 38.6558 27.6257 38.4563 27.2888 38.3717L27.4063 37.6084L29.2874 37.72C29.8869 37.7571 30.4474 38.0302 30.8462 38.4796C31.2449 38.9289 31.4495 39.5178 31.4151 40.1176L31.1389 44.7522C31.1035 45.328 30.8503 45.8687 30.4308 46.2647C30.0113 46.6606 29.4569 46.8821 28.88 46.8842H28.8808ZM28.2325 46.0727L28.7899 46.1058C29.1841 46.1279 29.571 45.9931 29.8662 45.731C30.1615 45.4688 30.3411 45.1006 30.3658 44.7065L30.642 40.0715C30.6641 39.6771 30.5294 39.29 30.2672 38.9945C30.0049 38.6991 29.6365 38.5194 29.2423 38.4945L28.7451 38.465C29.0643 38.8927 29.2219 39.4197 29.1898 39.9525L28.9136 44.5875C28.8811 45.1506 28.638 45.6807 28.2325 46.0727Z" fill="#371A45"/>
<path d="M25.2281 42.0793C25.219 42.2508 25.3856 43.6475 25.3856 43.6475L26.3631 43.7C27.0357 43.7361 27.6183 43.0691 27.6645 42.2102C27.7106 41.3513 27.2027 40.6254 26.5301 40.5892L25.5526 40.5367C25.5526 40.5367 25.2432 41.7998 25.2281 42.0793Z" fill="#22A7F0"/>
<g opacity="0.35">
<path opacity="0.35" d="M25.2281 42.0793C25.219 42.2508 25.3856 43.6475 25.3856 43.6475L26.3631 43.7C27.0357 43.7361 27.6183 43.0691 27.6645 42.2102C27.7106 41.3513 27.2027 40.6254 26.5301 40.5892L25.5526 40.5367C25.5526 40.5367 25.2432 41.7998 25.2281 42.0793Z" fill="#371A45"/>
</g>
<path d="M26.4159 43.9925C26.3929 43.9925 26.37 43.9925 26.3468 43.9905L25.3693 43.9381C25.3011 43.9344 25.2363 43.9068 25.1864 43.8602C25.1365 43.8136 25.1046 43.7509 25.0962 43.6831C25.0452 43.2557 24.9275 42.2421 24.9371 42.0647C24.9528 41.7731 25.2169 40.6834 25.2696 40.4686C25.2858 40.4029 25.3243 40.3449 25.3786 40.3045C25.4329 40.2641 25.4996 40.2439 25.5671 40.2474L26.5446 40.2998C26.9611 40.3224 27.3373 40.5444 27.6039 40.9254C27.8553 41.2846 27.9794 41.7468 27.9537 42.2268C27.928 42.7068 27.7548 43.1531 27.4665 43.4833C27.1781 43.8135 26.8071 43.9925 26.4159 43.9925ZM25.646 43.3703L26.378 43.4098C26.6118 43.4223 26.8432 43.312 27.0289 43.0995C27.2323 42.8668 27.3545 42.5453 27.3734 42.1945C27.3923 41.8437 27.3052 41.5111 27.1279 41.258C26.966 41.0266 26.748 40.8923 26.514 40.8798L25.7788 40.8402C25.6657 41.3158 25.5276 41.9361 25.5187 42.094C25.5163 42.1926 25.5775 42.7812 25.646 43.3703Z" fill="#371A45"/>
<path d="M26.6898 42.1614C26.736 41.3024 26.2283 40.5767 25.5557 40.5405C24.8831 40.5043 24.3004 41.1713 24.2542 42.0303C24.208 42.8893 24.7158 43.615 25.3883 43.6512C26.0609 43.6874 26.6436 43.0204 26.6898 42.1614Z" fill="#22A7F0"/>
<g opacity="0.35">
<path opacity="0.35" d="M25.3861 43.6472C26.058 43.6836 26.6398 43.0163 26.687 42.1576C26.6978 41.9681 26.6805 41.7781 26.6358 41.5936C26.4739 42.2758 25.9622 42.7624 25.3861 42.7307C24.8678 42.7029 24.4472 42.2656 24.3023 41.6737C24.2746 41.7895 24.2575 41.9075 24.2511 42.0263C24.2052 42.886 24.7133 43.6111 25.3861 43.6472Z" fill="#371A45"/>
</g>
<g opacity="0.7">
<path opacity="0.7" d="M24.2713 42.4322C24.385 41.6672 24.93 41.0977 25.5527 41.1313C26.1156 41.161 26.5642 41.6755 26.6674 42.3474C26.6768 42.286 26.6832 42.2219 26.687 42.1577C26.7335 41.2988 26.2254 40.5731 25.5527 40.5367C24.8799 40.5004 24.2974 41.1676 24.2517 42.0263C24.2441 42.162 24.2507 42.298 24.2713 42.4322Z" fill="white"/>
</g>
<path d="M25.439 43.9398C25.416 43.9398 25.3931 43.9392 25.3701 43.9379C24.9536 43.9167 24.5773 43.6933 24.3106 43.3125C24.0594 42.9532 23.9351 42.491 23.961 42.011C23.9867 41.5309 24.1597 41.0849 24.4481 40.7547C24.7541 40.4045 25.1521 40.2234 25.5684 40.2462C25.9846 40.2689 26.3612 40.4908 26.6277 40.8718C26.8791 41.2309 27.0032 41.6931 26.9774 42.1731C26.9517 42.6532 26.7785 43.0994 26.4902 43.4296C26.2018 43.7599 25.8312 43.9398 25.439 43.9398ZM25.501 40.8261C25.2794 40.8261 25.0624 40.9357 24.8862 41.1374C24.6831 41.3712 24.5607 41.6914 24.5418 42.0422C24.5231 42.3931 24.6102 42.7258 24.7872 42.9789C24.9491 43.2101 25.1672 43.3444 25.4011 43.3572C25.6351 43.3699 25.8665 43.2594 26.0522 43.0469C26.2554 42.8142 26.3778 42.4927 26.3965 42.1419C26.4152 41.7911 26.3283 41.4585 26.151 41.2054C25.9893 40.974 25.7713 40.8397 25.5371 40.8271C25.5252 40.8265 25.5125 40.8261 25.501 40.8261Z" fill="#371A45"/>
<path d="M22.7672 46.3888H22.7568C22.7192 46.3875 22.6822 46.3788 22.648 46.3632C22.6137 46.3475 22.5829 46.3253 22.5572 46.2978C22.5316 46.2703 22.5116 46.238 22.4984 46.2027C22.4853 46.1675 22.4792 46.13 22.4805 46.0924L22.5611 43.8428C22.5817 43.2948 22.3882 42.7602 22.0215 42.3524L21.9076 42.2249C21.6694 41.9576 21.4865 41.6458 21.3696 41.3074C21.2526 40.969 21.2039 40.6108 21.2261 40.2535L21.3961 37.6397C21.4022 37.5648 21.4374 37.4952 21.4943 37.446C21.5512 37.3968 21.6252 37.372 21.7003 37.3769C21.7753 37.3817 21.8454 37.4159 21.8955 37.4721C21.9455 37.5282 21.9715 37.6018 21.9678 37.6769L21.7978 40.2907C21.7803 40.5719 21.8188 40.8538 21.9109 41.12C22.003 41.3863 22.147 41.6317 22.3345 41.8419L22.4482 41.9694C22.9141 42.4874 23.16 43.1664 23.1338 43.8626L23.0532 46.1121C23.0507 46.1863 23.0194 46.2566 22.9661 46.3082C22.9127 46.3598 22.8414 46.3887 22.7672 46.3888Z" fill="#371A45"/>
<path d="M40.508 42.2085C40.4655 43.4918 39.1932 43.9814 39.1932 43.9814C39.1932 43.9814 37.4337 44.8952 30.1745 44.2364C30.1745 44.2364 28.1218 42.1354 30.6669 40.8472C30.6669 40.8472 35.7229 41.594 39.0874 40.6772C39.6941 40.5138 40.546 41.0619 40.508 42.2085Z" fill="white"/>
<g opacity="0.35">
<path opacity="0.35" d="M40.5076 42.2082C40.4651 43.4915 39.1937 43.9815 39.1937 43.9815C39.1937 43.9815 37.4337 44.894 30.1747 44.2365C30.1747 44.2365 29.013 43.0465 29.5213 41.9101C29.5236 41.916 29.5258 41.922 29.5281 41.9281C29.7619 42.5505 30.3456 42.9749 31.0086 43.027C37.57 43.5421 39.1937 42.7001 39.1937 42.7001C39.1937 42.7001 40.0838 42.3572 40.3992 41.4946C40.4823 41.723 40.5191 41.9655 40.5076 42.2082Z" fill="#371A45"/>
</g>
<path d="M34.8542 44.8639C33.6005 44.8639 32.1697 44.7961 30.5709 44.6609C30.3657 44.6444 30.1669 44.5821 29.989 44.4786C29.8111 44.3751 29.6586 44.2331 29.5428 44.0629C29.2291 43.6027 28.8879 42.8942 29.0428 42.1375C29.1575 41.5767 29.522 41.0962 30.1265 40.7099C30.3972 40.5378 30.7195 40.4655 31.0377 40.5057C32.1988 40.65 36.204 41.0618 38.9863 40.304C39.39 40.1942 39.848 40.3006 40.2124 40.589C40.6695 40.9502 40.919 41.5452 40.8965 42.2214L40.5089 42.2085L40.8965 42.2214C40.848 43.6732 39.5269 44.264 39.3509 44.3364C39.237 44.3898 38.7375 44.5946 37.5307 44.7319C36.7576 44.8199 35.8636 44.8639 34.8542 44.8639ZM30.8648 41.2707C30.7511 41.2703 30.6397 41.3024 30.5437 41.3631C30.1231 41.6324 29.8739 41.9452 29.8027 42.293C29.7022 42.785 29.9544 43.2897 30.1837 43.6265C30.2348 43.7011 30.302 43.7633 30.3803 43.8085C30.4585 43.8538 30.546 43.881 30.6361 43.8881C34.0801 44.1794 36.173 44.0959 37.322 43.9745C38.5256 43.847 38.9782 43.6532 39.0173 43.6345L39.0386 43.6226L39.0539 43.6184C39.0945 43.6022 40.0868 43.1979 40.1202 42.1946C40.1395 41.6098 39.8843 41.3183 39.7303 41.1959C39.5603 41.0618 39.3533 41.0061 39.189 41.051C36.2699 41.8459 32.1378 41.4226 30.941 41.2739C30.9157 41.2712 30.8902 41.2702 30.8648 41.2707Z" fill="#371A45"/>
<path d="M30.3073 50.4716C30.2861 50.1622 30.9132 58.3808 31.6357 63.4096C32.1542 67.0185 35.4596 67.3934 40.7454 67.0191C42.6908 66.8812 44.1813 66.3013 44.0308 64.7632C43.8289 62.6971 40.8051 61.9147 40.8051 61.9147C40.8051 61.9147 40.0526 53.4191 39.4589 44.5989" fill="white"/>
<path d="M30.1784 50.48C30.1774 50.4762 30.1766 50.4725 30.176 50.4687C30.6988 50.4336 30.3224 50.4649 30.4397 50.4589L30.4444 50.4751L30.4536 50.5067L30.471 50.5705C30.4827 50.613 30.4922 50.6555 30.5041 50.698C30.5254 50.783 30.5456 50.8676 30.5649 50.9519C30.6038 51.1219 30.6382 51.2919 30.6712 51.4619C30.7363 51.8019 30.7926 52.1423 30.8401 52.4832C30.8888 52.8243 30.9272 53.166 30.9663 53.5077C31.0054 53.8494 31.0405 54.1915 31.0743 54.5338C31.1416 55.2181 31.1948 55.9038 31.2528 56.5889C31.2812 56.9315 31.3125 57.2738 31.3437 57.6161C31.375 57.9585 31.4109 58.3002 31.4474 58.6419C31.5928 60.0087 31.749 61.374 31.9323 62.7329L32.0029 63.2419L32.0212 63.3681L32.0401 63.4873C32.046 63.5272 32.0545 63.5663 32.0613 63.6057L32.0724 63.6647L32.0853 63.7232C32.1491 64.0308 32.249 64.3299 32.3828 64.6142C32.4489 64.7526 32.5249 64.886 32.6104 65.0133C32.6955 65.1394 32.7903 65.2587 32.8939 65.37C33.1041 65.5942 33.3459 65.7865 33.6117 65.9408C33.8859 66.0998 34.1763 66.2289 34.4781 66.3257C34.6309 66.376 34.7869 66.4202 34.9456 66.4593C35.1043 66.4984 35.2643 66.5314 35.4269 66.5607C36.0765 66.6769 36.748 66.7245 37.4227 66.7413C38.0974 66.7581 38.7785 66.7413 39.4599 66.7086C39.7999 66.6927 40.141 66.673 40.4831 66.6495L40.7381 66.6317C40.821 66.6253 40.9041 66.6191 40.9865 66.6104C41.069 66.6017 41.1512 66.593 41.2333 66.5841C41.3153 66.5751 41.3969 66.5628 41.4776 66.5503C41.6398 66.5258 41.8002 66.4965 41.957 66.4602C42.1139 66.4238 42.2681 66.3826 42.4169 66.3327C42.7129 66.2324 42.9906 66.0989 43.2031 65.9234C43.3065 65.8402 43.3965 65.7417 43.47 65.6312C43.5389 65.5238 43.5887 65.4052 43.6173 65.2808C43.6467 65.1484 43.6571 65.0124 43.6483 64.877C43.6411 64.7356 43.6167 64.5955 43.5756 64.4599C43.4945 64.1888 43.3464 63.9338 43.1506 63.7051C42.9549 63.4765 42.7157 63.2727 42.4539 63.0937C42.1868 62.9137 41.9049 62.7568 41.6111 62.6248C41.4623 62.5576 41.3119 62.4953 41.1593 62.4386C41.083 62.4103 41.0061 62.3834 40.9294 62.3581C40.8909 62.3455 40.8527 62.3332 40.8144 62.3215L40.7577 62.3047L40.7063 62.2903L40.4406 62.2159L40.4173 61.949C40.2906 60.5057 40.1683 59.0628 40.0503 57.6202C39.9323 56.1776 39.8166 54.7343 39.7033 53.2903L39.3726 48.9589C39.3416 48.5976 39.3048 48.2379 39.2719 47.8773C39.2389 47.5166 39.2149 47.1548 39.2015 46.7935C39.1954 46.6125 39.1901 46.4323 39.1888 46.2499C39.1875 46.0676 39.1916 45.8868 39.2001 45.7049C39.2086 45.523 39.2213 45.3404 39.2426 45.1577C39.2613 44.9729 39.2901 44.7893 39.3288 44.6077C39.3351 44.5794 39.3504 44.5539 39.3723 44.5349C39.3943 44.516 39.4218 44.5046 39.4507 44.5025C39.4797 44.5004 39.5085 44.5078 39.5329 44.5234C39.5574 44.539 39.5761 44.5621 39.5864 44.5892C39.6493 44.7639 39.7029 44.9418 39.7468 45.1222C39.7914 45.3005 39.8295 45.4792 39.8628 45.6581C39.93 46.016 39.9736 46.3755 40.0116 46.7353C40.0896 47.4548 40.1083 48.1786 40.1516 48.9009C40.1729 49.2621 40.202 49.6223 40.2286 49.9831L40.3095 51.0652L40.4761 53.2289C40.5885 54.6713 40.7041 56.1135 40.8229 57.5554C40.9418 58.9972 41.0639 60.4386 41.1893 61.8795L40.9003 61.5395L40.9387 61.5499L40.9732 61.5597L41.0401 61.5797C41.0843 61.5931 41.1279 61.6071 41.1712 61.6222C41.2579 61.6505 41.3438 61.6806 41.4288 61.7123C41.5988 61.7753 41.7663 61.8444 41.9315 61.9195C42.266 62.0701 42.5869 62.249 42.891 62.4541C43.2061 62.6652 43.4919 62.917 43.741 63.203C43.8039 63.2769 43.8639 63.3538 43.921 63.4337C43.9773 63.5145 44.031 63.5974 44.0801 63.6841C44.1799 63.8587 44.2598 64.0441 44.3181 64.2366C44.3769 64.4309 44.412 64.6316 44.4225 64.8343C44.4354 65.0431 44.4185 65.2527 44.3723 65.4567C44.3233 65.6685 44.2381 65.8702 44.1205 66.053C44.0037 66.2302 43.8604 66.3884 43.6955 66.522C43.5399 66.6482 43.3711 66.7572 43.1921 66.8471C43.0213 66.9331 42.8446 67.0066 42.6634 67.0673C42.4855 67.1268 42.307 67.175 42.1285 67.216C41.95 67.257 41.7715 67.2896 41.5932 67.3165C41.5042 67.331 41.4152 67.3416 41.3261 67.3535C41.2371 67.3654 41.1483 67.3748 41.0594 67.382C40.9706 67.3892 40.882 67.3977 40.7934 67.4047L40.5337 67.4228C40.1882 67.4459 39.8419 67.4659 39.495 67.4827C38.801 67.5152 38.104 67.5327 37.4027 67.5161C36.7015 67.4995 35.9951 67.4498 35.2884 67.3236C35.1118 67.2915 34.9354 67.2547 34.7594 67.212C34.5835 67.1693 34.4082 67.1189 34.2339 67.0615C33.8796 66.9475 33.5387 66.7956 33.2169 66.6085C32.8865 66.4161 32.5858 66.1765 32.3244 65.8975C32.1935 65.7566 32.0737 65.6057 31.9661 65.4463C31.8596 65.2878 31.7648 65.1216 31.6824 64.9493C31.5221 64.6104 31.4024 64.2538 31.3257 63.8868L31.311 63.8192L31.298 63.7514C31.29 63.7062 31.2804 63.6609 31.2734 63.6156L31.2521 63.4799L31.2336 63.3507L31.1622 62.8368C30.9772 61.4662 30.8205 60.0956 30.6746 58.7235L30.5649 57.695L30.4508 56.6671C30.3747 55.9818 30.2984 55.2965 30.2406 54.6095C30.2115 54.2661 30.185 53.9225 30.1635 53.5784C30.142 53.2344 30.121 52.8903 30.1106 52.5452C30.1002 52.2001 30.0976 51.8548 30.1061 51.5085C30.1112 51.3351 30.1176 51.1617 30.1274 50.988C30.1329 50.9011 30.1393 50.8141 30.1467 50.7273C30.1507 50.6837 30.1544 50.6404 30.1592 50.5968L30.1663 50.5314L30.1703 50.4989L30.1724 50.4827C30.2893 50.4721 29.9123 50.4957 30.4346 50.4585C30.4346 50.4562 30.4346 50.4617 30.4334 50.4634L30.4276 50.4846C30.4205 50.5129 30.404 50.538 30.3808 50.5557C30.3577 50.5735 30.3292 50.5829 30.3 50.5825C30.2708 50.582 30.2426 50.5717 30.22 50.5533C30.1974 50.5348 30.1817 50.5093 30.1754 50.4808L30.1784 50.48Z" fill="#371A45"/>
<g opacity="0.35">
<path opacity="0.35" d="M30.5632 50.7244C30.5632 50.8615 30.9332 58.5202 31.6361 63.4096C32.1546 67.0189 35.4592 67.3935 40.7452 67.0189C42.6912 66.8816 44.1813 66.3017 44.0308 64.7634C44.027 64.7273 44.0232 64.6924 44.0177 64.6572C43.4186 65.0488 42.5227 65.2437 41.5 65.3159C36.2142 65.6906 32.9086 65.3159 32.3901 61.7066C31.8529 57.9696 30.9795 52.9382 30.5747 50.7272L30.5643 50.731C30.5645 50.7287 30.5642 50.7265 30.5632 50.7244Z" fill="#371A45"/>
</g>
<path d="M11.9254 26.9988C11.9429 27.2463 11.9449 27.4947 11.9316 27.7425C11.8781 28.753 11.5733 29.7342 11.0449 30.5971C10.5166 31.4601 9.78122 32.1777 8.90555 32.6847C8.02989 33.1918 7.04155 33.4724 6.03006 33.5012C5.01858 33.5299 4.0159 33.3059 3.11285 32.8493C4.52407 32.2397 6.12759 31.3661 7.7581 30.2834C9.38862 29.2007 10.816 28.0628 11.9254 26.9988Z" fill="#FFB200"/>
<path d="M4.8165 33.5107L4.7927 33.4113L4.73108 33.3293L4.74808 33.3163L4.76933 33.3112C5.5713 33.12 7.03671 32.3688 8.50295 31.3953C9.97728 30.4165 11.2047 29.3889 11.7066 28.7133L11.8709 28.8353C11.356 29.5287 10.109 30.5751 8.61622 31.566C7.10853 32.5662 5.65269 33.3121 4.8165 33.5107Z" fill="#D66B09"/>
<path d="M7.75792 30.2838C9.38843 29.2016 10.816 28.0628 11.9255 26.9988C11.9429 27.2463 11.945 27.4947 11.9316 27.7425C11.0838 28.5976 9.68763 29.7105 8.03013 30.8108C6.44255 31.8648 4.93762 32.6936 3.83177 33.1566C3.58574 33.0697 3.34555 32.967 3.11267 32.8493C4.52388 32.2401 6.12741 31.3665 7.75792 30.2838Z" fill="#D66B09"/>
<g opacity="0.35">
<path opacity="0.35" d="M11.9254 26.1566C11.9429 26.4042 11.9449 26.6526 11.9316 26.9004C11.8781 27.9108 11.5733 28.892 11.0449 29.755C10.5166 30.618 9.78122 31.3355 8.90555 31.8426C8.02989 32.3497 7.04155 32.6303 6.03006 32.659C5.01858 32.6878 4.0159 32.4637 3.11285 32.0072C4.52407 31.3975 6.12759 30.5239 7.7581 29.4412C9.38862 28.3585 10.816 27.2206 11.9254 26.1566Z" fill="#371A45"/>
</g>
<g opacity="0.35">
<path opacity="0.35" d="M11.305 23.9054C11.268 23.9479 11.2295 23.9889 11.1891 24.0329C11.2236 23.9817 11.2574 23.9294 11.2894 23.8767C11.2948 23.8854 11.2999 23.8963 11.305 23.9054Z" fill="#371A45"/>
</g>
<path d="M10.9254 24.0664C11.0654 24.277 11.1922 24.4962 11.305 24.7226C10.4577 25.6707 8.70991 27.0892 6.57662 28.5051C4.44334 29.921 2.45773 30.9815 1.2552 31.3951C1.09059 31.2029 0.938139 31.0006 0.798748 30.7894C0.791948 30.7795 0.785573 30.7697 0.778985 30.7595C0.716935 30.6651 0.658073 30.5697 0.602398 30.473C0.472571 30.25 0.357229 30.0188 0.257085 29.7809C0.253048 29.7716 0.24901 29.762 0.245185 29.7522C-0.291555 28.455 -0.362785 27.0121 0.0435905 25.6683C0.449966 24.3246 1.3089 23.1629 2.47453 22.3805C3.64017 21.5982 5.04066 21.2434 6.43819 21.3764C7.83573 21.5094 9.14416 22.122 10.1413 23.1101C10.1626 23.1314 10.1838 23.1526 10.2051 23.1754C10.3854 23.36 10.5537 23.556 10.7091 23.7621C10.7673 23.8394 10.824 23.9185 10.8791 23.9994C10.8955 24.0209 10.9106 24.043 10.9254 24.0664Z" fill="#FFB200"/>
<path d="M10.8804 23.9989C10.8955 24.0202 10.9106 24.0429 10.9254 24.0654C11.0654 24.2761 11.1922 24.4952 11.305 24.7216C10.4577 25.6698 8.70992 27.0882 6.57663 28.5041C4.44334 29.92 2.45774 30.9806 1.2552 31.3941C1.09062 31.2022 0.938175 31.0002 0.798754 30.7893C0.791954 30.7794 0.785579 30.7696 0.778992 30.7594C1.93095 30.4387 3.95842 29.3958 6.13399 27.952C8.39223 26.4514 10.1913 24.929 10.8804 23.9989Z" fill="#D66B09"/>
<path d="M-0.0652689 28.8847L-0.110107 28.4776C0.713755 28.3868 2.74228 27.36 4.82181 25.9788C7.30232 24.3317 8.84294 22.889 9.08243 22.3148L9.46068 22.4727C9.14363 23.2322 7.37032 24.7784 5.04833 26.319C2.88635 27.7555 0.831268 28.7861 -0.0652689 28.8847Z" fill="#D66B09"/>
<path d="M-0.0980095 26.7952L-0.222534 26.4049C0.674641 26.1186 2.1802 25.3115 3.70617 24.2983C5.30502 23.2358 6.65822 22.1328 7.23728 21.4173L7.55603 21.675C6.95253 22.4207 5.56427 23.5567 3.9329 24.6398C2.3774 25.6724 0.83274 26.4984 -0.0980095 26.7952Z" fill="#D66B09"/>
<path d="M0.27603 29.9546L0.21228 29.5509C1.15132 29.4021 3.24529 28.3318 5.4232 26.8857C7.70758 25.3691 9.57269 23.7785 9.95859 23.0182L10.3241 23.2035C9.9027 24.0339 8.02442 25.6508 5.64909 27.2274C3.39277 28.7247 1.28349 29.7957 0.27603 29.9546Z" fill="#D66B09"/>
<path d="M5.86749 33.897C4.8492 33.897 3.84516 33.6577 2.93627 33.1985C2.86995 33.165 2.81456 33.1133 2.77658 33.0494C2.73861 32.9855 2.71963 32.9121 2.72186 32.8379C2.72409 32.7636 2.74744 32.6915 2.78918 32.63C2.83091 32.5685 2.88931 32.5202 2.95752 32.4907C4.39827 31.8683 5.98352 30.9926 7.54178 29.9581C9.10004 28.9237 10.5221 27.8027 11.6549 26.7164C11.7086 26.665 11.7758 26.6299 11.8486 26.6153C11.9215 26.6007 11.997 26.6071 12.0663 26.6339C12.1357 26.6607 12.1959 26.7066 12.2401 26.7664C12.2842 26.8262 12.3104 26.8973 12.3156 26.9714C12.3758 27.8299 12.2643 28.6917 11.9875 29.5065C11.7107 30.3213 11.2743 31.0728 10.7036 31.7169C10.133 32.361 9.43963 32.8849 8.66412 33.2579C7.88862 33.6309 7.04652 33.8455 6.18709 33.8892C6.08056 33.8945 5.97403 33.8972 5.86749 33.897ZM4.09248 32.8326C4.90888 33.0998 5.77519 33.1786 6.62641 33.0632C7.47762 32.9477 8.29162 32.6409 9.00729 32.1658C9.72297 31.6907 10.3217 31.0597 10.7587 30.3201C11.1956 29.5805 11.4593 28.7515 11.53 27.8954C10.4936 28.8159 9.27982 29.7441 7.97486 30.6094C6.66989 31.4747 5.34347 32.2346 4.09248 32.8326Z" fill="#371A45"/>
<path d="M14.2749 22.8762C14.7672 23.618 13.7995 25.2024 11.9255 26.9987C10.816 28.0627 9.38842 29.2015 7.75791 30.2837C6.1274 31.366 4.52388 32.24 3.11266 32.8497C0.72905 33.8792 -1.10653 34.1559 -1.5991 33.4141C-2.04535 32.7404 -1.2897 31.3724 0.256025 29.7803C0.356169 30.0182 0.471511 30.2494 0.601337 30.4724C0.17995 30.9491 -0.0081135 31.3035 0.104936 31.4737C0.220111 31.6471 0.632787 31.607 1.2552 31.3934C2.45774 30.9805 4.4427 29.9201 6.57662 28.5034C8.71055 27.0867 10.4577 25.6687 11.305 24.7209C11.7431 24.2305 11.9403 23.8658 11.8252 23.6922C11.7123 23.5222 11.3126 23.5577 10.7102 23.7608C10.5548 23.5548 10.3864 23.3588 10.2061 23.1741C12.2737 22.3681 13.8276 22.2017 14.2749 22.8762Z" fill="#FFC536"/>
<path d="M0.129794 32.2575C-0.167706 32.2575 -0.397419 32.1813 -0.517907 31.9996C-0.760582 31.6341 -0.478806 31.0176 0.343356 30.1151L0.588368 30.3385C-0.184069 31.1863 -0.346631 31.6579 -0.241868 31.8162C-0.0650681 32.0824 1.05226 31.9146 3.08864 30.9184C4.22722 30.361 5.49733 29.6221 6.76171 28.7834C8.02608 27.9446 9.19929 27.0598 10.1549 26.2268C11.8634 24.737 12.4516 23.772 12.2752 23.5068C12.169 23.3481 11.6722 23.3155 10.591 23.698L10.4802 23.3855C11.6314 22.9779 12.3077 22.9577 12.5513 23.3232C12.9871 23.9796 11.6071 25.4008 10.3727 26.4771C9.40648 27.3195 8.22116 28.2126 6.94509 29.0598C5.66903 29.9071 4.38574 30.6536 3.23421 31.2165C2.17022 31.7376 0.910519 32.2573 0.129794 32.2575Z" fill="#FFEC90"/>
<path d="M-0.245869 33.14C-0.667044 33.14 -1.00301 33.0337 -1.18087 32.7685C-1.63796 32.0802 -0.667258 30.8152 0.227367 29.8749L0.467705 30.1036C-0.843845 31.4816 -1.10139 32.2891 -0.904832 32.5851C-0.662157 32.95 0.51488 32.9676 3.03492 31.8123C4.33775 31.2156 5.77978 30.4 7.20523 29.4535C8.63068 28.5071 9.94202 27.4947 10.9975 26.5257C13.0398 24.651 13.4814 23.5596 13.2392 23.1946C13.0426 22.8988 12.1979 22.8225 10.4195 23.4961L10.302 23.1863C11.5156 22.7264 13.0583 22.3231 13.5152 23.0112C14.1089 23.9052 12.3331 25.7499 11.2217 26.7699C10.1537 27.7506 8.82809 28.774 7.38862 29.7296C5.94914 30.6852 4.49139 31.5097 3.17304 32.1136C2.21127 32.5541 0.746718 33.14 -0.245869 33.14Z" fill="#FFEC90"/>
<g opacity="0.35">
<path opacity="0.35" d="M8.37968 29.6285C6.78359 30.6805 5.21662 31.5305 3.83452 32.1279C1.4509 33.1574 -0.384884 33.4341 -0.877459 32.6925C-1.32371 32.0187 -0.567634 30.6506 0.977665 29.0587C1.0781 29.2966 1.1935 29.5278 1.32319 29.7511C0.901591 30.2275 0.713529 30.5817 0.826791 30.7522C0.940053 30.9226 1.35485 30.8856 1.97684 30.672C2.77499 30.3988 3.91718 29.8393 5.21874 29.0813C5.2147 29.2674 5.25635 29.4302 5.34624 29.5647C5.71493 30.1198 6.83756 30.104 8.37968 29.6285Z" fill="#371A45"/>
</g>
<path d="M-0.486441 34.1931C-1.10588 34.1931 -1.62077 34.0341 -1.89978 33.6138C-2.19728 33.1676 -2.14245 32.5477 -1.7387 31.7746C-1.39552 31.1174 -0.811566 30.3621 -0.00279093 29.5293C0.0387847 29.4867 0.0902629 29.455 0.147061 29.437C0.20386 29.4191 0.264216 29.4155 0.322754 29.4265C0.381292 29.4375 0.436197 29.4628 0.482579 29.5002C0.528961 29.5376 0.56538 29.5858 0.588596 29.6407C0.682911 29.8646 0.791363 30.0823 0.913296 30.2924C0.95122 30.3581 0.967522 30.434 0.959895 30.5095C0.952267 30.5849 0.921095 30.656 0.870796 30.7128C0.658296 30.9542 0.548008 31.1165 0.491696 31.2177C0.611333 31.2049 0.812783 31.1645 1.13727 31.0532C2.34852 30.6373 4.35601 29.5457 6.37624 28.2057C8.39648 26.8657 10.1815 25.4381 11.0351 24.4831C11.2633 24.2281 11.3787 24.0581 11.4369 23.9519C11.3213 23.9642 11.1297 24.0022 10.8245 24.1051C10.7526 24.1293 10.675 24.1303 10.6025 24.1079C10.53 24.0855 10.4664 24.0409 10.4208 23.9803C10.2747 23.7863 10.1165 23.6017 9.94688 23.4278C9.90531 23.3851 9.87496 23.3328 9.85854 23.2755C9.84211 23.2182 9.84012 23.1577 9.85275 23.0994C9.86537 23.0412 9.89222 22.9869 9.93089 22.9416C9.96956 22.8962 10.0189 22.8611 10.0744 22.8394C11.1556 22.4172 12.0785 22.1722 12.8173 22.111C13.6867 22.0391 14.2778 22.2293 14.5749 22.6764C15.3803 23.8898 13.4168 26.069 12.1737 27.2601C11.0092 28.3767 9.55078 29.5266 7.95597 30.5853C6.36116 31.6439 4.73511 32.5422 3.2542 33.1818C2.22251 33.627 0.682309 34.1931 -0.486441 34.1931ZM0.156159 30.4136C-1.16389 31.8647 -1.53619 32.8573 -1.2984 33.2145C-1.14647 33.4434 -0.672592 33.5248 0.0016706 33.4383C0.782396 33.338 1.80792 33.0199 2.96966 32.5184C4.41189 31.8953 5.99863 31.0185 7.55838 29.983C9.11813 28.9475 10.5417 27.8255 11.6758 26.7382C12.5895 25.8629 13.2802 25.0405 13.6756 24.3599C14.0171 23.7721 14.1259 23.3037 13.9731 23.0749C13.7353 22.7166 12.6769 22.6749 10.8281 23.3284L10.8396 23.3422C11.3439 23.1949 11.8823 23.1263 12.1259 23.4933C12.4132 23.9259 11.982 24.5054 11.5734 24.9621C10.6681 25.9749 8.87461 27.4116 6.77553 28.8051C4.67646 30.1987 2.65707 31.2942 1.37251 31.7351C0.793446 31.934 0.0917714 32.1065 -0.195529 31.6737C-0.439266 31.3069 -0.166842 30.8371 0.164658 30.4293L0.156159 30.4136Z" fill="#371A45"/>
<g opacity="0.35">
<path opacity="0.35" d="M11.9667 24.0598C11.1195 25.0078 9.37143 26.4266 7.23835 27.8423C5.10528 29.258 3.11925 30.3188 1.91671 30.7323C1.75212 30.5401 1.59934 30.3382 1.4592 30.1275C1.4524 30.1175 1.44624 30.1078 1.43944 30.0976C1.37767 30.0031 1.31888 29.9077 1.26306 29.8113C1.13342 29.5881 1.01802 29.357 0.91754 29.1192C0.913502 29.1097 0.909676 29.1001 0.905851 29.0905C0.434612 27.9502 0.321272 26.6935 0.580871 25.4872C0.840469 24.281 1.46073 23.1822 2.35935 22.3366C1.84752 23.501 1.71245 24.7962 1.97303 26.0412C2.05005 26.4076 2.1611 26.7661 2.30474 27.1119C2.30878 27.1219 2.31281 27.1313 2.31685 27.1408C2.32089 27.1504 2.32918 27.1689 2.3381 27.187C2.80751 28.1702 3.98646 28.426 5.0428 28.1591C7.05603 27.6504 11.099 24.5594 11.9537 23.8588C12.0438 24.0069 11.8913 23.907 11.9667 24.0598Z" fill="#371A45"/>
</g>
<g opacity="0.41">
<path opacity="0.41" d="M11.1611 24.8678C11.0619 24.9783 10.9513 25.0947 10.8294 25.2171C10.7478 25.0684 10.6594 24.9217 10.564 24.7781L10.5189 24.7118C10.4638 24.6306 10.4071 24.5515 10.3489 24.4744C10.1937 24.2682 10.0254 24.0722 9.84507 23.8875C9.82382 23.8663 9.80257 23.845 9.78132 23.8225C9.51454 23.557 9.22326 23.3173 8.91135 23.1066C8.17476 22.6079 7.33775 22.2769 6.45933 22.137C5.58092 21.997 4.68249 22.0514 3.82739 22.2964C2.9723 22.5414 2.18136 22.971 1.51036 23.5549C0.839352 24.1388 0.304613 24.8629 -0.0561523 25.6759C0.266909 24.6913 0.836384 23.8056 1.59816 23.103C2.35994 22.4004 3.28872 21.9043 4.29624 21.6618C5.30376 21.4193 6.35656 21.4384 7.3546 21.7174C8.35264 21.9964 9.26277 22.5259 9.9985 23.2557C10.0197 23.277 10.041 23.2982 10.0622 23.3212C10.2426 23.5057 10.4109 23.7016 10.5661 23.9077C10.6247 23.9853 10.6814 24.0645 10.7361 24.1451C10.7516 24.1663 10.7665 24.189 10.7811 24.2118C10.9212 24.4224 11.0481 24.6415 11.1611 24.8678Z" fill="white"/>
</g>
<path d="M1.25519 31.7849C1.19872 31.785 1.14289 31.7729 1.09153 31.7495C1.04018 31.726 0.994515 31.6917 0.957688 31.6489C0.782292 31.4447 0.619703 31.2299 0.470851 31.0056C0.397539 30.8953 0.327201 30.7821 0.261751 30.6688C0.12387 30.4315 0.00122291 30.1856 -0.105449 29.9327C-1.30862 27.0754 -0.304562 23.7551 2.2822 22.0377C4.86896 20.3203 8.31869 20.6836 10.4847 22.9015C10.6765 23.0982 10.8556 23.3069 11.0211 23.5263C11.0997 23.6302 11.1766 23.7388 11.2499 23.849C11.3987 24.0733 11.5336 24.3066 11.6537 24.5475C11.6885 24.6175 11.7016 24.6964 11.6912 24.7739C11.6808 24.8514 11.6474 24.924 11.5952 24.9823C10.6885 25.9968 8.89265 27.4352 6.79166 28.8303C4.69068 30.2253 2.66789 31.3218 1.38078 31.7628C1.34043 31.7771 1.29799 31.7845 1.25519 31.7849ZM5.86176 21.74C4.74278 21.7395 3.64861 22.0697 2.71676 22.6892C0.443014 24.198 -0.440348 27.1177 0.617264 29.629C0.711001 29.8515 0.818888 30.0678 0.940263 30.2765C0.998063 30.3764 1.0599 30.4761 1.12429 30.574C1.20568 30.6969 1.29216 30.8169 1.38269 30.9327C2.6069 30.4627 4.47839 29.4299 6.36114 28.1798C8.24389 26.9297 9.92221 25.606 10.8307 24.6599C10.759 24.5324 10.6819 24.4049 10.6005 24.2828C10.5368 24.1856 10.4683 24.09 10.3991 23.9984C10.2535 23.8055 10.096 23.622 9.92731 23.4489C9.39803 22.9071 8.76562 22.4768 8.06737 22.1833C7.36913 21.8898 6.61919 21.739 5.86176 21.74Z" fill="#371A45"/>
<path d="M42.7513 51.2025C42.0337 51.7374 41.4338 51.3005 38.8579 51.5036C38.4372 51.5372 36.8581 51.7742 36.3487 51.1556C36.1169 50.8746 36.0782 50.4592 36.122 50.0459C36.1985 49.3313 36.5221 48.6221 36.5221 48.6221C36.5221 48.6221 35.8434 48.5129 35.5718 47.532C35.3024 46.5571 36.4518 44.6788 36.4518 44.6788C36.4518 44.6788 36.6957 37.5849 35.7586 32.7382L34.8918 31.6479L30.1431 25.6766L37.3715 26.8925C37.3715 26.8925 37.4635 27.0241 37.6265 27.2774C37.8815 27.6703 38.3084 28.3562 38.8271 29.2893C40.6074 32.4938 43.4717 38.6096 44.1426 45.7634C44.262 47.0511 44.4233 49.9575 42.7513 51.2025Z" fill="white"/>
<g opacity="0.35">
<path opacity="0.35" d="M44.0937 48.6571C43.9263 49.6463 43.5455 50.6121 42.7514 51.203C42.0337 51.7379 41.4339 51.301 38.8579 51.5042C38.4372 51.5377 36.8581 51.7747 36.3487 51.1561C36.1169 50.8752 36.0782 50.4597 36.122 50.0464C36.1985 49.3318 36.5221 48.6227 36.5221 48.6227C36.5221 48.6227 35.8434 48.5134 35.5718 47.5325C35.428 47.0128 35.6872 46.238 35.9607 45.6266C35.9424 45.8145 35.9494 45.9911 35.9924 46.1441C36.2639 47.1252 36.9429 47.2344 36.9429 47.2344C36.9429 47.2344 36.6192 47.9429 36.5425 48.6581C36.4988 49.0717 36.9074 48.2382 36.9187 48.602C36.9728 50.3314 38.8579 50.1497 39.2774 50.1159C41.854 49.9127 42.4532 50.3496 43.1708 49.8148C43.5793 49.5113 43.8772 49.1103 44.0937 48.6571Z" fill="#371A45"/>
</g>
<path d="M35.8859 32.715C35.9726 32.9536 36.047 33.1958 36.1196 33.4392L36.1721 33.6221C36.1885 33.6831 36.2021 33.7447 36.2172 33.8059C36.2471 33.9288 36.2745 34.052 36.3022 34.1753C36.3298 34.2985 36.3559 34.4222 36.3819 34.5459C36.395 34.6079 36.4052 34.67 36.4161 34.732L36.4477 34.9184C36.4686 35.0425 36.4885 35.1669 36.5074 35.2915L36.5357 35.4785C36.5451 35.541 36.5544 35.6033 36.5614 35.6657C36.6876 36.6645 36.7654 37.6681 36.8071 38.6715L36.8309 39.4242L36.8364 39.6123L36.8398 39.8006L36.8464 40.1767L36.8534 40.5528L36.857 40.9289L36.8613 41.3051C36.8634 41.4304 36.8625 41.5558 36.8638 41.6812C36.8653 41.9319 36.8683 42.1825 36.8676 42.4332C36.867 42.684 36.8676 42.9347 36.8655 43.1855L36.8623 43.5616L36.8568 43.9379C36.8526 44.1893 36.8472 44.4388 36.8394 44.6932C36.8376 44.7572 36.8196 44.8198 36.7871 44.8751L36.7826 44.8823L36.7501 44.9371L36.7163 44.9953C36.694 45.0346 36.6717 45.0744 36.6498 45.1143C36.6059 45.1941 36.5634 45.2747 36.5223 45.3562C36.4388 45.5185 36.3604 45.6832 36.2886 45.8489C36.2168 46.0147 36.1498 46.1821 36.0935 46.3494C36.0373 46.5123 35.9922 46.6787 35.9583 46.8477C35.927 46.998 35.916 47.1518 35.9256 47.305C35.9291 47.3363 35.9342 47.3675 35.9409 47.3983L35.9456 47.4195C35.9456 47.4234 35.9469 47.4263 35.9481 47.4308L35.9528 47.445L35.9709 47.5016C35.9816 47.5392 35.9945 47.5762 36.0096 47.6123L36.0308 47.6656C36.0368 47.6834 36.044 47.7007 36.0525 47.7175C36.1117 47.8473 36.1948 47.9649 36.2975 48.064C36.344 48.1093 36.3961 48.1486 36.4524 48.1809L36.4737 48.1928C36.4802 48.1966 36.4873 48.1994 36.4949 48.2028L36.5151 48.213C36.5219 48.216 36.5285 48.2183 36.5351 48.2213C36.5487 48.2275 36.5608 48.2311 36.5731 48.2355C36.5788 48.2377 36.5833 48.2383 36.5886 48.2402C36.59 48.2406 36.5914 48.241 36.5929 48.2413H36.5946H36.5933H36.5907H36.5856L36.8766 48.7853L36.8536 48.8384L36.8294 48.8968C36.8134 48.9364 36.7977 48.9761 36.7829 49.0165C36.7525 49.0968 36.724 49.1782 36.6979 49.2598C36.6717 49.3414 36.6468 49.4236 36.6241 49.5059C36.6014 49.5881 36.5816 49.6703 36.5646 49.7521C36.5297 49.9114 36.5076 50.0732 36.4985 50.236C36.4947 50.3117 36.4957 50.3876 36.5015 50.4632C36.503 50.5001 36.5094 50.5341 36.5134 50.5694C36.5159 50.5866 36.52 50.6028 36.5232 50.6194L36.5279 50.6442C36.5298 50.6521 36.5321 50.6597 36.5342 50.6674C36.5483 50.7252 36.5697 50.781 36.598 50.8333C36.605 50.8446 36.6116 50.8563 36.618 50.868C36.6243 50.8797 36.6337 50.8892 36.6409 50.8986C36.6471 50.908 36.6543 50.9168 36.6621 50.9249C36.666 50.9288 36.6692 50.933 36.673 50.937L36.6864 50.9485C36.7281 50.9846 36.7746 51.0147 36.8245 51.0382C36.8872 51.0667 36.9521 51.09 37.0185 51.1079C37.1717 51.1469 37.3282 51.1711 37.486 51.1801C37.5689 51.1859 37.6535 51.1882 37.7385 51.1893C37.8235 51.1903 37.9099 51.1893 37.9966 51.1852C38.1703 51.1784 38.3456 51.1653 38.5243 51.1478L38.6599 51.1345L38.8029 51.1206L39.0853 51.0994C39.4595 51.0752 39.8352 51.0599 40.2115 51.0586C40.3995 51.0577 40.5873 51.0597 40.7749 51.0645C40.9621 51.0694 41.1484 51.0769 41.331 51.0839C41.5135 51.0909 41.6922 51.0975 41.8556 51.0926C41.9322 51.0907 42.0086 51.0845 42.0845 51.0739C42.1502 51.0649 42.2148 51.0491 42.2772 51.0267C42.3372 51.0047 42.3947 50.9762 42.4485 50.9417L42.4698 50.9285L42.491 50.9135C42.5053 50.903 42.5189 50.8945 42.5348 50.8812L42.6268 50.8072L42.65 50.7887L42.6712 50.7685L42.7148 50.7282C42.7445 50.7021 42.7729 50.6745 42.7998 50.6455L42.8816 50.5588L42.9579 50.4664C42.9704 50.4508 42.9838 50.4362 42.9955 50.4196L43.031 50.3707L43.0665 50.3219C43.0784 50.3055 43.0903 50.2893 43.1009 50.2719L43.1663 50.1691C43.1778 50.1523 43.1876 50.134 43.1976 50.1162L43.2278 50.0626L43.2579 50.0091C43.2679 49.9912 43.2764 49.9721 43.2858 49.9538L43.341 49.8427C43.3735 49.7657 43.4097 49.6909 43.4383 49.6115C43.5612 49.2989 43.6451 48.964 43.7063 48.6225C43.735 48.451 43.7594 48.2782 43.7769 48.1036C43.7943 47.9289 43.8077 47.7532 43.814 47.5761C43.8293 47.2228 43.8249 46.8662 43.8075 46.509C43.7984 46.3305 43.7861 46.1515 43.7707 45.9722C43.7567 45.7931 43.7344 45.6109 43.7155 45.431L43.6568 44.8889L43.6494 44.8211L43.64 44.7535L43.6215 44.6184L43.5845 44.3481L43.5476 44.0778L43.5291 43.9426L43.5199 43.875L43.5089 43.8077L43.4203 43.2692C43.3657 42.9094 43.2913 42.5529 43.2244 42.1952L43.1989 42.0611L43.1859 41.994L43.1714 41.9273L43.1134 41.6606L42.9978 41.1268C42.957 40.9493 42.9128 40.7727 42.8703 40.5955L42.8066 40.3301L42.7745 40.1973L42.7394 40.0653L42.5992 39.5373C42.5752 39.4493 42.5533 39.3609 42.5278 39.2736L42.4519 39.0109L42.3 38.486L42.1376 37.9639L42.0562 37.703L42.035 37.6377L42.0137 37.5729L41.9712 37.4433L41.7981 36.9246C41.77 36.8381 41.7388 36.7522 41.7084 36.6664L41.6168 36.4088C41.5552 36.2371 41.4967 36.0646 41.4311 35.8944L41.2385 35.3825C41.2071 35.2975 41.1731 35.2125 41.1395 35.1275L41.0388 34.8725C40.9073 34.5325 40.7625 34.1971 40.6244 33.8601C40.4786 33.5256 40.3365 33.1897 40.1837 32.8584C40.0349 32.5254 39.8781 32.1962 39.7219 31.8664L39.482 31.3747C39.4011 31.2113 39.318 31.0492 39.2362 30.886C38.9044 30.2363 38.5573 29.5951 38.1949 28.9624C38.0126 28.6471 37.8283 28.3328 37.6375 28.0236C37.5903 27.9458 37.5419 27.8691 37.4939 27.7922C37.4458 27.7153 37.3974 27.6385 37.3483 27.5623C37.2992 27.486 37.2503 27.4103 37.201 27.3347C37.1517 27.259 37.1007 27.1832 37.0523 27.1141L37.3062 27.275L35.5 26.9713C34.8975 26.8706 34.2921 26.7868 33.6884 26.6936C33.0847 26.6003 32.4844 26.4866 31.8877 26.3514C31.5902 26.2826 31.2927 26.2057 30.998 26.1162C30.8505 26.0723 30.7036 26.0247 30.5574 25.9734C30.4112 25.922 30.2655 25.8671 30.1214 25.8034C30.0943 25.7914 30.072 25.7708 30.0579 25.7447C30.0439 25.7186 30.0389 25.6886 30.0437 25.6594C30.0486 25.6302 30.0631 25.6034 30.0848 25.5833C30.1066 25.5632 30.1344 25.5509 30.1639 25.5484C30.3209 25.5354 30.4765 25.5318 30.6314 25.5312C30.7863 25.5305 30.9408 25.5335 31.0944 25.5401C31.4021 25.5522 31.7079 25.5764 32.0122 25.609C32.6201 25.6762 33.2246 25.7648 33.8257 25.8746C34.4269 25.984 35.0263 26.1028 35.6285 26.2048L37.4348 26.5091H37.4369C37.4875 26.5177 37.5358 26.5364 37.5791 26.5639C37.6223 26.5915 37.6596 26.6275 37.6887 26.6698C37.7455 26.752 37.795 26.8283 37.8479 26.9073C37.9008 26.9864 37.9505 27.0639 38.0005 27.1426C38.0504 27.2212 38.101 27.3 38.1492 27.3791C38.1975 27.4581 38.248 27.5368 38.2963 27.6162C38.4918 27.9329 38.6788 28.2537 38.8654 28.5746C39.2347 29.2186 39.5876 29.8712 39.9242 30.5324C40.2608 31.1935 40.582 31.8618 40.8877 32.5373C41.0428 32.8739 41.1873 33.2154 41.3357 33.5552C41.4768 33.8982 41.623 34.2388 41.757 34.5847L41.8593 34.8434C41.8935 34.9296 41.9281 35.0155 41.96 35.1026L42.1557 35.6232C42.2224 35.7964 42.2821 35.9719 42.3448 36.1464L42.4379 36.4086C42.4689 36.496 42.5016 36.5833 42.5293 36.6715L42.7054 37.1993L42.7496 37.3313L42.7709 37.3972L42.7921 37.4637L42.875 37.7293L43.0403 38.2606L43.195 38.7952L43.2724 39.0628C43.2983 39.1518 43.3206 39.2419 43.3451 39.3314L43.4881 39.8696L43.5238 40.0041L43.5565 40.1395L43.6219 40.4102C43.6644 40.5906 43.7101 40.7715 43.7518 40.9517L43.8699 41.4963L43.929 41.7685L43.9437 41.8365L43.9568 41.9049L43.983 42.0418C44.0514 42.4069 44.1271 42.7707 44.1832 43.1383L44.2735 43.6885L44.2847 43.7571L44.2941 43.8262L44.313 43.9643L44.3508 44.2405L44.3886 44.5168L44.4076 44.6549L44.4169 44.724L44.4248 44.7932L44.4847 45.3479C44.5042 45.5332 44.5272 45.7166 44.5414 45.9042C44.5557 46.0918 44.5703 46.2795 44.5799 46.468C44.5984 46.8454 44.6033 47.2251 44.5869 47.6065C44.5799 47.7978 44.5657 47.989 44.5465 48.1803C44.5274 48.3715 44.5004 48.5628 44.4683 48.754C44.3997 49.1365 44.3049 49.519 44.1589 49.8909C44.1249 49.9846 44.0818 50.076 44.0421 50.1672L43.9749 50.3032C43.9634 50.3259 43.9537 50.3486 43.9405 50.3709L43.9031 50.4377L43.8657 50.5042C43.8529 50.5254 43.8408 50.5486 43.8266 50.5701L43.7439 50.6999C43.7305 50.7211 43.7154 50.7424 43.7001 50.7636L43.6547 50.8274L43.6092 50.8901C43.5941 50.9113 43.5767 50.9305 43.5605 50.9509C43.5274 50.9908 43.4944 51.0312 43.4609 51.0707L43.3546 51.185C43.3196 51.2239 43.2805 51.2588 43.242 51.2945L43.1842 51.348L43.1553 51.3746L43.1247 51.3994L43.0017 51.498C42.9823 51.5144 42.9573 51.531 42.9343 51.5476L42.8992 51.5722L42.862 51.5956C42.761 51.6602 42.6532 51.7137 42.5405 51.755C42.4298 51.7949 42.3152 51.8234 42.1986 51.84C42.0924 51.8552 41.9854 51.8643 41.8782 51.8672C41.6737 51.8727 41.4853 51.8648 41.3 51.8582C41.1147 51.8516 40.934 51.8438 40.7534 51.8391C40.5728 51.8344 40.3934 51.8325 40.2137 51.8334C39.8543 51.8344 39.495 51.8491 39.1352 51.8725L38.8675 51.8922L38.597 51.9186C38.4097 51.9369 38.2181 51.9515 38.0232 51.959C37.9263 51.9626 37.8283 51.9643 37.73 51.9636C37.6316 51.963 37.5317 51.9596 37.4312 51.9528C37.2218 51.9405 37.0141 51.9077 36.8111 51.8548C36.6999 51.8248 36.5915 51.7853 36.487 51.7367C36.3705 51.6813 36.2622 51.6097 36.1655 51.5242L36.1277 51.4898C36.1154 51.4776 36.1035 51.4643 36.0914 51.4515C36.0675 51.4267 36.0452 51.4004 36.0246 51.3727C36.0047 51.3461 35.9849 51.3193 35.9658 51.2921C35.9467 51.2649 35.9322 51.2362 35.9161 51.2071C35.8559 51.0981 35.81 50.9819 35.7794 50.8612C35.7756 50.8467 35.7714 50.8321 35.768 50.8187L35.7592 50.7762C35.7537 50.7477 35.7473 50.719 35.7431 50.6912C35.7356 50.6351 35.7267 50.5781 35.7237 50.5233C35.7154 50.4155 35.7139 50.3073 35.7193 50.1992C35.7302 49.9946 35.7577 49.7913 35.8013 49.5911C35.8427 49.3978 35.8942 49.2068 35.9558 49.019C35.9864 48.9259 36.0195 48.8337 36.0533 48.7428C36.0703 48.6971 36.0884 48.6514 36.1069 48.6055L36.1354 48.5364L36.1505 48.5014L36.1674 48.4631L36.4584 49.0071L36.4445 49.0048L36.432 49.0022L36.4163 48.9986C36.4061 48.9963 36.395 48.9935 36.3861 48.9912C36.3685 48.9861 36.3498 48.9812 36.3332 48.9757C36.3005 48.9646 36.2675 48.9534 36.2376 48.9404C36.2223 48.934 36.2068 48.9279 36.1917 48.9211L36.1479 48.8998C36.1334 48.8926 36.1188 48.8856 36.1054 48.8786L36.064 48.8548C35.9554 48.7923 35.8548 48.7169 35.7643 48.6301C35.5918 48.4654 35.4517 48.2698 35.3512 48.0534C35.3383 48.028 35.3266 48.002 35.3164 47.9754L35.2841 47.897C35.2629 47.8453 35.2444 47.7925 35.2286 47.7389L35.2035 47.6594L35.1974 47.6397C35.1953 47.6327 35.1936 47.624 35.1916 47.6163L35.1806 47.5685C35.1668 47.5065 35.1567 47.4438 35.1502 47.3806C35.1479 47.3503 35.1462 47.3205 35.1445 47.2903L35.1421 47.2453V47.2015L35.1432 47.1142L35.1487 47.0292L35.1517 46.9867L35.1564 46.9454L35.1661 46.8632C35.1744 46.8094 35.1827 46.7559 35.1927 46.7032C35.2332 46.4992 35.2875 46.2981 35.3551 46.1014C35.4201 45.9084 35.4945 45.7221 35.5741 45.5395C35.6538 45.357 35.739 45.1783 35.8291 45.0026C35.8742 44.9146 35.9205 44.8273 35.9681 44.7408C35.9921 44.6983 36.0164 44.6543 36.041 44.6109L36.0786 44.5459L36.119 44.4781L36.0623 44.6672C36.0697 44.4226 36.075 44.173 36.0793 43.9254L36.0846 43.5529L36.0878 43.1804C36.0903 42.932 36.0901 42.6835 36.0899 42.4349C36.0897 42.1863 36.0873 41.9381 36.0848 41.6897C36.0714 40.6958 36.0291 39.7028 35.9745 38.7117L35.9307 37.969L35.9205 37.7833C35.9175 37.7212 35.9141 37.6594 35.9095 37.5976L35.8857 37.2268C35.8689 36.9796 35.8589 36.7314 35.8393 36.4849C35.8198 36.2384 35.8056 35.9909 35.7896 35.7435C35.7866 35.6815 35.7805 35.62 35.776 35.5584L35.762 35.3733C35.7533 35.2499 35.7448 35.1264 35.7376 35.0027L35.7269 34.817C35.7231 34.7552 35.7216 34.6929 35.7161 34.6315C35.7074 34.508 35.6987 34.3846 35.6914 34.2607C35.6842 34.1368 35.6776 34.0127 35.6727 33.8884L35.6649 33.7016L35.6534 33.5157C35.6398 33.2672 35.6288 33.0178 35.63 32.7647V32.7596C35.6302 32.7289 35.6412 32.6992 35.661 32.6757C35.6809 32.6523 35.7083 32.6365 35.7386 32.6313C35.7689 32.626 35.8 32.6316 35.8266 32.647C35.8532 32.6624 35.8735 32.6867 35.884 32.7156L35.8859 32.715Z" fill="#371A45"/>
<g opacity="0.35">
<path opacity="0.35" d="M38.8263 29.2897C38.6454 29.4449 38.4608 29.594 38.2719 29.739C35.7589 31.6672 32.66 32.6742 29.4935 32.5915C26.327 32.5088 23.2849 31.3415 20.876 29.2846C21.0885 28.5292 21.2855 27.7759 21.464 27.0226C23.589 22.1236 36.4252 24.098 37.0674 25.677C37.2601 26.1518 37.4471 26.6887 37.6257 27.2778C37.88 27.6707 38.3076 28.3567 38.8263 29.2897Z" fill="#371A45"/>
</g>
<path d="M43.3515 20.645C43.2768 20.6469 43.2044 20.6191 43.1503 20.5676C43.0961 20.5162 43.0646 20.4454 43.0627 20.3707L42.8546 12.2592C42.8528 12.1845 42.8806 12.1122 42.932 12.0581C42.9834 12.004 43.0542 11.9725 43.1288 11.9706C43.5167 11.9606 43.9029 12.0271 44.2651 12.1664C44.6274 12.3057 44.9586 12.5149 45.24 12.7822C45.5214 13.0495 45.7473 13.3696 45.905 13.7243C46.0626 14.0789 46.1489 14.4611 46.1588 14.8491L46.2298 17.6152C46.2498 18.3987 45.9578 19.158 45.4181 19.7262C44.8783 20.2944 44.1349 20.6249 43.3515 20.645Z" fill="white"/>
<path d="M43.344 20.7148C43.2525 20.7147 43.1646 20.6789 43.099 20.6149C43.0334 20.551 42.9954 20.464 42.993 20.3725L42.7849 12.261C42.7836 12.2147 42.7914 12.1687 42.8079 12.1255C42.8244 12.0823 42.8493 12.0428 42.8811 12.0092C42.9129 11.9757 42.951 11.9487 42.9933 11.9299C43.0355 11.9111 43.081 11.9009 43.1273 11.8997C43.5245 11.8894 43.9198 11.9574 44.2907 12.0999C44.6616 12.2424 45.0008 12.4566 45.2889 12.7302C45.577 13.0039 45.8084 13.3316 45.9699 13.6946C46.1313 14.0577 46.2196 14.449 46.2298 14.8462L46.3007 17.6121C46.3111 18.0093 46.2431 18.4047 46.1006 18.7756C45.9582 19.1466 45.744 19.4858 45.4703 19.7739C45.1967 20.062 44.869 20.2934 44.5059 20.4548C44.1428 20.6162 43.7514 20.7045 43.3542 20.7146H43.3451L43.344 20.7148ZM43.3495 20.5754L43.3515 20.6451L43.3495 20.5754C43.7284 20.5657 44.1016 20.4815 44.4479 20.3276C44.7941 20.1736 45.1067 19.953 45.3677 19.6783C45.6287 19.4035 45.833 19.0801 45.969 18.7264C46.105 18.3727 46.17 17.9956 46.1603 17.6168L46.0895 14.8507C46.0798 14.4719 45.9956 14.0987 45.8417 13.7524C45.6877 13.4061 45.4671 13.0935 45.1924 12.8325C44.9176 12.5715 44.5942 12.3672 44.2405 12.2312C43.8867 12.0952 43.5097 12.0302 43.1309 12.04C43.0747 12.0415 43.0214 12.0653 42.9827 12.106C42.944 12.1467 42.923 12.2012 42.9243 12.2573L43.1322 20.3689C43.1337 20.4251 43.1575 20.4783 43.1982 20.517C43.2389 20.5558 43.2934 20.5768 43.3495 20.5754Z" fill="#371A45"/>
<g opacity="0.35">
<path opacity="0.35" d="M46.1968 16.3181L46.2302 17.6144C46.2502 18.398 45.9581 19.1575 45.4182 19.7258C44.8783 20.2941 44.1349 20.6248 43.3512 20.645C43.2765 20.6469 43.2041 20.6189 43.1499 20.5674C43.0957 20.5158 43.0643 20.4448 43.0624 20.3701L43.0063 18.2138C43.0298 18.2628 43.0668 18.304 43.113 18.3324C43.1592 18.3609 43.2126 18.3754 43.2669 18.3743L43.4592 18.369C44.0719 18.3534 44.6646 18.1476 45.1551 17.7801C45.6456 17.4127 46.0097 16.9017 46.1968 16.3181Z" fill="#371A45"/>
</g>
<path d="M43.344 21.033C43.1695 21.0328 43.002 20.9645 42.877 20.8427C42.7521 20.7208 42.6795 20.5551 42.6748 20.3807L42.467 12.2693C42.4625 12.0918 42.5286 11.9198 42.6508 11.791C42.7731 11.6623 42.9415 11.5874 43.119 11.5827C44.0053 11.56 44.8644 11.8903 45.5073 12.501C46.1501 13.1117 46.524 13.9527 46.5468 14.8391L46.6176 17.6052C46.6403 18.4913 46.3102 19.3503 45.6998 19.993C45.0894 20.6358 44.2486 21.0098 43.3625 21.0328H43.3451L43.344 21.033ZM43.2452 12.3575L43.4475 20.2525C44.1086 20.2082 44.727 19.91 45.1733 19.4203C45.6196 18.9306 45.8594 18.2873 45.8424 17.625L45.7714 14.8591C45.7544 14.1967 45.482 13.5666 45.0112 13.1004C44.5404 12.6342 43.9077 12.368 43.2452 12.3575Z" fill="#371A45"/>
<path d="M16.3548 12.657C16.4295 12.655 16.502 12.6829 16.5562 12.7343C16.6103 12.7858 16.6419 12.8566 16.6438 12.9313L16.8517 21.0429C16.8526 21.0798 16.8463 21.1167 16.833 21.1512C16.8198 21.1857 16.7998 21.2173 16.7743 21.2441C16.7489 21.2709 16.7183 21.2925 16.6845 21.3075C16.6507 21.3225 16.6143 21.3307 16.5773 21.3317C16.1894 21.3416 15.8032 21.275 15.441 21.1358C15.0788 20.9965 14.7475 20.7872 14.4661 20.5199C14.1848 20.2526 13.9588 19.9325 13.8012 19.5779C13.6435 19.2233 13.5572 18.8411 13.5473 18.4531L13.4763 15.687C13.4664 15.2991 13.5329 14.9129 13.6722 14.5507C13.8115 14.1885 14.0207 13.8572 14.288 13.5758C14.5553 13.2945 14.8754 13.0685 15.23 12.9109C15.5847 12.7532 15.9669 12.6669 16.3548 12.657Z" fill="white"/>
<path d="M16.4995 21.4022C15.711 21.4018 14.9539 21.0934 14.3894 20.5429C13.8249 19.9923 13.4977 19.2431 13.4775 18.4548L13.4066 15.6887C13.3641 14.0215 14.6856 12.63 16.3531 12.5862C16.3993 12.5849 16.4453 12.5928 16.4885 12.6093C16.5317 12.6258 16.5712 12.6506 16.6048 12.6824C16.6383 12.7142 16.6653 12.7524 16.6841 12.7946C16.7029 12.8368 16.7132 12.8824 16.7143 12.9286L16.9224 21.0399C16.9236 21.0861 16.9158 21.1321 16.8992 21.1753C16.8827 21.2184 16.8578 21.2579 16.826 21.2914C16.7943 21.325 16.7562 21.3519 16.714 21.3708C16.6718 21.3896 16.6262 21.3999 16.5801 21.4012C16.5526 21.402 16.5259 21.4022 16.4995 21.4022ZM16.3548 12.657L16.3567 12.7265C14.7661 12.7673 13.5052 14.0946 13.546 15.6851L13.6169 18.4512C13.6367 19.2162 13.9595 19.942 14.5143 20.469C15.0692 20.996 15.8106 21.281 16.5756 21.2613C16.6317 21.2597 16.6849 21.2359 16.7236 21.1952C16.7623 21.1545 16.7832 21.1001 16.7819 21.0439L16.5741 12.9324C16.5725 12.8762 16.5488 12.8229 16.5081 12.7842C16.4673 12.7455 16.4129 12.7245 16.3567 12.7258L16.3548 12.657Z" fill="#371A45"/>
<g opacity="0.35">
<path opacity="0.35" d="M16.7947 18.7925L16.8521 21.0428C16.8538 21.1176 16.8259 21.19 16.7743 21.2441C16.7228 21.2983 16.6518 21.3297 16.5771 21.3316C16.1891 21.3417 15.803 21.2753 15.4408 21.1361C15.0785 20.9969 14.7473 20.7876 14.4659 20.5204C14.1846 20.2531 13.9586 19.933 13.801 19.5783C13.6434 19.2237 13.5573 18.8415 13.5475 18.4535L13.5175 17.288C13.7653 17.7992 14.1551 18.2282 14.6403 18.5237C15.1255 18.8192 15.6855 18.9686 16.2535 18.9542L16.5495 18.9465C16.6004 18.9451 16.65 18.9301 16.6931 18.903C16.7362 18.8759 16.7713 18.8377 16.7947 18.7925Z" fill="#371A45"/>
</g>
<path d="M16.4993 21.7205C15.6279 21.7198 14.7911 21.379 14.1673 20.7705C13.5435 20.162 13.1818 19.334 13.1595 18.4629L13.0887 15.697C13.0413 13.8542 14.5023 12.3165 16.3451 12.2691C16.5225 12.2647 16.6945 12.3309 16.8232 12.4532C16.9519 12.5755 17.0268 12.7438 17.0314 12.9213L17.2395 21.0328C17.2438 21.2103 17.1776 21.3822 17.0553 21.5109C16.9331 21.6396 16.7647 21.7145 16.5873 21.7192C16.558 21.7201 16.5287 21.7205 16.4993 21.7205ZM16.2588 13.0505C15.5981 13.0958 14.9803 13.3943 14.5342 13.8837C14.0881 14.3732 13.8481 15.016 13.8641 15.6781L13.9349 18.4442C13.9519 19.1065 14.2243 19.7366 14.6952 20.2028C15.166 20.669 15.7988 20.9351 16.4613 20.9455L16.2588 13.0505ZM16.3548 12.658L16.3648 13.0456L16.3548 12.658Z" fill="#371A45"/>
<path d="M29.8549 30.4782C37.4915 30.4782 43.6821 24.2876 43.6821 16.651C43.6821 9.01452 37.4915 2.82388 29.8549 2.82388C22.2184 2.82388 16.0278 9.01452 16.0278 16.651C16.0278 24.2876 22.2184 30.4782 29.8549 30.4782Z" fill="white"/>
<path d="M29.8709 30.5475C29.656 30.5475 29.4406 30.5426 29.2247 30.5328C26.4767 30.4096 23.8271 29.4741 21.6109 27.8447C19.3948 26.2153 17.7117 23.9651 16.7746 21.3789C15.8376 18.7927 15.6887 15.9867 16.3467 13.3159C17.0048 10.6451 18.4402 8.22942 20.4715 6.37458C22.5027 4.51974 25.0385 3.30905 27.758 2.89567C30.4774 2.4823 33.2584 2.88483 35.7491 4.05233C38.2397 5.21982 40.3281 7.09983 41.7501 9.45449C43.172 11.8092 43.8636 14.5327 43.7374 17.2805L43.6679 17.2773L43.7374 17.2805C43.5783 20.8517 42.048 24.2239 39.4651 26.6952C36.8822 29.1665 33.4456 30.5463 29.8709 30.5475ZM29.8399 2.89254C26.4012 2.89254 23.1338 4.15734 20.5778 6.49123C17.8644 8.96919 16.2781 12.3562 16.1115 16.0265C15.9449 19.6968 17.2178 23.2137 19.6958 25.9273C22.1737 28.641 25.5608 30.2271 29.2311 30.3937C29.4444 30.4034 29.6573 30.4082 29.8698 30.4081C33.3085 30.4081 36.5759 29.1435 39.1319 26.8094C41.8455 24.3315 43.4316 20.9444 43.5982 17.2741C43.7648 13.6038 42.4913 10.0876 40.0139 7.37395C37.5366 4.66033 34.1489 3.07423 30.4786 2.90763C30.2653 2.89785 30.0524 2.89304 29.8399 2.89318V2.89254Z" fill="#371A45"/>
<g opacity="0.35">
<path opacity="0.35" d="M43.6221 15.3599C43.6822 15.9975 43.6975 16.6384 43.668 17.2781C43.3208 24.9069 36.8561 30.8099 29.2276 30.4644C21.5991 30.1189 15.695 23.6525 16.0413 16.024C16.0511 15.8047 16.0662 15.5854 16.0866 15.3697C16.7126 22.1359 22.247 27.5746 29.227 27.8917C36.636 28.2274 42.9462 22.6688 43.6221 15.3599Z" fill="#371A45"/>
</g>
<path d="M29.8711 30.8662C29.6514 30.8662 29.4311 30.8613 29.2103 30.8514C26.3995 30.7253 23.6892 29.7683 21.4224 28.1016C19.1556 26.4348 17.4341 24.1332 16.4757 21.4879C15.5172 18.8425 15.3649 15.9724 16.038 13.2404C16.7112 10.5085 18.1794 8.03765 20.2571 6.14039C22.3348 4.24313 24.9286 3.00475 27.7103 2.58191C30.4919 2.15908 33.3365 2.57079 35.8841 3.76497C38.4317 4.95914 40.5679 6.88211 42.0224 9.29061C43.4769 11.6991 44.1844 14.4849 44.0553 17.2956L43.6679 17.2779L44.0553 17.2956C43.8925 20.9485 42.3272 24.398 39.6851 26.9258C37.043 29.4536 33.5277 30.865 29.8711 30.8662ZM29.8403 3.21126C26.4811 3.21126 23.2894 4.44674 20.7925 6.72665C18.1416 9.14745 16.592 12.4554 16.4295 16.0416C16.2669 19.6277 17.51 23.0626 19.9308 25.7133C22.3516 28.364 25.6594 29.9138 29.2455 30.0766C29.4538 30.0859 29.6623 30.0906 29.8694 30.0906C33.2286 30.0906 36.4204 28.8551 38.9173 26.5752C41.5682 24.1544 43.1178 20.8464 43.2803 17.2603C43.4429 13.6741 42.1998 10.2395 39.7792 7.58855C37.3586 4.93761 34.0504 3.38828 30.4638 3.2255C30.256 3.21594 30.0475 3.21126 29.8403 3.21126Z" fill="#371A45"/>
<path d="M29.8711 30.8662C29.6514 30.8662 29.4311 30.8613 29.2103 30.8514C26.3995 30.7253 23.6892 29.7683 21.4224 28.1016C19.1556 26.4348 17.4341 24.1332 16.4757 21.4879C15.5172 18.8425 15.3649 15.9724 16.038 13.2404C16.7112 10.5085 18.1794 8.03765 20.2571 6.14039C22.3348 4.24313 24.9286 3.00475 27.7103 2.58191C30.4919 2.15908 33.3365 2.57079 35.8841 3.76497C38.4317 4.95914 40.5679 6.88211 42.0224 9.29061C43.4769 11.6991 44.1844 14.4849 44.0553 17.2956L43.6679 17.2779L44.0553 17.2956C43.8925 20.9485 42.3272 24.398 39.6851 26.9258C37.043 29.4536 33.5277 30.865 29.8711 30.8662ZM29.8403 3.21126C26.4811 3.21126 23.2894 4.44674 20.7925 6.72665C18.1416 9.14745 16.592 12.4554 16.4295 16.0416C16.2669 19.6277 17.51 23.0626 19.9308 25.7133C22.3516 28.364 25.6594 29.9138 29.2455 30.0766C29.4538 30.0859 29.6623 30.0906 29.8694 30.0906C33.2286 30.0906 36.4204 28.8551 38.9173 26.5752C41.5682 24.1544 43.1178 20.8464 43.2803 17.2603C43.4429 13.6741 42.1998 10.2395 39.7792 7.58855C37.3586 4.93761 34.0504 3.38828 30.4638 3.2255C30.256 3.21594 30.0475 3.21126 29.8403 3.21126Z" fill="#371A45"/>
<path d="M43.6638 17.4229C43.582 20.1273 42.6281 22.6117 41.0637 24.6438C39.8909 26.1672 35.1812 28.7529 29.4656 28.6314C24.1661 28.5188 19.4312 25.548 18.3519 23.9564C16.9132 21.8335 16.1113 19.296 16.1931 16.5913C16.4096 9.43435 22.6484 6.65357 30.2344 6.88307C37.8205 7.11257 43.8803 10.2659 43.6638 17.4229Z" fill="#371A45"/>
<path d="M29.8031 29.1299C29.6707 29.1299 29.5377 29.1284 29.4032 29.1256C26.3742 29.0619 23.7847 28.1056 22.1455 27.3143C20.2859 26.4171 18.6817 25.2437 18.0593 24.3251C16.5338 22.0738 15.7705 19.4686 15.8514 16.7906C15.9052 15.0133 16.3283 13.4306 17.1086 12.087C17.8432 10.8224 18.8983 9.76051 20.2447 8.93134C22.7027 7.4177 26.1411 6.68245 30.1875 6.80485C34.234 6.92725 37.6219 7.86926 39.9838 9.52867C41.2777 10.4377 42.2667 11.5614 42.9233 12.8681C43.6212 14.2566 43.9476 15.8618 43.8938 17.6394C43.8128 20.3169 42.8931 22.8716 41.2344 25.0263C40.5442 25.9228 38.9289 26.9579 37.019 27.7278C35.4114 28.3759 32.8793 29.1299 29.8031 29.1299ZM29.3254 7.36372C25.7588 7.36372 22.7364 8.06901 20.5449 9.4186C17.9099 11.0415 16.5232 13.5275 16.4239 16.8074C16.3466 19.364 17.0761 21.8524 18.5334 24.0031C18.9663 24.6419 20.2372 25.7571 22.3945 26.7977C23.9823 27.5627 26.4894 28.49 29.4155 28.5523C32.5752 28.6195 35.1779 27.8511 36.8048 27.1959C38.9836 26.3179 40.3083 25.2898 40.7807 24.6763C42.3653 22.6176 43.244 20.1781 43.3213 17.6213L43.6076 17.63L43.3213 17.6213C43.4206 14.3414 42.1868 11.7761 39.6546 9.99681C37.3845 8.40178 34.105 7.49568 30.1703 7.37668C29.8856 7.36804 29.6039 7.36372 29.3254 7.36372Z" fill="#371A45"/>
<g opacity="0.5">
<path opacity="0.5" d="M40.9041 16.8897C41.1851 15.5678 40.6363 14.3312 39.6785 14.1276C38.7206 13.924 37.7164 14.8305 37.4354 16.1524C37.1544 17.4742 37.7031 18.7109 38.661 18.9145C39.6188 19.1181 40.6231 18.2115 40.9041 16.8897Z" fill="white"/>
</g>
<g opacity="0.5">
<path opacity="0.5" d="M37.7639 21.6345C37.9756 21.0515 37.7415 20.4316 37.2411 20.25C36.7407 20.0683 36.1635 20.3937 35.9518 20.9767C35.7402 21.5598 35.9743 22.1797 36.4747 22.3613C36.9751 22.5429 37.5523 22.2175 37.7639 21.6345Z" fill="white"/>
</g>
<g opacity="0.35">
<path opacity="0.35" d="M41.1383 10.8729C42.7688 12.526 43.694 14.7557 43.6073 17.6304C43.5255 20.3356 42.5711 22.8197 41.0078 24.8518C39.8348 26.3752 35.1245 28.9609 29.4091 28.8398C27.3904 28.7973 25.4553 28.34 23.7715 27.7012C30.8003 27.7012 36.5383 24.5254 37.9926 22.6359C39.9782 20.057 41.1888 16.9035 41.2921 13.4716C41.3217 12.6025 41.2702 11.7325 41.1383 10.8729Z" fill="#111A28"/>
</g>
<path d="M42.6162 11.6624C42.5321 11.6626 42.4508 11.6317 42.388 11.5757L42.354 11.5459L42.3287 11.5081C40.0975 8.17186 35.6532 6.16098 30.135 5.99395C24.586 5.82608 20.0307 7.62446 17.6371 10.9276L17.6277 10.9405L17.6139 10.9563C17.5547 11.0235 17.4715 11.0649 17.3822 11.0717C17.2928 11.0786 17.2044 11.0502 17.1356 10.9927C17.0669 10.9352 17.0233 10.8532 17.0142 10.764C17.0051 10.6749 17.0312 10.5857 17.0869 10.5155C17.7338 9.62473 18.5319 8.82764 19.4599 8.14636C20.3632 7.48294 21.3966 6.92385 22.5312 6.4844C23.6423 6.05409 24.8576 5.73576 26.1437 5.53856C27.4187 5.34285 28.7678 5.26486 30.1561 5.30694C32.8973 5.39003 35.4879 5.94083 37.6501 6.90069C38.7619 7.39411 39.767 7.99591 40.6374 8.68951C41.5318 9.40245 42.2894 10.2168 42.8899 11.1103C42.9289 11.1612 42.9529 11.222 42.9591 11.2858C42.9653 11.3496 42.9536 11.4139 42.9252 11.4714C42.8968 11.5288 42.8529 11.5772 42.7985 11.6111C42.744 11.6449 42.6812 11.6628 42.6171 11.6628L42.6162 11.6624ZM17.3385 10.7115L17.3572 10.7278L17.3385 10.7115Z" fill="#371A45"/>
<g opacity="0.5">
<path opacity="0.5" d="M19.0933 21.1503C19.0933 21.1503 17.0905 14.0228 20.9807 11.3245C24.871 8.62615 30.345 8.80316 30.2062 9.15039C30.2062 9.15039 24.1013 10.4341 21.5851 15.1535C19.6446 18.793 19.0933 21.1503 19.0933 21.1503Z" fill="white"/>
</g>
<path d="M36.3832 38.7961C36.3169 38.796 36.2526 38.773 36.2014 38.7309C36.1502 38.6889 36.1152 38.6303 36.1023 38.5653C36.0894 38.5002 36.0995 38.4328 36.1308 38.3743C36.1621 38.3159 36.2127 38.2701 36.2739 38.2448C36.3139 38.2285 37.2653 37.84 38.5354 37.6073C39.2855 37.4698 39.9914 37.4161 40.633 37.4475C41.4494 37.4875 42.1657 37.6664 42.7618 37.9788C42.8274 38.015 42.8762 38.0754 42.8978 38.1472C42.9194 38.219 42.912 38.2963 42.8772 38.3627C42.8424 38.429 42.7829 38.4791 42.7116 38.5022C42.6403 38.5252 42.5628 38.5194 42.4957 38.486C41.3057 37.8613 39.747 37.9684 38.6495 38.1683C37.913 38.3027 37.1906 38.5055 36.4918 38.7742C36.4573 38.7884 36.4204 38.7958 36.3832 38.7961Z" fill="#371A45"/>
<path d="M37.0557 47.0675C37.0617 47.1074 37.0661 47.1427 37.0706 47.1799C37.075 47.2171 37.0789 47.2534 37.0821 47.29C37.0891 47.3635 37.094 47.437 37.0974 47.5108C37.1039 47.6584 37.1042 47.8083 37.0959 47.957C37.0867 48.1103 37.0673 48.2628 37.0379 48.4135C37.0043 48.5733 36.9535 48.7291 36.8863 48.878C36.8698 48.9142 36.8459 48.9467 36.8161 48.9732C36.7864 48.9997 36.7514 49.0198 36.7135 49.0321C36.6756 49.0444 36.6356 49.0486 36.5959 49.0446C36.5562 49.0406 36.5178 49.0284 36.4832 49.0088C36.4485 48.9892 36.4182 48.9625 36.3944 48.9306C36.3706 48.8986 36.3536 48.8621 36.3446 48.8233C36.3357 48.7844 36.3349 48.7441 36.3423 48.705C36.3498 48.6658 36.3652 48.6286 36.3878 48.5958C36.4553 48.4948 36.5119 48.3868 36.5565 48.2738C36.6028 48.1511 36.6409 48.0254 36.6707 47.8977C36.7002 47.7668 36.7229 47.6327 36.7397 47.4969C36.7482 47.4292 36.755 47.3607 36.761 47.2923C36.7637 47.2581 36.7656 47.2239 36.7676 47.1897C36.7695 47.1554 36.7705 47.1204 36.7714 47.0896V47.0838C36.772 47.0478 36.7862 47.0133 36.8111 46.9873C36.8361 46.9612 36.8699 46.9455 36.9058 46.9433C36.9418 46.941 36.9773 46.9524 37.0053 46.9751C37.0333 46.9979 37.0516 47.0303 37.0568 47.066L37.0557 47.0675Z" fill="#371A45"/>
<path d="M10.9099 41.2428C10.8283 41.2092 10.7425 41.1866 10.6549 41.1757C10.5662 41.1639 10.4767 41.1576 10.3872 41.157C10.2973 41.1557 10.2066 41.1606 10.116 41.1672C10.0255 41.1738 9.93478 41.1835 9.84446 41.1954C9.66341 41.2186 9.48321 41.253 9.30408 41.2898C9.2144 41.3085 9.12508 41.3287 9.03611 41.3506C8.99163 41.3613 8.94743 41.3725 8.90351 41.3841C8.86101 41.3956 8.81469 41.4079 8.77452 41.4201C8.72237 41.4354 8.66627 41.4294 8.61849 41.4035C8.5707 41.3776 8.53512 41.3338 8.51952 41.2817C8.51286 41.2598 8.50999 41.2368 8.51103 41.2139L8.51273 41.1814L8.51528 41.1257L8.5174 41.0677L8.52038 40.9513C8.52186 40.8735 8.52186 40.7957 8.52038 40.7175C8.51766 40.5655 8.50638 40.4138 8.48659 40.263C8.47639 40.1897 8.46321 40.1181 8.44728 40.0505C8.43321 39.9871 8.41365 39.925 8.38884 39.865C8.37282 39.8226 8.34863 39.7839 8.31765 39.7509C8.30787 39.7422 8.30129 39.7402 8.2998 39.7411C8.29831 39.7419 8.30171 39.7453 8.29831 39.7466C8.2967 39.7469 8.29504 39.7469 8.29342 39.7466C8.29048 39.7473 8.2875 39.7477 8.2845 39.7479C8.28092 39.7481 8.27736 39.7487 8.27388 39.7496C8.26973 39.7501 8.26561 39.7508 8.26155 39.7517C8.2522 39.7541 8.24306 39.7555 8.23223 39.7592C8.22139 39.7628 8.21098 39.7662 8.19929 39.77C8.14814 39.7894 8.09932 39.8144 8.05373 39.8446C7.94914 39.9133 7.85593 39.998 7.77748 40.0955C7.69494 40.1974 7.62502 40.3088 7.56923 40.4275C7.51264 40.5493 7.46885 40.6767 7.43854 40.8076C7.43131 40.841 7.42281 40.8737 7.41729 40.9077L7.40815 40.9581C7.40539 40.9751 7.40326 40.9923 7.40071 41.0093C7.39816 41.0263 7.39561 41.0431 7.3937 41.0603L7.3886 41.1119L7.38584 41.1379L7.38435 41.1506V41.161L7.38308 41.2035C7.38082 41.3138 7.39875 41.4235 7.43599 41.5274C7.44682 41.5537 7.45724 41.5803 7.4685 41.6066L7.48805 41.6459C7.49432 41.6594 7.50142 41.6725 7.5093 41.685C7.52503 41.7108 7.53756 41.7375 7.55584 41.7628L7.58113 41.8015C7.5892 41.8145 7.59961 41.8268 7.60875 41.8395C7.68811 41.9452 7.77749 42.043 7.87565 42.1315C8.08967 42.321 8.325 42.4851 8.5769 42.6203C8.60878 42.638 8.64065 42.655 8.67253 42.6713C8.70419 42.6876 8.73627 42.7036 8.76624 42.7174L8.77644 42.7223L8.77878 42.7233H8.77729H8.77474L8.80151 42.7342L8.85591 42.7554L8.96535 42.7979C9.03803 42.8268 9.11113 42.8549 9.18316 42.8818C9.2552 42.9088 9.3266 42.9354 9.39311 42.9592L9.40013 42.9617C9.49233 42.9957 9.56822 43.0634 9.61248 43.1511C9.65675 43.2389 9.66611 43.3401 9.63866 43.4345C9.61122 43.5288 9.54902 43.6092 9.4646 43.6595C9.38019 43.7098 9.27984 43.7263 9.1838 43.7055C9.09497 43.6842 9.0138 43.6619 8.93135 43.639C8.8489 43.616 8.7707 43.5901 8.69165 43.5648C8.65191 43.5521 8.61239 43.5395 8.57308 43.5259L8.514 43.5047L8.48425 43.4943L8.46746 43.4879L8.45429 43.4826L8.43665 43.4754C8.39224 43.4571 8.35165 43.439 8.31043 43.4201C8.2692 43.4012 8.22946 43.3823 8.18973 43.3623C8.11025 43.323 8.03248 43.2805 7.95598 43.2348C7.87948 43.1891 7.80361 43.1428 7.72924 43.0929C7.5778 42.9919 7.43424 42.8796 7.29978 42.7569C7.15895 42.6279 7.03209 42.4845 6.92131 42.3289C6.80267 42.163 6.71035 41.9797 6.64761 41.7856C6.58354 41.5819 6.55895 41.3679 6.57515 41.1551L6.58238 41.076L6.58429 41.0565L6.58705 41.0393L6.59236 41.005L6.60363 40.9368C6.60766 40.9141 6.61255 40.8914 6.61723 40.8686C6.6219 40.8459 6.62615 40.8231 6.63146 40.8006L6.64804 40.7326C6.65845 40.6876 6.67248 40.6427 6.68544 40.5979C6.79488 40.2405 6.97933 39.8966 7.24899 39.6157C7.38606 39.4717 7.54506 39.3504 7.7201 39.2562C7.81435 39.2059 7.91421 39.1668 8.0176 39.1399C8.04522 39.1333 8.07264 39.1265 8.1026 39.1221C8.13256 39.1176 8.16189 39.1134 8.1927 39.1104C8.20757 39.1087 8.22479 39.1087 8.24072 39.1083C8.25729 39.1074 8.27389 39.1074 8.29045 39.1083C8.30766 39.1083 8.32509 39.1102 8.3423 39.1115C8.35951 39.1127 8.37885 39.1166 8.39712 39.1195C8.47706 39.1337 8.5534 39.1635 8.62174 39.2073C8.68408 39.2474 8.73924 39.2977 8.78494 39.356C8.85573 39.449 8.90888 39.5542 8.94176 39.6663C9.00147 39.8626 9.01656 40.042 9.02251 40.2175C9.02669 40.3888 9.02109 40.5602 9.00572 40.7309C8.99878 40.8148 8.98993 40.8984 8.97916 40.9817C8.97385 41.0242 8.96854 41.0648 8.96195 41.1064L8.95196 41.1689L8.9407 41.2326L8.67784 40.994C8.72905 40.9855 8.77516 40.9789 8.8234 40.9727C8.87164 40.9666 8.91881 40.9602 8.96641 40.9547C9.06161 40.9433 9.15695 40.9338 9.25244 40.926C9.34792 40.9182 9.44362 40.9124 9.53952 40.9086C9.63536 40.9052 9.73078 40.903 9.82768 40.9041C10.0212 40.904 10.2145 40.919 10.4057 40.9489C10.5026 40.9643 10.5983 40.9866 10.6919 41.0159C10.7877 41.0448 10.879 41.0871 10.9631 41.1415C10.9744 41.1492 10.9825 41.161 10.9858 41.1744C10.989 41.1878 10.9872 41.2019 10.9806 41.214C10.974 41.2261 10.9631 41.2354 10.9501 41.24C10.9371 41.2445 10.9229 41.2441 10.9101 41.2388L10.9099 41.2428Z" fill="#371A45"/>
</g>
</svg>
