<svg width="53" height="52" viewBox="0 0 53 52" fill="none" xmlns="http://www.w3.org/2000/svg">
<mask id="mask0_2_7140" style="mask-type:alpha" maskUnits="userSpaceOnUse" x="0" y="0" width="53" height="52">
<circle cx="26.5" cy="26" r="26" fill="#C4C4C4"/>
</mask>
<g mask="url(#mask0_2_7140)">
<path d="M67.5 -4H-14.5V78H67.5V-4Z" fill="#FEEBCD"/>
<path d="M35.2588 65.5001C32.1783 65.8076 30.4338 65.3456 29.4541 64.7892C28.6572 64.3357 28.6136 63.4192 28.599 62.5026C28.5615 59.9045 28.4795 57.4576 28.4086 55.6819C28.3901 55.2395 28.3735 54.8387 28.3575 54.4879C28.312 53.4773 28.2794 52.877 28.2794 52.877L30.9996 52.2085L37.0249 50.7268C36.9648 51.6464 36.8501 52.5617 36.6813 53.4677C36.5985 53.9062 36.5066 54.3236 36.4056 54.7198C36.2435 55.3603 36.048 55.9919 35.8199 56.6119C34.7392 59.5354 33.3571 60.872 33.3571 60.872L33.6322 61.1326C38.7059 60.5955 40.5349 64.9733 35.2588 65.5001Z" fill="#9CA9B9"/>
<path d="M33.3913 65.9181C31.6668 65.9181 30.2944 65.6331 29.2968 65.0661C28.3098 64.5052 28.2923 63.3505 28.2806 62.5075C28.2068 57.468 27.9633 52.9395 27.9608 52.8942C27.9559 52.8511 27.9599 52.8073 27.9725 52.7658C27.9851 52.7242 28.0061 52.6856 28.0341 52.6524C28.0622 52.6192 28.0967 52.5921 28.1356 52.5728C28.1745 52.5534 28.2169 52.5422 28.2603 52.5399C28.3037 52.5375 28.3471 52.5441 28.3879 52.5591C28.4287 52.5741 28.4659 52.5973 28.4974 52.6273C28.5289 52.6573 28.5539 52.6933 28.5709 52.7333C28.5879 52.7733 28.5966 52.8163 28.5963 52.8598C28.599 52.9051 28.8423 57.4454 28.9172 62.4981C28.9307 63.4232 28.9902 64.1586 29.6109 64.5118C30.4514 64.9896 32.1082 65.4939 35.226 65.1827C36.6953 65.0362 37.7143 64.5598 38.0216 63.8757C38.1879 63.5054 38.1241 63.086 37.84 62.6949C37.3162 61.9722 35.9085 61.2121 33.6646 61.4497L33.5182 61.4653L32.896 60.8737L33.135 60.6424C33.1658 60.6127 36.2478 57.5367 36.7061 50.705C36.7162 50.6242 36.7568 50.5502 36.8197 50.4984C36.8825 50.4465 36.9628 50.4207 37.0441 50.4262C37.1254 50.4316 37.2016 50.468 37.2569 50.5279C37.3122 50.5877 37.3425 50.6664 37.3416 50.7479C36.9433 56.682 34.6728 59.8405 33.8614 60.7917C36.2219 60.6119 37.7258 61.4509 38.356 62.3207C38.773 62.8962 38.863 63.5581 38.602 64.1368C38.192 65.0481 37.0157 65.6448 35.2882 65.8178C34.6159 65.8847 33.9836 65.9181 33.3913 65.9181Z" fill="#371A45"/>
<path d="M26.1234 52.877C26.1234 52.877 26.09 53.4877 26.0445 54.5142C26.0287 54.8666 26.0119 55.2673 25.9934 55.7089C25.9225 57.483 25.8405 59.918 25.803 62.5026C25.7903 63.4192 25.7456 64.3357 24.9485 64.7892C23.9691 65.3456 22.2245 65.8078 19.144 65.5001C13.8679 64.9733 15.6965 60.5955 20.7706 61.1326L21.0458 60.872C21.0458 60.872 19.3959 59.2755 18.2912 55.7591C18.1924 55.4448 18.0989 55.1154 18.0107 54.7708C17.9082 54.3692 17.8131 53.9467 17.7293 53.5027C17.6354 53.0095 17.554 52.4898 17.4902 51.9431C17.4441 51.5517 17.4058 51.146 17.3779 50.7268L17.6409 50.7914L21.4617 51.7311L26.1234 52.877Z" fill="#9CA9B9"/>
<path d="M21.0113 65.9181C20.4195 65.9181 19.7865 65.8845 19.1122 65.8173C17.3847 65.6448 16.2077 65.0481 15.7986 64.1363C15.5386 63.5575 15.6286 62.8956 16.0446 62.3202C16.6747 61.4505 18.1796 60.6111 20.5392 60.7911C19.728 59.8399 17.4574 56.6814 17.0591 50.7473C17.0543 50.7045 17.0583 50.6612 17.0707 50.62C17.0831 50.5788 17.1037 50.5406 17.1313 50.5075C17.1589 50.4745 17.1929 50.4474 17.2313 50.4279C17.2696 50.4084 17.3115 50.3968 17.3545 50.3939C17.3974 50.391 17.4405 50.3969 17.4811 50.4111C17.5217 50.4253 17.5591 50.4476 17.5909 50.4766C17.6226 50.5056 17.6482 50.5407 17.666 50.5799C17.6839 50.6191 17.6936 50.6614 17.6946 50.7044C18.1532 57.5361 21.2352 60.6121 21.2661 60.6422L21.5037 60.8735L20.883 61.4653L20.7366 61.4497C18.4925 61.2123 17.0849 61.9723 16.5614 62.6949C16.2779 63.086 16.2129 63.5055 16.3797 63.8757C16.6872 64.5598 17.7059 65.0362 19.1751 65.1828C22.2932 65.4938 23.9498 64.9899 24.7903 64.5118C25.411 64.1592 25.4707 63.4233 25.4842 62.4981C25.558 57.4455 25.8024 52.9051 25.8048 52.8598C25.8064 52.8175 25.8163 52.776 25.8341 52.7376C25.8519 52.6992 25.8772 52.6647 25.9085 52.6362C25.9397 52.6076 25.9763 52.5856 26.0162 52.5714C26.056 52.5571 26.0983 52.551 26.1406 52.5533C26.1829 52.5555 26.2242 52.5662 26.2623 52.5847C26.3004 52.6031 26.3345 52.629 26.3625 52.6607C26.3905 52.6925 26.4118 52.7295 26.4254 52.7696C26.4389 52.8097 26.4444 52.852 26.4413 52.8943C26.4391 52.9396 26.1953 57.468 26.1218 62.5075C26.1095 63.3505 26.0924 64.5053 25.1054 65.0661C24.1084 65.6332 22.7358 65.9181 21.0113 65.9181Z" fill="#371A45"/>
<path d="M39.2789 52.8634C38.3934 53.0922 37.5276 53.2936 36.6813 53.4676C34.832 53.8517 32.9628 54.133 31.0824 54.3101C30.1332 54.3993 29.2238 54.4567 28.3575 54.4879C27.5486 54.5174 26.7761 54.5246 26.0445 54.5141C23.467 54.479 21.382 54.2271 19.8945 53.969C18.8855 53.7935 18.152 53.6166 17.7282 53.5026C17.447 53.427 17.301 53.3796 17.301 53.3796L17.4892 51.9426L17.6399 50.7909L19.2067 38.8326L24.1283 38.4054L32.6012 37.6705L37.1698 37.2744L39.2789 52.8634Z" fill="white"/>
<path d="M26.6275 54.835C25.3932 54.835 24.2932 54.7851 23.3442 54.712C19.497 54.4172 17.2967 53.7122 17.2039 53.6824L16.9519 53.6004L18.8916 38.7904C18.8966 38.7486 18.9098 38.7081 18.9305 38.6714C18.9513 38.6347 18.9791 38.6025 19.0123 38.5766C19.0455 38.5507 19.0836 38.5317 19.1243 38.5206C19.1649 38.5095 19.2074 38.5066 19.2492 38.512C19.2909 38.5174 19.3312 38.5311 19.3677 38.5522C19.4042 38.5733 19.4361 38.6014 19.4617 38.6349C19.4872 38.6684 19.5059 38.7067 19.5165 38.7474C19.5272 38.7882 19.5297 38.8307 19.5238 38.8724L17.654 53.1494C18.3361 53.3397 20.3684 53.8464 23.4186 54.0773C26.9053 54.3423 32.4733 54.2927 39.1989 52.5529C39.2808 52.5317 39.3677 52.5439 39.4405 52.5868C39.5134 52.6297 39.5662 52.6998 39.5874 52.7817C39.6086 52.8635 39.5964 52.9504 39.5535 53.0233C39.5105 53.0961 39.4405 53.149 39.3586 53.1702C34.3648 54.4639 29.9977 54.835 26.6275 54.835Z" fill="#371A45"/>
<path d="M4.63389 36.2594C4.72328 36.6333 4.89877 36.9811 5.14639 37.2752V37.2766C4.98895 37.9492 4.53775 38.4835 3.91086 38.6358C2.95556 38.8682 1.95598 38.1261 1.67636 36.9788C1.39674 35.8314 1.9447 34.7145 2.9 34.4821C3.52689 34.3295 4.17305 34.5969 4.622 35.1221C4.53707 35.4969 4.54114 35.8864 4.63389 36.2594Z" fill="#FC913A"/>
<path d="M51.3501 24.8977C51.4985 25.5086 51.5192 26.0125 51.4753 26.4177C51.3915 27.1869 50.8242 27.8167 50.0715 27.9997L36.2246 31.3673C32.9345 32.1668 24.3868 33.3426 21.9865 33.7119C19.5861 34.0811 5.14553 37.2752 5.14553 37.2752C4.89974 36.9802 4.72476 36.6328 4.634 36.2597C4.54325 35.8866 4.53913 35.4976 4.62196 35.1227C4.62196 35.1227 18.9168 31.3302 21.2183 30.5538C23.5199 29.7775 31.6528 26.8979 34.9429 26.0977L48.7896 22.73C49.5424 22.5469 50.3355 22.8458 50.7634 23.4906C50.9884 23.8298 51.2025 24.287 51.3501 24.8977Z" fill="#FC913A"/>
<path d="M4.63389 36.2594C4.72328 36.6333 4.89877 36.9811 5.14639 37.2752V37.2766C4.98895 37.9492 4.53775 38.4835 3.91086 38.6358C2.95556 38.8682 1.95598 38.1261 1.67636 36.9788C1.39674 35.8314 1.9447 34.7145 2.9 34.4821C3.52689 34.3295 4.17305 34.5969 4.622 35.1221C4.53707 35.4969 4.54114 35.8864 4.63389 36.2594Z" fill="#FC913A"/>
<path d="M51.3501 24.8977C51.4985 25.5086 51.5192 26.0125 51.4753 26.4177C51.3915 27.1869 50.8242 27.8167 50.0715 27.9997L36.2246 31.3673C32.9345 32.1668 24.3868 33.3426 21.9865 33.7119C19.5861 34.0811 5.14553 37.2752 5.14553 37.2752C4.89974 36.9802 4.72476 36.6328 4.634 36.2597C4.54325 35.8866 4.53913 35.4976 4.62196 35.1227C4.62196 35.1227 18.9168 31.3302 21.2183 30.5538C23.5199 29.7775 31.6528 26.8979 34.9429 26.0977L48.7896 22.73C49.5424 22.5469 50.3355 22.8458 50.7634 23.4906C50.9884 23.8298 51.2025 24.287 51.3501 24.8977Z" fill="#FC913A"/>
<g opacity="0.5">
<path opacity="0.5" d="M4.8331 36.9567C4.8659 37.0907 4.90943 37.2218 4.96327 37.3489C4.99681 37.2602 5.02454 37.1695 5.0463 37.0772V37.0758C4.94732 36.9584 4.85986 36.8317 4.78513 36.6976C4.79672 36.7847 4.81273 36.8712 4.8331 36.9567Z" fill="white"/>
<path opacity="0.5" d="M3.09944 35.1794C3.57401 35.064 4.05925 35.1894 4.46187 35.4848C4.45965 35.2957 4.47995 35.107 4.52234 34.9227C4.0736 34.3977 3.42744 34.1304 2.80034 34.2827C1.84504 34.5152 1.2979 35.6333 1.5767 36.7792C1.63087 37.0034 1.7155 37.2191 1.82823 37.4202C1.68248 36.368 2.21548 35.3944 3.09944 35.1794Z" fill="white"/>
</g>
<g opacity="0.3">
<path opacity="0.3" d="M5.14608 36.6616C4.98823 37.3342 4.53723 37.8683 3.90993 38.0206C2.95504 38.2533 1.95567 37.5112 1.67666 36.3636C1.64423 36.23 1.62237 36.0941 1.61127 35.9571C2.05776 36.6153 2.78448 36.9724 3.48825 36.8019C4.03355 36.6688 4.4456 36.2471 4.64711 35.6971C4.73934 36.0514 4.90953 36.3806 5.14526 36.6606L5.14608 36.6616Z" fill="#371A45"/>
<path opacity="0.3" d="M51.4755 25.8032C51.3919 26.5722 50.8242 27.2019 50.071 27.3844L36.2247 30.7525C32.9347 31.552 24.3868 32.7275 21.986 33.0965C19.5853 33.4655 5.14528 36.66 5.14528 36.66C4.90955 36.38 4.73936 36.0508 4.64713 35.6965C4.64242 35.6791 4.6375 35.6615 4.6336 35.644C4.60078 35.5094 4.57891 35.3722 4.56821 35.234C4.61622 35.3052 4.66809 35.3736 4.7236 35.439C4.7236 35.439 19.1632 32.2437 21.5646 31.8763C23.9659 31.509 32.5116 30.3317 35.8022 29.5316L49.6496 26.1642C50.4019 25.9797 50.9693 25.3512 51.053 24.582C51.093 24.2108 51.0792 23.7571 50.9622 23.2153C51.1112 23.5037 51.2459 23.8545 51.3502 24.2813C51.4985 24.8938 51.5194 25.3971 51.4755 25.8032Z" fill="#371A45"/>
</g>
<g opacity="0.5">
<path opacity="0.5" d="M4.92087 36.0186C4.92087 36.0186 19.2155 32.2261 21.5173 31.4498C23.819 30.6735 31.9518 27.7938 35.2418 26.9937L49.0885 23.626C49.8413 23.4429 50.6344 23.7418 51.0621 24.3865C51.1751 24.5588 51.2737 24.7401 51.3569 24.9285C51.3544 24.9181 51.3526 24.908 51.3501 24.8978C51.2015 24.2869 50.9885 23.8297 50.7632 23.4898C50.3356 22.8451 49.5424 22.5468 48.7896 22.7295L34.9429 26.097C31.6527 26.8965 23.5201 29.7788 21.2184 30.5531C18.9166 31.3274 4.62198 35.122 4.62198 35.122C4.53704 35.4968 4.54112 35.8863 4.63387 36.2593C4.68802 36.4822 4.7723 36.6967 4.88438 36.8968C4.84288 36.6043 4.85525 36.3067 4.92087 36.0186Z" fill="white"/>
</g>
<g opacity="0.3">
<path opacity="0.3" d="M4.72363 36.0555V36.0569C4.70338 36.1434 4.67784 36.2286 4.64716 36.312C4.64245 36.2945 4.63753 36.2769 4.63363 36.2595C4.60081 36.1248 4.57894 35.9877 4.56824 35.8495C4.61622 35.921 4.66809 35.9897 4.72363 36.0555Z" fill="#6B184E"/>
</g>
<path d="M3.55867 38.9967C2.57816 38.9967 1.64643 38.2038 1.36681 37.0539C1.04681 35.7384 1.70096 34.4457 2.82477 34.1722C3.54227 33.9978 4.32373 34.2823 4.86432 34.9149L4.96907 35.0379L4.93258 35.1948C4.85913 35.521 4.86292 35.8598 4.94365 36.1843C5.02126 36.5097 5.17356 36.8127 5.3885 37.0691L5.43832 37.1279L5.47296 37.2755L5.45615 37.3495C5.26653 38.1597 4.70298 38.7714 3.98548 38.9459C3.84576 38.9798 3.70246 38.9969 3.55867 38.9967ZM3.25712 34.7581C3.16223 34.7581 3.06767 34.7694 2.97545 34.7917C2.19317 34.9822 1.74935 35.9293 1.98633 36.9032C2.22331 37.8772 3.05232 38.516 3.83501 38.3259C4.28376 38.2169 4.63451 37.8557 4.79626 37.3475C4.57363 37.0445 4.41322 36.7004 4.32427 36.335C4.23532 35.9697 4.2196 35.5904 4.27802 35.219C3.97974 34.9201 3.61771 34.7581 3.25712 34.7581Z" fill="#371A45"/>
<path d="M5.0271 37.628L4.90267 37.4816C4.62456 37.1485 4.42662 36.7561 4.32412 36.3344C4.22162 35.9128 4.21728 35.4733 4.31145 35.0497L4.35512 34.8631L4.53962 34.8139C4.68312 34.776 18.8505 31.0149 21.1159 30.2511C21.5569 30.1028 22.1979 29.8821 23.0093 29.6022C26.4445 28.4186 32.1933 26.4374 34.8671 25.7874L48.7138 22.4196C49.6005 22.204 50.5305 22.5631 51.0283 23.3137C51.305 23.7314 51.5174 24.239 51.6591 24.8225C51.8007 25.4059 51.8456 25.9543 51.7917 26.4522C51.6941 27.3476 51.0332 28.0938 50.1462 28.3095L36.2994 31.677C33.6258 32.3273 27.6074 33.208 24.0111 33.7342C23.1632 33.8572 22.4941 33.9562 22.0343 34.027C19.6717 34.389 5.3588 37.5536 5.21448 37.5864L5.0271 37.628ZM4.89878 35.3785C4.82926 35.9211 4.96297 36.4702 5.27413 36.9201C7.08346 36.5204 19.6787 33.7426 21.9384 33.3968C22.3996 33.3259 23.0704 33.2277 23.9195 33.1034C27.5043 32.5786 33.5047 31.7008 36.1494 31.0575L49.9961 27.69C50.6228 27.5375 51.0898 27.0135 51.1585 26.3833C51.2044 25.9592 51.1646 25.4846 51.0404 24.9731C50.9161 24.4606 50.7329 24.0219 50.4977 23.666C50.148 23.1388 49.4916 22.887 48.8653 23.0392L35.0184 26.4069C32.3739 27.05 26.6425 29.0252 23.2178 30.2051C22.4052 30.4852 21.7623 30.7064 21.3201 30.8554C19.1541 31.5856 6.68966 34.9027 4.89878 35.3785Z" fill="#371A45"/>
<path d="M22.031 36.7678C22.031 36.7678 28.3639 37.9488 33.6916 36.7678L33.7224 38.7133C33.7224 38.7133 28.3493 40.1116 22.3307 38.751L22.031 36.7678Z" fill="white"/>
<path d="M27.8446 39.6599C26.158 39.6599 24.2392 39.5095 22.2595 39.062L22.0472 39.014L21.6478 36.3724L22.0886 36.4544C22.1513 36.466 28.4212 37.6093 33.6217 36.4566L34.0034 36.3719L34.0444 38.9586L33.8019 39.0218C33.7654 39.0312 31.2902 39.6599 27.8446 39.6599ZM22.6124 38.4869C27.6867 39.581 32.307 38.7024 33.3988 38.4613L33.3783 37.1594C28.9444 38.0433 23.9059 37.3861 22.4108 37.154L22.6124 38.4869Z" fill="#371A45"/>
<path d="M42.8723 26.0324C42.8312 26.0366 42.7897 26.0326 42.7502 26.0207C42.7106 26.0088 42.6738 25.9893 42.6418 25.9632C42.6098 25.937 42.5833 25.9049 42.5638 25.8685C42.5442 25.8321 42.532 25.7922 42.5279 25.7511L41.6196 16.7383C41.6154 16.6972 41.6194 16.6557 41.6313 16.6162C41.6432 16.5766 41.6628 16.5398 41.689 16.5078C41.7151 16.4758 41.7473 16.4493 41.7837 16.4298C41.8201 16.4102 41.8599 16.398 41.901 16.3939C42.3321 16.3505 42.7675 16.3924 43.1824 16.5172C43.5973 16.642 43.9836 16.8474 44.3191 17.1215C44.6547 17.3956 44.9329 17.7332 45.138 18.1148C45.3431 18.4965 45.471 18.9148 45.5144 19.3459L45.8241 22.4193C45.8675 22.8503 45.8256 23.2857 45.7008 23.7006C45.5759 24.1155 45.3706 24.5017 45.0965 24.8372C44.8224 25.1727 44.4849 25.4509 44.1033 25.656C43.7217 25.8611 43.3034 25.989 42.8723 26.0324Z" fill="white"/>
<path d="M42.8402 26.1055C42.7443 26.1054 42.652 26.0697 42.581 26.0053C42.51 25.9409 42.4656 25.8524 42.4562 25.757L41.547 16.7448C41.5368 16.6428 41.5675 16.541 41.6324 16.4616C41.6972 16.3822 41.7909 16.3318 41.8929 16.3215C42.3334 16.277 42.7783 16.3198 43.2023 16.4473C43.6263 16.5748 44.0211 16.7846 44.364 17.0647C44.7069 17.3448 44.9912 17.6897 45.2008 18.0797C45.4104 18.4697 45.5412 18.8971 45.5855 19.3377L45.8955 22.411C46.0818 24.2607 44.7286 25.9165 42.8791 26.1037C42.8664 26.1049 42.8533 26.1055 42.8402 26.1055ZM42.2379 16.4484C42.1278 16.4484 42.0178 16.454 41.9082 16.465C41.8765 16.4682 41.8457 16.4777 41.8176 16.4928C41.7895 16.508 41.7647 16.5285 41.7446 16.5533C41.7245 16.578 41.7094 16.6065 41.7003 16.6371C41.6912 16.6677 41.6882 16.6998 41.6915 16.7315L42.5999 25.7441C42.6063 25.8081 42.6379 25.8668 42.6876 25.9075C42.7374 25.9482 42.8012 25.9674 42.8652 25.961C44.6356 25.7824 45.9307 24.198 45.7524 22.4266L45.442 19.3522C45.3619 18.5575 44.9899 17.8208 44.3981 17.2844C43.8063 16.7481 43.0366 16.4502 42.2379 16.4484Z" fill="#371A45"/>
<g opacity="0.35">
<path opacity="0.35" d="M45.6788 20.9771L45.8246 22.4185C45.912 23.2891 45.6502 24.1588 45.0967 24.8365C44.5431 25.5141 43.7431 25.9442 42.8726 26.0322C42.7895 26.0405 42.7066 26.0154 42.642 25.9626C42.5773 25.9097 42.5364 25.8334 42.528 25.7504L42.285 23.3545C42.3152 23.4071 42.3598 23.4498 42.4136 23.4776C42.4674 23.5055 42.5281 23.5172 42.5884 23.5114L42.8022 23.4892C43.4832 23.4208 44.1259 23.1423 44.6413 22.6922C45.1568 22.242 45.5194 21.6426 45.6788 20.9771Z" fill="#371A45"/>
</g>
<path d="M42.8395 26.4354C42.6622 26.4348 42.4915 26.3685 42.3601 26.2495C42.2288 26.1305 42.1461 25.967 42.1282 25.7906L41.219 16.778C41.2002 16.589 41.2571 16.4003 41.3773 16.2531C41.4975 16.106 41.671 16.0126 41.86 15.9933C42.8366 15.8949 43.8123 16.1885 44.5725 16.8095C45.3326 17.4305 45.815 18.328 45.9135 19.3046L46.2232 22.378C46.4282 24.4075 44.9424 26.2271 42.9119 26.4317C42.8878 26.4341 42.8637 26.4354 42.8395 26.4354ZM42.0283 16.7856L42.919 25.6211C44.4637 25.419 45.5816 24.0184 45.4241 22.458L45.114 19.3852C45.0385 18.6357 44.6741 17.9451 44.0979 17.4598C43.5218 16.9745 42.7793 16.7327 42.0279 16.7856H42.0283Z" fill="#371A45"/>
<path d="M12.1518 19.3915C12.1929 19.3873 12.2344 19.3913 12.274 19.4032C12.3135 19.4151 12.3504 19.4346 12.3823 19.4607C12.4143 19.4869 12.4409 19.519 12.4604 19.5554C12.4799 19.5918 12.4921 19.6317 12.4963 19.6728L13.4048 28.6856C13.4089 28.7267 13.4049 28.7682 13.393 28.8077C13.3811 28.8473 13.3616 28.8841 13.3354 28.9161C13.3093 28.9481 13.2771 28.9746 13.2407 28.9941C13.2043 29.0137 13.1644 29.0259 13.1233 29.03C12.6923 29.0734 12.2568 29.0315 11.8419 28.9067C11.427 28.7819 11.0408 28.5765 10.7052 28.3024C10.3697 28.0283 10.0915 27.6907 9.88638 27.3091C9.6813 26.9274 9.55341 26.5091 9.51002 26.078L9.20026 23.0044C9.11262 22.1339 9.37434 21.2643 9.92786 20.5867C10.4814 19.9092 11.2814 19.4792 12.1518 19.3915Z" fill="white"/>
<path d="M12.7855 29.1191C11.9509 29.1174 11.1466 28.8062 10.5281 28.2458C9.90962 27.6854 9.52094 26.9155 9.43723 26.0851L9.12747 23.0118C9.08303 22.5712 9.12579 22.1263 9.25334 21.7023C9.38088 21.2783 9.59069 20.8836 9.8708 20.5407C10.1509 20.1978 10.4958 19.9135 10.8858 19.7039C11.2758 19.4943 11.7033 19.3636 12.1438 19.3193C12.2458 19.3091 12.3477 19.3398 12.4271 19.4046C12.5065 19.4695 12.557 19.5632 12.5674 19.6651L13.4757 28.678C13.486 28.78 13.4553 28.8819 13.3904 28.9614C13.3255 29.0408 13.2317 29.0912 13.1297 29.1015C13.015 29.1132 12.9003 29.1191 12.7855 29.1191ZM12.15 19.3915L12.1574 19.4632C11.306 19.5495 10.5237 19.9704 9.98265 20.6333C9.44155 21.2963 9.18593 22.147 9.27199 22.9984L9.58175 26.0718C9.66758 26.9234 10.0882 27.7059 10.751 28.2474C11.4138 28.7889 12.2646 29.0448 13.1162 28.959C13.1478 28.9559 13.1785 28.9465 13.2066 28.9315C13.2346 28.9164 13.2594 28.896 13.2795 28.8713C13.2997 28.8467 13.3147 28.8183 13.3239 28.7879C13.333 28.7574 13.3361 28.7254 13.3328 28.6937L12.4245 19.6809C12.4178 19.6171 12.3861 19.5585 12.3364 19.5179C12.2868 19.4773 12.2231 19.458 12.1592 19.464L12.15 19.3915Z" fill="#371A45"/>
<g opacity="0.35">
<path opacity="0.35" d="M13.1545 26.1852L13.4063 28.6862C13.4144 28.7693 13.3893 28.8522 13.3364 28.9168C13.2835 28.9813 13.2072 29.0224 13.1242 29.0308C12.6931 29.0744 12.2577 29.0325 11.8428 28.9077C11.4279 28.7829 11.0416 28.5776 10.7061 28.3034C10.3706 28.0293 10.0924 27.6917 9.88741 27.31C9.68243 26.9283 9.55468 26.5099 9.51147 26.0788L9.38068 24.7838C9.69916 25.3323 10.1689 25.7773 10.7337 26.0658C11.2986 26.3542 11.9345 26.4738 12.5656 26.4103L12.8936 26.3773C12.9503 26.3715 13.0044 26.3507 13.0503 26.3169C13.0962 26.2831 13.1322 26.2376 13.1545 26.1852Z" fill="#371A45"/>
</g>
<path d="M12.7855 29.449C11.8693 29.4472 10.9864 29.1056 10.3074 28.4905C9.62845 27.8753 9.20176 27.0301 9.10988 26.1186L8.80012 23.0452C8.70171 22.0685 8.9953 21.0928 9.6163 20.3326C10.2373 19.5724 11.1348 19.09 12.1115 18.9915C12.3005 18.9728 12.4892 19.0298 12.6362 19.1499C12.7833 19.2701 12.8767 19.4436 12.896 19.6326L13.8044 28.6454C13.8138 28.739 13.8048 28.8335 13.7777 28.9236C13.7506 29.0137 13.706 29.0976 13.6465 29.1704C13.587 29.2433 13.5137 29.3037 13.4309 29.3482C13.348 29.3928 13.2571 29.4205 13.1635 29.4299C13.0379 29.4426 12.9118 29.449 12.7855 29.449ZM12.1053 19.8005C11.3585 19.8987 10.6792 20.2839 10.2116 20.8744C9.74387 21.4649 9.52454 22.2143 9.60003 22.9638L9.90979 26.0372C10.067 27.5976 11.4418 28.7467 12.9959 28.6368L12.1053 19.8005Z" fill="#371A45"/>
<path d="M27.5139 38.1478C36.0392 38.1478 42.9502 31.2367 42.9502 22.7115C42.9502 14.1862 36.0392 7.27518 27.5139 7.27518C18.9887 7.27518 12.0776 14.1862 12.0776 22.7115C12.0776 31.2367 18.9887 38.1478 27.5139 38.1478Z" fill="white"/>
<path d="M27.5078 38.2199C19.1656 38.2199 12.2595 31.5615 12.0123 23.1682C11.8893 19.0272 13.388 15.0871 16.2296 12.073C19.0711 9.0589 22.9167 7.33177 27.0572 7.20959C35.6057 6.9558 42.7639 13.7069 43.0159 22.2545C43.2678 30.8022 36.5186 37.9612 27.9709 38.2132C27.8164 38.2177 27.6614 38.2199 27.5078 38.2199ZM27.5201 7.34694C27.3676 7.34694 27.2151 7.3492 27.0615 7.35371C22.9595 7.47466 19.15 9.1858 16.3347 12.1712C13.5195 15.1566 12.0357 19.0625 12.1566 23.1639C12.4063 31.6321 19.4977 38.3167 27.9666 38.0689C36.4356 37.821 43.121 30.727 42.8716 22.2589C42.6266 13.9443 35.7841 7.34715 27.5201 7.34715V7.34694Z" fill="#371A45"/>
<g opacity="0.35">
<path opacity="0.35" d="M42.7326 20.1252C42.8527 20.8301 42.9232 21.5425 42.9438 22.2572C43.1937 30.7787 36.4896 37.8901 27.9685 38.1421C19.4475 38.394 12.3357 31.6879 12.0837 23.1666C12.0763 22.9206 12.0749 22.6761 12.0794 22.4344C13.341 29.9146 19.9561 35.5074 27.7531 35.278C36.0291 35.0331 42.5902 28.3185 42.7326 20.1252Z" fill="black"/>
<path opacity="0.35" d="M27.5098 38.2205C19.1663 38.2205 12.2599 31.5611 12.0118 23.1682C12.0044 22.9204 12.003 22.6727 12.0075 22.4325C12.0079 22.4145 12.015 22.3973 12.0273 22.3842C12.0397 22.3712 12.0564 22.3632 12.0743 22.3617C12.0922 22.3608 12.1099 22.3663 12.1239 22.3774C12.138 22.3884 12.1477 22.4042 12.151 22.4218C13.3929 29.7856 19.8621 35.2118 27.3005 35.212C27.4506 35.212 27.6004 35.2099 27.7515 35.2054C35.9689 34.9627 42.5181 28.3379 42.661 20.124C42.6615 20.1061 42.6686 20.0891 42.681 20.0762C42.6933 20.0633 42.71 20.0554 42.7278 20.054C42.7456 20.0527 42.7633 20.058 42.7775 20.0689C42.7916 20.0798 42.8012 20.0955 42.8045 20.1131C42.9247 20.8212 42.9955 21.5368 43.0164 22.2547C43.2671 30.8018 36.5179 37.961 27.9711 38.2138C27.8167 38.2183 27.6627 38.2205 27.5098 38.2205ZM12.1574 23.2113C12.4323 31.6573 19.5142 38.3198 27.9663 38.0695C36.4328 37.8189 43.1202 30.7266 42.8717 22.259C42.8582 21.8044 42.825 21.3509 42.7721 20.904C42.5238 24.604 40.9681 28.0691 38.3441 30.7329C35.528 33.5914 31.7675 35.2312 27.7548 35.3497C24.1491 35.4554 20.6194 34.3013 17.7726 32.0859C14.9259 29.8706 12.9401 26.7324 12.157 23.2113H12.1574Z" fill="#371A45"/>
</g>
<path d="M42.9059 22.6546C43.0406 25.6722 42.186 28.5176 40.614 30.9101C39.4355 32.7041 34.4081 35.9757 28.035 36.3172C22.1261 36.6339 16.6069 33.7221 15.2736 32.0403C13.4948 29.797 12.3902 27.0383 12.2558 24.0215C11.8997 16.0357 18.6128 12.4185 27.0773 12.0419C35.5417 11.6654 42.5498 14.669 42.9059 22.6546Z" fill="#371A45"/>
<path d="M27.1201 36.7435C21.3729 36.7435 16.2873 33.9658 14.9585 32.2899C13.0618 29.8975 11.9882 27.0445 11.8541 24.0392C11.6795 20.1217 13.1157 17.0309 16.1231 14.853C18.7471 12.9533 22.5277 11.8424 27.0592 11.6402C31.5907 11.4381 35.456 12.2081 38.2378 13.8667C41.427 15.7685 43.1328 18.7191 43.3075 22.6364C43.4414 25.6419 42.6263 28.5792 40.95 31.1308C39.7874 32.9006 34.8119 36.3565 28.0569 36.7185C27.7431 36.7353 27.4302 36.7433 27.1201 36.7435ZM28.4606 12.4125C28.0129 12.4125 27.5577 12.4227 27.0951 12.4432C22.721 12.6384 19.09 13.6968 16.5946 15.5041C13.8199 17.5131 12.4946 20.373 12.6571 24.0034C12.7836 26.8387 13.7973 29.5314 15.5886 31.7905C16.7953 33.3126 21.7097 35.9389 27.1346 35.9393C27.4268 35.9393 27.7193 35.9317 28.0139 35.9159C34.4031 35.5734 39.2274 32.2893 40.2782 30.6894C41.8612 28.2799 42.631 25.5077 42.5047 22.6723C42.3426 19.042 40.768 16.3116 37.8262 14.5572C35.4599 13.1462 32.242 12.4125 28.4606 12.4125Z" fill="#371A45"/>
<path d="M27.5078 38.5498C18.9882 38.5498 11.9354 31.7498 11.6818 23.1779C11.5573 18.9494 13.0868 14.9252 15.9888 11.8469C18.8908 8.76865 22.818 7.00483 27.0467 6.88019C35.7765 6.62374 43.0872 13.5156 43.3442 22.2449C43.6013 30.9743 36.7088 38.2856 27.9793 38.5424C27.8229 38.5474 27.6644 38.5498 27.5078 38.5498ZM27.5201 7.67682C27.3706 7.67682 27.2214 7.67887 27.0711 7.68338C23.057 7.80167 19.3293 9.47611 16.5751 12.3984C13.821 15.3207 12.3685 19.1404 12.4868 23.1545C12.731 31.4408 19.6708 37.9846 27.9573 37.7395C36.2439 37.4943 42.7866 30.5552 42.5425 22.2689C42.3022 14.1325 35.6065 7.67703 27.5201 7.67703V7.67682Z" fill="#371A45"/>
<g opacity="0.5">
<path opacity="0.5" d="M39.8409 22.0593C40.0435 20.5643 39.3296 19.2332 38.2463 19.0864C37.163 18.9395 36.1205 20.0324 35.9178 21.5275C35.7151 23.0226 36.429 24.3536 37.5124 24.5005C38.5957 24.6474 39.6382 23.5544 39.8409 22.0593Z" fill="white"/>
</g>
<g opacity="0.5">
<path opacity="0.5" d="M36.732 27.5969C36.9189 26.9302 36.6065 26.2596 36.0343 26.0992C35.4621 25.9388 34.8467 26.3493 34.6598 27.016C34.4728 27.6827 34.7852 28.3533 35.3574 28.5137C35.9296 28.6741 36.545 28.2636 36.732 27.5969Z" fill="white"/>
</g>
<path d="M39.5931 15.3377C41.5462 17.0418 42.7622 19.4467 42.9057 22.6541C43.0404 25.6723 42.1851 28.5171 40.6144 30.9101C39.4355 32.704 34.4076 35.9754 28.0348 36.3178C25.7847 36.4389 23.5916 36.0923 21.6638 35.5207C29.4885 34.933 35.6114 30.9197 37.0728 28.6942C39.0681 25.6576 40.1526 22.0459 39.9814 18.2167C39.9416 17.2471 39.8116 16.2832 39.5931 15.3377Z" fill="#220F2D"/>
<path d="M13.1063 17.5624C13.0336 17.5623 12.9622 17.5425 12.8998 17.505C12.8374 17.4676 12.7864 17.4139 12.7521 17.3497C12.7178 17.2856 12.7016 17.2133 12.7052 17.1406C12.7088 17.0679 12.732 16.9976 12.7724 16.9371C15.2092 12.9925 20.2567 10.6551 26.9873 10.3548C33.5854 10.06 38.7648 11.8675 41.5759 15.4431C41.6425 15.5179 41.6787 15.6148 41.6775 15.715C41.6763 15.8151 41.6378 15.9112 41.5696 15.9844C41.5013 16.0576 41.4081 16.1027 41.3083 16.1109C41.2085 16.1191 41.1093 16.0897 41.03 16.0285C41.0022 16.0084 40.9776 15.9841 40.957 15.9566C38.3138 12.5794 33.3651 10.8748 27.0232 11.1577C20.5612 11.4462 15.741 13.652 13.4505 17.3692C13.445 17.3781 13.4395 17.3865 13.4333 17.3949L13.4247 17.4063C13.3871 17.455 13.3389 17.4944 13.2837 17.5214C13.2285 17.5485 13.1678 17.5625 13.1063 17.5624ZM13.0858 17.1446L13.1063 17.1606L13.0858 17.1446Z" fill="#371A45"/>
<g opacity="0.5">
<path opacity="0.5" d="M15.9093 28.6183C15.9093 28.6183 13.0848 20.8509 17.1903 17.5223C21.2959 14.1937 27.4047 13.9348 27.2794 14.3321C27.2794 14.3321 20.5901 16.2706 18.1827 21.7346C16.3263 25.948 15.9093 28.6183 15.9093 28.6183Z" fill="white"/>
</g>
<g opacity="0.3">
<path opacity="0.3" d="M26.0445 54.514C26.0287 54.8664 26.0119 55.2672 25.9935 55.7088C23.4391 55.6713 21.3725 55.4203 19.8955 55.1645C19.6717 55.1262 19.4615 55.0877 19.2651 55.0489C19.0048 55.3631 18.67 55.6072 18.2912 55.759C18.1924 55.4447 18.0989 55.1152 18.0107 54.7707C17.9082 54.3691 17.8131 53.9466 17.7293 53.5026C17.6139 53.4716 17.5214 53.4454 17.4527 53.4253C17.3531 53.3966 17.3021 53.38 17.3021 53.38L17.4903 51.9429C17.4441 51.5516 17.4058 51.1459 17.3779 50.7267L17.6409 50.7912L19.2077 38.833L23.5685 38.4941C23.8379 38.9381 24.12 39.0816 24.4881 40.0907C24.8883 41.1858 25.5258 42.4385 25.4207 44.0908C25.1927 47.6662 23.2464 49.5176 21.4619 51.731C20.9049 52.4204 20.3637 53.1455 19.8957 53.9689C21.382 54.2264 23.467 54.479 26.0445 54.514Z" fill="#371A45"/>
</g>
<path d="M24.5437 43.2935C24.2282 48.2436 20.6186 49.8904 18.7032 53.7653C17.9812 55.2247 16.07 55.5992 14.8347 54.5386C14.5531 54.2945 14.2583 54.0662 13.9516 53.8547C12.0371 52.5556 10.4461 52.7786 8.06313 51.9021C8.01701 51.8853 7.97232 51.8646 7.92783 51.8438C7.1228 51.4771 6.71628 50.7305 6.69783 49.9708C6.67733 49.1444 7.11542 48.301 7.99692 47.9138C10.3712 46.8697 13.592 45.2558 15.1135 43.6178C15.5016 43.2002 15.7797 42.7818 15.9048 42.3706C16.6715 39.8464 15.5563 36.9852 15.092 35.9658C15.0773 35.9334 15.0723 35.8975 15.0775 35.8624C15.0827 35.8272 15.098 35.7944 15.1215 35.7677C15.1449 35.741 15.1756 35.7217 15.2098 35.712C15.244 35.7024 15.2802 35.7028 15.3142 35.7132C17.1936 36.2757 19.0099 36.1706 20.2016 35.9848C20.7262 35.9029 21.2632 35.97 21.7515 36.1785C22.2398 36.387 22.6597 36.7284 22.9634 37.164C23.4447 37.8557 23.9428 38.7954 24.2536 39.9998C24.2959 40.1623 24.3356 40.3296 24.3692 40.5026C24.5343 41.3214 24.6099 42.2507 24.5437 43.2935Z" fill="#5F5272"/>
<g opacity="0.3">
<path opacity="0.3" d="M24.3692 40.5021C23.9508 40.8463 23.1314 41.3149 21.5517 41.723C20.4105 42.018 20.3332 42.6455 20.3332 42.6455C20.3332 42.6455 19.8822 41.4604 20.6265 41.2476C21.5431 40.9846 22.7704 40.8817 23.3211 40.4975C23.5548 40.3335 23.918 40.1517 24.2536 39.9988C24.2958 40.1618 24.335 40.329 24.3692 40.5021Z" fill="white"/>
</g>
<g opacity="0.3">
<path opacity="0.3" d="M17.0432 43.5481C17.0432 43.5481 15.8564 46.0237 10.8304 47.809C8.50553 48.6346 7.24478 49.2883 6.69722 49.9712C6.67672 49.1448 7.11481 48.3014 7.99631 47.9142C10.3706 46.8701 13.5914 45.2562 15.1129 43.6182L17.0432 43.5481Z" fill="#371A45"/>
</g>
<g opacity="0.3">
<path opacity="0.3" d="M23.2375 37.584C22.9044 37.2418 22.4943 36.9844 22.0413 36.8333C21.5883 36.6822 21.1058 36.6417 20.634 36.7154C19.3771 36.9122 17.4602 37.0229 15.478 36.4284C15.4485 36.4192 15.4172 36.4171 15.3867 36.4224C15.3562 36.4276 15.3275 36.4401 15.3028 36.4588C15.2255 36.2658 15.1529 36.1 15.0924 35.9668C15.0778 35.9344 15.0727 35.8985 15.078 35.8634C15.0832 35.8282 15.0985 35.7953 15.1219 35.7687C15.1454 35.742 15.1761 35.7227 15.2103 35.713C15.2444 35.7033 15.2807 35.7038 15.3146 35.7142C17.1941 36.2767 19.0104 36.1715 20.2021 35.9858C20.7265 35.9038 21.2634 35.9708 21.7516 36.1791C22.2398 36.3874 22.6597 36.7287 22.9634 37.164C23.0551 37.295 23.1465 37.435 23.2375 37.584Z" fill="white"/>
</g>
<path d="M16.4646 55.4654C15.7898 55.4653 15.1375 55.2225 14.6268 54.7813C14.3545 54.545 14.0692 54.3239 13.7724 54.1192C12.6559 53.3607 11.6517 53.1448 10.4887 52.8937C9.74556 52.7334 8.90363 52.5517 7.95345 52.2022C7.90261 52.1836 7.85321 52.1612 7.8036 52.1387C6.91451 51.7336 6.37126 50.8769 6.37762 49.899C6.38438 48.8958 6.95531 48.0235 7.86776 47.6223C12.4134 45.6231 15.1592 43.7255 15.5987 42.2788C16.3271 39.8821 15.2836 37.1583 14.8011 36.0984C14.7609 36.0103 14.7471 35.9124 14.7612 35.8166C14.7752 35.7208 14.8166 35.6311 14.8804 35.5582C14.9442 35.4853 15.0277 35.4324 15.1208 35.4057C15.2139 35.3791 15.3127 35.3799 15.4054 35.408C17.2389 35.9572 19.0159 35.8512 20.1835 35.6653C21.34 35.4808 22.5259 35.9869 23.205 36.9529C24.0677 38.1798 25.0552 40.2794 24.8619 43.3142C24.6569 46.537 23.1315 48.3669 21.5171 50.3047C20.6151 51.3879 19.6809 52.5079 18.989 53.9076C18.8007 54.2906 18.5268 54.6252 18.1884 54.8854C17.8501 55.1456 17.4564 55.3244 17.0378 55.408C16.8492 55.4464 16.6571 55.4656 16.4646 55.4654ZM15.0421 54.2969C15.2954 54.5157 15.5956 54.6733 15.9196 54.7575C16.2436 54.8416 16.5826 54.8501 16.9103 54.7821C17.2336 54.7177 17.5376 54.5796 17.799 54.3788C18.0603 54.1779 18.272 53.9196 18.4175 53.6239C19.1428 52.1565 20.1007 51.0069 21.0271 49.8953C22.5732 48.0403 24.0334 46.2873 24.2251 43.2738C24.4068 40.4243 23.4871 38.4631 22.6829 37.3196C22.1429 36.5513 21.2004 36.1495 20.2844 36.2946C19.1091 36.4816 17.3472 36.5915 15.4979 36.0964C16.0405 37.3651 16.9456 40.042 16.2094 42.4639C15.5756 44.5498 11.4633 46.7375 8.12504 48.2055C7.44587 48.5042 7.02091 49.1545 7.01599 49.9029C7.01107 50.6368 7.40159 51.2541 8.06026 51.5542C8.10392 51.5747 8.13837 51.5903 8.17424 51.6034C9.08219 51.9374 9.8659 52.1065 10.6238 52.2701C11.8007 52.5241 12.9122 52.7639 14.1311 53.5913C14.4479 53.8095 14.7522 54.0452 15.0428 54.2973L15.0421 54.2969Z" fill="#371A45"/>
<path d="M16.971 43.6055C9.45628 44.7094 6.5791 36.9667 6.5791 36.9667L14.0067 35.3446C14.0067 35.3446 15.1588 37.247 17.5579 37.9093" fill="#5F5272"/>
<g opacity="0.3">
<path opacity="0.3" d="M17.5579 37.9093L17.4964 38.4934C14.7754 37.9085 13.1709 36.0777 12.7972 35.6082L14.0055 35.3446C14.0055 35.3446 15.159 37.247 17.5579 37.9093Z" fill="white"/>
</g>
<g opacity="0.3">
<path opacity="0.3" d="M16.9714 43.6056C9.45628 44.7095 6.5791 36.9665 6.5791 36.9665L8.30397 36.5895C9.08523 38.1985 11.4983 42.2348 16.1842 42.6448C16.6682 42.687 17.0212 43.1224 16.9714 43.6056Z" fill="#371A45"/>
</g>
<path d="M16.9864 43.7107C16.8541 43.7707 16.7179 43.8217 16.5788 43.8634C16.4422 43.9102 16.3018 43.9451 16.1592 43.9675C16.0173 43.9901 15.8747 44.01 15.7314 44.0237C15.6599 44.0325 15.5879 44.0366 15.5159 44.036L15.2996 44.0393C14.7219 44.0543 14.1455 43.9573 13.584 43.8261L13.1643 43.7185C13.0258 43.6775 12.8892 43.6307 12.7513 43.5883C12.6828 43.5655 12.6127 43.5473 12.5463 43.5206L12.3446 43.4417C12.2111 43.3868 12.0733 43.3417 11.9444 43.2767L11.5526 43.0922L11.173 42.8854C11.0444 42.8195 10.927 42.7367 10.804 42.6623L10.6211 42.5477L10.4448 42.4247C9.49731 41.7699 8.6851 40.9438 7.99158 40.0408C7.64595 39.5879 7.32895 39.1139 7.04243 38.6216C6.90098 38.3745 6.76302 38.1255 6.63694 37.8694C6.57339 37.7417 6.51169 37.613 6.45244 37.4822C6.3932 37.3514 6.33744 37.2239 6.28147 37.0779L6.14966 36.7347L6.5123 36.6554L13.9399 35.0332L14.1561 34.9861L14.2808 35.1796C14.3193 35.2395 14.3716 35.3165 14.4243 35.3846C14.477 35.4527 14.5315 35.5232 14.5862 35.5921C14.6992 35.7278 14.8175 35.8598 14.9417 35.9865C15.1889 36.2413 15.4589 36.473 15.7484 36.6786C16.0395 36.8819 16.3548 37.042 16.6635 37.2116C16.971 37.3897 17.2836 37.5424 17.5882 37.8081L17.5936 37.8126C17.6103 37.8272 17.6225 37.8463 17.6286 37.8676C17.6347 37.8889 17.6345 37.9116 17.628 37.9328C17.6215 37.954 17.6089 37.9728 17.5919 37.9871C17.5749 38.0013 17.5541 38.0103 17.5321 38.0129C17.1247 38.0611 16.7291 37.9742 16.3712 37.8141C16.1867 37.7415 16.0192 37.6392 15.8511 37.5381C15.7691 37.4856 15.6895 37.4268 15.6088 37.3715L15.4882 37.2876L15.372 37.1982C15.2137 37.0834 15.0631 36.9594 14.9128 36.8348L14.6959 36.6382C14.6242 36.5722 14.5565 36.5016 14.4868 36.4332C14.3501 36.2941 14.2192 36.1489 14.094 35.9978C14.0325 35.9207 13.971 35.845 13.9122 35.7647C13.8534 35.6843 13.7982 35.6076 13.7365 35.5105L14.0772 35.6568L6.64965 37.279L6.88048 36.8565C6.92415 36.9703 6.97991 37.0992 7.03464 37.2202C7.08938 37.3411 7.14862 37.4647 7.20889 37.5859C7.32841 37.829 7.46022 38.0664 7.59491 38.302C7.86781 38.7714 8.16982 39.2233 8.49916 39.655C9.15844 40.5135 9.92596 41.2925 10.8105 41.9032C11.6896 42.5182 12.6805 42.9735 13.7279 43.1908C14.2533 43.2886 14.785 43.3492 15.3189 43.3722C15.5854 43.3989 15.8544 43.3899 16.1262 43.4132C16.398 43.4366 16.6715 43.4401 16.9581 43.5018L16.9657 43.5034C16.9884 43.5083 17.0089 43.5202 17.0245 43.5374C17.0401 43.5547 17.0498 43.5764 17.0524 43.5994C17.0549 43.6225 17.0502 43.6458 17.0388 43.666C17.0274 43.6862 17.0099 43.7024 16.9888 43.7121L16.9864 43.7107Z" fill="#371A45"/>
<path d="M20.104 51.8671C20.0713 51.867 20.0388 51.862 20.0076 51.8521C19.9677 51.8395 19.9307 51.8191 19.8987 51.7921C19.8666 51.7652 19.8402 51.7322 19.8209 51.695C19.8016 51.6579 19.7899 51.6173 19.7863 51.5756C19.7827 51.5339 19.7873 51.4919 19.8 51.4519C21.1964 47.0412 20.5103 44.5137 20.1003 43.0037C19.8924 42.238 19.7551 41.7327 20.014 41.3346C20.1811 41.0783 20.4732 40.9311 20.9611 40.8571C23.4311 40.4824 23.9059 39.6464 23.9104 39.6382C23.928 39.6005 23.9528 39.5665 23.9835 39.5384C24.0142 39.5103 24.0502 39.4886 24.0893 39.4745C24.1285 39.4604 24.17 39.4541 24.2116 39.4562C24.2532 39.4582 24.2939 39.4684 24.3315 39.4863C24.4083 39.5229 24.4675 39.5884 24.4962 39.6684C24.525 39.7484 24.5211 39.8366 24.4852 39.9137C24.4319 40.0295 23.8813 41.0589 21.0566 41.4875C20.7799 41.5285 20.6042 41.597 20.5482 41.6827C20.4457 41.8407 20.5706 42.3022 20.7157 42.8366C21.1159 44.3108 21.8608 47.0549 20.4082 51.6444C20.3878 51.7091 20.3472 51.7655 20.2925 51.8055C20.2378 51.8456 20.1718 51.8671 20.104 51.8671Z" fill="#371A45"/>
<path d="M16.5231 46.9698C15.8285 47.4208 14.3798 48.2252 12.0584 48.9017C11.9861 48.923 11.9189 48.9588 11.8608 49.007C11.8028 49.0551 11.7551 49.1145 11.7207 49.1816C11.6863 49.2487 11.6659 49.3221 11.6607 49.3973C11.6556 49.4725 11.6657 49.548 11.6906 49.6192L11.9442 50.3514C11.989 50.4816 12.0804 50.5906 12.2009 50.6573C12.3213 50.724 12.4622 50.7436 12.5963 50.7124C13.3355 50.5382 14.9247 50.0521 17.5061 48.7258C17.5723 48.6919 17.6311 48.6452 17.679 48.5883C17.7269 48.5314 17.7629 48.4655 17.785 48.3945C17.8071 48.3234 17.8147 48.2487 17.8075 48.1747C17.8003 48.1007 17.7784 48.0288 17.743 47.9634L17.316 47.1731C17.2796 47.1054 17.2295 47.046 17.1689 46.9986C17.1083 46.9512 17.0386 46.9168 16.9641 46.8977C16.8896 46.8786 16.812 46.8752 16.736 46.8876C16.6601 46.9 16.5876 46.9279 16.5231 46.9698Z" fill="white"/>
<g opacity="0.3">
<path opacity="0.3" d="M17.5062 48.726C14.9247 50.0522 13.3355 50.5384 12.5967 50.712C12.4625 50.7433 12.3214 50.7238 12.2008 50.6571C12.0802 50.5904 11.9886 50.4814 11.9438 50.351L11.6904 49.6194C11.6656 49.5481 11.6556 49.4726 11.6609 49.3973C11.6662 49.3221 11.6867 49.2487 11.7212 49.1816C11.7557 49.1145 11.8034 49.0551 11.8616 49.007C11.9197 48.959 11.987 48.9232 12.0594 48.9019C12.1502 48.8757 12.2404 48.8484 12.3288 48.8213L12.5543 49.4741C12.5991 49.6041 12.6906 49.7129 12.811 49.7794C12.9314 49.846 13.0722 49.8656 13.2062 49.8344C13.9116 49.6686 15.3923 49.2176 17.7713 48.0229C17.8227 48.152 17.824 48.2957 17.775 48.4258C17.726 48.5559 17.6301 48.6629 17.5062 48.726Z" fill="#371A45"/>
</g>
<path d="M12.4678 51.0457C12.2859 51.0453 12.1087 50.9883 11.9608 50.8824C11.813 50.7766 11.7018 50.6273 11.6428 50.4553L11.3893 49.723C11.3506 49.6105 11.335 49.4914 11.3436 49.3728C11.3522 49.2542 11.3846 49.1385 11.4391 49.0328C11.4928 48.9275 11.5676 48.8344 11.6588 48.7592C11.75 48.684 11.8556 48.6284 11.9692 48.5957C14.2769 47.9233 15.7043 47.1209 16.3498 46.7023C16.4512 46.6367 16.5651 46.5928 16.6843 46.5734C16.8034 46.554 16.9253 46.5594 17.0423 46.5893C17.1593 46.6193 17.2688 46.6732 17.364 46.7475C17.4591 46.8218 17.5378 46.9151 17.5952 47.0213L18.0233 47.811C18.0789 47.9137 18.1134 48.0266 18.1248 48.1429C18.1362 48.2592 18.1242 48.3766 18.0896 48.4882C18.0549 48.5998 17.9984 48.7034 17.9231 48.7928C17.8479 48.8822 17.7556 48.9557 17.6516 49.009C15.0262 50.3579 13.4032 50.8493 12.6701 51.0221C12.6038 51.0378 12.5359 51.0457 12.4678 51.0457ZM16.6965 47.2374C16.0216 47.6748 14.5333 48.5127 12.1478 49.2078C12.1172 49.2166 12.0889 49.2316 12.0644 49.2519C12.0399 49.2721 12.0199 49.2972 12.0055 49.3255C11.9904 49.3544 11.9814 49.386 11.979 49.4185C11.9767 49.451 11.981 49.4836 11.9918 49.5143L12.2453 50.2466C12.2642 50.3022 12.3031 50.3489 12.3544 50.3775C12.4057 50.4062 12.4658 50.4147 12.5231 50.4015C13.2285 50.2353 14.7951 49.7597 17.3611 48.4417C17.3898 48.4272 17.4153 48.4069 17.436 48.3823C17.4567 48.3576 17.4722 48.329 17.4816 48.2982C17.4912 48.2679 17.4946 48.2359 17.4915 48.2042C17.4884 48.1724 17.4789 48.1417 17.4636 48.1137L17.0356 47.3241C17.02 47.2949 16.9984 47.2693 16.9723 47.2489C16.9462 47.2285 16.9162 47.2139 16.8841 47.2058C16.8525 47.1976 16.8196 47.1961 16.7875 47.2014C16.7553 47.2067 16.7246 47.2186 16.6973 47.2363L16.6965 47.2374Z" fill="#371A45"/>
<g opacity="0.3">
<path opacity="0.3" d="M39.2789 52.8634C39.227 52.877 39.1745 52.8907 39.1226 52.9044C38.2914 53.1172 37.4777 53.3053 36.6813 53.4686C36.5985 53.9072 36.5066 54.3245 36.4056 54.7207C36.2435 55.3612 36.048 55.9928 35.8199 56.6129L34.7949 56.7867C33.5253 57.0009 32.3349 56.4313 31.6268 55.4524C31.4441 55.4717 31.2626 55.4898 31.0823 55.5067C30.1514 55.5942 29.2597 55.6502 28.4085 55.6828C28.3901 55.2404 28.3735 54.8396 28.3575 54.4889C29.2238 54.4577 30.1332 54.4003 31.0823 54.3111C30.9813 53.9355 30.9415 53.5461 30.9645 53.1578C30.982 52.8606 30.9936 52.5445 30.9995 52.2095C31.029 50.5748 30.9175 48.4809 30.5485 45.8157C29.8743 40.9246 31.4181 39.3919 32.3093 38.0577C32.3988 37.9233 32.4964 37.7944 32.6016 37.6719L37.1702 37.2758L39.2789 52.8634Z" fill="#371A45"/>
</g>
<path d="M40.8147 54.9724L35.7512 55.8291C33.6664 56.1815 31.7947 54.4177 31.9208 52.2006C32.0204 50.452 31.9481 48.0705 31.5057 44.8586C30.8314 39.9673 32.1664 38.4011 33.0573 37.0669C33.6894 36.1209 34.7759 35.6276 35.8605 35.8093C37.0919 36.0143 38.9872 36.1373 40.9486 35.5192C41.1065 35.469 41.2475 35.6364 41.179 35.7941C40.9017 36.4349 40.6624 37.703 40.5103 39.2125C40.3994 40.3164 40.3357 41.5495 40.3381 42.7624C40.3453 46.3704 41.4978 49.6685 42.4861 51.8347C42.5332 51.9372 42.5721 52.0434 42.6023 52.1521C42.9627 53.4087 42.1522 54.7461 40.8147 54.9724Z" fill="#5F5272"/>
<g opacity="0.3">
<path opacity="0.3" d="M31.7126 39.5705C31.7126 39.5705 31.894 40.3987 33.6129 40.9116C35.3318 41.4245 35.6974 41.0469 35.5268 41.918C35.3562 42.789 34.9602 43.2765 34.9602 43.2765C34.9602 43.2765 35.1242 42.0465 34.6982 41.8815C34.2722 41.7165 32.2819 41.6402 31.5275 40.5695C31.2593 40.188 31.7126 39.5705 31.7126 39.5705Z" fill="white"/>
</g>
<g opacity="0.3">
<path opacity="0.3" d="M40.9367 36.5491C38.9297 37.0983 37.0212 36.9683 35.7553 36.7563C34.5702 36.5579 33.3835 37.0975 32.6941 38.1298C32.3601 38.6294 31.9688 39.1604 31.6281 39.857C31.9841 38.5513 32.5827 37.7766 33.0569 37.0673C33.6889 36.1212 34.7754 35.628 35.8601 35.8096C37.0915 36.0146 38.9867 36.1376 40.9482 35.5196C41.106 35.4693 41.2471 35.6368 41.1786 35.7945C41.0937 35.9903 41.0123 36.2461 40.9367 36.5491Z" fill="white"/>
</g>
<path d="M35.2223 56.1921C34.3629 56.1921 33.5268 55.8732 32.8628 55.2791C31.9942 54.5013 31.5348 53.3726 31.6026 52.1823C31.7172 50.1733 31.5782 47.7232 31.1895 44.902C30.5409 40.1941 31.743 38.4291 32.6225 37.1403C32.6803 37.0552 32.7371 36.972 32.7922 36.8898C33.4921 35.8422 34.7176 35.2949 35.913 35.4958C37.1202 35.6977 38.9572 35.8131 40.8524 35.2159C40.945 35.1863 41.0442 35.1842 41.138 35.2099C41.2317 35.2355 41.316 35.2879 41.3805 35.3607C41.4477 35.4357 41.4919 35.5285 41.508 35.6279C41.5241 35.7274 41.5114 35.8293 41.4713 35.9217C41.0095 36.989 40.6513 39.9941 40.6571 42.7632C40.664 46.3286 41.8133 49.593 42.7761 51.7039C42.9378 52.0611 43.0154 52.4508 43.0027 52.8427C42.99 53.2347 42.8876 53.6185 42.7031 53.9646C42.5187 54.3107 42.2573 54.6098 41.939 54.8389C41.6208 55.068 41.2541 55.221 40.8674 55.286L35.8039 56.1425C35.6118 56.1753 35.4172 56.1919 35.2223 56.1921ZM35.4212 36.0915C34.6012 36.0915 33.8072 36.5185 33.3224 37.244C33.2662 37.3278 33.2085 37.4128 33.1494 37.4992C32.2836 38.7702 31.2062 40.3504 31.8212 44.8151C32.2154 47.6769 32.356 50.1678 32.2391 52.2186C32.1824 53.2141 32.5647 54.1565 33.2881 54.8039C33.9558 55.4017 34.8342 55.6606 35.6979 55.5146L40.7614 54.6581C41.052 54.6095 41.3275 54.4947 41.5668 54.3227C41.806 54.1507 42.0025 53.926 42.1412 53.666C42.2798 53.406 42.3569 53.1177 42.3665 52.8232C42.3761 52.5287 42.3179 52.236 42.1964 51.9675C41.2073 49.7994 40.0267 46.4428 40.0197 42.763C40.0144 40.047 40.343 37.1901 40.7971 35.8971C38.8701 36.448 37.0316 36.3276 35.808 36.1226C35.6801 36.1017 35.5507 36.0913 35.4212 36.0915Z" fill="#371A45"/>
<path d="M38.636 46.9291C38.874 47.745 39.5739 49.9033 40.6805 51.3141C40.7156 51.3584 40.7392 51.4108 40.749 51.4665C40.7588 51.5222 40.7545 51.5795 40.7366 51.6331C40.7186 51.6868 40.6876 51.7351 40.6463 51.7737C40.6049 51.8123 40.5546 51.84 40.4999 51.8543L39.0616 52.2276C39.011 52.2409 38.958 52.2423 38.9067 52.2317C38.8555 52.221 38.8075 52.1985 38.7664 52.1661C38.3535 51.8356 37.1483 50.6228 36.6811 47.449C36.6689 47.3673 36.6867 47.2839 36.7312 47.2142C36.7757 47.1446 36.8439 47.0934 36.9233 47.0702L38.2148 46.6969C38.3014 46.6719 38.3944 46.6823 38.4734 46.7259C38.5524 46.7694 38.6109 46.8425 38.636 46.9291Z" fill="white"/>
<g opacity="0.3">
<path opacity="0.3" d="M42.6023 52.1519C41.7225 52.4184 40.6138 52.4699 39.267 52.2386L38.1495 48.2161C38.1495 48.2161 40.719 47.4199 39.5888 45.1883L40.0862 38.7158C40.0862 38.7158 40.2465 38.8944 40.5103 39.2123C40.3994 40.3163 40.3357 41.5493 40.3381 42.7623C40.3453 46.3703 41.4978 49.6684 42.4861 51.8346C42.5332 51.9371 42.5721 52.0432 42.6023 52.1519Z" fill="#371A45"/>
</g>
<path d="M39.302 44.3543C40.432 46.5859 38.1491 47.26 38.1491 47.26L40.0054 51.5607C44.0685 51.1187 45.975 49.1048 44.909 45.6919C43.6819 41.7641 40.0872 37.7584 40.0872 37.7584L39.302 44.3543Z" fill="#5F5272"/>
<g opacity="0.3">
<path opacity="0.3" d="M40.0058 51.5606L39.2678 49.8494C43.2059 49.1592 44.9873 46.9483 43.8697 43.3737C43.8299 43.2453 43.7877 43.1178 43.743 42.9895C44.21 43.8605 44.6245 44.7779 44.909 45.6922C45.975 49.1049 44.0685 51.119 40.0058 51.5606Z" fill="#371A45"/>
</g>
<path d="M39.397 44.3063C39.6225 44.5425 39.7822 44.8393 39.8713 45.1741C39.9613 45.5273 39.9399 45.8996 39.8098 46.2401C39.677 46.5886 39.4359 46.8807 39.1604 47.0939C39.024 47.1997 38.8781 47.2927 38.7246 47.3717C38.6485 47.4102 38.5718 47.4471 38.4929 47.4797L38.373 47.5271C38.3301 47.5431 38.2957 47.5556 38.2404 47.5724L38.4468 47.1318C38.5971 47.4922 38.7499 47.8514 38.9052 48.2093L39.3691 49.2846L40.2973 51.435L39.9693 51.2444C40.7151 51.1595 41.4554 51.0232 42.1507 50.779C42.8461 50.5348 43.499 50.1882 43.9943 49.6868C44.2389 49.4379 44.4399 49.1496 44.5888 48.834C44.7372 48.5201 44.8211 48.178 44.8582 47.826C44.9299 47.1204 44.7991 46.3889 44.5673 45.6866L44.3828 45.1556C44.3213 44.9785 44.2413 44.8071 44.1716 44.6325L44.0638 44.3715L43.9437 44.1151C43.8617 43.9447 43.7842 43.7727 43.6999 43.6026C43.3567 42.9279 42.9769 42.2701 42.5724 41.6262C42.1612 40.9864 41.7319 40.3572 41.2723 39.7492C41.154 39.5999 41.0359 39.4505 40.9129 39.3049C40.7899 39.1594 40.6774 39.0061 40.5644 38.8529C40.3433 38.5423 40.1356 38.2215 40.006 37.8298L40.005 37.8265C39.998 37.8051 39.9974 37.7821 40.0034 37.7604C40.0094 37.7386 40.0217 37.7192 40.0387 37.7044C40.0557 37.6896 40.0767 37.6801 40.099 37.6772C40.1213 37.6743 40.144 37.678 40.1643 37.6879C40.5427 37.8736 40.8273 38.1442 41.0856 38.4351C41.3439 38.726 41.5628 39.0487 41.7881 39.3652C42.2477 39.9911 42.6923 40.6286 43.1112 41.2846C43.5246 41.9439 43.915 42.6194 44.2694 43.3162C44.3565 43.4913 44.4377 43.6696 44.5222 43.8463L44.6466 44.1128L44.7594 44.3848C44.8323 44.5673 44.9143 44.7456 44.9797 44.9316L45.1743 45.4904C45.4217 46.2442 45.5761 47.0607 45.4922 47.8908C45.449 48.3036 45.3487 48.7185 45.1673 49.1003C44.9879 49.4821 44.7453 49.8309 44.4498 50.132C43.8584 50.7292 43.1155 51.116 42.3617 51.3794C41.6032 51.6459 40.8205 51.7874 40.0392 51.8766L39.8057 51.9032L39.7118 51.6859L38.7838 49.5357L38.3197 48.4605C38.1664 48.1016 38.0097 47.744 37.8498 47.3877L37.7043 47.063L38.0563 46.9471C38.0735 46.9416 38.1106 46.9279 38.1383 46.9166C38.1659 46.9053 38.1998 46.8912 38.2295 46.8772C38.291 46.8494 38.3494 46.8176 38.4078 46.785C38.5223 46.7192 38.6309 46.6438 38.7326 46.5595C38.9314 46.3936 39.0891 46.2011 39.1862 45.9838C39.2375 45.8744 39.272 45.7579 39.2887 45.6382C39.3097 45.5121 39.3174 45.3841 39.3119 45.2563C39.3092 44.9898 39.2568 44.7067 39.2065 44.4008V44.4004C39.2042 44.386 39.2046 44.3713 39.2079 44.3572C39.2113 44.343 39.2173 44.3296 39.2258 44.3177C39.2343 44.3059 39.245 44.2958 39.2574 44.2881C39.2698 44.2805 39.2836 44.2753 39.298 44.2729C39.3159 44.27 39.3343 44.2716 39.3516 44.2774C39.3688 44.2832 39.3844 44.2932 39.397 44.3063Z" fill="#371A45"/>
<path d="M38.636 46.9291C38.874 47.745 39.5739 49.9033 40.6805 51.3141C40.7156 51.3584 40.7392 51.4108 40.749 51.4665C40.7588 51.5222 40.7545 51.5795 40.7366 51.6331C40.7186 51.6868 40.6876 51.7351 40.6463 51.7737C40.6049 51.8123 40.5546 51.84 40.4999 51.8543L39.0616 52.2276C39.011 52.2409 38.958 52.2423 38.9067 52.2317C38.8555 52.221 38.8075 52.1985 38.7664 52.1661C38.3535 51.8356 37.1483 50.6228 36.6811 47.449C36.6689 47.3673 36.6867 47.2839 36.7312 47.2142C36.7757 47.1446 36.8439 47.0934 36.9233 47.0702L38.2148 46.6969C38.3014 46.6719 38.3944 46.6823 38.4734 46.7259C38.5524 46.7694 38.6109 46.8425 38.636 46.9291Z" fill="white"/>
<g opacity="0.3">
<path opacity="0.3" d="M40.4999 51.8545L39.0614 52.2276C39.0107 52.2408 38.9576 52.2422 38.9063 52.2315C38.855 52.2208 38.8068 52.1985 38.7656 52.1661C38.3527 51.8352 37.1477 50.6223 36.6807 47.4484C36.6686 47.3668 36.6864 47.2835 36.7309 47.2139C36.7754 47.1443 36.8436 47.0932 36.9228 47.07L36.973 47.0557C37.5048 49.6825 38.5515 50.7299 38.9306 51.0327C38.9715 51.0653 39.0195 51.0878 39.0708 51.0985C39.122 51.1092 39.175 51.1077 39.2256 51.0942L40.3205 50.8096C40.4353 50.9851 40.5548 51.154 40.6801 51.3133C40.7154 51.3576 40.7391 51.4101 40.749 51.4659C40.759 51.5217 40.7548 51.579 40.7369 51.6328C40.719 51.6866 40.6879 51.735 40.6465 51.7738C40.6051 51.8125 40.5547 51.8402 40.4999 51.8545Z" fill="#371A45"/>
</g>
<path d="M38.9759 52.5571C38.827 52.5576 38.6825 52.5074 38.5659 52.4149C38.0624 52.0118 36.84 50.7259 36.3646 47.4949C36.3416 47.3369 36.3763 47.176 36.4625 47.0416C36.5486 46.9072 36.6803 46.8084 36.8334 46.7634L38.1249 46.3901C38.2927 46.3421 38.4726 46.3624 38.6254 46.4466C38.7783 46.5308 38.8916 46.672 38.9406 46.8395C39.1838 47.673 39.8644 49.7585 40.9291 51.1168C40.997 51.2027 41.0423 51.3043 41.061 51.4121C41.0797 51.52 41.0713 51.6309 41.0364 51.7346C41.0015 51.8384 40.9413 51.9319 40.8612 52.0066C40.7812 52.0812 40.6837 52.1347 40.5778 52.1623L39.1395 52.5356C39.0861 52.5496 39.0311 52.5568 38.9759 52.5571ZM38.3088 47.0016C38.3068 47.0014 38.3049 47.0014 38.3029 47.0016L37.0114 47.3749C37.0062 47.3767 37.0018 47.3804 36.999 47.3852C36.9963 47.3899 36.9954 47.3956 36.9964 47.401C37.4513 50.492 38.6186 51.6379 38.9644 51.9157C38.9668 51.9171 38.9695 51.918 38.9723 51.9183C38.9751 51.9186 38.9779 51.9183 38.9806 51.9175L40.4189 51.5442C40.4222 51.5436 40.4253 51.5421 40.4278 51.5399C40.4303 51.5376 40.4321 51.5347 40.433 51.5315C40.4344 51.5278 40.4347 51.5237 40.4339 51.5198C40.4332 51.516 40.4314 51.5123 40.4287 51.5094C39.2947 50.0637 38.5825 47.886 38.3289 47.017C38.3274 47.0126 38.3246 47.0089 38.3209 47.0062C38.3171 47.0036 38.3126 47.0022 38.308 47.0022L38.3088 47.0016Z" fill="#371A45"/>
<path d="M31.9362 52.2234C31.9225 52.2235 31.9088 52.2226 31.8952 52.221C31.8536 52.2157 31.8135 52.2024 31.7771 52.1816C31.7408 52.1609 31.7088 52.1332 31.6832 52.1001C31.6575 52.067 31.6386 52.0292 31.6276 51.9888C31.6165 51.9484 31.6136 51.9062 31.6188 51.8647C32.0698 48.2909 33.4622 45.6241 34.383 43.8594C34.8906 42.8863 35.3701 41.9671 35.2207 41.6725C35.1653 41.5634 34.9628 41.5116 34.8027 41.488C31.9798 41.0598 31.4251 40.0454 31.3712 39.9312C31.3528 39.8936 31.342 39.8528 31.3394 39.811C31.3368 39.7692 31.3424 39.7273 31.356 39.6877C31.3696 39.6481 31.3908 39.6115 31.4185 39.5801C31.4462 39.5488 31.4798 39.5231 31.5174 39.5047C31.5551 39.4863 31.5959 39.4755 31.6377 39.4729C31.6795 39.4703 31.7214 39.4759 31.761 39.4895C31.8006 39.5031 31.8371 39.5244 31.8685 39.5521C31.8999 39.5798 31.9256 39.6134 31.944 39.651C31.9618 39.6815 32.462 40.488 34.8984 40.8576C35.3529 40.9265 35.6442 41.0989 35.7891 41.3847C36.0872 41.9718 35.6586 42.7934 34.9486 44.1551C34.0489 45.8793 32.6893 48.4851 32.2519 51.9451C32.2421 52.0219 32.2046 52.0925 32.1465 52.1438C32.0884 52.195 32.0136 52.2233 31.9362 52.2234Z" fill="#371A45"/>
<path d="M12.0506 33.7138C12.2511 34.1603 12.715 35.5766 12.1941 36.1498C11.6732 36.723 8.96327 37.9743 7.69965 37.0723C6.84049 36.4594 6.32615 35.3331 6.70642 34.362C7.31855 32.7987 11.1908 31.7987 12.0506 33.7138Z" fill="white"/>
<g opacity="0.3">
<path opacity="0.3" d="M12.1941 36.1494C11.673 36.7234 8.96308 37.9739 7.69987 37.0719C6.88684 36.4918 6.38151 35.4524 6.65252 34.5184C6.80627 35.1002 7.19291 35.6406 7.69987 36.0016C8.96308 36.9036 11.673 35.6531 12.1941 35.0791C12.2761 34.9856 12.3362 34.875 12.3702 34.7554C12.469 35.2751 12.478 35.837 12.1941 36.1494Z" fill="#371A45"/>
</g>
<path d="M8.86465 37.7044C8.35994 37.7044 7.88782 37.5982 7.51431 37.3319C6.61559 36.6906 5.9475 35.4254 6.40936 34.2456C6.85216 33.1148 8.58749 32.3801 9.9411 32.3463C11.1004 32.3188 11.9757 32.7688 12.3414 33.5833C12.3501 33.6025 13.1975 35.5197 12.4298 36.3643C11.9888 36.8493 10.2962 37.7044 8.86465 37.7044ZM10.0416 32.982C10.0122 32.982 9.98395 32.982 9.95668 32.982C8.68281 33.0129 7.30275 33.7114 7.00304 34.4764C6.66028 35.3518 7.18754 36.3134 7.88454 36.811C8.95505 37.5748 11.462 36.4793 11.9579 35.9338C12.3082 35.5484 12.0018 34.3817 11.7597 33.8428C11.4284 33.1062 10.5752 32.982 10.0416 32.982Z" fill="#371A45"/>
<path d="M8.6488 35.3869C8.70251 35.5378 8.76647 35.6925 8.8333 35.8407C8.90013 35.989 8.97516 36.1351 9.05388 36.2758C9.13237 36.4137 9.21811 36.5474 9.31075 36.6763C9.40009 36.7972 9.49938 36.9104 9.60758 37.0148C9.6691 37.0734 9.70483 37.154 9.70691 37.2389C9.70898 37.3238 9.67724 37.4061 9.61866 37.4676C9.56007 37.5291 9.47945 37.5649 9.39452 37.5669C9.3096 37.569 9.22733 37.5373 9.16581 37.4787C9.15128 37.4649 9.1381 37.4498 9.12645 37.4336L9.12522 37.4317C8.90156 37.1169 8.76052 36.786 8.64839 36.4539C8.59372 36.2873 8.54637 36.1201 8.50633 35.9523C8.46533 35.7833 8.43253 35.6173 8.40629 35.443C8.4017 35.4125 8.40866 35.3813 8.42581 35.3555C8.44296 35.3298 8.46908 35.3114 8.49907 35.3039C8.52906 35.2964 8.56077 35.3003 8.58804 35.3149C8.6153 35.3294 8.63616 35.3536 8.64654 35.3828L8.6488 35.3869Z" fill="#371A45"/>
<path d="M10.9026 34.6972C10.9955 34.8409 11.0811 34.9894 11.1588 35.1419C11.2365 35.2932 11.3093 35.4475 11.3747 35.6056C11.5084 35.9246 11.6154 36.2541 11.6947 36.5908C11.705 36.6319 11.707 36.6747 11.7007 36.7166C11.6944 36.7586 11.6798 36.7988 11.6577 36.8351C11.6357 36.8713 11.6067 36.9028 11.5724 36.9278C11.5382 36.9527 11.4993 36.9706 11.458 36.9805C11.4167 36.9903 11.3739 36.9918 11.3321 36.9849C11.2902 36.9781 11.2502 36.963 11.2142 36.9405C11.1782 36.9181 11.1471 36.8887 11.1225 36.8541C11.098 36.8195 11.0806 36.7804 11.0713 36.739C11.0666 36.7183 11.0638 36.6973 11.0629 36.6761C11.0519 36.3605 11.0147 36.0464 10.9518 35.737C10.9208 35.5804 10.8823 35.4248 10.8382 35.2702C10.7941 35.1156 10.7427 34.9602 10.6855 34.8169L10.683 34.8112C10.6714 34.7825 10.6709 34.7505 10.6816 34.7215C10.6923 34.6925 10.7134 34.6685 10.7409 34.6542C10.7683 34.64 10.8001 34.6365 10.83 34.6444C10.8599 34.6524 10.8858 34.6712 10.9026 34.6972Z" fill="#371A45"/>
<g opacity="0.3">
<path opacity="0.3" d="M20.432 43.0146C20.432 43.0146 19.3455 43.2094 19.3455 43.9576C19.3455 44.7059 21.0042 48.3167 19.5261 52.3507C19.5261 52.3507 21.2637 49.0519 20.9441 46.8795C20.6245 44.7071 20.432 43.0146 20.432 43.0146Z" fill="#371A45"/>
</g>
<g opacity="0.3">
<path opacity="0.3" d="M35.0397 43.0146C35.0397 43.0146 36.3429 43.9107 36.3429 44.6599C36.3429 45.4092 33.356 47.8184 31.921 52.6224C31.921 52.6224 32.0301 49.2585 33.3724 46.6835C34.4403 44.6354 35.0397 43.0146 35.0397 43.0146Z" fill="#371A45"/>
</g>
<g opacity="0.3">
<path opacity="0.3" d="M34.6737 44.2025C34.6737 44.2025 33.355 45.9508 32.3406 45.7314C31.3263 45.5121 31.4425 44.5069 31.4425 44.5069L31.8935 48.6561L31.8115 51.1776L33.0569 48.1805L34.6737 44.2025Z" fill="#371A45"/>
</g>
<g opacity="0.3">
<path opacity="0.3" d="M20.5409 45.5425C20.5409 45.5425 20.901 47.6663 21.8231 47.1267C23.3492 46.2339 24.5177 43.6192 24.5177 43.6192C24.5177 43.6192 22.5451 50.0933 20.2789 50.9643C20.2789 50.9643 21.0404 46.6329 20.5409 45.5425Z" fill="#371A45"/>
</g>
</g>
</svg>
