<svg width="53" height="52" viewBox="0 0 53 52" fill="none" xmlns="http://www.w3.org/2000/svg">
<mask id="mask0_2_7281" style="mask-type:alpha" maskUnits="userSpaceOnUse" x="0" y="0" width="53" height="52">
<circle cx="26.5" cy="26" r="26" fill="#C4C4C4"/>
</mask>
<g mask="url(#mask0_2_7281)">
<path d="M68.5 -9.99997H-16.5V75H68.5V-9.99997Z" fill="#95C4FC"/>
<path d="M2.68591 52.0149L2.77198 51.9692L7.55726 60.9679H7.44676L2.68591 52.0149Z" fill="#F14925"/>
<path d="M2.77197 51.9693L2.85803 51.9234L7.66776 60.9681H7.55726L2.77197 51.9693Z" fill="#F14A25"/>
<path d="M2.85809 51.9233L2.94416 51.8776L7.77811 60.9679H7.66782L2.85809 51.9233Z" fill="#F14B25"/>
<path d="M2.94415 51.8778L3.03043 51.8319L7.8886 60.9681H7.7781L2.94415 51.8778Z" fill="#F14C25"/>
<path d="M3.0304 51.8318L3.11646 51.7861L7.99907 60.968H7.88857L3.0304 51.8318Z" fill="#F14D25"/>
<path d="M3.11646 51.7861L3.20252 51.7402L8.10935 60.968H7.99907L3.11646 51.7861Z" fill="#F14E25"/>
<path d="M3.20251 51.7402L3.28858 51.6945L8.21985 60.968H8.10935L3.20251 51.7402Z" fill="#F24F25"/>
<path d="M3.28857 51.6945L3.37464 51.6486L8.33035 60.968H8.21985L3.28857 51.6945Z" fill="#F25025"/>
<path d="M3.37463 51.6487L3.4607 51.603L8.44063 60.9681H8.33035L3.37463 51.6487Z" fill="#F25125"/>
<path d="M3.46069 51.6029L3.54676 51.5572L8.55113 60.968H8.44063L3.46069 51.6029Z" fill="#F25225"/>
<path d="M3.54681 51.5572L3.63288 51.5113L8.63789 60.9234L8.55374 60.968H8.55119L3.54681 51.5572Z" fill="#F25325"/>
<path d="M3.71796 51.4668L3.63184 51.5126L8.63633 60.9247L8.72245 60.8789L3.71796 51.4668Z" fill="#F25425"/>
<path d="M3.8031 51.4221L3.71698 51.4679L8.72148 60.88L8.8076 60.8342L3.8031 51.4221Z" fill="#F25525"/>
<path d="M3.89001 51.3754L3.80389 51.4211L8.80839 60.8332L8.89451 60.7874L3.89001 51.3754Z" fill="#F25625"/>
<path d="M3.9754 51.3305L3.88928 51.3763L8.89378 60.7884L8.9799 60.7426L3.9754 51.3305Z" fill="#F25725"/>
<path d="M4.06128 51.2849L3.97516 51.3307L8.97965 60.7428L9.06577 60.697L4.06128 51.2849Z" fill="#F35825"/>
<path d="M4.14789 51.2386L4.06177 51.2844L9.06627 60.6965L9.15239 60.6507L4.14789 51.2386Z" fill="#F35925"/>
<path d="M4.23346 51.1933L4.14734 51.2391L9.15183 60.6512L9.23795 60.6054L4.23346 51.1933Z" fill="#F35A25"/>
<path d="M4.32062 51.1464L4.2345 51.1922L9.239 60.6043L9.32511 60.5585L4.32062 51.1464Z" fill="#F35C25"/>
<path d="M4.40576 51.1016L4.31964 51.1474L9.32414 60.5595L9.41026 60.5137L4.40576 51.1016Z" fill="#F35D25"/>
<path d="M4.49182 51.0558L4.4057 51.1016L9.4102 60.5137L9.49632 60.4679L4.49182 51.0558Z" fill="#F35E26"/>
<path d="M4.57892 51.0091L4.4928 51.0549L9.4973 60.467L9.58342 60.4212L4.57892 51.0091Z" fill="#F35F26"/>
<path d="M4.66394 50.9643L4.57782 51.0101L9.58232 60.4222L9.66844 60.3764L4.66394 50.9643Z" fill="#F36026"/>
<path d="M4.75122 50.9176L4.6651 50.9633L9.6696 60.3754L9.75572 60.3296L4.75122 50.9176Z" fill="#F46126"/>
<path d="M4.83612 50.8728L4.75 50.9186L9.7545 60.3307L9.84062 60.2849L4.83612 50.8728Z" fill="#F46226"/>
<path d="M4.9223 50.827L4.83618 50.8728L9.84068 60.2849L9.9268 60.2391L4.9223 50.827Z" fill="#F46426"/>
<path d="M5.00946 50.7803L4.92334 50.826L9.92784 60.2381L10.014 60.1923L5.00946 50.7803Z" fill="#F46526"/>
<path d="M5.09448 50.7354L5.00836 50.7812L10.0129 60.1933L10.099 60.1475L5.09448 50.7354Z" fill="#F46626"/>
<path d="M5.18158 50.6887L5.09546 50.7345L10.1 60.1466L10.1861 60.1008L5.18158 50.6887Z" fill="#F46726"/>
<path d="M5.26666 50.6438L5.18054 50.6896L10.185 60.1017L10.2712 60.0559L5.26666 50.6438Z" fill="#F46826"/>
<path d="M5.35284 50.5981L5.26672 50.6439L10.2712 60.056L10.3573 60.0102L5.35284 50.5981Z" fill="#F46A26"/>
<path d="M5.43964 50.5513L5.35352 50.5971L10.358 60.0092L10.4441 59.9634L5.43964 50.5513Z" fill="#F56B26"/>
<path d="M5.5249 50.5065L5.43878 50.5523L10.4433 59.9644L10.5294 59.9186L5.5249 50.5065Z" fill="#F56C26"/>
<path d="M5.61194 50.4598L5.52582 50.5056L10.5303 59.9176L10.6164 59.8719L5.61194 50.4598Z" fill="#F56D26"/>
<path d="M5.6972 50.415L5.61108 50.4608L10.6156 59.8729L10.7017 59.8271L5.6972 50.415Z" fill="#F56F26"/>
<path d="M5.78339 50.3692L5.69727 50.415L10.7018 59.8271L10.7879 59.7813L5.78339 50.3692Z" fill="#F57026"/>
<path d="M5.87018 50.3223L5.78406 50.3681L10.7886 59.7802L10.8747 59.7344L5.87018 50.3223Z" fill="#F57126"/>
<path d="M5.95544 50.2777L5.86932 50.3235L10.8738 59.7355L10.9599 59.6898L5.95544 50.2777Z" fill="#F57226"/>
<path d="M6.0423 50.2309L5.95618 50.2767L10.9607 59.6888L11.0468 59.643L6.0423 50.2309Z" fill="#F67426"/>
<path d="M6.12756 50.1861L6.04144 50.2319L11.0459 59.644L11.1321 59.5982L6.12756 50.1861Z" fill="#F67526"/>
<path d="M6.21356 50.1405L6.12744 50.1862L11.1319 59.5983L11.2181 59.5525L6.21356 50.1405Z" fill="#F67626"/>
<path d="M6.30054 50.0936L6.21442 50.1394L11.2189 59.5515L11.305 59.5057L6.30054 50.0936Z" fill="#F67726"/>
<path d="M6.38592 50.0489L6.2998 50.0947L11.3043 59.5068L11.3904 59.461L6.38592 50.0489Z" fill="#F67926"/>
<path d="M6.47278 50.0019L6.38666 50.0477L11.3912 59.4598L11.4773 59.414L6.47278 50.0019Z" fill="#F67A26"/>
<path d="M6.55817 49.9572L6.47205 50.003L11.4765 59.4151L11.5627 59.3693L6.55817 49.9572Z" fill="#F67B26"/>
<path d="M6.64416 49.9116L6.55804 49.9574L11.5625 59.3695L11.6487 59.3237L6.64416 49.9116Z" fill="#F77D26"/>
<path d="M6.73108 49.8647L6.64496 49.9105L11.6495 59.3225L11.7356 59.2768L6.73108 49.8647Z" fill="#F77E26"/>
<path d="M6.81628 49.82L6.73016 49.8658L11.7347 59.2779L11.8208 59.2321L6.81628 49.82Z" fill="#F77F26"/>
<path d="M6.90326 49.7731L6.81714 49.8189L11.8216 59.231L11.9078 59.1852L6.90326 49.7731Z" fill="#F78126"/>
<path d="M6.98852 49.7285L6.9024 49.7743L11.9069 59.1863L11.993 59.1406L6.98852 49.7285Z" fill="#F78226"/>
<path d="M7.07452 49.6828L6.9884 49.7286L11.9929 59.1407L12.079 59.0949L7.07452 49.6828Z" fill="#F78426"/>
<path d="M7.16162 49.6358L7.0755 49.6816L12.08 59.0937L12.1661 59.0479L7.16162 49.6358Z" fill="#F78526"/>
<path d="M7.24683 49.5911L7.16071 49.6369L12.1652 59.049L12.2513 59.0032L7.24683 49.5911Z" fill="#F88626"/>
<path d="M7.33374 49.5443L7.24762 49.5901L12.2521 59.0021L12.3382 58.9564L7.33374 49.5443Z" fill="#F88826"/>
<path d="M7.41913 49.4996L7.33301 49.5454L12.3375 58.9575L12.4236 58.9117L7.41913 49.4996Z" fill="#F88927"/>
<path d="M7.505 49.4537L7.41888 49.4995L12.4234 58.9115L12.5095 58.8658L7.505 49.4537Z" fill="#F88A27"/>
<path d="M7.59204 49.4069L7.50592 49.4527L12.5104 58.8648L12.5965 58.819L7.59204 49.4069Z" fill="#F88C27"/>
<path d="M7.67718 49.3624L7.59106 49.4082L12.5956 58.8203L12.6817 58.7745L7.67718 49.3624Z" fill="#F88D27"/>
<path d="M7.76416 49.3154L7.67804 49.3612L12.6825 58.7733L12.7687 58.7275L7.76416 49.3154Z" fill="#F98F27"/>
<path d="M7.84943 49.2707L7.76331 49.3165L12.7678 58.7286L12.8539 58.6828L7.84943 49.2707Z" fill="#F99027"/>
<path d="M7.93555 49.2248L7.84943 49.2706L12.8539 58.6827L12.94 58.6369L7.93555 49.2248Z" fill="#F99227"/>
<path d="M8.0224 49.178L7.93628 49.2238L12.9408 58.6359L13.0269 58.5901L8.0224 49.178Z" fill="#F99327"/>
<path d="M8.10773 49.1333L8.02161 49.179L13.0261 58.5911L13.1122 58.5453L8.10773 49.1333Z" fill="#F99427"/>
<path d="M8.1947 49.0865L8.10858 49.1323L13.1131 58.5444L13.1992 58.4986L8.1947 49.0865Z" fill="#F99627"/>
<path d="M8.27985 49.0419L8.19373 49.0877L13.1982 58.4998L13.2843 58.454L8.27985 49.0419Z" fill="#F99727"/>
<path d="M8.36682 48.995L8.2807 49.0408L13.2852 58.4529L13.3713 58.4071L8.36682 48.995Z" fill="#FA9927"/>
<path d="M8.4519 48.9504L8.36578 48.9962L13.3703 58.4083L13.4564 58.3625L8.4519 48.9504Z" fill="#FA9A27"/>
<path d="M8.53809 48.9046L8.45197 48.9504L13.4565 58.3625L13.5426 58.3167L8.53809 48.9046Z" fill="#FA9C27"/>
<path d="M8.62506 48.8576L8.53894 48.9034L13.5434 58.3155L13.6296 58.2697L8.62506 48.8576Z" fill="#FA9D27"/>
<path d="M8.71033 48.8128L8.62421 48.8586L13.6287 58.2707L13.7148 58.2249L8.71033 48.8128Z" fill="#FA9F27"/>
<path d="M8.79736 48.7661L8.71124 48.8119L13.7157 58.2239L13.8019 58.1782L8.79736 48.7661Z" fill="#FAA027"/>
<path d="M8.88251 48.7215L8.79639 48.7673L13.8009 58.1794L13.887 58.1336L8.88251 48.7215Z" fill="#FBA227"/>
<path d="M8.96863 48.6756L8.88251 48.7214L13.887 58.1335L13.9731 58.0877L8.96863 48.6756Z" fill="#FBA327"/>
<path d="M8.9704 48.6733L9.0282 48.6425H9.06454L14.0613 58.0394L13.9752 58.0851L8.9704 48.6733Z" fill="#FBA527"/>
<path d="M9.1748 48.6425L14.1473 57.9937L14.0612 58.0394L9.06451 48.6425H9.1748Z" fill="#FBA627"/>
<path d="M9.28531 48.6425L14.2336 57.9478L14.1473 57.9937L9.1748 48.6425H9.28531Z" fill="#FBA827"/>
<path d="M9.3959 48.6425L14.3197 57.9021L14.2337 57.9478L9.2854 48.6425H9.3959Z" fill="#FBAA27"/>
<path d="M9.50616 48.6425L14.4058 57.8562L14.3197 57.9021L9.39587 48.6425H9.50616Z" fill="#FCAB27"/>
<path d="M9.61661 48.6425L14.4918 57.8106L14.4057 57.8562L9.5061 48.6425H9.61661Z" fill="#FCAD27"/>
<path d="M9.72714 48.6425L14.5779 57.7647L14.4918 57.8106L9.61664 48.6425H9.72714Z" fill="#FCAE27"/>
<path d="M9.8374 48.6425L14.6639 57.719L14.5778 57.7647L9.72711 48.6425H9.8374Z" fill="#FCB027"/>
<path d="M9.9479 48.6425L14.75 57.6731L14.6639 57.719L9.8374 48.6425H9.9479Z" fill="#FCB127"/>
<path d="M10.0584 48.6425L14.7934 57.5466V57.6501L14.75 57.6731L9.94794 48.6425H10.0584Z" fill="#FCB327"/>
<path d="M10.1687 48.6425L14.7933 57.339V57.5466L10.0584 48.6425H10.1687Z" fill="#FDB528"/>
<path d="M10.2792 48.6425L14.7933 57.1314V57.339L10.1687 48.6425H10.2792Z" fill="#FDB628"/>
<path d="M10.3897 48.6425L14.7933 56.9236V57.1314L10.2792 48.6425H10.3897Z" fill="#FDB828"/>
<path d="M10.5 48.6425L14.7933 56.716V56.9236L10.3897 48.6425H10.5Z" fill="#FDB928"/>
<path d="M10.6105 48.6425L14.7934 56.5084V56.716L10.5 48.6425H10.6105Z" fill="#FDBB28"/>
<path d="M10.721 48.6425L14.7933 56.3007V56.5084L10.6105 48.6425H10.721Z" fill="#FEBD28"/>
<path d="M10.8312 48.6425L14.7933 56.0929V56.3007L10.7209 48.6425H10.8312Z" fill="#FEBE28"/>
<path d="M10.9417 48.6425L14.7933 55.8853V56.0929L10.8312 48.6425H10.9417Z" fill="#FEC028"/>
<path d="M11.0523 48.6425L14.7934 55.6777V55.8853L10.9418 48.6425H11.0523Z" fill="#FEC228"/>
<path d="M11.1625 48.6425L14.7933 55.4699V55.6777L11.0522 48.6425H11.1625Z" fill="#FEC328"/>
<path d="M11.273 48.6425L14.7933 55.2623V55.4699L11.1625 48.6425H11.273Z" fill="#FEC528"/>
<path d="M11.3836 48.6425L14.7933 55.0546V55.2623L11.2731 48.6425H11.3836Z" fill="#FFC728"/>
<path d="M11.4938 48.6425L14.7933 54.847V55.0546L11.3835 48.6425H11.4938Z" fill="#FFC828"/>
<path d="M11.6043 48.6425L14.7933 54.6392V54.847L11.4938 48.6425H11.6043Z" fill="#FFCA28"/>
<path d="M14.7934 54.6392L11.6044 48.6425H14.7934V54.6392Z" fill="#FFCA28"/>
<g opacity="0.5">
<path opacity="0.5" d="M1.04424 58.4269C4.0305 55.8368 3.58319 52.8108 6.8593 51.3891C10.9591 49.6099 13.7101 53.6251 13.7101 53.6251C13.7101 53.6251 13.8059 54.0584 13.8274 54.712C13.9379 53.553 13.7396 52.6576 13.7396 52.6576C13.7396 52.6576 10.9884 48.6413 6.88862 50.4216C2.78886 52.202 4.52116 56.4928 -1.94373 59.2986C-0.827888 58.8143 0.157049 58.547 1.04424 58.4269Z" fill="white"/>
</g>
<path d="M3.17517 57.1753C6.93918 55.5418 9.48642 58.146 11.8728 57.11C14.2592 56.0741 13.3971 52.7336 13.3971 52.7336C13.3971 52.7336 11.5464 49.8223 9.15938 50.8579C6.77237 51.8934 6.93876 55.5418 3.17517 57.1753Z" fill="#FFD553"/>
<path d="M8.6307 59.9779C7.62111 59.9779 6.67761 59.7053 5.70203 59.4233C3.72811 58.8529 1.49091 58.2065 -1.99302 59.7184C-2.03522 59.7377 -2.08084 59.7485 -2.12723 59.7499C-2.17361 59.7514 -2.21982 59.7436 -2.26315 59.727C-2.30648 59.7104 -2.34606 59.6853 -2.37958 59.6532C-2.4131 59.6211 -2.43987 59.5826 -2.45835 59.5401C-2.47682 59.4975 -2.48661 59.4517 -2.48716 59.4053C-2.4877 59.3589 -2.47899 59.3128 -2.46152 59.2698C-2.44405 59.2268 -2.41818 59.1878 -2.38543 59.1549C-2.35267 59.122 -2.31369 59.096 -2.27076 59.0784C1.21806 57.5643 2.30628 55.5621 3.26784 53.7958C4.06705 52.3262 4.82206 50.9381 6.74965 50.1015C8.53869 49.3251 10.3687 49.4906 12.0409 50.5801C13.2851 51.3899 13.9959 52.4169 14.0265 52.4605C14.0518 52.4972 14.0697 52.5385 14.0792 52.582C14.0907 52.6333 14.3554 53.8545 14.0966 55.3165C13.7494 57.2828 12.6204 58.7322 10.8316 59.5087C10.0464 59.8498 9.32281 59.9779 8.6307 59.9779ZM2.11226 58.0798C3.56598 58.0798 4.77128 58.4281 5.89476 58.753C7.48108 59.2114 8.85128 59.6073 10.5536 58.8686C14.0932 57.3327 13.512 53.3575 13.4109 52.7984C13.0586 52.316 10.5978 49.1914 7.02675 50.7416C5.31931 51.4826 4.65228 52.7089 3.87984 54.129C3.16223 55.4485 2.37704 56.8915 0.666413 58.194C1.14465 58.1183 1.62808 58.0802 2.11226 58.0798Z" fill="#371A45"/>
<path d="M34.8613 31.7189C34.8613 31.7189 39.3933 33.6233 40.1614 34.8001C40.9296 35.9769 38.1125 36.0063 38.1125 36.0063" fill="white"/>
<path d="M38.1125 36.41C38.0504 36.41 37.9892 36.3955 37.9335 36.3679C37.8779 36.3403 37.8294 36.3003 37.7918 36.2509L34.5406 31.9628C34.4871 31.8923 34.4583 31.8061 34.4588 31.7175C34.4593 31.629 34.489 31.5431 34.5433 31.4731C34.5976 31.4032 34.6734 31.3531 34.7591 31.3306C34.8447 31.3082 34.9354 31.3146 35.017 31.3489C35.4926 31.5487 39.6863 33.3371 40.4995 34.5817C40.7847 35.0188 40.712 35.3594 40.5996 35.5683C40.192 36.3299 38.5972 36.4052 38.1182 36.41H38.1125ZM36.133 32.7319L38.3078 35.6006C39.0609 35.5649 39.7859 35.3818 39.8883 35.1899C39.8981 35.1716 39.8788 35.1068 39.8246 35.0226C39.4395 34.4314 37.699 33.4744 36.1333 32.731L36.133 32.7319Z" fill="#371A45"/>
<path d="M15.8362 21.7336C14.0758 23.053 12.4625 29.3356 12.8703 33.0811C13.2781 36.8266 19.8981 37.1061 23.6838 36.9837C27.4695 36.8613 27.4565 28.3022 27.407 26.0093C27.3294 22.4295 18.4448 19.7786 15.8362 21.7336Z" fill="white"/>
<g opacity="0.25">
<path opacity="0.25" d="M23.6837 36.9838C19.8978 37.1054 13.2783 36.8244 12.8698 33.0795C12.8158 32.5532 12.7958 32.0239 12.8099 31.4949C13.8554 32.3171 15.3121 31.5855 15.4874 30.5812C16.5712 24.3762 18.8825 21.9962 20.0001 21.1808C23.406 21.6581 27.3551 23.628 27.4059 26.0103C27.4569 28.3032 27.4696 36.8633 23.6837 36.9838Z" fill="#371A45"/>
</g>
<path d="M22.3641 37.4088C17.7894 37.4088 12.8478 36.5913 12.4704 33.1242C12.076 29.501 13.5771 22.9242 15.5941 21.4118C17.3834 20.0707 21.511 20.7106 24.3094 22.0729C26.5342 23.1566 27.7769 24.5511 27.8084 26.0016C27.8991 30.2014 27.4858 37.2641 23.6959 37.3869C23.2588 37.4009 22.8125 37.4088 22.3641 37.4088ZM18.5224 21.4681C17.4811 21.4681 16.6075 21.6594 16.0786 22.0557C14.453 23.2739 12.8788 29.4318 13.2713 33.0373C13.6376 36.4005 19.945 36.702 23.6721 36.5826C26.9752 36.4764 27.0589 28.4702 27.0058 26.019C26.9816 24.9017 25.871 23.7272 23.959 22.7965C22.1818 21.9318 20.1476 21.4681 18.5224 21.4681Z" fill="#371A45"/>
<path d="M16.208 28.0173L14.5277 27.3475C14.4382 27.3118 14.3422 27.2955 14.2459 27.2997C14.1497 27.304 14.0554 27.3286 13.9694 27.372C13.8834 27.4154 13.8076 27.4767 13.747 27.5516C13.6864 27.6265 13.6424 27.7135 13.618 27.8067C13.2651 29.1684 12.7215 31.9904 14.0915 32.5682C15.7519 33.2694 16.3406 31.3529 16.6323 28.7219C16.6483 28.5742 16.6154 28.4254 16.5388 28.2981C16.4621 28.1709 16.346 28.0722 16.208 28.0173Z" fill="white"/>
<g opacity="0.25">
<path opacity="0.25" d="M16.6288 28.7175C16.3432 31.3496 15.7588 33.267 14.097 32.57C13.4143 32.2848 13.2045 31.4409 13.2101 30.4983C13.3486 30.7682 13.5471 30.9771 13.825 31.0933C15.3125 31.7166 15.9377 30.2452 16.2558 28.0397C16.3802 28.1005 16.4828 28.1983 16.5496 28.3196C16.6163 28.4409 16.644 28.5799 16.6288 28.7175Z" fill="#371A45"/>
</g>
<path d="M14.7375 33.0864C14.4914 33.0864 14.2294 33.0286 13.9534 32.9128C12.4346 32.2766 12.734 29.7361 13.2521 27.7172C13.2894 27.5727 13.3569 27.4378 13.4503 27.3215C13.5437 27.2052 13.6607 27.11 13.7937 27.0424C13.9267 26.9748 14.0725 26.9363 14.2215 26.9294C14.3706 26.9224 14.5194 26.9473 14.658 27.0023L16.3397 27.6685C16.5533 27.7533 16.7334 27.9056 16.8523 28.1022C16.9712 28.2989 17.0226 28.529 16.9985 28.7576C16.7358 31.1758 16.2796 32.4107 15.4725 32.8867C15.2502 33.0188 14.9961 33.0878 14.7375 33.0864ZM14.27 27.6717C14.202 27.672 14.1359 27.6947 14.0821 27.7364C14.0283 27.778 13.9898 27.8363 13.9725 27.9021C13.5003 29.7408 13.3227 31.8424 14.2405 32.2269C14.5894 32.3731 14.8688 32.3792 15.0947 32.246C15.9247 31.7572 16.1763 29.4389 16.259 28.6773C16.2659 28.6105 16.2508 28.5434 16.2159 28.4861C16.181 28.4288 16.1283 28.3845 16.0658 28.36L14.3841 27.6938C14.3478 27.6793 14.3091 27.6718 14.27 27.6717Z" fill="#371A45"/>
<path d="M15.59 21.742L17.5697 22.6558C18.2284 22.9654 18.8853 23.272 19.5396 23.6041C19.5858 23.6275 19.6212 23.6678 19.6385 23.7166C19.6558 23.7654 19.6536 23.8189 19.6324 23.8662C19.6112 23.9134 19.5726 23.9507 19.5246 23.9702C19.4767 23.9897 19.423 23.9899 19.3749 23.9709L19.3715 23.9696C18.7046 23.7049 18.0202 23.4596 17.3395 23.2138L15.29 22.4887L15.2864 22.4875C15.1923 22.4469 15.1172 22.3721 15.0762 22.2782C15.0352 22.1844 15.0314 22.0784 15.0656 21.9819C15.0998 21.8853 15.1694 21.8054 15.2604 21.7582C15.3513 21.7111 15.4568 21.7003 15.5554 21.728C15.5662 21.7322 15.579 21.7371 15.59 21.742Z" fill="#371A45"/>
<path d="M46.0043 20.531C45.3515 22.758 40.3943 26.882 33.2815 27.0881C32.5736 27.1092 31.865 27.0911 31.1591 27.0337L30.5243 24.3231L30.0162 22.1534C30.0162 22.1534 31.1212 21.9522 32.63 21.5508C33.823 21.235 35.2684 20.7945 36.6233 20.2312C37.9006 19.6999 39.0987 19.0594 39.9253 18.31C39.9253 18.31 39.9706 16.0787 40.6034 15.8518C41.3758 15.574 41.9481 17.1433 41.9481 17.1433C41.9481 17.1433 43.7044 15.3358 44.7293 15.5107C46.2538 15.7702 46.7215 18.0887 46.0043 20.531Z" fill="white"/>
<g opacity="0.35">
<path opacity="0.35" d="M46.3243 18.7102C46.2882 19.3274 46.1808 19.9384 46.0043 20.5309C45.2882 22.973 39.3956 27.6975 31.1591 27.0334L30.0162 22.1533C30.0162 22.1533 30.3592 22.0909 30.9234 21.9661L32.259 24.5525C39.0617 26.6025 45.2068 21.2228 46.3243 18.7102Z" fill="#371A45"/>
</g>
<path d="M32.7216 27.4994C32.1999 27.4994 31.6687 27.4781 31.1278 27.4356C31.0749 27.4318 31.0232 27.4175 30.9758 27.3937C30.9285 27.3698 30.8863 27.3368 30.8517 27.2965C30.8171 27.2563 30.7908 27.2096 30.7744 27.1591C30.7579 27.1087 30.7516 27.0555 30.7558 27.0026C30.76 26.9497 30.7747 26.8981 30.7989 26.8509C30.8231 26.8037 30.8564 26.7617 30.8969 26.7274C30.9374 26.6931 30.9843 26.6672 31.0349 26.6511C31.0854 26.635 31.1387 26.6291 31.1916 26.6337C39.3144 27.288 44.9856 22.5734 45.6184 20.4178C46.0697 18.8791 46.0258 17.3472 45.5058 16.5148C45.2909 16.1708 45.0072 15.9666 44.6626 15.9077C44.1009 15.8121 42.906 16.7365 42.2373 17.4246L41.7911 17.884L41.5715 17.282C41.3945 16.8002 40.9878 16.1557 40.7468 16.2288C40.5475 16.3712 40.3486 17.3621 40.3284 18.3185L40.3248 18.4917L40.1962 18.6084C37.3305 21.2039 30.3836 22.4971 30.0893 22.5498C29.9843 22.569 29.8761 22.5457 29.7883 22.485C29.7005 22.4243 29.6405 22.3313 29.6213 22.2263C29.6021 22.1213 29.6254 22.0131 29.6861 21.9253C29.7468 21.8375 29.8398 21.7774 29.9448 21.7583C30.0137 21.7457 36.7491 20.4928 39.5286 18.1245C39.56 17.2992 39.7198 15.7445 40.4676 15.4749C41.2267 15.2012 41.7789 15.915 42.0777 16.463C42.7216 15.8788 43.8978 14.9625 44.7977 15.1157C45.3704 15.2131 45.8511 15.5499 46.1883 16.0896C46.8341 17.1237 46.9108 18.8693 46.3904 20.6454C45.6605 23.1315 40.28 27.499 32.7216 27.4994Z" fill="#371A45"/>
<path d="M38.6206 36.6758C38.6206 36.6758 28.6616 40.5272 25.1672 40.2516C21.6729 39.9759 17.911 39.4228 17.7049 32.7951C17.5774 28.6752 19.615 24.6215 21.176 22.1453C22.1266 20.6365 22.9001 19.7122 22.9001 19.7122L32.5159 20.203C32.5159 20.203 32.5533 20.7098 32.6306 21.5507C32.6789 22.0758 32.7433 22.7307 32.8249 23.473C32.9415 24.5391 33.0924 25.7854 33.2815 27.088C33.5712 29.0836 33.9503 31.2105 34.429 33.0185C34.6343 33.8011 37.9174 34.0153 38.6206 36.6758Z" fill="white"/>
<path d="M33.065 24.4048C33.4248 25.5778 33.6309 26.7636 33.8393 27.9485C34.0478 29.1334 34.2393 30.3182 34.4841 31.4908C34.5463 31.7836 34.6126 32.0752 34.6811 32.3661L34.7873 32.8007L34.8145 32.9093L34.8162 32.9158V32.9146V32.9118C34.8162 32.9101 34.8158 32.9084 34.8149 32.9069C34.8139 32.9056 34.8126 32.9044 34.8111 32.9035C34.8123 32.9038 34.8134 32.9044 34.8143 32.9052C34.8162 32.9067 34.8143 32.908 34.8173 32.9114C34.8226 32.916 34.8276 32.9211 34.8321 32.9265C34.8459 32.9408 34.8607 32.9542 34.8763 32.9664C34.9516 33.0274 35.0708 33.0939 35.1936 33.1577C35.3164 33.2214 35.4507 33.2824 35.5869 33.3442C35.8592 33.4677 36.1422 33.5941 36.4223 33.7359C36.982 34.0181 37.5424 34.363 38.0116 34.8409C38.2488 35.08 38.4545 35.3485 38.6236 35.6399C38.792 35.9335 38.9214 36.2478 39.0084 36.5749L39.1021 36.9244L38.7645 37.053C37.1809 37.6559 35.5916 38.215 33.9843 38.7403C32.3769 39.2656 30.7562 39.7494 29.1004 40.1404C28.2716 40.333 27.4354 40.5066 26.5716 40.6037C26.1403 40.653 25.7029 40.6855 25.2446 40.6593C25.1268 40.6564 25.0263 40.6453 24.9197 40.6381L24.6022 40.6105C24.3897 40.5911 24.1772 40.5705 23.9647 40.545C23.1147 40.4452 22.2485 40.2943 21.4117 39.9861C20.989 39.8323 20.5841 39.6335 20.2039 39.3933C19.8196 39.1483 19.468 38.8556 19.1575 38.522C18.8509 38.1882 18.5857 37.8185 18.3679 37.4211C18.151 37.0311 17.973 36.6207 17.8366 36.1958L17.7835 36.0385L17.7391 35.8796L17.6511 35.5608L17.5791 35.2404L17.5436 35.0799L17.5153 34.9189L17.4592 34.5969C17.4424 34.4894 17.4305 34.3817 17.4167 34.2741C17.3855 34.0589 17.3674 33.8434 17.3493 33.6279C17.275 32.7644 17.2826 31.8957 17.3721 31.0335C17.4644 30.1752 17.6256 29.3256 17.854 28.4931C18.3037 26.8311 18.9828 25.2488 19.7823 23.7416C20.182 22.9878 20.5815 22.2309 21.0666 21.5275C21.5517 20.8242 22.0889 20.1552 22.7959 19.6278C22.8204 19.6095 22.8503 19.5998 22.8808 19.6003C22.9114 19.6008 22.9409 19.6114 22.9648 19.6306C22.9886 19.6497 23.0054 19.6762 23.0125 19.706C23.0196 19.7357 23.0166 19.767 23.004 19.7948L23.0016 19.7999C22.6485 20.5792 22.2171 21.2874 21.7789 21.9921C21.3482 22.7001 20.8832 23.3886 20.4939 24.1213C19.714 25.5831 19.0608 27.1152 18.6305 28.7039C18.4134 29.4948 18.2602 30.3018 18.1724 31.1172C18.0879 31.9298 18.0808 32.7486 18.1511 33.5625C18.1683 33.7665 18.1851 33.9703 18.2149 34.1715C18.2285 34.2722 18.2395 34.3738 18.2552 34.4741L18.3077 34.7735L18.3336 34.9233L18.3666 35.071L18.4329 35.3662L18.513 35.656L18.5534 35.801L18.6014 35.9425C18.7219 36.3194 18.8794 36.6834 19.0717 37.0292C19.2584 37.3704 19.4857 37.6879 19.7485 37.9746C20.2736 38.5426 20.9476 38.9581 21.6916 39.2299C22.4355 39.5016 23.2407 39.6487 24.0586 39.7441C24.263 39.7688 24.4692 39.7887 24.6761 39.8079L24.9874 39.8348C25.0903 39.8427 25.1999 39.8542 25.292 39.8561C25.3889 39.8578 25.4832 39.8684 25.5824 39.8635L25.8799 39.8565C26.0808 39.8414 26.2809 39.8306 26.4839 39.804C27.2935 39.7135 28.1086 39.5452 28.9178 39.3578C30.5377 38.9753 32.1434 38.4938 33.7361 37.9765C35.3288 37.4593 36.9138 36.8985 38.4748 36.3039L38.2311 36.7821C38.0928 36.2624 37.8197 35.7885 37.4395 35.4083C37.0592 35.0205 36.5778 34.7176 36.0604 34.4573C35.8014 34.326 35.5323 34.2057 35.254 34.0795C35.1152 34.0157 34.9739 33.952 34.829 33.8774C34.684 33.8028 34.5351 33.7246 34.3736 33.5971C34.3298 33.5626 34.2886 33.525 34.2503 33.4845L34.1889 33.4161C34.1677 33.3893 34.1479 33.3578 34.1288 33.3281C34.0905 33.2777 34.0561 33.1772 34.0372 33.1181L34.0083 33.007L33.8927 32.5627C33.8187 32.2652 33.7471 31.9692 33.6802 31.6714C33.5444 31.0764 33.4143 30.4814 33.3 29.883C33.1857 29.2846 33.0892 28.6845 33.0042 28.0827C32.8381 26.8789 32.7237 25.6677 32.7987 24.4396C32.8008 24.4078 32.814 24.3777 32.8359 24.3546C32.8579 24.3315 32.8872 24.3168 32.9189 24.313C32.9506 24.3093 32.9825 24.3168 33.0093 24.3341C33.036 24.3515 33.0558 24.3777 33.0652 24.4082L33.065 24.4048Z" fill="#371A45"/>
<path d="M18.6702 56.9245L16.9475 57.1925C16.5647 57.252 16.173 57.2068 15.8139 57.0618C15.4547 56.9167 15.1415 56.6771 14.9075 56.3684C13.4888 54.4954 12.6096 52.27 12.3651 49.9331C12.3249 49.5479 12.3896 49.159 12.5526 48.8076C12.7155 48.4563 12.9705 48.1556 13.2906 47.9375L14.732 46.9553" fill="#00AAFF"/>
<g opacity="0.6">
<path opacity="0.6" d="M15.0382 47.9432L13.6113 48.9158C13.2574 49.1569 12.9754 49.4894 12.7953 49.8779C12.6152 50.2665 12.5438 50.6965 12.5885 51.1224C12.6234 51.4572 12.6702 51.7901 12.729 52.1212C12.5563 51.4729 12.4347 50.8121 12.3652 50.1449C12.3251 49.7598 12.3899 49.3709 12.5529 49.0197C12.7158 48.6684 12.9707 48.3677 13.2906 48.1495L14.7322 47.1676L15.0382 47.9432Z" fill="white"/>
</g>
<g opacity="0.35">
<path opacity="0.35" d="M13.4508 53.5187C13.8035 54.2219 14.2199 54.8914 14.6948 55.5186C14.9286 55.8274 15.2418 56.0671 15.601 56.2122C15.9602 56.3573 16.352 56.4023 16.7348 56.3424L18.3419 56.0923L14.7324 46.9548L14.4247 47.1646L17.1009 53.9382L15.3769 54.2066C15.024 54.2615 14.6629 54.2274 14.3265 54.1072C13.9901 53.9871 13.6891 53.7848 13.4508 53.5187ZM16.7715 53.1065L14.4241 47.1648L14.5212 47.0985L16.8878 53.0884L16.7715 53.1065Z" fill="#371A45"/>
</g>
<path d="M18.9748 44.3072C18.0789 42.552 15.0089 40.2293 8.97006 44.0611C8.9525 44.0723 8.93872 44.0885 8.93051 44.1076C8.9223 44.1267 8.92005 44.1479 8.92404 44.1683C8.92803 44.1887 8.93809 44.2075 8.95289 44.2221C8.9677 44.2367 8.98657 44.2465 9.00703 44.2503C10.0119 44.4294 14.7392 45.2348 15.6047 47.6928" fill="#EC1C24"/>
<g opacity="0.6">
<path opacity="0.6" d="M9.98706 44.3324C9.55356 44.2397 9.20655 44.1794 9.00722 44.1437C8.98678 44.14 8.96793 44.1302 8.95313 44.1157C8.93833 44.1011 8.92827 44.0824 8.92425 44.062C8.92024 44.0417 8.92246 44.0205 8.93062 44.0015C8.93879 43.9824 8.95253 43.9662 8.97004 43.955C15.0091 40.123 18.0788 42.4462 18.975 44.2011L18.6099 44.5676C17.4515 43.0721 14.729 41.708 9.98706 44.3324Z" fill="white"/>
</g>
<path d="M15.6047 48.0956C15.5214 48.0956 15.4402 48.0697 15.3722 48.0216C15.3042 47.9734 15.2529 47.9054 15.2252 47.8268C14.936 47.0048 13.7405 45.5001 8.98408 44.6546L8.93648 44.6463C8.83622 44.6284 8.74371 44.5805 8.67108 44.5091C8.59844 44.4377 8.54906 44.346 8.52941 44.2461C8.50975 44.1461 8.52073 44.0426 8.5609 43.949C8.60108 43.8554 8.66859 43.7761 8.75458 43.7215C11.6903 41.8585 14.2498 41.2066 16.3621 41.7839C18.2257 42.2939 19.0608 43.5902 19.3335 44.1244C19.382 44.2195 19.3907 44.3299 19.3578 44.4314C19.3249 44.5329 19.253 44.6172 19.1579 44.6656C19.0629 44.7141 18.9525 44.7229 18.851 44.69C18.7495 44.6571 18.6652 44.5852 18.6167 44.4901C18.3927 44.0513 17.703 42.9848 16.15 42.5602C14.4445 42.094 12.2759 42.5921 9.84513 44.0005C14.1782 44.8968 15.5826 46.4149 15.9845 47.5595C16.0058 47.6202 16.0123 47.6851 16.0033 47.7488C15.9944 47.8125 15.9704 47.8731 15.9332 47.9256C15.896 47.9781 15.8469 48.0209 15.7897 48.0505C15.7326 48.0801 15.6693 48.0955 15.6049 48.0956H15.6047Z" fill="#371A45"/>
<path d="M51.8906 37.9925C51.8906 37.9925 50.3115 48.0378 37.3007 54.243C26.2163 59.5287 18.5527 56.9246 18.5527 56.9246C16.0913 54.1783 14.6944 50.6415 14.6149 46.9545C14.6149 46.9545 16.3168 43.768 20.9376 40.5453C21.0965 40.4346 21.2595 40.323 21.4263 40.2123C23.2309 39.0074 25.4488 37.811 28.1443 36.791C28.7801 36.5502 29.443 36.3198 30.1329 36.1C30.1601 36.0911 30.1873 36.083 30.2145 36.0749C32.9982 35.1969 35.5463 34.7561 37.8388 34.6087C37.9121 34.6038 37.9846 34.5997 38.057 34.5957C46.9036 34.1018 51.8906 37.9925 51.8906 37.9925Z" fill="white"/>
<path d="M45.2565 49.0195C44.3917 43.8494 42.4445 38.9203 39.5424 34.555C47.5324 34.5017 52.007 37.9924 52.007 37.9924C52.007 37.9924 51.126 43.5976 45.2565 49.0195Z" fill="#EC1C24"/>
<g opacity="0.6">
<path opacity="0.6" d="M51.8413 38.6158C51.9656 38.1483 52.007 37.8862 52.007 37.8862C52.007 37.8862 47.5328 34.3955 39.5424 34.4488C39.7298 34.7306 39.9132 35.0148 40.0924 35.3014C46.8654 35.3943 50.99 38.0182 51.8413 38.6158Z" fill="white"/>
</g>
<path d="M44.9826 49.8205L44.8598 49.0859C43.999 43.9387 42.0973 39.1248 39.2073 34.7779L38.795 34.1578L39.5388 34.1529C45.8726 34.1091 50.0554 36.2747 51.5603 37.2074C51.8353 37.3759 52.0481 37.6292 52.1666 37.9291C52.2852 38.2291 52.303 38.5594 52.2174 38.8704C51.7558 40.5795 50.1799 45.0187 45.5287 49.3152L44.9826 49.8205ZM40.2879 34.963C42.8668 39.0026 44.644 43.501 45.5222 48.2125C49.6036 44.2239 51.0161 40.2351 51.4413 38.6607C51.4808 38.5168 51.4726 38.364 51.4178 38.2252C51.363 38.0865 51.2646 37.9693 51.1375 37.8912C49.7511 37.0323 45.9931 35.0854 40.2879 34.963Z" fill="#371A45"/>
<path d="M23.8147 57.9684C20.5292 57.9684 18.6203 57.3326 18.5402 57.3052L18.4405 57.2714L18.37 57.193C15.8436 54.3758 14.4101 50.7468 14.3291 46.9636L14.327 46.8584L14.3765 46.7656C14.4169 46.6904 15.3899 44.8956 17.8277 42.6269C20.0626 40.5468 24.0114 37.6595 30.1274 35.7173C33.3342 34.699 36.5009 34.1726 39.5399 34.1529L39.7573 34.1514L39.8775 34.3324C42.8234 38.7637 44.765 43.6701 45.6471 48.9159L45.727 49.1326L45.53 49.316C43.2988 51.3785 40.6266 53.1584 37.5896 54.6073C31.797 57.3698 26.9414 57.9599 23.8882 57.9688L23.8147 57.9684ZM18.8957 56.5731C19.3207 56.6989 21.127 57.1794 23.9288 57.1634C26.891 57.1498 31.6056 56.5684 37.2432 53.8805C40.1345 52.5018 42.6832 50.8173 44.8235 48.8723C43.9586 43.8769 42.1105 39.1985 39.3276 34.9597C36.4359 35.0022 33.4239 35.5148 30.3709 36.4842C19.6526 39.8878 15.6198 46.2379 15.1364 47.0571C15.2375 50.5713 16.5678 53.9387 18.8957 56.5731Z" fill="#371A45"/>
<path d="M16.6153 57.6207C16.2222 57.6207 15.8344 57.5295 15.4824 57.3544C15.1303 57.1792 14.8237 56.9249 14.5866 56.6113C13.1234 54.6797 12.2168 52.3845 11.9648 49.9745C11.9166 49.517 11.9934 49.0551 12.1869 48.6378C12.3805 48.2205 12.6835 47.8634 13.0638 47.6047L14.5052 46.6225C14.5488 46.5914 14.5982 46.5693 14.6505 46.5576C14.7028 46.5458 14.7569 46.5446 14.8096 46.554C14.8624 46.5634 14.9127 46.5833 14.9577 46.6124C15.0027 46.6415 15.0414 46.6793 15.0715 46.7236C15.1017 46.7679 15.1227 46.8178 15.1333 46.8703C15.144 46.9228 15.144 46.9769 15.1335 47.0294C15.1229 47.082 15.102 47.1319 15.0719 47.1762C15.0418 47.2205 15.0032 47.2584 14.9583 47.2876L13.5171 48.2696C13.2569 48.4466 13.0495 48.6909 12.9171 48.9764C12.7847 49.2619 12.7321 49.578 12.7651 49.891C13.0018 52.1549 13.8535 54.3108 15.2279 56.1253C15.4178 56.3764 15.6722 56.5713 15.9641 56.6893C16.256 56.8072 16.5744 56.8437 16.8854 56.7949L18.609 56.5269C18.7145 56.5105 18.8221 56.5367 18.9083 56.5996C18.9944 56.6626 19.052 56.7572 19.0684 56.8627C19.0848 56.9681 19.0587 57.0758 18.9957 57.1619C18.9328 57.2481 18.8381 57.3057 18.7327 57.3221L17.0093 57.5901C16.879 57.6104 16.7473 57.6206 16.6153 57.6207Z" fill="#371A45"/>
<g opacity="0.35">
<path opacity="0.35" d="M39.6057 48.9862C41.767 46.8249 41.767 43.3208 39.6057 41.1595C37.4444 38.9982 33.9403 38.9982 31.779 41.1595C29.6177 43.3208 29.6177 46.8249 31.779 48.9862C33.9403 51.1475 37.4444 51.1475 39.6057 48.9862Z" fill="#371A45"/>
</g>
<path d="M35.8145 49.3657C38.5631 49.3657 40.7913 47.1376 40.7913 44.389C40.7913 41.6404 38.5631 39.4122 35.8145 39.4122C33.0659 39.4122 30.8378 41.6404 30.8378 44.389C30.8378 47.1376 33.0659 49.3657 35.8145 49.3657Z" fill="#EC1C24"/>
<g opacity="0.6">
<path opacity="0.6" d="M40.7097 43.5925C40.6757 43.4846 40.6378 43.3775 40.5958 43.2712C39.5864 40.7151 36.695 39.4617 34.1388 40.4713C31.8852 41.3613 30.6442 43.713 31.0737 46.0091C30.2806 43.5343 31.5346 40.8358 33.9849 39.8678C36.542 38.8582 39.4326 40.1118 40.443 42.6686C40.5612 42.9674 40.6505 43.2768 40.7097 43.5925Z" fill="white"/>
</g>
<g opacity="0.35">
<path opacity="0.35" d="M37.6427 49.0174C35.0869 50.027 32.1957 48.7745 31.1856 46.2179C30.8782 45.4424 30.7715 44.6019 30.8756 43.7742C30.9324 44.1452 31.0306 44.5088 31.1684 44.8579C32.1782 47.4145 35.0693 48.6683 37.6259 47.6585C38.4572 47.3302 39.1848 46.7839 39.732 46.0772C40.2792 45.3704 40.6259 44.5293 40.7356 43.6422C41.0786 45.8854 39.8431 48.1481 37.6427 49.0174Z" fill="#371A45"/>
</g>
<path d="M35.8133 49.7711C34.4705 49.7734 33.1753 49.2746 32.1808 48.3724C31.1863 47.4703 30.5642 46.2296 30.436 44.893C30.3079 43.5564 30.6829 42.22 31.4879 41.1453C32.2928 40.0707 33.4697 39.3349 34.7884 39.082C36.1071 38.8291 37.4727 39.0772 38.6182 39.7778C39.7636 40.4785 40.6065 41.5812 40.9819 42.8704C41.3574 44.1595 41.2384 45.5424 40.6483 46.7485C40.0581 47.9546 39.0393 48.8971 37.791 49.3918C37.1616 49.6417 36.4905 49.7704 35.8133 49.7711ZM35.8156 39.8121C35.1422 39.8121 34.4772 39.9607 33.8679 40.2474C33.2586 40.534 32.7201 40.9516 32.2908 41.4703C31.8615 41.9891 31.5519 42.5962 31.3843 43.2483C31.2166 43.9004 31.1949 44.5816 31.3208 45.243C31.4467 45.9045 31.717 46.5301 32.1125 47.075C32.508 47.62 33.0189 48.071 33.6087 48.3957C34.1986 48.7205 34.8528 48.9111 35.5248 48.9539C36.1968 48.9967 36.87 48.8907 37.4963 48.6434C38.4857 48.2512 39.3076 47.5265 39.8204 46.5939C40.3332 45.6613 40.505 44.5791 40.3061 43.5335C40.1072 42.4879 39.5502 41.5443 38.7307 40.8651C37.9113 40.1859 36.8808 39.8135 35.8165 39.8121H35.8156Z" fill="#371A45"/>
<path d="M38.0868 46.551C39.3233 45.3145 39.3233 43.3098 38.0868 42.0733C36.8503 40.8368 34.8456 40.8368 33.6091 42.0733C32.3726 43.3098 32.3726 45.3145 33.6091 46.551C34.8456 47.7875 36.8503 47.7875 38.0868 46.551Z" fill="#6BD6F0"/>
<g opacity="0.3">
<path opacity="0.3" d="M37.0111 47.2573C36.2301 47.5657 35.3585 47.5512 34.5882 47.2171C33.8178 46.8829 33.2117 46.2564 32.9033 45.4754C32.7673 45.1336 32.6926 44.7705 32.6827 44.4027C32.6944 44.4359 32.7067 44.4686 32.7197 44.5024C32.993 45.1956 33.502 45.7701 34.1572 46.125C34.8123 46.4799 35.5717 46.5923 36.3016 46.4426C37.0315 46.2928 37.6852 45.8904 38.1477 45.3062C38.6102 44.722 38.8518 43.9934 38.8301 43.2487C39.106 44.0223 39.0706 44.8728 38.7312 45.6208C38.3918 46.3687 37.775 46.9555 37.0111 47.2573Z" fill="white"/>
</g>
<g opacity="0.35">
<path opacity="0.35" d="M39.0476 44.4757C39.0297 44.4245 39.0116 44.3733 38.9912 44.3218C38.7225 43.6412 38.2263 43.0746 37.5869 42.7185C36.9476 42.3624 36.2047 42.2388 35.4845 42.3686C34.7643 42.4985 34.1113 42.8738 33.6366 43.4307C33.1619 43.9876 32.8947 44.6918 32.8806 45.4234C32.7335 44.9859 32.6839 44.5215 32.7353 44.0627C32.7866 43.604 32.9376 43.162 33.1777 42.7678C33.4178 42.3736 33.7412 42.0366 34.1253 41.7805C34.5093 41.5244 34.9447 41.3554 35.4009 41.2853C35.8572 41.2152 36.3232 41.2457 36.7665 41.3746C37.2097 41.5036 37.6193 41.7279 37.9667 42.0318C38.3141 42.3358 38.5909 42.712 38.7776 43.1341C38.9643 43.5563 39.0564 44.0142 39.0476 44.4757Z" fill="#371A45"/>
</g>
<path d="M35.847 47.8827C35.1314 47.8812 34.4327 47.6651 33.8412 47.2623C33.2497 46.8596 32.7927 46.2886 32.5291 45.6234C31.8066 43.7933 32.7067 41.7163 34.5368 40.9932C36.3668 40.2701 38.444 41.1708 39.1669 43.0011C39.8899 44.8314 38.9891 46.9081 37.159 47.6311C36.7414 47.7968 36.2963 47.8822 35.847 47.8827ZM35.8447 41.5482C35.4981 41.5483 35.1546 41.6139 34.8323 41.7416C33.415 42.3016 32.7176 43.9091 33.2775 45.3276C33.4108 45.6651 33.6094 45.9731 33.8617 46.234C34.1141 46.4948 34.4154 46.7034 34.7484 46.8478C35.0814 46.9922 35.4395 47.0696 35.8024 47.0756C36.1653 47.0815 36.5259 47.016 36.8634 46.8826C38.2808 46.3227 38.9782 44.7151 38.4185 43.2967C38.214 42.7809 37.8594 42.3385 37.4004 42.0267C36.9415 41.715 36.3995 41.5483 35.8447 41.5482Z" fill="#371A45"/>
<g opacity="0.2">
<path opacity="0.2" d="M46.1807 37.5237C46.1567 36.7679 44.587 36.1756 43.6979 36.1824C42.7777 36.1897 42.224 36.3482 42.2201 36.7938C42.2144 37.4158 42.9312 37.6351 43.7833 37.6674C44.3857 37.6901 46.2104 38.4566 46.1807 37.5237Z" fill="white"/>
</g>
<g opacity="0.2">
<path opacity="0.2" d="M48.4872 38.4787C48.4376 37.8236 47.6457 37.2133 47.2145 37.1638C46.7682 37.1126 46.5071 37.215 46.5275 37.6C46.5557 38.1377 46.9147 38.3718 47.3301 38.453C47.6238 38.5104 48.5479 39.2873 48.4872 38.4787Z" fill="white"/>
</g>
<g opacity="0.35">
<path opacity="0.35" d="M18.4573 56.1806C18.4573 56.1806 26.1207 58.7848 37.2047 53.4997C48.4612 48.1315 51.16 39.8904 51.6836 37.7645C51.737 37.8001 51.7837 37.8319 51.8238 37.8599C51.6606 37.7465 51.3897 37.5669 51.0134 37.348C49.4851 40.8213 45.8471 46.4095 37.4678 50.4055C32.2341 52.9011 27.7631 53.6379 24.5016 53.7205C20.3366 53.8268 16.5907 51.1524 15.4109 47.156C15.4043 47.1347 15.3979 47.1118 15.3913 47.0899C15.3454 46.9311 15.3022 46.7715 15.2617 46.6111C15.2405 46.5448 15.2182 46.4791 15.198 46.4122C15.1914 46.391 15.185 46.368 15.1784 46.3461C15.1718 46.3242 15.1657 46.2985 15.1589 46.2749L15.1737 46.2537C14.8697 46.697 14.7313 46.9549 14.7313 46.9549C14.7569 48.1428 14.9198 49.3237 15.2167 50.4742C15.8749 52.5868 16.9801 54.533 18.4573 56.1806Z" fill="#371A45"/>
</g>
<path d="M17.9138 53.4487C15.6319 54.3494 12.6718 53.431 12.6718 53.431C12.6718 53.431 12.6775 53.4206 12.6888 53.4025C12.8609 53.1104 14.3433 50.6825 16.4856 49.8351C18.5415 49.0223 20.7808 49.8563 21.1797 50.0191C21.2207 50.0359 21.2422 50.0455 21.2422 50.0455C21.2422 50.0455 20.1805 52.5547 17.9138 53.4487Z" fill="#EC1C24"/>
<g opacity="0.6">
<path opacity="0.6" d="M21.3486 50.1514C21.3486 50.1514 21.2848 50.3044 21.1529 50.5473C20.3898 50.2831 18.5013 49.7763 16.7456 50.4706C15.0229 51.1518 13.7268 52.8554 13.1954 53.6474C12.9314 53.585 12.7776 53.5374 12.7776 53.5374C12.7776 53.5374 12.784 53.5269 12.7948 53.5085C12.9671 53.2169 14.4498 50.7885 16.592 49.9416C18.6479 49.1286 20.8866 49.9629 21.2854 50.1255C21.3271 50.1422 21.3486 50.1514 21.3486 50.1514Z" fill="white"/>
</g>
<g opacity="0.35">
<path opacity="0.35" d="M17.9138 53.4487C15.6319 54.3495 12.6718 53.4311 12.6718 53.4311C12.6718 53.4311 12.6775 53.4207 12.6888 53.4026L21.1797 50.0192C21.2207 50.036 21.2422 50.0455 21.2422 50.0455C21.2422 50.0455 20.1805 52.5547 17.9138 53.4487Z" fill="#371A45"/>
</g>
<path d="M15.5644 54.2487C13.9759 54.2487 12.6361 53.8412 12.5524 53.8152L12.0745 53.6665L12.322 53.2315C12.3875 53.1165 13.9525 50.4038 16.3383 49.4607C18.734 48.5136 21.2974 49.6294 21.4053 49.6774L21.7666 49.8379L21.6127 50.2017C21.5668 50.3105 20.4582 52.877 18.0617 53.8229C17.2539 54.1421 16.3765 54.2487 15.5644 54.2487ZM13.3095 53.1786C14.2284 53.3843 16.1923 53.696 17.7658 53.0749C19.3394 52.4537 20.3018 50.9677 20.6826 50.2669C19.9242 50.0164 18.2027 49.589 16.6339 50.2095C15.0563 50.833 13.8389 52.401 13.3095 53.1786Z" fill="#371A45"/>
<g opacity="0.25">
<path opacity="0.25" d="M29.2513 45.2407C29.5681 45.6952 31.7566 49.3878 29.995 50.8553C28.4531 52.1407 25.6075 51.9295 24.1088 49.9089C23.1179 48.572 22.9168 47.031 22.9732 45.8522C23.0395 44.4752 23.286 43.1616 22.5989 42.1305C22.2328 41.5793 21.6293 41.0893 20.9372 40.5453C21.0961 40.4345 21.2591 40.323 21.4259 40.2123C23.2305 39.0074 25.4484 37.811 28.1439 36.791C28.6701 37.0445 29.1739 37.3703 29.5974 37.7898C31.2672 39.4473 31.3134 42.7716 30.1799 44.1195C29.7328 44.6501 29.2513 45.2407 29.2513 45.2407Z" fill="#371A45"/>
</g>
<path d="M30.2579 44.2347C30.5747 44.6894 32.7634 48.3818 31.0016 49.8493C29.4595 51.1348 26.6139 50.9235 25.1143 48.9029C24.1236 47.566 23.9224 46.0252 23.9787 44.8462C24.045 43.4692 24.2915 42.1556 23.6045 41.1247C22.8229 39.9498 19.7733 39.5112 18.2565 37.7721C17.3623 36.7483 16.8835 34.8883 16.9649 32.6101C16.993 31.8783 17.0711 31.1494 17.1987 30.4283C17.7618 27.2077 19.3371 23.5032 22.2379 20.223C22.2379 20.223 23.3907 24.8343 24.5988 28.9306C25.4405 31.7864 26.3096 34.3919 26.8317 35.0081C26.901 35.0908 26.9645 35.1369 27.0208 35.145C27.7119 35.2402 28.3855 35.4354 29.0205 35.7245C29.5917 35.9858 30.144 36.3299 30.6017 36.7825C32.2713 38.44 32.3176 41.7646 31.1839 43.1125C30.7387 43.6443 30.2579 44.2347 30.2579 44.2347Z" fill="white"/>
<g opacity="0.25">
<path opacity="0.25" d="M31.5645 49.0073C31.4629 49.3367 31.2675 49.6292 31.0023 49.8493C29.4602 51.1347 26.6146 50.9234 25.115 48.9028C24.1243 47.567 23.923 46.0251 23.9794 44.8462C24.0457 43.4692 24.2911 42.1555 23.6051 41.1255C22.8236 39.9508 19.774 39.5105 18.2561 37.7731C17.3636 36.7491 16.8842 34.8873 16.9656 32.6093C16.9656 32.5994 16.9666 32.5881 16.9666 32.5783C16.9696 32.5018 16.9737 32.4253 16.9777 32.348C16.9817 32.2774 16.9858 32.206 16.9907 32.1336C16.9928 32.1015 16.9947 32.0683 16.9977 32.035C17.0108 31.865 17.0259 31.693 17.0451 31.519C17.0542 31.4366 17.0642 31.353 17.0742 31.2687C17.0812 31.2102 17.0893 31.151 17.0973 31.0917C17.1033 31.0424 17.1105 30.9931 17.1186 30.9429C17.1296 30.8654 17.1417 30.788 17.1536 30.7092C17.1679 30.6206 17.183 30.5311 17.1981 30.4416C17.1981 30.4365 17.2 30.4314 17.201 30.4263C17.2492 30.3714 17.3002 30.3191 17.3538 30.2695C17.3538 30.2695 17.6577 30.4074 18.3065 30.5753C19.3375 30.8428 21.239 31.1888 24.1776 31.1847L24.1313 29.6609C24.1266 29.5057 24.169 29.3527 24.2529 29.222C24.3367 29.0914 24.4581 28.9891 24.6011 28.9286C24.6706 28.8989 24.7442 28.8799 24.8194 28.8723L26.645 28.6772L29.2842 35.0673L26.8341 35.007L24.9913 34.9617C24.7999 34.9495 24.6199 34.8664 24.4865 34.7286C24.3531 34.5908 24.276 34.4082 24.2701 34.2165L24.2469 33.4515C22.6347 33.8127 19.9661 33.9071 18.2391 33.3378C18.3679 34.929 18.8114 36.2146 19.4994 37.0032C21.0163 38.7423 23.2904 37.8088 24.8294 39.6031C25.7909 40.7258 25.2879 42.7003 25.2216 44.0773C25.1653 45.2561 24.7097 46.9852 25.6993 48.321C27.0079 50.0887 29.8405 49.9317 31.5645 49.0073Z" fill="#371A45"/>
</g>
<g opacity="0.25">
<path opacity="0.25" d="M36.625 20.2311C35.632 21.5962 34.3302 22.707 32.8259 23.473C31.3818 24.2035 29.7906 24.5963 28.1724 24.6216C26.5543 24.6469 24.9515 24.3042 23.4853 23.6192C22.1389 22.987 20.5288 23.5901 19.9153 24.9452C19.0328 26.8951 18.5149 28.8261 18.3062 30.5765C17.6575 30.4086 17.3536 30.2707 17.3536 30.2707C17.2999 30.3202 17.2489 30.3726 17.2008 30.4275C17.7639 27.2068 19.3392 23.5023 22.24 20.2222L22.2702 20.5309C22.6555 20.005 22.9009 19.7113 22.9009 19.7113L32.5167 20.2022C32.5167 20.2022 32.5541 20.709 32.6315 21.5499C33.8236 21.235 35.269 20.7944 36.625 20.2311Z" fill="#371A45"/>
</g>
<path d="M27.2149 35.0394C27.7372 35.0326 28.2621 35.1171 28.7683 35.2706C29.2744 35.424 29.767 35.6416 30.2201 35.9438C30.4487 36.0961 30.6646 36.2667 30.8658 36.4538C31.0687 36.6475 31.2522 36.8605 31.4137 37.0898C31.7348 37.5466 31.9579 38.0552 32.1126 38.5751C32.2615 39.0945 32.3458 39.6302 32.3633 40.1702C32.388 40.7113 32.3405 41.2533 32.2222 41.782C32.099 42.3132 31.9054 42.8479 31.5361 43.3181L30.5688 44.4886L30.5868 44.0043C30.6678 44.1229 30.7303 44.227 30.7959 44.3369C30.8616 44.4467 30.9215 44.5547 30.9808 44.6645C31.1002 44.8846 31.2126 45.1078 31.3178 45.3341C31.5329 45.7903 31.712 46.2626 31.8538 46.7466C31.9912 47.2373 32.0922 47.7509 32.0794 48.2951C32.0722 48.566 32.0391 48.8453 31.9494 49.1202C31.8607 49.4016 31.7173 49.6628 31.5276 49.8886L31.4553 49.9736C31.4302 50.0008 31.4022 50.0251 31.3758 50.0508C31.3219 50.0992 31.2677 50.157 31.2131 50.1934C31.1028 50.2731 30.9959 50.3591 30.8814 50.4314C30.7636 50.4979 30.6476 50.5676 30.5275 50.6298L30.1572 50.789C29.6561 50.9691 29.127 51.0583 28.5946 51.0525C28.0668 51.0483 27.543 50.9593 27.0434 50.7888C26.5425 50.6226 26.0769 50.3564 25.6621 50.0314C25.5582 49.9498 25.4526 49.8702 25.3615 49.7741C25.2703 49.6781 25.1685 49.5931 25.082 49.4936L24.8313 49.1885C24.7484 49.086 24.6802 48.9772 24.6043 48.8716C24.322 48.4373 24.0949 47.9694 23.9284 47.4789C23.7664 46.9915 23.6595 46.4875 23.6096 45.9763C23.5834 45.7227 23.5704 45.4679 23.5709 45.213C23.5709 45.0855 23.5748 44.958 23.5792 44.8305L23.6005 44.462C23.6317 43.9733 23.6744 43.4988 23.6753 43.0408C23.6761 42.5829 23.6328 42.1432 23.484 41.762C23.4676 41.7137 23.4476 41.6666 23.4243 41.6211C23.4009 41.5763 23.3833 41.5281 23.3561 41.4856L23.2781 41.3555C23.2535 41.3186 23.2268 41.2832 23.1982 41.2492C23.0803 41.1118 22.9164 40.9811 22.7335 40.8627C22.3637 40.626 21.9332 40.4277 21.4982 40.2297C20.627 39.834 19.7058 39.4449 18.867 38.8484C18.4503 38.5473 18.0551 38.1978 17.7361 37.7562C17.422 37.3212 17.2034 36.8435 17.0378 36.3592C16.8781 35.8776 16.7596 35.3832 16.6836 34.8815C16.6134 34.3861 16.5724 33.887 16.5608 33.3867C16.5425 32.3905 16.6315 31.4003 16.7945 30.4258C17.1328 28.4782 17.7758 26.5957 18.6507 24.8334C19.097 23.9573 19.5519 23.0807 20.1142 22.2711C20.6805 21.4672 21.3225 20.7073 22.1412 20.1321C22.1665 20.1143 22.197 20.1056 22.2278 20.1072C22.2586 20.1089 22.288 20.1208 22.3113 20.1411C22.3345 20.1615 22.3502 20.189 22.356 20.2193C22.3617 20.2497 22.3571 20.281 22.3429 20.3084V20.3097C21.8852 21.1848 21.3414 21.9549 20.8265 22.752C20.3078 23.5431 19.7867 24.3381 19.3719 25.1915C18.5292 26.8885 17.9114 28.7007 17.5884 30.5613C17.4329 31.4917 17.3487 32.4339 17.3659 33.3698C17.3768 33.8355 17.4149 34.3001 17.48 34.7614C17.5484 35.2151 17.6551 35.6623 17.7988 36.098C17.9444 36.5264 18.1354 36.9361 18.3883 37.2851C18.6354 37.6293 18.9703 37.9315 19.3356 38.1943C20.0751 38.7222 20.9459 39.0977 21.8301 39.4968C22.2732 39.6995 22.7248 39.9031 23.1702 40.1872C23.3916 40.3315 23.6139 40.4995 23.8115 40.7284C23.861 40.7869 23.9073 40.8482 23.95 40.9118L24.0586 41.0924C24.0954 41.1524 24.1224 41.2174 24.1534 41.2798C24.1846 41.3422 24.2118 41.4064 24.235 41.4722C24.3325 41.7268 24.399 41.9923 24.4328 42.2629C24.467 42.5207 24.483 42.7806 24.4806 43.0406C24.4792 43.5491 24.4341 44.037 24.4041 44.5126L24.3829 44.8675C24.3791 44.9818 24.3746 45.0961 24.3757 45.2102C24.3752 45.4384 24.3867 45.6665 24.4101 45.8934C24.4542 46.3446 24.5485 46.7894 24.6912 47.2196C24.9838 48.0667 25.47 48.8665 26.1624 49.3971C26.506 49.6657 26.891 49.8884 27.3099 50.0261C27.726 50.1676 28.1621 50.2417 28.6017 50.2454C29.0375 50.2511 29.4709 50.1792 29.8815 50.0329L30.1767 49.9054C30.2708 49.8557 30.3614 49.8007 30.4546 49.7495C30.5439 49.6929 30.6247 49.6256 30.7111 49.5652C30.7579 49.5353 30.784 49.5015 30.8206 49.4696C30.8374 49.4534 30.8559 49.4386 30.8716 49.4214L30.9162 49.3678C31.158 49.0871 31.2721 48.6978 31.2775 48.2732C31.2887 47.8499 31.2061 47.4032 31.0824 46.9659C30.9521 46.5225 30.7877 46.0899 30.5909 45.6718C30.4925 45.4608 30.3875 45.2521 30.2764 45.0475C30.2211 44.9448 30.1635 44.8441 30.1053 44.7442C30.0471 44.6444 29.9846 44.5441 29.9294 44.4633L29.7566 44.21L29.9478 43.9788L30.9094 42.8141C31.1672 42.4881 31.3391 42.0538 31.4373 41.6029C31.6325 40.6953 31.5679 39.7097 31.2915 38.8202C31.1508 38.3758 30.9598 37.9502 30.7056 37.576C30.5799 37.3896 30.4376 37.215 30.2806 37.0541C30.1192 36.8893 29.9448 36.7379 29.7589 36.6012C29.3748 36.3195 28.966 36.0732 28.5375 35.8651C28.1031 35.6526 27.648 35.4712 27.1739 35.3018H27.1728C27.1428 35.291 27.1176 35.27 27.1014 35.2425C27.0853 35.215 27.0794 35.1827 27.0846 35.1513C27.0898 35.1198 27.1059 35.0912 27.1301 35.0704C27.1542 35.0496 27.1849 35.038 27.2168 35.0374L27.2149 35.0394Z" fill="#371A45"/>
<path d="M24.0157 42.5058C23.9429 42.5055 23.8727 42.4789 23.818 42.4308C23.7634 42.3828 23.7279 42.3166 23.7182 42.2444C23.2488 38.7722 25.3049 37.1306 26.2108 36.586C27.7126 35.6833 29.5222 35.5989 30.6117 36.3811C30.6444 36.4041 30.6722 36.4332 30.6935 36.4669C30.7149 36.5007 30.7293 36.5383 30.736 36.5777C30.7427 36.617 30.7415 36.6573 30.7325 36.6962C30.7235 36.7351 30.7069 36.7718 30.6836 36.8042C30.6604 36.8366 30.6309 36.8641 30.5969 36.8851C30.563 36.906 30.5252 36.92 30.4857 36.9263C30.4463 36.9325 30.4061 36.9309 30.3673 36.9215C30.3285 36.912 30.292 36.895 30.2598 36.8714C29.3745 36.2358 27.8027 36.3333 26.5217 37.1034C25.7183 37.5864 23.8948 39.0465 24.3162 42.1637C24.3216 42.203 24.3191 42.243 24.3091 42.2814C24.299 42.3197 24.2814 42.3558 24.2574 42.3873C24.2334 42.4189 24.2034 42.4454 24.1691 42.4654C24.1348 42.4854 24.0969 42.4984 24.0576 42.5037C24.0437 42.5054 24.0297 42.5061 24.0157 42.5058Z" fill="#371A45"/>
<path d="M30.8114 44.1841C30.7689 44.2245 30.7402 44.2479 30.7052 44.2787C30.6701 44.3095 30.637 44.3333 30.6025 44.3597C30.5341 44.4128 30.4627 44.4602 30.39 44.5067C30.2452 44.5987 30.0942 44.6807 29.938 44.7519C29.6216 44.8965 29.2847 44.991 28.9393 45.0322C28.5923 45.07 28.2308 45.0554 27.8995 44.9406C27.5689 44.8301 27.2735 44.6342 27.067 44.373C27.3968 44.4304 27.6915 44.4746 27.9807 44.4604C28.1213 44.4579 28.2615 44.4457 28.4004 44.4238C28.5379 44.4054 28.6735 44.3755 28.8061 44.3346C29.0737 44.2538 29.3322 44.1453 29.5774 44.0109C29.703 43.9472 29.8235 43.8726 29.9446 43.7999L30.1221 43.6856L30.2851 43.5757L30.3099 43.5592C30.3936 43.5031 30.4952 43.4804 30.5948 43.4956C30.6943 43.5108 30.7846 43.5628 30.8476 43.6413C30.9107 43.7199 30.942 43.8192 30.9354 43.9197C30.9288 44.0202 30.8847 44.1146 30.8118 44.1841H30.8114Z" fill="#371A45"/>
<path d="M38.5122 15.442C38.4838 15.4438 38.4553 15.44 38.4283 15.4308C38.4013 15.4216 38.3764 15.4071 38.355 15.3883C38.3337 15.3695 38.3162 15.3466 38.3036 15.3211C38.2911 15.2955 38.2837 15.2677 38.2819 15.2392L37.883 9.0011C37.8794 8.94368 37.8987 8.88718 37.9367 8.84399C37.9747 8.8008 38.0283 8.77446 38.0857 8.77075C38.6883 8.73226 39.2815 8.93469 39.7348 9.33351C40.1881 9.73233 40.4645 10.2949 40.5031 10.8974L40.6391 13.0248C40.6776 13.6274 40.4751 14.2206 40.0763 14.6739C39.6774 15.1272 39.1148 15.4035 38.5122 15.442Z" fill="white"/>
<path d="M38.4984 15.4855C38.4323 15.4854 38.3687 15.4602 38.3205 15.415C38.2723 15.3697 38.2431 15.3079 38.2387 15.242L37.8401 9.00382C37.8357 8.935 37.8588 8.86725 37.9044 8.81545C37.9499 8.76366 38.0141 8.73205 38.083 8.72757C38.6969 8.68897 39.301 8.89552 39.7628 9.30188C40.2246 9.70825 40.5063 10.2812 40.546 10.8951L40.682 13.0222C40.7015 13.3263 40.6609 13.6312 40.5625 13.9196C40.4641 14.2079 40.3099 14.4741 40.1086 14.7028C39.9073 14.9315 39.6629 15.1184 39.3894 15.2526C39.1159 15.3869 38.8186 15.466 38.5145 15.4853L38.4984 15.4855ZM38.2343 8.81024C38.1858 8.81024 38.1374 8.81172 38.0885 8.81491C38.0425 8.81786 37.9996 8.83895 37.9691 8.87353C37.9387 8.90812 37.9232 8.95338 37.9261 8.99936L38.325 15.2364C38.3264 15.2593 38.3322 15.2816 38.3423 15.3021C38.3523 15.3226 38.3663 15.341 38.3834 15.3561C38.4006 15.3712 38.4205 15.3827 38.4421 15.3901C38.4638 15.3975 38.4866 15.4005 38.5094 15.399C39.1006 15.3612 39.6526 15.0901 40.0439 14.6454C40.4352 14.2007 40.6338 13.6187 40.596 13.0275L40.46 10.9002C40.4238 10.3342 40.1736 9.80319 39.7603 9.41487C39.347 9.02656 38.8014 8.81001 38.2343 8.80917V8.81024Z" fill="#371A45"/>
<g opacity="0.35">
<path opacity="0.35" d="M40.5754 12.0273L40.6392 13.0261C40.6775 13.6287 40.4749 14.2218 40.0761 14.6752C39.6772 15.1285 39.1146 15.4048 38.512 15.4435C38.4545 15.4471 38.3979 15.4277 38.3547 15.3896C38.3115 15.3515 38.2851 15.2978 38.2815 15.2403L38.1752 13.5828C38.1947 13.6199 38.2244 13.6505 38.2608 13.6711C38.2972 13.6917 38.3388 13.7013 38.3805 13.6989L38.5293 13.6889C39.0006 13.6586 39.4509 13.4824 39.8175 13.1847C40.1842 12.8869 40.4491 12.4824 40.5754 12.0273Z" fill="#371A45"/>
</g>
<path d="M38.498 15.8449C38.3407 15.8445 38.1894 15.7844 38.0747 15.6768C37.96 15.5691 37.8905 15.4219 37.8802 15.265L37.4816 9.02681C37.4713 8.86293 37.5264 8.70165 37.6349 8.57839C37.7434 8.45512 37.8963 8.37993 38.0602 8.36934C38.4113 8.34685 38.7634 8.39376 39.0964 8.50736C39.4293 8.62097 39.7366 8.79906 40.0008 9.03146C40.2649 9.26385 40.4807 9.54601 40.6357 9.8618C40.7908 10.1776 40.8821 10.5208 40.9045 10.8719L41.0405 12.9991C41.063 13.3502 41.016 13.7023 40.9024 14.0353C40.7888 14.3683 40.6106 14.6757 40.3782 14.9398C40.1458 15.2039 39.8636 15.4197 39.5477 15.5748C39.2319 15.7299 38.8886 15.8212 38.5375 15.8436C38.5245 15.8444 38.5111 15.8449 38.498 15.8449ZM38.2969 9.16855L38.6709 15.0187C39.1296 14.9428 39.5437 14.6994 39.8331 14.3356C40.1225 13.9718 40.2666 13.5136 40.2375 13.0496L40.1015 10.9223C40.0717 10.4583 39.8706 10.0218 39.5371 9.69773C39.2037 9.37364 38.7616 9.18504 38.2969 9.16855Z" fill="#371A45"/>
<path d="M17.4953 10.087C17.5238 10.0852 17.5523 10.089 17.5792 10.0982C17.6062 10.1074 17.6311 10.1218 17.6525 10.1406C17.6739 10.1595 17.6913 10.1823 17.7039 10.2079C17.7165 10.2335 17.7239 10.2613 17.7257 10.2897L18.1245 16.5279C18.1263 16.5563 18.1225 16.5848 18.1133 16.6118C18.1041 16.6387 18.0897 16.6636 18.0709 16.685C18.0521 16.7064 18.0292 16.7239 18.0036 16.7364C17.978 16.749 17.9502 16.7564 17.9218 16.7582C17.3192 16.7968 16.726 16.5943 16.2727 16.1955C15.8193 15.7967 15.543 15.2341 15.5044 14.6315L15.3684 12.5044C15.3299 11.9018 15.5324 11.3086 15.9312 10.8552C16.3301 10.4019 16.8927 10.1255 17.4953 10.087Z" fill="white"/>
<path d="M17.7733 16.8063C17.1842 16.8053 16.6176 16.5803 16.1883 16.177C15.759 15.7737 15.4991 15.2221 15.4615 14.6343L15.3255 12.507C15.306 12.2029 15.3467 11.898 15.4451 11.6097C15.5435 11.3213 15.6977 11.0552 15.899 10.8265C16.1003 10.5978 16.3447 10.411 16.6182 10.2767C16.8916 10.1425 17.1889 10.0634 17.493 10.0441C17.5618 10.0398 17.6295 10.063 17.6812 10.1085C17.733 10.154 17.7646 10.2182 17.7692 10.287L18.1679 16.5251C18.1722 16.5939 18.1491 16.6617 18.1036 16.7135C18.058 16.7653 17.9938 16.7969 17.925 16.8014C17.874 16.8046 17.8234 16.8063 17.7733 16.8063ZM17.497 10.1301C17.2043 10.1489 16.9181 10.225 16.6549 10.3543C16.3916 10.4837 16.1564 10.6636 15.9627 10.8838C15.7689 11.104 15.6205 11.3602 15.5258 11.6378C15.431 11.9154 15.3919 12.2089 15.4107 12.5016L15.5467 14.6288C15.5654 14.9215 15.6415 15.2077 15.7708 15.471C15.9001 15.7342 16.08 15.9695 16.3002 16.1632C16.5205 16.357 16.7767 16.5055 17.0543 16.6002C17.3319 16.6949 17.6255 16.734 17.9182 16.7153C17.941 16.7138 17.9632 16.7079 17.9837 16.6978C18.0042 16.6878 18.0225 16.6738 18.0376 16.6566C18.0527 16.6395 18.0642 16.6195 18.0716 16.5979C18.079 16.5763 18.082 16.5534 18.0805 16.5306L17.6817 10.2925C17.6803 10.2697 17.6744 10.2474 17.6643 10.2269C17.6543 10.2063 17.6403 10.188 17.6231 10.1729C17.6059 10.1578 17.586 10.1463 17.5643 10.1389C17.5427 10.1316 17.5198 10.1286 17.497 10.1301Z" fill="#371A45"/>
<g opacity="0.35">
<path opacity="0.35" d="M18.0142 14.7972L18.1247 16.5278C18.1283 16.5853 18.1089 16.6419 18.0708 16.6851C18.0327 16.7283 17.9791 16.7547 17.9216 16.7584C17.6232 16.7775 17.3241 16.7377 17.0411 16.6412C16.7582 16.5447 16.497 16.3933 16.2726 16.1959C16.0481 15.9984 15.8648 15.7586 15.733 15.4903C15.6012 15.2219 15.5236 14.9302 15.5046 14.6319L15.4474 13.7356C15.6532 14.1218 15.9658 14.4406 16.348 14.6538C16.7302 14.867 17.1657 14.9655 17.6024 14.9377L17.83 14.923C17.8691 14.9204 17.9069 14.9074 17.9393 14.8853C17.9717 14.8631 17.9976 14.8327 18.0142 14.7972Z" fill="#371A45"/>
</g>
<path d="M17.7748 17.1653C17.0945 17.1641 16.4401 16.9044 15.944 16.4389C15.448 15.9733 15.1474 15.3367 15.103 14.6578L14.967 12.5305C14.9217 11.8215 15.1599 11.1235 15.6293 10.5901C16.0986 10.0566 16.7606 9.73152 17.4696 9.68619C17.6335 9.67576 17.7948 9.73084 17.9181 9.8393C18.0414 9.94777 18.1165 10.1007 18.1271 10.2646L18.526 16.5028C18.5364 16.6667 18.4814 16.8281 18.3728 16.9514C18.2643 17.0748 18.1113 17.15 17.9473 17.1604C17.8899 17.1637 17.8324 17.1653 17.7748 17.1653ZM17.3366 10.5094C16.878 10.5853 16.4638 10.8288 16.1744 11.1926C15.885 11.5564 15.7409 12.0147 15.77 12.4786L15.906 14.6058C15.9357 15.0699 16.1368 15.5064 16.4703 15.8305C16.8038 16.1546 17.2458 16.3431 17.7106 16.3595L17.3366 10.5094Z" fill="#371A45"/>
<path d="M35.5372 20.2965C39.6971 16.1366 39.6971 9.39214 35.5372 5.23228C31.3773 1.07242 24.6329 1.07242 20.473 5.23228C16.3132 9.39214 16.3132 16.1366 20.473 20.2965C24.6329 24.4563 31.3773 24.4563 35.5372 20.2965Z" fill="white"/>
<path d="M28.0062 23.4596H27.9286C22.0313 23.4171 17.2681 18.5855 17.3102 12.6884C17.3527 6.8175 22.1425 2.06982 28.0039 2.06982H28.0814C30.9383 2.09107 33.616 3.22179 35.6216 5.25732C37.6271 7.29286 38.7202 9.98524 38.6998 12.8421C38.6577 18.7118 33.8676 23.4596 28.0062 23.4596ZM28.0028 2.15504C25.1978 2.15504 22.5568 3.23879 20.5572 5.20887C18.5385 7.19809 17.4167 9.85434 17.3965 12.6889C17.3763 15.5234 18.4607 18.1945 20.4501 20.2114C22.4395 22.2282 25.0956 23.3519 27.9301 23.3721C30.7647 23.3923 33.4356 22.3081 35.4537 20.3187C37.4718 18.3293 38.5942 15.6732 38.6144 12.8387C38.6346 10.0041 37.5502 7.33302 35.561 5.31619C33.5718 3.29935 30.9145 2.17629 28.0808 2.15504H28.0028Z" fill="#371A45"/>
<g opacity="0.35">
<path opacity="0.35" d="M38.5651 11.3654C38.63 11.8544 38.6607 12.3474 38.6569 12.8407C38.6144 18.7234 33.8119 23.4581 27.9286 23.4164C22.0454 23.3748 17.3115 18.5714 17.3529 12.6884C17.354 12.5184 17.3593 12.3499 17.3684 12.1833C18.0484 17.3734 22.4699 21.3973 27.8526 21.4359C33.565 21.4765 38.26 17.0117 38.5651 11.3654Z" fill="#371A45"/>
</g>
<path d="M28.0073 23.8187H27.9261C24.9735 23.7975 22.2059 22.6287 20.1329 20.525C18.06 18.4212 16.9299 15.6375 16.9512 12.6854C16.9724 9.73336 18.1412 6.96513 20.2449 4.89219C22.3487 2.81925 25.1335 1.68748 28.084 1.71043C31.0346 1.73338 33.8045 2.90043 35.8773 5.00418C37.95 7.10793 39.0803 9.88998 39.059 12.8437C39.0378 15.7975 37.869 18.564 35.7653 20.6369C33.6821 22.6905 30.93 23.8187 28.0073 23.8187ZM28.0031 2.51495C25.2933 2.51495 22.7414 3.56088 20.8095 5.4653C18.86 7.38715 17.7763 9.95372 17.755 12.6911C17.7338 15.4286 18.7833 18.0102 20.7052 19.9599C22.627 21.9096 25.1934 22.9942 27.9302 23.0138C30.6714 23.0299 33.2493 21.9857 35.199 20.0636C37.1486 18.1416 38.2332 15.5754 38.2528 12.8386C38.2724 10.1018 37.2245 7.51933 35.3027 5.56964C33.3808 3.61995 30.8144 2.53556 28.0777 2.51601L28.0031 2.51495Z" fill="#371A45"/>
<path d="M38.6208 13.114C38.6373 15.1982 37.976 17.1388 36.8317 18.7491C35.9737 19.9563 32.4241 22.0854 28.0206 22.1602C23.9379 22.2292 20.2055 20.0819 19.3283 18.8877C18.1596 17.2958 17.4664 15.3661 17.4498 13.2817C17.4061 7.76582 22.1267 5.44044 27.9733 5.39496C33.8198 5.34949 38.5768 7.59816 38.6208 13.114Z" fill="#371A45"/>
<path d="M27.8233 22.4019C23.6878 22.4019 20.0375 20.2586 19.135 19.0305C17.8921 17.3393 17.2263 15.3522 17.21 13.2843C17.1887 10.5917 18.2512 8.50712 20.3692 7.08868C22.2199 5.84896 24.8487 5.18065 27.9714 5.15493C31.0941 5.12922 33.7331 5.75652 35.6033 6.96671C37.7434 8.35136 38.8393 10.4186 38.8607 13.1114C38.8773 15.1792 38.2432 17.1765 37.0273 18.8873C36.1847 20.0731 32.6789 22.3205 28.0249 22.3993C27.9576 22.4014 27.8913 22.4019 27.8233 22.4019ZM28.1325 5.63561C28.0789 5.63561 28.0262 5.63561 27.9752 5.63561C24.8646 5.66026 17.6356 6.4548 17.6902 13.2803C17.7059 15.2466 18.3394 17.1365 19.522 18.746C20.3492 19.8723 23.9061 21.9214 27.8275 21.9216C27.8913 21.9216 27.9535 21.9216 28.0171 21.9199C32.4447 21.8449 35.8675 19.6918 36.6363 18.61C37.7934 16.9818 38.3966 15.0825 38.3809 13.1158C38.3274 6.40337 31.3229 5.63519 28.1325 5.63519V5.63561Z" fill="#371A45"/>
<g opacity="0.7">
<path opacity="0.7" d="M36.5164 12.6221C36.6938 11.5962 36.2349 10.6604 35.4916 10.5318C34.7482 10.4033 34.0018 11.1308 33.8244 12.1566C33.647 13.1825 34.1058 14.1184 34.8492 14.2469C35.5926 14.3754 36.339 13.648 36.5164 12.6221Z" fill="white"/>
</g>
<g opacity="0.7">
<path opacity="0.7" d="M34.2401 16.3678C34.3858 15.9126 34.1874 15.4423 33.7969 15.3172C33.4064 15.1921 32.9717 15.4597 32.8259 15.9148C32.6801 16.3699 32.8785 16.8403 33.269 16.9653C33.6596 17.0904 34.0943 16.8229 34.2401 16.3678Z" fill="white"/>
</g>
<g opacity="0.35">
<path opacity="0.35" d="M36.5208 7.98453C37.8247 9.20916 38.6033 10.8983 38.6205 13.1136C38.6371 15.1985 37.9756 17.1388 36.8319 18.7491C35.9736 19.9564 32.4238 22.0854 28.0204 22.1604C26.4658 22.1872 24.9623 21.892 23.6472 21.45C29.058 21.2424 33.3818 18.6295 34.4456 17.132C35.8982 15.0884 36.7374 12.6251 36.7159 9.98033C36.7131 9.31044 36.6478 8.64228 36.5208 7.98453Z" fill="#111A28"/>
</g>
<path d="M18.5274 8.81965L17.8959 8.32134L18.1934 8.5587L17.8774 8.34769C19.7474 5.54779 23.4024 3.92132 27.9025 3.88519C32.375 3.85162 36.0457 5.36377 37.9909 8.03957C38.0514 8.11849 38.0805 8.21701 38.0726 8.31612C38.0647 8.41522 38.0204 8.50789 37.9482 8.57625C37.876 8.64461 37.781 8.68381 37.6816 8.6863C37.5823 8.68879 37.4855 8.65439 37.41 8.58973C37.3856 8.56874 37.3637 8.54507 37.3447 8.51918C35.5555 6.05227 32.1151 4.65465 27.9082 4.69014C23.678 4.72372 20.2655 6.22014 18.5457 8.79458C18.54 8.80329 18.5338 8.81158 18.5274 8.81965Z" fill="#371A45"/>
<g opacity="0.7">
<path opacity="0.7" d="M19.8532 16.5449C19.8532 16.5449 18.1015 11.117 21.0168 8.92529C23.9321 6.73356 28.1513 6.70891 28.0548 6.98027C28.0548 6.98027 23.393 8.14902 21.5948 11.8552C20.2083 14.7138 19.8532 16.5449 19.8532 16.5449Z" fill="white"/>
</g>
<path d="M34.7263 28.3758L35.0145 30.6001L35.2391 32.33C35.2687 32.5566 35.2112 32.786 35.0783 32.9719C34.9454 33.1578 34.747 33.2864 34.523 33.3317C34.2238 33.3929 33.8519 33.4643 33.4242 33.5383C31.9016 33.8009 29.6616 34.0946 27.4104 34.0602C27.1773 34.056 26.9549 33.962 26.7895 33.7978C26.6241 33.6336 26.5286 33.4118 26.5228 33.1787L26.4065 28.5864C26.4034 28.4639 26.4252 28.342 26.4706 28.2281C26.5161 28.1143 26.5842 28.0109 26.6709 27.9242C26.7575 27.8375 26.8609 27.7693 26.9748 27.7239C27.0886 27.6784 27.2105 27.6566 27.333 27.6597C28.897 27.6999 32.014 27.7515 33.7505 27.5917C33.9831 27.5706 34.2147 27.6406 34.3967 27.7868C34.5787 27.9331 34.6969 28.1442 34.7263 28.3758Z" fill="white"/>
<path d="M27.2631 27.6607L25.4373 27.8554C25.2444 27.876 25.0663 27.9688 24.9388 28.1151C24.8113 28.2614 24.7438 28.4504 24.7497 28.6444L24.8887 33.2004C24.8945 33.3923 24.9719 33.5751 25.1055 33.7129C25.2392 33.8507 25.4195 33.9335 25.6112 33.9452L27.298 34.0515" fill="white"/>
<g opacity="0.25">
<path opacity="0.25" d="M27.2631 27.6607L25.4373 27.8554C25.2444 27.876 25.0663 27.9688 24.9388 28.1151C24.8113 28.2614 24.7438 28.4504 24.7497 28.6444L24.8887 33.2004C24.8945 33.3923 24.9719 33.5751 25.1055 33.7129C25.2392 33.8507 25.4195 33.9335 25.6112 33.9452L27.298 34.0515" fill="#371A45"/>
</g>
<path d="M27.7806 34.4185C27.6552 34.4185 27.5297 34.4176 27.404 34.4157C27.0789 34.4114 26.7682 34.2809 26.5374 34.0518C26.3067 33.8228 26.1739 33.513 26.1672 33.1879L26.051 28.5952C26.0466 28.4245 26.077 28.2547 26.1403 28.0962C26.2036 27.9376 26.2985 27.7936 26.4192 27.6729C26.54 27.5522 26.684 27.4573 26.8425 27.394C27.0011 27.3307 27.1709 27.3003 27.3415 27.3046C28.9939 27.3471 32.0195 27.3941 33.7165 27.2377C34.0409 27.2072 34.3643 27.3042 34.6184 27.5081C34.8725 27.712 35.0373 28.0067 35.0778 28.33L35.5904 32.2842C35.6302 32.5996 35.5497 32.9184 35.3649 33.1771C35.1801 33.4358 34.9046 33.6153 34.5933 33.6799C33.2127 33.9612 30.5405 34.4185 27.7806 34.4185ZM27.309 28.0146C27.2358 28.0147 27.1634 28.0294 27.096 28.0579C27.0286 28.0863 26.9675 28.128 26.9165 28.1805C26.8654 28.2329 26.8254 28.295 26.7987 28.3632C26.772 28.4313 26.7593 28.5041 26.7612 28.5773L26.8772 33.1701C26.8801 33.3116 26.9378 33.4464 27.0381 33.5463C27.1384 33.6461 27.2735 33.7031 27.4151 33.7054C30.2381 33.7479 33.0363 33.2721 34.4524 32.9839C34.5881 32.9558 34.7082 32.8775 34.7887 32.7647C34.8692 32.6518 34.9043 32.5128 34.8868 32.3753L34.3742 28.4213C34.3569 28.2806 34.2854 28.1521 34.1749 28.0632C34.0644 27.9743 33.9236 27.932 33.7824 27.9451C32.0484 28.1047 28.9914 28.0573 27.3235 28.0148H27.309V28.0146Z" fill="#371A45"/>
<path d="M27.2973 34.4061C27.2897 34.4061 27.2822 34.4061 27.2746 34.4061L25.5878 34.2999C25.3076 34.2835 25.0438 34.1626 24.8486 33.961C24.6534 33.7595 24.5411 33.4919 24.5338 33.2114L24.3946 28.6554C24.387 28.3722 24.4862 28.0966 24.6724 27.883C24.8585 27.6695 25.1181 27.5337 25.3997 27.5026L27.2255 27.3078C27.2719 27.3028 27.3188 27.3071 27.3635 27.3202C27.4082 27.3334 27.4499 27.3553 27.4862 27.3846C27.5225 27.4139 27.5527 27.4501 27.575 27.491C27.5973 27.532 27.6113 27.5769 27.6163 27.6233C27.6212 27.6697 27.617 27.7166 27.6038 27.7613C27.5906 27.8061 27.5687 27.8478 27.5394 27.8841C27.5101 27.9204 27.474 27.9505 27.433 27.9728C27.392 27.9951 27.3471 28.0092 27.3007 28.0141L25.4751 28.2088C25.3714 28.2203 25.2757 28.2704 25.2071 28.3491C25.1385 28.4278 25.102 28.5294 25.1047 28.6338L25.2437 33.1898C25.2465 33.2931 25.2879 33.3917 25.3598 33.466C25.4318 33.5403 25.5289 33.5849 25.6322 33.591L27.319 33.6972C27.4106 33.7035 27.4963 33.745 27.5579 33.8131C27.6196 33.8812 27.6525 33.9705 27.6498 34.0623C27.647 34.1541 27.6088 34.2413 27.5432 34.3055C27.4776 34.3698 27.3896 34.4061 27.2977 34.407L27.2973 34.4061Z" fill="#371A45"/>
<path d="M31.1476 34.2501C31.0571 34.2501 30.9699 34.2154 30.9041 34.1532C30.8382 34.091 30.7986 34.0061 30.7934 33.9157L30.6576 31.5886L29.4793 30.7938C29.4345 30.7636 29.3972 30.7235 29.3702 30.6767C29.3432 30.6299 29.3273 30.5776 29.3235 30.5237L29.1308 27.7211C29.1243 27.6271 29.1555 27.5344 29.2174 27.4634C29.2792 27.3924 29.3668 27.3488 29.4608 27.3424C29.5548 27.3359 29.6475 27.3671 29.7185 27.429C29.7895 27.4909 29.833 27.5784 29.8395 27.6724L30.0203 30.3019L31.2005 31.0981C31.2459 31.1286 31.2835 31.1692 31.3106 31.2167C31.3376 31.2642 31.3533 31.3173 31.3565 31.3718L31.5025 33.8742C31.5052 33.9208 31.4987 33.9674 31.4834 34.0115C31.4681 34.0555 31.4443 34.0962 31.4133 34.131C31.3823 34.1659 31.3448 34.1943 31.3028 34.2146C31.2608 34.2349 31.2152 34.2468 31.1687 34.2495C31.1617 34.2499 31.1547 34.2501 31.1476 34.2501Z" fill="#371A45"/>
<path d="M34.4609 30.4999C34.4756 30.6408 34.3957 31.7992 34.3957 31.7992L33.5929 31.8827C33.0404 31.9401 32.5323 31.4152 32.4588 30.7082C32.3852 30.0012 32.7739 29.383 33.3268 29.3255L34.1299 29.2419C34.1299 29.2419 34.4363 30.2704 34.4609 30.4999Z" fill="#22A7F0"/>
<path d="M34.4606 30.4999C34.4755 30.6407 34.3969 31.7991 34.3969 31.7991L34.3703 31.8016C34.3916 31.4674 34.4128 31.0704 34.4037 30.9918C34.3803 30.7621 34.073 29.734 34.073 29.734L33.2702 29.8175C32.8839 29.8573 32.5773 30.1724 32.4523 30.5993C32.4264 29.9393 32.8034 29.3798 33.3278 29.3256L34.1308 29.2421C34.1308 29.2421 34.4362 30.2704 34.4606 30.4999Z" fill="white"/>
<path d="M33.5113 32.1887C32.8389 32.1887 32.2446 31.5641 32.1587 30.7394C32.0682 29.8682 32.5782 29.1 33.2956 29.0254L33.8562 28.9672C33.9947 28.9525 34.134 28.987 34.2496 29.0647C34.3652 29.1424 34.4497 29.2584 34.4884 29.3922C34.7391 30.2579 34.7557 30.4162 34.761 30.4683C34.7655 30.5108 34.7754 30.6081 34.7132 31.5722C34.7044 31.7123 34.6462 31.8448 34.5489 31.946C34.4517 32.0471 34.3216 32.1105 34.1819 32.1247L33.6243 32.1827C33.5868 32.1867 33.549 32.1887 33.5113 32.1887ZM33.911 29.5675L33.3585 29.6251C32.9785 29.6646 32.7042 30.1459 32.7593 30.6763C32.8143 31.2067 33.1828 31.62 33.5621 31.582L34.1118 31.5246C34.1543 30.8818 34.1643 30.5869 34.1609 30.5284C34.1515 30.4504 34.0816 30.1578 33.911 29.5675Z" fill="#371A45"/>
<path d="M34.3969 31.7973C34.9498 31.7397 35.3384 31.1207 35.2649 30.4146C35.1914 29.7085 34.6837 29.1827 34.1309 29.2402C33.578 29.2978 33.1894 29.9168 33.2629 30.6229C33.3364 31.329 33.8441 31.8548 34.3969 31.7973Z" fill="#22A7F0"/>
<path d="M35.2635 30.4176C35.2723 30.5011 35.2744 30.5853 35.2699 30.6692C35.1173 30.0931 34.6679 29.6944 34.1823 29.7446C33.6967 29.7947 33.337 30.2799 33.3077 30.8761C33.2857 30.7939 33.2703 30.7101 33.2615 30.6254C33.188 29.9195 33.5771 29.3005 34.13 29.2441C34.683 29.1878 35.19 29.7106 35.2635 30.4176Z" fill="white"/>
<path d="M34.3109 32.1054C33.9902 32.1054 33.6819 31.9669 33.4317 31.7079C33.171 31.4378 33.004 31.0642 32.9615 30.656C32.919 30.2478 33.0057 29.8485 33.2052 29.5297C33.4196 29.1882 33.7365 28.9796 34.0977 28.942C34.459 28.9043 34.8128 29.0433 35.0926 29.3334C35.3536 29.6035 35.5206 29.977 35.5629 30.3855C35.6054 30.7937 35.5189 31.193 35.3192 31.5117C35.105 31.8532 34.7879 32.0619 34.4267 32.0995C34.3882 32.1035 34.3495 32.1055 34.3109 32.1054ZM34.2118 29.5395C34.1949 29.5395 34.1779 29.5404 34.161 29.5423C33.9879 29.5601 33.83 29.6698 33.7165 29.8506C33.589 30.055 33.5331 30.3181 33.5618 30.5944C33.5905 30.8706 33.6984 31.116 33.8659 31.2894C34.0146 31.4433 34.1916 31.5183 34.3644 31.4998C34.5372 31.4813 34.6955 31.3723 34.809 31.1915C34.9365 30.9873 34.9921 30.724 34.9637 30.4477C34.935 30.173 34.827 29.926 34.6594 29.7526C34.5255 29.6139 34.3684 29.5395 34.2118 29.5395Z" fill="#371A45"/>
<path d="M17.3527 29.2657C17.3527 29.2657 19.754 30.3527 25.4673 30.1565C25.4673 30.1565 26.5138 31.1595 25.4673 31.9881C24.4207 32.8166 18.5304 33.2935 16.9568 31.5956C15.9606 30.5206 17.3527 29.2657 17.3527 29.2657Z" fill="white"/>
<g opacity="0.25">
<path opacity="0.25" d="M25.467 31.9885C24.4209 32.8173 18.5306 33.2931 16.9564 31.5952C16.4827 31.0852 16.549 30.5327 16.7503 30.0945C16.8075 30.196 16.8767 30.2902 16.9564 30.3752C18.5306 32.0731 24.4209 31.5962 25.467 30.7683C25.5669 30.6909 25.6561 30.6007 25.7324 30.5C25.9517 30.865 26.1319 31.4615 25.467 31.9885Z" fill="#371A45"/>
</g>
<path d="M21.3201 33.0949C19.986 33.0949 17.7035 32.925 16.6963 31.8372C16.3775 31.4923 16.2245 31.097 16.2441 30.6625C16.2847 29.7604 17.0809 29.0326 17.1153 29.002L17.2879 28.8464L17.4989 28.9421C17.5352 28.958 19.9348 29.9916 25.4553 29.8016L25.6051 29.7965L25.7133 29.9002C25.7754 29.9599 26.3198 30.5027 26.2871 31.2062C26.2739 31.4842 26.1596 31.8939 25.6887 32.2666C24.9874 32.8223 22.9801 33.0854 21.4127 33.0954L21.3201 33.0949ZM17.4439 29.6828C17.2611 29.8907 16.9713 30.2831 16.9536 30.6967C16.9434 30.9368 17.0297 31.1518 17.2173 31.3544C18.6585 32.9096 24.3633 32.409 25.2467 31.7097C25.4592 31.5412 25.5673 31.3656 25.5765 31.1727C25.5884 30.9228 25.4315 30.6659 25.3138 30.5169C20.621 30.6599 18.177 29.9466 17.4439 29.6826V29.6828Z" fill="#371A45"/>
<g opacity="0.25">
<path opacity="0.25" d="M37.9174 37.7008C37.0574 38.7399 34.2994 39.7427 32.8146 38.8121C31.5745 38.0357 31.5352 36.9232 30.656 36.2834C30.6048 36.2462 30.4499 36.1786 30.2136 36.0751C32.9974 35.1971 35.5455 34.7564 37.8379 34.6089C38.8256 35.8259 38.6295 36.8397 37.9174 37.7008Z" fill="#371A45"/>
</g>
<path d="M25.9324 24.5525C29.043 28.4336 34.1753 30.8129 37.2412 33.5792C38.9217 35.0954 38.6571 35.8249 37.819 36.839C36.9597 37.8783 34.9409 38.8813 33.4564 37.951C32.2163 37.1739 32.1389 36.4355 31.2602 35.7954C30.9134 35.5427 25.3364 34.0629 22.2402 29.2374" fill="white"/>
<g opacity="0.25">
<path opacity="0.25" d="M37.8188 36.8397C36.9599 37.8788 34.9411 38.8816 33.4564 37.9513C32.2163 37.1746 32.1389 36.4364 31.2596 35.7957C30.9136 35.5432 25.3361 34.0636 22.2402 29.2375L22.304 29.157C25.7571 32.7871 29.3564 33.0045 31.7471 34.8443C32.6085 35.5073 32.6833 35.7273 33.9237 36.5037C35.4082 37.4343 37.427 36.4313 38.2859 35.3924C38.3414 35.3258 38.3938 35.2604 38.4429 35.1962C38.5842 35.7825 38.2935 36.2653 37.8188 36.8397Z" fill="#371A45"/>
</g>
<path d="M26.0369 24.469C26.6974 24.9352 27.2422 25.465 27.8251 25.9727C28.3972 26.4867 28.9852 26.988 29.5787 27.4867C30.1826 27.9755 30.808 28.437 31.4487 28.8837C32.0862 29.3344 32.736 29.7726 33.385 30.2144C34.0339 30.6562 34.688 31.0973 35.3308 31.5621C35.4928 31.6755 35.653 31.793 35.8117 31.9129C35.9705 32.0327 36.1305 32.1492 36.289 32.2707C36.6014 32.5198 36.918 32.7623 37.2189 33.03C37.5344 33.2921 37.8319 33.5751 38.1095 33.877C38.1785 33.9584 38.2485 34.0377 38.316 34.1212C38.3798 34.2104 38.4474 34.2959 38.5088 34.3892L38.597 34.5356L38.6405 34.6091C38.6539 34.6348 38.666 34.6626 38.6788 34.6894L38.7527 34.8518C38.774 34.9085 38.7914 34.9697 38.8101 35.0288C38.8781 35.267 38.9049 35.543 38.8488 35.7965C38.7987 36.0343 38.7086 36.2618 38.5823 36.4693C38.4703 36.6533 38.3457 36.8293 38.2091 36.9959C38.1477 37.0758 38.074 37.1582 37.9994 37.2405C37.9248 37.3227 37.846 37.3956 37.7682 37.4717C37.4523 37.7612 37.0998 38.008 36.7197 38.2059C36.3385 38.4079 35.9308 38.5552 35.5085 38.6436C35.0816 38.7303 34.6277 38.7499 34.1801 38.66L34.0133 38.6213C33.9572 38.6103 33.9021 38.5943 33.8489 38.5735C33.7426 38.531 33.6313 38.4987 33.5301 38.446C33.429 38.3933 33.325 38.3385 33.2286 38.2822C33.1406 38.2229 33.0509 38.1676 32.9649 38.1043C32.7901 37.9796 32.624 37.8432 32.4676 37.6961C32.3133 37.549 32.1684 37.3925 32.0335 37.2275C31.7683 36.9039 31.5568 36.5941 31.3084 36.3603C31.2787 36.3289 31.2447 36.3025 31.2134 36.2738C31.1821 36.2448 31.1492 36.2173 31.115 36.1916L31.0643 36.1523L31.039 36.1325L31.0264 36.1225C31.0207 36.1178 31.0264 36.1236 31.0264 36.1225C31.0284 36.1247 31.0309 36.1262 31.0337 36.127L31.0124 36.1176C30.9954 36.1102 30.9827 36.1034 30.9599 36.0945C30.7948 36.0265 30.605 35.9559 30.4221 35.8849C30.0523 35.7419 29.6817 35.5917 29.3158 35.4313C27.8519 34.7901 26.4451 33.992 25.1772 32.9979C24.8584 32.7521 24.553 32.4879 24.2526 32.2195C23.9574 31.9448 23.6533 31.6779 23.3737 31.3848C23.2312 31.2407 23.0971 31.0885 22.972 30.929C22.9083 30.8508 22.8445 30.7718 22.7876 30.6874C22.7306 30.603 22.6707 30.5217 22.6153 30.4367C22.5053 30.2649 22.4079 30.0856 22.3237 29.8999C22.2399 29.7096 22.1745 29.5117 22.1284 29.3089C22.1225 29.2811 22.1249 29.2522 22.1355 29.2258C22.1461 29.1994 22.1643 29.1768 22.1878 29.1609C22.2113 29.1449 22.239 29.1363 22.2674 29.1362C22.2958 29.136 22.3237 29.1444 22.3473 29.1602L22.3541 29.1646C22.5298 29.2826 22.6728 29.4173 22.8193 29.5493C22.9657 29.6812 23.097 29.8204 23.2321 29.9568C23.2989 30.0255 23.3633 30.0958 23.4266 30.1668C23.4899 30.2378 23.5573 30.3058 23.6206 30.3767C23.6839 30.4477 23.7481 30.5168 23.8118 30.5892C23.8756 30.6617 23.9406 30.7293 24.0031 30.8017C24.2531 31.09 24.5178 31.3652 24.7961 31.6262C25.0798 31.8823 25.3699 32.1316 25.6733 32.3657C26.8793 33.3114 28.2267 34.0774 29.639 34.6958C29.9926 34.8507 30.35 34.9956 30.7128 35.1361C30.896 35.2073 31.074 35.2732 31.2727 35.3545C31.2957 35.3635 31.3271 35.3781 31.355 35.3907C31.3705 35.3981 31.3805 35.4019 31.4006 35.4119C31.4247 35.4249 31.4485 35.4387 31.4716 35.4531C31.4816 35.4595 31.4986 35.4699 31.5022 35.4731L31.5188 35.4859L31.5515 35.5114L31.6172 35.5624C31.7042 35.6309 31.7876 35.7037 31.8673 35.7806C32.1905 36.0892 32.4221 36.4349 32.6559 36.7167C32.8811 36.9953 33.143 37.2422 33.4345 37.4504C33.5065 37.5038 33.5847 37.5512 33.6593 37.6019L33.8754 37.719C33.9477 37.7571 34.0276 37.7773 34.1026 37.8087C34.1405 37.8245 34.18 37.836 34.2205 37.8429L34.3406 37.8708C34.664 37.9345 35.0097 37.9243 35.351 37.8548C36.0334 37.7135 36.7027 37.3574 37.224 36.8805C37.286 36.8189 37.3547 36.7613 37.4091 36.6954C37.4635 36.6295 37.5245 36.5679 37.5827 36.4929C37.6954 36.3559 37.7985 36.2113 37.8912 36.06C37.9708 35.9323 38.0283 35.7921 38.0612 35.6452C38.0921 35.5135 38.0759 35.3862 38.04 35.2489C37.9607 34.9746 37.7572 34.6811 37.5134 34.413C37.2588 34.137 36.986 33.8783 36.6968 33.6388C36.411 33.3838 36.1033 33.1486 35.8017 32.908C35.6485 32.7899 35.4913 32.6756 35.3364 32.5591C35.1814 32.4427 35.025 32.3275 34.8655 32.2155C34.2352 31.7597 33.5845 31.323 32.937 30.8799C32.2895 30.4369 31.6348 29.9981 30.9892 29.5412C30.3407 29.0903 29.7072 28.6126 29.0682 28.1387C28.439 27.6518 27.81 27.1563 27.2531 26.5772C26.6793 26.0192 26.1787 25.3734 25.8312 24.6354C25.8183 24.6079 25.8149 24.5769 25.8214 24.5472C25.828 24.5175 25.8441 24.4909 25.8674 24.4713C25.8906 24.4518 25.9197 24.4404 25.95 24.4391C25.9804 24.4378 26.0103 24.4465 26.0352 24.4639L26.0369 24.469Z" fill="#371A45"/>
<path d="M26.174 33.5922C26.1203 33.5921 26.0672 33.5798 26.0189 33.5562C25.9706 33.5326 25.9282 33.4984 25.895 33.4561C25.8617 33.4139 25.8385 33.3646 25.827 33.3121C25.8156 33.2595 25.8161 33.2051 25.8287 33.1528C25.877 32.9545 27.0442 28.3237 30.27 28.3237H30.3225C30.4166 28.3252 30.5064 28.364 30.5719 28.4316C30.6375 28.4993 30.6735 28.5902 30.672 28.6843C30.6706 28.7785 30.6317 28.8683 30.5641 28.9338C30.4965 28.9994 30.4056 29.0354 30.3114 29.0339H30.2713C27.5948 29.0339 26.5289 33.2777 26.5183 33.3209C26.4995 33.3981 26.4554 33.4668 26.393 33.516C26.3306 33.5652 26.2535 33.592 26.174 33.5922Z" fill="#371A45"/>
<path d="M39.3265 26.2526C39.2657 26.2526 39.2059 26.2369 39.1529 26.2071C37.3619 25.2011 37.2312 20.3601 37.2221 19.8108C37.2205 19.7166 37.2564 19.6257 37.3219 19.5579C37.3873 19.4902 37.477 19.4512 37.5712 19.4496H37.5774C37.6705 19.4496 37.7599 19.4862 37.8263 19.5515C37.8926 19.6169 37.9307 19.7056 37.9323 19.7987C37.9554 21.1766 38.282 24.9025 39.5007 25.5868C39.5692 25.6253 39.6229 25.6854 39.6536 25.7578C39.6842 25.8301 39.69 25.9105 39.6701 25.9865C39.6502 26.0625 39.6057 26.1297 39.5435 26.1777C39.4813 26.2257 39.405 26.2517 39.3265 26.2517V26.2526Z" fill="#371A45"/>
<path d="M42.2669 17.167C42.2705 17.1883 42.2722 17.2308 42.2745 17.2646L42.2813 17.3734C42.2875 17.4467 42.29 17.5208 42.2975 17.5948C42.3072 17.7435 42.3259 17.8923 42.3472 18.0423C42.3684 18.1923 42.3993 18.3422 42.4286 18.4983C42.452 18.6588 42.4923 18.8152 42.5119 19.0062C42.3452 18.927 42.1983 18.8115 42.082 18.6681C42.0239 18.5982 41.9717 18.5237 41.9258 18.4452C41.8817 18.366 41.8418 18.2846 41.8062 18.2013C41.7343 18.0343 41.6819 17.8596 41.65 17.6806C41.6345 17.5907 41.6245 17.5 41.62 17.4089C41.6181 17.363 41.6164 17.3171 41.6187 17.2703C41.62 17.22 41.6241 17.1699 41.6311 17.1201C41.641 17.0447 41.6778 16.9754 41.7346 16.9248C41.7914 16.8743 41.8645 16.8459 41.9406 16.8448C42.0166 16.8437 42.0905 16.8699 42.1488 16.9188C42.207 16.9677 42.2458 17.0359 42.258 17.1109L42.2669 17.167Z" fill="#371A45"/>
</g>
</svg>
