<svg width="53" height="52" viewBox="0 0 53 52" fill="none" xmlns="http://www.w3.org/2000/svg">
<mask id="mask0_2_7677" style="mask-type:alpha" maskUnits="userSpaceOnUse" x="0" y="0" width="53" height="52">
<circle cx="26.5" cy="26" r="26" fill="#C4C4C4"/>
</mask>
<g mask="url(#mask0_2_7677)">
<path d="M-4.49999 57L58.5 57L58.5 -5.99999L-4.49999 -5.99999L-4.49999 57Z" fill="#AD82FF"/>
<g opacity="0.35">
<path opacity="0.35" d="M28.1531 49.4443C36.3141 49.4443 42.9299 48.655 42.9299 47.6813C42.9299 46.7076 36.3141 45.9182 28.1531 45.9182C19.9921 45.9182 13.3763 46.7076 13.3763 47.6813C13.3763 48.655 19.9921 49.4443 28.1531 49.4443Z" fill="#371A45"/>
</g>
<path d="M20.4795 24.7815V34.7163C20.4792 35.2672 20.6214 35.8089 20.8925 36.2885C21.4458 37.2699 22.499 37.9356 23.6994 37.9356H32.9502C34.1069 37.9356 35.1265 37.3176 35.6943 36.3954C36.0058 35.8908 36.1706 35.3094 36.1701 34.7163V24.7815C36.1703 24.5677 36.1488 24.3543 36.106 24.1448C35.9566 23.4173 35.5613 22.7634 34.9866 22.2931C34.4119 21.8227 33.6928 21.5644 32.9502 21.5618H23.6997C22.3186 21.5618 21.1325 22.4425 20.6784 23.6702C20.5467 24.0259 20.4794 24.4022 20.4795 24.7815Z" fill="white"/>
<path d="M32.9507 38.1759H23.6996C21.7918 38.1759 20.2398 36.6239 20.2398 34.7161V24.7815C20.2398 22.8737 21.7918 21.3217 23.6996 21.3217H32.9507C34.8585 21.3217 36.4106 22.8737 36.4106 24.7815V34.7161C36.4106 36.6239 34.8592 38.1759 32.9507 38.1759ZM23.6996 21.8023C22.0569 21.8023 20.7203 23.1387 20.7203 24.7815V34.7161C20.7203 36.3588 22.0569 37.6954 23.6996 37.6954H32.9507C34.5934 37.6954 35.9299 36.3588 35.9299 34.7161V24.7815C35.9299 23.1387 34.5934 21.8023 32.9507 21.8023H23.6996Z" fill="#371A45"/>
<path d="M22.5462 22.5023C22.5462 22.5023 18.5397 27.0583 18.5397 30.8634C18.5397 34.12 22.5462 35.2403 22.5462 35.2403L28.099 25.836L22.5462 22.5023Z" fill="white"/>
<path d="M18.5397 30.8631C18.5397 34.1204 22.5462 35.2404 22.5462 35.2404L22.6832 35.0087L28.0992 25.836L23.913 23.3225L22.5464 22.5021C22.5464 22.5021 18.5397 27.0593 18.5397 30.8631Z" fill="white"/>
<g opacity="0.35">
<path opacity="0.35" d="M20.219 31.3086C20.219 33.1891 21.5548 34.3573 22.6832 35.0086L28.0992 25.8359L23.913 23.3224C22.9699 24.4871 20.219 28.1553 20.219 31.3086Z" fill="#371A45"/>
</g>
<path d="M22.6591 35.5214L22.4815 35.4716C22.439 35.4598 21.4297 35.1724 20.407 34.4712C19.0281 33.5262 18.2994 32.2777 18.2994 30.8633C18.2994 27.0118 22.1996 22.5316 22.3657 22.3435L22.498 22.1931L28.4273 25.7526L22.6591 35.5214ZM22.5974 22.8134C21.9164 23.6311 18.7801 27.5757 18.7801 30.8633C18.7801 33.5251 21.6877 34.6955 22.4367 34.9528L27.7708 25.9192L22.5974 22.8134Z" fill="#371A45"/>
<path d="M34.4838 28.0245C34.4838 28.0245 36.1813 30.1508 38.9004 29.6811C41.7197 29.1946 41.221 24.5019 41.221 24.5019L36.937 22.8522C36.937 22.8522 37.2032 24.3181 36.5828 24.3179C35.8879 24.3179 34.6476 22.6826 33.5643 22.1917L34.4838 28.0245Z" fill="white"/>
<g opacity="0.35">
<path opacity="0.35" d="M33.8513 24.0159L34.4836 28.0247C34.4836 28.0247 36.181 30.1502 38.9006 29.6813C41.7198 29.1946 41.221 24.5018 41.221 24.5018L39.2504 25.5591C40.5803 25.7964 40.4132 28.2153 38.3958 28.5635C35.6768 29.0332 34.048 24.7457 34.048 24.7457L33.8513 24.0159Z" fill="#371A45"/>
</g>
<path d="M38.1102 29.9903C35.7756 29.9903 34.3617 28.2565 34.296 28.1745C34.2576 28.1246 34.2403 28.0616 34.2479 27.9991C34.2554 27.9365 34.2872 27.8795 34.3364 27.8401C34.3855 27.8008 34.4482 27.7823 34.5108 27.7887C34.5735 27.7951 34.6311 27.8258 34.6714 27.8743C34.6871 27.8944 36.3179 29.8827 38.8596 29.4444C41.1591 29.0475 41.0449 25.4439 40.9934 24.6721L37.2249 23.2212C37.2525 23.5866 37.2397 24.0875 37.0145 24.357C36.9624 24.4211 36.8965 24.4725 36.8217 24.5074C36.7469 24.5424 36.6652 24.5599 36.5826 24.5587C36.1207 24.5587 35.5786 24.0785 34.9509 23.5229C34.4524 23.0819 33.9369 22.6251 33.4651 22.4114C33.4077 22.3846 33.3633 22.3363 33.3413 22.277C33.3194 22.2177 33.3217 22.1521 33.3478 22.0944C33.3739 22.0368 33.4217 21.9918 33.4807 21.9692C33.5398 21.9465 33.6054 21.9481 33.6634 21.9735C34.2014 22.2172 34.7444 22.698 35.2699 23.163C35.7543 23.5918 36.3032 24.0779 36.5833 24.078C36.5954 24.0791 36.6076 24.077 36.6186 24.0718C36.6297 24.0667 36.6392 24.0588 36.6463 24.0489C36.7937 23.8725 36.766 23.2564 36.7009 22.8955L36.625 22.4752L41.4445 24.3308L41.4602 24.4768C41.4815 24.6776 41.9485 29.3995 38.9417 29.9185C38.6671 29.9661 38.3889 29.9901 38.1102 29.9903Z" fill="#371A45"/>
<g opacity="0.35">
<path opacity="0.35" d="M31.4322 40.3191C31.4057 40.3309 31.3794 40.3421 31.3535 40.3533C31.3794 40.3427 31.4057 40.3309 31.4322 40.3191Z" fill="#371A45"/>
</g>
<g opacity="0.35">
<path opacity="0.35" d="M28.0991 32.9592C28.0317 33.0624 27.9666 33.1637 27.9036 33.2629C27.9671 33.1635 28.0324 33.0618 28.0991 32.9592Z" fill="#371A45"/>
</g>
<path d="M19.8349 45.9107C19.8386 45.9515 19.8443 45.9925 19.8517 46.0314C20.0555 47.2378 21.4688 47.6694 24.0122 47.3359C25.1639 47.1863 26.7564 47.0083 27.1763 46.0917C28.0149 44.2611 27.1592 40.557 27.2586 38.1833V38.1787C27.9479 38.2541 28.6433 38.2541 29.3326 38.1787C29.3326 38.1981 29.3338 38.217 29.3345 38.2365C29.4194 40.6116 28.5832 44.2741 29.415 46.0909C29.8349 47.0082 31.4267 47.1862 32.579 47.3351C35.1256 47.6683 36.5388 47.2364 36.7408 46.0268C36.7469 45.9879 36.7526 45.9495 36.7565 45.9099C36.903 44.4357 34.8467 43.7511 34.8467 43.7511C34.8467 43.7511 35.2949 40.6228 35.591 37.8003C35.7154 36.6133 35.7438 35.3855 35.7049 34.1641C35.6954 33.8478 35.6814 33.532 35.6627 33.2167C35.6363 32.7684 35.6026 32.3238 35.5616 31.8827C35.5256 31.5005 35.4852 31.1228 35.4401 30.7498C35.2729 29.348 35.0479 28.0227 34.816 26.8565C34.6084 25.8104 34.3953 24.892 34.2124 24.1633C34.1715 24.0023 34.1337 23.8508 34.096 23.7087C33.8728 22.8493 33.718 22.3489 33.718 22.3489H22.8726C22.8726 22.3489 22.7166 22.8529 22.4928 23.7169C22.3607 24.223 22.2056 24.8534 22.044 25.5789C21.981 25.8624 21.9172 26.16 21.8528 26.4716C21.5932 27.7308 21.336 29.1987 21.15 30.761C21.1065 31.1255 21.0671 31.4947 21.0317 31.8687C20.989 32.3254 20.9539 32.7872 20.9274 33.2517C20.9079 33.5811 20.8934 33.9116 20.884 34.2431C20.8778 34.4626 20.8736 34.6822 20.8715 34.9019C20.8627 35.8784 20.901 36.8534 21.0004 37.8007C21.2958 40.6233 21.7441 43.7516 21.7441 43.7516C21.7441 43.7516 19.6884 44.4365 19.8349 45.9107Z" fill="white"/>
<g opacity="0.35">
<path opacity="0.35" d="M29.415 46.0913C29.835 47.0083 31.4267 47.1864 32.5788 47.3367C35.1257 47.6687 36.5388 47.2374 36.7404 46.0274C34.6554 46.8558 30.9802 46.3827 30.3518 45.3317C29.538 43.9706 29.4068 42.6103 30.6718 40.9143C31.9368 39.2183 32.0348 37.0056 32.0348 37.0056C31.4302 37.451 30.1861 37.9349 29.3343 38.2369C29.4197 40.6122 28.5829 44.2741 29.415 46.0913Z" fill="#371A45"/>
</g>
<g opacity="0.35">
<path opacity="0.35" d="M19.8516 46.0316C20.0552 47.2381 21.4683 47.6687 24.0119 47.3367C25.1639 47.1864 26.7564 47.0083 27.1764 46.0913C28.0146 44.2607 27.1588 40.5561 27.2583 38.1829C26.5533 37.9624 25.2485 37.5113 24.5611 37.0056C24.5611 37.0056 24.2146 38.5964 25.6888 40.7725C26.8781 42.5279 26.9646 43.9244 26.1509 45.2848C25.5739 46.2501 22.1435 46.6467 19.8516 46.0316Z" fill="#371A45"/>
</g>
<path d="M34.2899 24.144C34.5523 24.9287 34.7671 25.7278 34.958 26.5323C35.0525 26.9349 35.1416 27.339 35.2205 27.7451C35.2596 27.9481 35.3007 28.1509 35.3374 28.3544L35.4406 28.9665C35.4762 29.1703 35.5074 29.375 35.5374 29.5798L35.6283 30.194C35.6557 30.3992 35.6815 30.6047 35.7057 30.8105C35.7323 31.0152 35.7529 31.222 35.7726 31.4282C35.8641 32.2518 35.9104 33.0805 35.9458 33.9091C35.9644 34.7385 35.9788 35.5692 35.9318 36.3999L35.9172 36.7112L35.9101 36.867L35.8972 37.0224L35.8454 37.6446C35.8098 38.0588 35.7598 38.4664 35.7151 38.8772C35.5268 40.5171 35.3168 42.1533 35.0851 43.786L34.9232 43.5239C35.0349 43.5628 35.1279 43.6026 35.2283 43.6463C35.3286 43.6899 35.4222 43.7371 35.517 43.7871C35.708 43.8882 35.8909 44.004 36.064 44.1336C36.2422 44.2657 36.4047 44.4177 36.5486 44.5865C36.6987 44.7628 36.8175 44.9636 36.8998 45.18C36.9817 45.4031 37.0155 45.6411 36.999 45.8782C36.9852 46.1135 36.9249 46.3437 36.8215 46.5555C36.7137 46.7691 36.56 46.9562 36.3714 47.1034C36.1911 47.2439 35.9898 47.3551 35.7748 47.4327C35.3576 47.588 34.93 47.6468 34.5094 47.6732C34.0883 47.6967 33.6709 47.6828 33.2575 47.6507C33.051 47.6329 32.8448 47.6132 32.6402 47.5868L32.032 47.508C31.6251 47.4512 31.2142 47.385 30.8046 47.2755C30.5963 47.2211 30.3923 47.1514 30.1943 47.0672C29.9934 46.9794 29.795 46.8705 29.6137 46.7224C29.5219 46.6461 29.4382 46.5605 29.3641 46.4669C29.2894 46.3712 29.2277 46.266 29.1804 46.1541C29.0884 45.9519 29.0283 45.7429 28.9757 45.5345C28.8763 45.1165 28.8339 44.697 28.8147 44.2812C28.7955 43.8654 28.8013 43.4516 28.8179 43.0408C28.8516 42.219 28.9281 41.406 28.9941 40.5972C29.0601 39.7885 29.1215 38.9816 29.0922 38.1903L29.3617 38.4187C29.1788 38.4395 29.0058 38.4525 28.8276 38.4625C28.6495 38.4724 28.4733 38.477 28.2953 38.4773C28.1173 38.4776 27.94 38.4721 27.7629 38.4625C27.5859 38.4529 27.4119 38.4395 27.229 38.4187L27.4985 38.1903C27.469 38.9816 27.532 39.7894 27.5966 40.5972C27.6612 41.405 27.7384 42.2195 27.7727 43.0408C27.7894 43.4516 27.7954 43.8649 27.7758 44.2812C27.7563 44.6974 27.7144 45.1159 27.6149 45.5345C27.5626 45.7429 27.5026 45.9519 27.4101 46.1541C27.3627 46.266 27.301 46.3711 27.2263 46.4669C27.1522 46.5606 27.0686 46.6462 26.9767 46.7224C26.7954 46.8705 26.597 46.9794 26.3963 47.0672C26.1986 47.1509 25.995 47.2202 25.7872 47.2744C25.3777 47.3839 24.9667 47.4501 24.5598 47.5069L23.9514 47.5857C23.7467 47.6121 23.5407 47.6318 23.3342 47.6496C22.9207 47.6811 22.5035 47.6956 22.0822 47.6721C21.6618 47.6457 21.2342 47.5869 20.8169 47.4316C20.6019 47.354 20.4005 47.2428 20.2203 47.1023C20.0316 46.9551 19.8779 46.768 19.7701 46.5543C19.6667 46.3426 19.6065 46.1124 19.5928 45.8771C19.5763 45.64 19.6101 45.4021 19.6918 45.1789C19.7742 44.9625 19.893 44.7618 20.0431 44.5854C20.1866 44.4165 20.3488 44.2645 20.5267 44.1323C20.6998 44.0027 20.8827 43.8869 21.0737 43.7858C21.1682 43.7358 21.2645 43.6889 21.3624 43.645C21.4618 43.6009 21.5557 43.5615 21.6675 43.5226L21.5059 43.7858C21.2742 42.1385 21.0629 40.4893 20.872 38.8384C20.8268 38.4244 20.7767 38.0141 20.7408 37.5956C20.7239 37.3866 20.7005 37.1779 20.6893 36.9687L20.6538 36.3411C20.6211 35.5038 20.6257 34.6667 20.6589 33.8315C20.6921 32.9963 20.757 32.1629 20.8436 31.3328C20.8627 31.125 20.8871 30.9177 20.9112 30.7105C20.9353 30.5032 20.9585 30.2959 20.9863 30.0891C21.0377 29.6751 21.0937 29.2616 21.1583 28.8495C21.2856 28.0232 21.4402 27.2083 21.6338 26.3896C21.6845 26.1867 21.7386 25.9851 21.796 25.7848C21.8521 25.5837 21.9124 25.384 21.9756 25.1847C22.1033 24.7869 22.2397 24.3905 22.4144 24.0065C22.4227 23.9886 22.4372 23.9743 22.4553 23.9665C22.4734 23.9586 22.4937 23.9576 22.5125 23.9637C22.5312 23.9697 22.5471 23.9825 22.5571 23.9995C22.5671 24.0165 22.5705 24.0366 22.5667 24.0559V24.057C22.4002 24.8668 22.2473 25.6809 22.0862 26.4907C21.9419 27.2975 21.7979 28.1163 21.6644 28.9299C21.3932 30.5591 21.2026 32.2033 21.1394 33.851C21.1067 34.6746 21.1022 35.4988 21.1344 36.3209C21.1665 37.1431 21.256 37.9582 21.3498 38.7842C21.5379 40.4306 21.7486 42.0751 21.982 43.7176L22.0096 43.9137L21.8206 43.9797C21.7403 44.0077 21.6461 44.0463 21.5599 44.0849C21.4738 44.1235 21.3854 44.1666 21.3004 44.2109C21.1316 44.2999 20.97 44.402 20.817 44.5161C20.516 44.7415 20.2618 45.0223 20.1432 45.3443C20.0845 45.5041 20.0604 45.6746 20.0725 45.8445C20.082 46.0163 20.1254 46.1846 20.2004 46.3395C20.3486 46.6388 20.6398 46.8552 20.987 46.982C21.3335 47.1116 21.7206 47.1684 22.1103 47.1924C22.4999 47.2163 22.8989 47.2014 23.2962 47.1705C23.4948 47.1533 23.6938 47.1344 23.8924 47.1086L24.4939 47.0298C24.8923 46.9744 25.2861 46.9101 25.6627 46.8093C26.0359 46.7081 26.4029 46.5704 26.6722 46.3496C26.7368 46.2957 26.7958 46.2355 26.8483 46.1699L26.8845 46.1208L26.916 46.0696C26.9265 46.0525 26.9359 46.0348 26.9444 46.0166L26.9583 45.9902L26.9715 45.9579C27.0485 45.7897 27.1016 45.6059 27.1482 45.4204C27.2373 45.0464 27.2786 44.6533 27.2963 44.2571C27.3139 43.8608 27.3095 43.4598 27.2931 43.058C27.2602 42.2548 27.1844 41.4468 27.1181 40.6342C27.0518 39.8217 26.9882 39.0036 27.0187 38.1679L27.0283 37.9098L27.2882 37.9396C27.4495 37.958 27.622 37.9711 27.7897 37.9804C27.9574 37.9897 28.1275 37.9944 28.2959 37.9945C28.4643 37.9947 28.6333 37.9897 28.8021 37.9804C28.9709 37.9711 29.1423 37.958 29.3036 37.9396L29.5636 37.9098L29.5731 38.1679C29.6038 39.0036 29.5383 39.8217 29.4737 40.6342C29.4091 41.4468 29.3319 42.2541 29.2989 43.058C29.2831 43.4598 29.2768 43.8613 29.2956 44.2571C29.3143 44.6529 29.3545 45.0464 29.4438 45.4204C29.491 45.6059 29.5433 45.7897 29.6203 45.9579L29.6337 45.9902L29.6474 46.0166C29.6572 46.0343 29.6643 46.0529 29.6758 46.0696L29.7073 46.1208L29.7436 46.1699C29.7961 46.2356 29.8551 46.2958 29.9197 46.3496C30.1894 46.5701 30.5559 46.7081 30.9293 46.8093C31.3059 46.9101 31.6996 46.9744 32.098 47.0298L32.6994 47.1086C32.8982 47.1344 33.097 47.1533 33.2957 47.1705C33.693 47.202 34.0905 47.2141 34.4816 47.1924C34.8726 47.1706 35.2587 47.1116 35.605 46.982C35.9515 46.8552 36.2432 46.6396 36.3916 46.3395C36.4665 46.1846 36.5099 46.0163 36.5195 45.8445C36.5315 45.6746 36.5074 45.5042 36.4487 45.3443C36.33 45.0223 36.0758 44.7415 35.7749 44.5161C35.622 44.402 35.4603 44.2999 35.2914 44.2109C35.2064 44.1661 35.1199 44.1241 35.032 44.0849C34.9459 44.0463 34.8517 44.0077 34.7714 43.9797L34.5824 43.9137L34.6099 43.7176C34.8391 42.0897 35.0482 40.4581 35.2372 38.8228C35.2818 38.4149 35.3317 38.0048 35.3667 37.5983L35.4174 36.9891L35.4302 36.8368L35.4365 36.684L35.4491 36.3781C35.4897 35.5632 35.4754 34.7452 35.4472 33.9284C35.3684 32.2946 35.1924 30.6648 34.9534 29.0429C34.7101 27.4206 34.4157 25.8077 34.1344 24.1829C34.1312 24.163 34.1355 24.1426 34.1466 24.1258C34.1576 24.109 34.1746 24.0969 34.1942 24.092C34.2137 24.0871 34.2344 24.0897 34.2521 24.0994C34.2698 24.109 34.2832 24.1249 34.2897 24.144H34.2899Z" fill="#371A45"/>
<path d="M23.8593 41.9694C21.8893 41.9694 21.2117 41.1115 21.172 41.0589C21.1334 41.0082 21.1166 40.9442 21.1252 40.881C21.1338 40.8178 21.1672 40.7607 21.2179 40.7221C21.2687 40.6835 21.3327 40.6667 21.3958 40.6753C21.459 40.6839 21.5162 40.7173 21.5547 40.768C21.5759 40.7943 22.8659 42.3273 27.2438 40.8296C27.2737 40.8194 27.3053 40.8152 27.3368 40.8172C27.3683 40.8192 27.3991 40.8273 27.4274 40.8412C27.4557 40.8551 27.481 40.8745 27.5019 40.8982C27.5228 40.9219 27.5388 40.9494 27.549 40.9793C27.5592 41.0092 27.5634 41.0407 27.5614 41.0722C27.5594 41.1037 27.5512 41.1345 27.5373 41.1629C27.5234 41.1912 27.5041 41.2165 27.4804 41.2374C27.4567 41.2583 27.4291 41.2742 27.3993 41.2845C25.9132 41.7929 24.7529 41.9694 23.8593 41.9694Z" fill="#371A45"/>
<path d="M32.9288 42.082C31.1648 42.082 29.2756 41.4598 29.1554 41.4195C29.0959 41.3986 29.0471 41.355 29.0194 41.2984C28.9917 41.2417 28.9874 41.1764 29.0074 41.1166C29.0274 41.0568 29.0701 41.0073 29.1263 40.9787C29.1825 40.9501 29.2477 40.9447 29.3078 40.9637C29.3504 40.9779 33.5668 42.3655 35.0284 41.0152C35.0754 40.9734 35.137 40.9518 35.1999 40.9548C35.2627 40.9579 35.3218 40.9856 35.3645 41.0318C35.4073 41.078 35.4301 41.1391 35.4283 41.202C35.4264 41.2649 35.4 41.3246 35.3546 41.3682C34.7739 41.9049 33.8694 42.082 32.9288 42.082Z" fill="#371A45"/>
<path d="M19.2404 19.5955C19.2646 19.5922 19.2879 19.5842 19.3089 19.5719C19.3299 19.5596 19.3484 19.5433 19.3631 19.5239C19.3778 19.5044 19.3886 19.4823 19.3947 19.4588C19.4009 19.4352 19.4024 19.4106 19.3991 19.3865L18.672 14.0921C18.6653 14.0434 18.6396 13.9993 18.6004 13.9695C18.5612 13.9398 18.5118 13.9268 18.463 13.9335C18.2098 13.9683 17.9659 14.0526 17.7452 14.1816C17.5246 14.3107 17.3315 14.4819 17.177 14.6856C17.0226 14.8892 16.9097 15.1213 16.8449 15.3686C16.7802 15.6159 16.7647 15.8735 16.7995 16.1267L17.0474 17.9321C17.0822 18.1853 17.1665 18.4292 17.2955 18.6499C17.4246 18.8705 17.5958 19.0636 17.7994 19.218C18.0031 19.3725 18.2351 19.4853 18.4824 19.5501C18.7296 19.6148 18.9872 19.6303 19.2404 19.5955Z" fill="white"/>
<path d="M18.9716 19.6567C18.4915 19.6555 18.028 19.4809 17.6666 19.1649C17.3051 18.849 17.0701 18.413 17.0047 17.9374L16.7567 16.132C16.7211 15.8731 16.7369 15.6098 16.8032 15.357C16.8695 15.1042 16.9849 14.867 17.1428 14.6588C17.3008 14.4506 17.4982 14.2756 17.7238 14.1438C17.9494 14.0119 18.1988 13.9258 18.4577 13.8903C18.5178 13.8821 18.5787 13.898 18.627 13.9347C18.6753 13.9713 18.7071 14.0257 18.7153 14.0858L19.4424 19.3801C19.4505 19.4402 19.4345 19.5011 19.3979 19.5494C19.3613 19.5977 19.307 19.6295 19.2469 19.6378C19.1557 19.6504 19.0637 19.6567 18.9716 19.6567ZM18.4885 13.9744C18.482 13.9744 18.4754 13.9749 18.4689 13.9758C17.9688 14.0446 17.5166 14.3091 17.2115 14.7112C16.9065 15.1133 16.7736 15.6201 16.8422 16.1202L17.0903 17.9256C17.1242 18.1733 17.2066 18.4119 17.3328 18.6278C17.459 18.8436 17.6264 19.0325 17.8256 19.1836C18.0248 19.3347 18.2518 19.4451 18.4937 19.5084C18.7356 19.5718 18.9876 19.5868 19.2353 19.5527C19.2726 19.5475 19.3065 19.5277 19.3293 19.4977C19.3521 19.4676 19.3621 19.4297 19.357 19.3923L18.63 14.0979C18.6252 14.0639 18.6084 14.0327 18.5825 14.0101C18.5567 13.9875 18.5235 13.975 18.4892 13.9749L18.4885 13.9744Z" fill="#371A45"/>
<g opacity="0.35">
<path opacity="0.35" d="M16.9312 17.0853L17.0473 17.9322C17.1177 18.4436 17.3883 18.9061 17.7996 19.2181C18.2108 19.53 18.7292 19.6659 19.2406 19.5959C19.2894 19.5891 19.3335 19.5632 19.3632 19.5239C19.393 19.4847 19.4059 19.4352 19.3992 19.3864L19.2064 17.9788C19.1964 18.0132 19.1768 18.0439 19.1498 18.0673C19.1227 18.0908 19.0895 18.1059 19.0541 18.111L18.9281 18.1278C18.5282 18.1828 18.1212 18.112 17.7633 17.9252C17.4055 17.7384 17.1147 17.4449 16.9312 17.0853Z" fill="#371A45"/>
</g>
<path d="M18.9711 19.8544C18.4435 19.853 17.9341 19.6609 17.5368 19.3136C17.1395 18.9663 16.8812 18.4871 16.8093 17.9644L16.5614 16.159C16.5223 15.8745 16.5397 15.5851 16.6124 15.3073C16.6852 15.0295 16.812 14.7688 16.9855 14.54C17.1591 14.3112 17.376 14.1188 17.6239 13.9739C17.8718 13.8289 18.1458 13.7342 18.4303 13.6952C18.4857 13.6875 18.5421 13.6908 18.5962 13.7049C18.6504 13.7191 18.7012 13.7437 18.7458 13.7776C18.7904 13.8114 18.8278 13.8537 18.856 13.902C18.8843 13.9503 18.9026 14.0037 18.9102 14.0592L19.6372 19.3535C19.6524 19.4654 19.6226 19.5787 19.5544 19.6686C19.4862 19.7586 19.385 19.8178 19.2732 19.8333C19.1731 19.8472 19.0722 19.8542 18.9711 19.8544ZM18.4415 14.18C18.0048 14.2543 17.6141 14.4956 17.3522 14.8528C17.0902 15.21 16.9774 15.6551 17.0377 16.0939L17.2856 17.8993C17.3458 18.3382 17.5744 18.7365 17.923 19.0098C18.2716 19.2832 18.7129 19.4102 19.1535 19.3641L18.4415 14.18Z" fill="#371A45"/>
<path d="M35.9386 11.5338C35.9145 11.5371 35.8912 11.5452 35.8702 11.5574C35.8491 11.5697 35.8307 11.586 35.816 11.6055C35.8012 11.6249 35.7905 11.647 35.7843 11.6706C35.7781 11.6941 35.7767 11.7187 35.78 11.7428L36.507 17.0372C36.5137 17.086 36.5395 17.13 36.5787 17.1598C36.6179 17.1895 36.6673 17.2025 36.716 17.1958C36.9693 17.161 37.2132 17.0767 37.4338 16.9477C37.6545 16.8187 37.8476 16.6474 38.002 16.4438C38.1565 16.2401 38.2693 16.008 38.3341 15.7607C38.3989 15.5135 38.4143 15.2559 38.3795 15.0026L38.1316 13.1974C38.0614 12.686 37.7909 12.2234 37.3796 11.9114C36.9684 11.5994 36.45 11.4636 35.9386 11.5338Z" fill="white"/>
<path d="M36.6903 17.2408C36.6351 17.2407 36.5818 17.2206 36.5402 17.1843C36.4986 17.148 36.4716 17.0978 36.4642 17.0431L35.7371 11.7487C35.729 11.6887 35.745 11.6278 35.7816 11.5795C35.8182 11.5312 35.8725 11.4994 35.9326 11.4911C36.1915 11.4555 36.4548 11.4713 36.7076 11.5376C36.9604 11.6038 37.1977 11.7192 37.4058 11.8772C37.614 12.0351 37.789 12.2326 37.9209 12.4582C38.0527 12.6838 38.1388 12.9332 38.1743 13.1921L38.4222 14.9975C38.4578 15.2564 38.442 15.5197 38.3757 15.7725C38.3095 16.0253 38.1941 16.2626 38.0361 16.4707C37.8781 16.6789 37.6807 16.8539 37.4551 16.9858C37.2295 17.1176 36.9801 17.2037 36.7212 17.2392C36.711 17.2405 36.7006 17.241 36.6903 17.2408ZM35.9444 11.5771C35.907 11.5823 35.8733 11.6021 35.8504 11.6321C35.8276 11.6621 35.8176 11.7 35.8227 11.7374L36.5497 17.0319C36.5522 17.0505 36.5583 17.0684 36.5677 17.0845C36.5771 17.1007 36.5897 17.1149 36.6046 17.1262C36.6195 17.1375 36.6365 17.1457 36.6546 17.1504C36.6728 17.1551 36.6916 17.1561 36.7102 17.1535C37.2102 17.0848 37.6625 16.8203 37.9675 16.4182C38.2725 16.016 38.4053 15.5092 38.3367 15.0091L38.0888 13.2037C38.0201 12.7037 37.7556 12.2513 37.3535 11.9463C36.9513 11.6412 36.4445 11.5084 35.9444 11.5771Z" fill="#371A45"/>
<g opacity="0.35">
<path opacity="0.35" d="M36.3049 15.5686L36.5067 17.0373C36.5135 17.0861 36.5394 17.1301 36.5786 17.1599C36.6179 17.1896 36.6674 17.2026 36.7162 17.1959C36.9694 17.1612 37.2133 17.077 37.434 16.948C37.6546 16.819 37.8477 16.6478 38.0021 16.4442C38.1566 16.2405 38.2694 16.0085 38.3341 15.7612C38.3989 15.5139 38.4142 15.2564 38.3794 15.0032L38.2749 14.2424C38.1682 14.601 37.9605 14.9213 37.6765 15.1649C37.3926 15.4085 37.0444 15.5652 36.6738 15.6161L36.4805 15.6426C36.4473 15.6471 36.4135 15.6426 36.3826 15.6296C36.3517 15.6166 36.3249 15.5955 36.3049 15.5686Z" fill="#371A45"/>
</g>
<path d="M36.6905 17.4379C36.5877 17.4377 36.4884 17.4003 36.4109 17.3327C36.3334 17.265 36.283 17.1717 36.2689 17.0698L35.5419 11.7755C35.5266 11.6636 35.5564 11.5503 35.6246 11.4604C35.6928 11.3705 35.7939 11.3112 35.9057 11.2957C36.1902 11.2567 36.4796 11.274 36.7573 11.3468C37.0351 11.4196 37.2959 11.5463 37.5246 11.7199C37.7534 11.8934 37.9458 12.1103 38.0907 12.3582C38.2357 12.6061 38.3304 12.8801 38.3695 13.1646L38.6175 14.97C38.6964 15.5445 38.5439 16.1268 38.1935 16.5888C37.8432 17.0509 37.3237 17.3549 36.7492 17.434C36.7298 17.4366 36.7101 17.438 36.6905 17.4379ZM36.0255 11.766L36.7376 16.9501C37.1743 16.8758 37.5649 16.6345 37.8269 16.2773C38.0889 15.9201 38.2017 15.475 38.1414 15.0362L37.8935 13.2308C37.8332 12.7919 37.6046 12.3936 37.256 12.1203C36.9074 11.8469 36.4661 11.7199 36.0255 11.766Z" fill="#371A45"/>
<g opacity="0.35">
<path opacity="0.35" d="M20.6784 23.6706C20.8394 23.8392 21.0058 24.0012 21.1777 24.1567C22.915 25.7306 25.1706 26.6105 27.5148 26.6288C29.859 26.6471 32.128 25.8025 33.8897 24.2559C33.9853 24.1719 34.079 24.0858 34.1707 23.9976C34.4397 23.7415 34.6933 23.4697 34.9301 23.1835C35.0771 23.0074 35.2167 22.8261 35.3488 22.6396C35.0476 22.3011 34.6782 22.0302 34.2649 21.8445C33.8515 21.6589 33.4036 21.5628 32.9505 21.5625H23.6998C22.3186 21.5625 21.133 22.4429 20.6784 23.6706Z" fill="#371A45"/>
</g>
<path d="M27.5884 24.6716C32.618 24.6716 36.6952 20.5943 36.6952 15.5648C36.6952 10.5352 32.618 6.45798 27.5884 6.45798C22.5589 6.45798 18.4816 10.5352 18.4816 15.5648C18.4816 20.5943 22.5589 24.6716 27.5884 24.6716Z" fill="white"/>
<path d="M27.57 24.7177C25.8143 24.7177 24.0947 24.2102 22.5898 23.2287C20.5423 21.8936 19.1381 19.841 18.6347 17.4494C18.1313 15.0577 18.5893 12.6141 19.9245 10.5666C21.2596 8.51912 23.3121 7.11454 25.7038 6.61101C30.6408 5.57151 35.5028 8.74309 36.5421 13.6802C37.5815 18.6174 34.4101 23.4793 29.4727 24.5186C28.8471 24.6506 28.2094 24.7173 27.57 24.7177ZM27.5906 6.50013C26.9625 6.50035 26.3361 6.56586 25.7216 6.69559C23.3524 7.19423 21.3194 8.58559 19.9969 10.6134C18.6744 12.6412 18.2205 15.0626 18.7191 17.4316C19.2178 19.8005 20.6091 21.8337 22.6369 23.1564C24.6647 24.4791 27.0863 24.9327 29.4553 24.434C34.3458 23.4046 37.4878 18.5884 36.4577 13.6979C35.5603 9.43499 31.7844 6.50013 27.5906 6.50013Z" fill="#371A45"/>
<g opacity="0.35">
<path opacity="0.35" d="M18.5027 16.1891C18.5312 16.6098 18.5891 17.0281 18.676 17.4407C19.7126 22.3621 24.5419 25.512 29.4636 24.4766C34.3853 23.4412 37.5349 18.6106 36.4995 13.6891C36.4697 13.5473 36.4365 13.4065 36.4005 13.2686C36.7129 17.7329 33.6936 21.8564 29.1905 22.8044C24.4112 23.81 19.7189 20.8679 18.5027 16.1891Z" fill="#371A45"/>
</g>
<path d="M27.5695 24.9151C25.7761 24.9151 24.0195 24.3966 22.4823 23.3938C20.3912 22.03 18.9562 19.9332 18.4419 17.4901C17.9277 15.0469 18.3956 12.5498 19.7596 10.4586C21.1235 8.3675 23.22 6.93252 25.6632 6.41812C30.7063 5.35673 35.6734 8.59619 36.7354 13.6397C37.7974 18.6831 34.5573 23.6499 29.514 24.7119C28.8746 24.8467 28.223 24.9148 27.5695 24.9151ZM27.5906 6.69737C26.9762 6.69756 26.3634 6.76164 25.7622 6.88857C23.4446 7.37682 21.4559 8.73747 20.162 10.7212C18.8681 12.7049 18.4243 15.0735 18.9121 17.3911C19.4003 19.7086 20.761 21.6975 22.7447 22.9912C24.7284 24.2849 27.0974 24.7289 29.4146 24.2411C34.1989 23.2342 37.2717 18.5228 36.2648 13.7386C35.3869 9.56781 31.6935 6.69737 27.5906 6.69737Z" fill="#371A45"/>
<path d="M18.7536 17.6635C19.0943 19.4127 19.9783 20.9261 21.2106 22.0806C22.1348 22.9461 25.471 24.1262 29.173 23.4397C32.6056 22.8031 35.3675 20.3684 35.8994 19.22C36.6081 17.6872 36.8601 15.9526 36.5196 14.2034C35.6181 9.57449 31.2675 8.4301 26.3609 9.38565C21.4543 10.3412 17.8521 13.0346 18.7536 17.6635Z" fill="#371A45"/>
<path d="M26.8849 23.8897C24.0232 23.8897 21.771 22.9342 21.0465 22.2554C19.7314 21.0237 18.8572 19.4519 18.5175 17.7088C18.0749 15.4369 18.6448 13.5077 20.2113 11.9746C21.5773 10.6379 23.6881 9.66073 26.3153 9.14901C28.9426 8.63729 31.2657 8.75085 33.0337 9.4774C35.061 10.3104 36.3131 11.8848 36.7555 14.1567C37.0951 15.8995 36.8745 17.6847 36.1177 19.32C35.5587 20.5276 32.7749 23.0155 29.2171 23.6752C28.4479 23.8179 27.6672 23.8897 26.8849 23.8897ZM18.9895 17.6173C19.3094 19.2604 20.1346 20.7429 21.3754 21.9049C22.1992 22.6767 25.4195 23.8913 29.1297 23.2032C32.4775 22.5823 35.1747 20.214 35.6817 19.1188C36.3958 17.5753 36.6042 15.8919 36.2842 14.2492C35.8747 12.1459 34.7195 10.6897 32.8507 9.92249C31.1698 9.2317 28.9417 9.12759 26.4069 9.62135C23.872 10.1151 21.8458 11.0477 20.5479 12.3187C19.1042 13.7313 18.5799 15.5144 18.9895 17.6173Z" fill="#371A45"/>
<g opacity="0.7">
<path opacity="0.7" d="M22.103 17.9747C22.704 17.7405 22.9292 16.8783 22.6061 16.0491C22.2829 15.2198 21.5337 14.7373 20.9328 14.9715C20.3318 15.2057 20.1066 16.0678 20.4297 16.8971C20.7529 17.7264 21.5021 18.2088 22.103 17.9747Z" fill="white"/>
</g>
<g opacity="0.7">
<path opacity="0.7" d="M23.8934 19.9804C24.1993 19.8092 24.2856 19.3814 24.0861 19.0249C23.8866 18.6684 23.4768 18.5181 23.1709 18.6893C22.865 18.8604 22.7788 19.2882 22.9783 19.6448C23.1778 20.0013 23.5875 20.1516 23.8934 19.9804Z" fill="white"/>
</g>
<g opacity="0.35">
<path opacity="0.35" d="M19.6403 13.0087C18.7561 14.2564 18.3918 15.804 18.7536 17.6631C19.0944 19.4126 19.9788 20.9259 21.2106 22.0805C22.135 22.946 25.4715 24.126 29.1735 23.4399C30.4808 23.1978 31.69 22.6948 32.7172 22.1012C28.1486 22.8477 24.0815 21.394 22.9354 20.3205C21.3708 18.8557 20.2488 16.9342 19.8169 14.7146C19.7051 14.1527 19.646 13.5816 19.6403 13.0087Z" fill="#111A28"/>
</g>
<path d="M18.7268 13.6959C18.6854 13.6959 18.6446 13.6851 18.6085 13.6647C18.5724 13.6443 18.5422 13.6149 18.5209 13.5793C18.4995 13.5438 18.4877 13.5033 18.4867 13.4619C18.4856 13.4204 18.4952 13.3794 18.5147 13.3428C19.6765 10.8034 22.4711 8.93278 26.1849 8.2097C29.9281 7.48079 33.2323 8.21174 35.2505 10.215L35.0826 10.3865L34.9311 10.5731L35.0826 10.3865L34.9309 10.573L34.912 10.5561C33.0085 8.66613 29.8613 7.98337 26.2767 8.68188C22.7122 9.37614 20.0407 11.152 18.9472 13.5541L18.936 13.5773L18.9125 13.6088C18.8899 13.6361 18.8615 13.6581 18.8294 13.6732C18.7973 13.6882 18.7623 13.696 18.7268 13.6959Z" fill="#371A45"/>
<g opacity="0.7">
<path opacity="0.7" d="M35.0614 17.3455C35.0614 17.3455 35.6057 12.5 32.7904 11.1595C29.975 9.81901 26.4357 10.5161 26.5628 10.727C26.5628 10.727 30.6673 10.9125 32.8045 13.7126C34.4526 15.8719 35.0614 17.3455 35.0614 17.3455Z" fill="white"/>
</g>
<path d="M29.2922 37.9425L29.6306 37.8556C29.7452 37.8241 29.8608 37.7934 29.9753 37.7584C30.2054 37.6926 30.4339 37.6191 30.6608 37.5379C30.8888 37.4591 31.1114 37.3673 31.3388 37.2785C31.5662 37.1897 31.7908 37.0909 32.0346 37.0059C31.8735 37.2043 31.6872 37.3808 31.4804 37.531C31.3785 37.6075 31.2728 37.6787 31.1637 37.7445C31.0534 37.8075 30.9432 37.8705 30.8285 37.9277C30.6012 38.0437 30.366 38.1436 30.1248 38.227C29.8807 38.309 29.6411 38.3775 29.3727 38.416C29.3122 38.4241 29.2508 38.4089 29.2011 38.3735C29.1514 38.338 29.117 38.285 29.105 38.2251C29.093 38.1652 29.1042 38.103 29.1363 38.0511C29.1685 37.9992 29.2193 37.9615 29.2782 37.9457L29.2922 37.9425Z" fill="#371A45"/>
<path d="M27.2233 38.416C26.9556 38.3777 26.7154 38.3092 26.4713 38.227C26.23 38.1437 25.9949 38.0437 25.7676 37.9277C25.6535 37.871 25.543 37.8069 25.4324 37.7445C25.3233 37.6787 25.2176 37.6075 25.1157 37.531C24.9089 37.3808 24.7225 37.2043 24.5614 37.0059C24.8052 37.0909 25.0279 37.1919 25.2573 37.2785C25.4866 37.3651 25.7072 37.4595 25.9353 37.5379C26.1634 37.6163 26.3906 37.6921 26.6207 37.7584C26.7352 37.7934 26.8509 37.8233 26.9655 37.8556L27.3038 37.9425L27.3171 37.946C27.377 37.961 27.4288 37.9984 27.4618 38.0506C27.4948 38.1028 27.5064 38.1657 27.4943 38.2263C27.4821 38.2868 27.4471 38.3404 27.3965 38.3758C27.3459 38.4112 27.2836 38.4257 27.2226 38.4164L27.2233 38.416Z" fill="#371A45"/>
<path d="M34.804 43.988C34.6641 43.9712 34.5091 43.9554 34.3603 43.9425C34.2114 43.9296 34.0593 43.9179 33.9083 43.9119C33.6065 43.8962 33.3047 43.8944 33.0029 43.9066C32.7017 43.9243 32.4017 43.9586 32.1043 44.0093C31.801 44.0681 31.5022 44.1476 31.2098 44.2473C31.4396 44.0254 31.7233 43.857 32.0225 43.7316C32.3238 43.6116 32.6407 43.5362 32.9598 43.4845C33.2789 43.4381 33.6011 43.4165 33.9235 43.4198C34.0843 43.4229 34.2451 43.4287 34.4055 43.4453C34.5682 43.4592 34.7301 43.4825 34.8901 43.5152C34.9505 43.5279 35.0038 43.5634 35.0388 43.6142C35.0738 43.6651 35.0878 43.7275 35.078 43.7885C35.0682 43.8495 35.0354 43.9043 34.9862 43.9417C34.9371 43.9791 34.8754 43.9961 34.814 43.9893L34.804 43.988Z" fill="#371A45"/>
<path d="M21.7001 43.5152C21.8602 43.4825 22.022 43.4592 22.1848 43.4453C22.3451 43.4295 22.5059 43.4229 22.6667 43.4198C22.9891 43.4165 23.3114 43.4381 23.6305 43.4845C23.9495 43.5362 24.2666 43.6116 24.5679 43.7316C24.8671 43.8576 25.1506 44.0254 25.3806 44.2473C25.0882 44.1476 24.7894 44.0681 24.4861 44.0093C24.1887 43.9586 23.8887 43.9243 23.5875 43.9066C23.2859 43.8943 22.9841 43.8961 22.682 43.9119C22.5311 43.9179 22.3802 43.9304 22.23 43.9425C22.0797 43.9546 21.9261 43.9712 21.7863 43.988L21.7771 43.9893C21.7155 43.9967 21.6535 43.9801 21.6039 43.9428C21.5543 43.9055 21.521 43.8505 21.5111 43.7892C21.5011 43.728 21.5152 43.6653 21.5505 43.6142C21.5857 43.5631 21.6393 43.5276 21.7001 43.5152Z" fill="#371A45"/>
<g opacity="0.35">
<path opacity="0.35" d="M31.914 37.0867C31.914 37.0867 29.9993 37.4094 28.5205 37.4094C27.0417 37.4094 24.675 37.0867 24.675 37.0867C24.675 37.0867 26.096 38.2282 28.3616 38.1789C30.6836 38.1285 31.914 37.0867 31.914 37.0867Z" fill="#371A45"/>
</g>
<g opacity="0.35">
<path opacity="0.35" d="M20.9274 33.252C21.2424 33.2735 21.5732 33.2861 21.905 33.2835C21.9502 33.2835 21.9942 33.2835 22.0395 33.2817C22.0849 33.2798 22.134 33.2798 22.1813 33.2772C22.2128 33.2772 22.2443 33.2754 22.2758 33.2741C22.3128 33.2722 22.35 33.2703 22.387 33.2678C22.4342 33.2653 22.4815 33.2621 22.5272 33.2583H22.5303C22.5776 33.2552 22.6248 33.2508 22.6705 33.2464C22.7007 33.2434 22.7314 33.2402 22.7617 33.2365C22.7875 33.2346 22.8132 33.2314 22.8384 33.2283C22.8785 33.2238 22.9189 33.2182 22.9578 33.2125C22.9967 33.2068 23.0319 33.2018 23.068 33.1955C23.0754 33.1951 23.0828 33.1941 23.0901 33.1923C23.1327 33.186 23.1748 33.1785 23.2161 33.1705C23.2573 33.1624 23.3003 33.1547 23.3411 33.1459L23.3512 33.144C23.3745 33.1383 23.3984 33.1339 23.4197 33.1282C23.4455 33.1226 23.4706 33.1169 23.4958 33.11C23.5096 33.1062 23.5229 33.103 23.5367 33.0986V33.6113C23.5367 34.3185 24.1163 34.8981 24.8241 34.8981H31.8513C32.5579 34.8981 33.1375 34.3185 33.1375 33.6113V33.2018C33.9516 33.325 34.8833 33.2917 35.6622 33.2176C35.6358 32.7693 35.6021 32.3246 35.5611 31.8835C35.5252 31.5013 35.4847 31.1237 35.4396 30.7506C34.7293 30.7733 33.8818 30.7771 33.1375 30.7124V29.7944C33.1365 29.4536 33.0007 29.1271 32.7597 28.8861C32.5187 28.6451 32.1921 28.5093 31.8513 28.5083H24.8251C24.484 28.5087 24.1569 28.6443 23.9156 28.8853C23.6743 29.1264 23.5384 29.4533 23.5377 29.7944V30.6546C23.3893 30.6764 23.2321 30.6941 23.0705 30.7086C22.4582 30.7639 21.7729 30.7727 21.15 30.7613C21.1065 31.1259 21.0671 31.4951 21.0317 31.869C20.989 32.3255 20.9539 32.7876 20.9274 33.252Z" fill="#371A45"/>
</g>
<path d="M31.892 32.2709C32.8877 32.6739 34.4287 32.5896 35.4792 32.4624C35.6287 32.4442 35.7731 32.3962 35.9038 32.3213C36.0346 32.2465 36.1489 32.1461 36.2403 32.0263C36.3316 31.9065 36.398 31.7696 36.4355 31.6237C36.473 31.4778 36.481 31.3259 36.4588 31.1769C36.4181 30.9002 36.2761 30.6486 36.0604 30.4708C35.8447 30.2929 35.5706 30.2016 35.2913 30.2144C34.3086 30.2604 32.8343 30.2819 31.9013 30.0748" fill="white"/>
<g opacity="0.35">
<path opacity="0.35" d="M31.8918 32.2708C32.8877 32.6736 34.4285 32.5894 35.479 32.4624C35.6643 32.4398 35.8411 32.3716 35.9935 32.2639C36.146 32.1562 36.2694 32.0124 36.3526 31.8453C36.4358 31.6782 36.4763 31.4931 36.4704 31.3065C36.4645 31.1199 36.4124 30.9377 36.3188 30.7762C36.2317 30.9277 36.1104 31.0566 35.9646 31.1529C35.8188 31.2492 35.6525 31.31 35.479 31.3306C34.4304 31.4577 32.8927 31.542 31.8969 31.1409L31.8918 32.2708Z" fill="#371A45"/>
</g>
<path d="M33.871 32.8081C33.1291 32.8081 32.3826 32.7293 31.8017 32.4939C31.1076 32.2129 31.0873 31.1079 31.292 30.4487C31.4903 29.8113 31.8206 29.8113 31.9535 29.8406C32.8452 30.0384 34.2549 30.0227 35.2804 29.9746C35.6345 29.958 35.9812 30.0793 36.2476 30.3131C36.514 30.5468 36.6794 30.8748 36.709 31.228C36.7385 31.5812 36.6299 31.9321 36.406 32.2069C36.1821 32.4817 35.8604 32.6589 35.5085 32.7013C35.0183 32.7608 34.4461 32.8081 33.871 32.8081ZM31.9821 32.0483C32.9181 32.4272 34.3849 32.353 35.4504 32.2241C35.6782 32.1959 35.8863 32.0807 36.031 31.9025C36.1757 31.7243 36.2459 31.497 36.2268 31.2683C36.2077 31.0395 36.1007 30.8271 35.9284 30.6754C35.7561 30.5237 35.5318 30.4446 35.3025 30.4547C34.2606 30.5037 32.8274 30.5188 31.8833 30.3172C31.7888 30.4126 31.6233 30.874 31.6678 31.3953C31.6819 31.5591 31.7406 31.9506 31.9828 32.0483H31.9821Z" fill="#371A45"/>
<path d="M20.6885 32.4624C21.1813 32.5221 21.783 32.5727 22.3852 32.5669C22.4267 32.5669 22.4674 32.5669 22.509 32.565C22.5506 32.5631 22.5964 32.5631 22.6398 32.5612C22.6694 32.5612 22.6982 32.5593 22.7265 32.558L22.8291 32.5524C22.8724 32.5499 22.9157 32.5467 22.9585 32.5436H22.9617C23.0044 32.5404 23.0478 32.5366 23.0905 32.5322C23.1189 32.5297 23.1471 32.5265 23.1748 32.5234C23.1987 32.5215 23.222 32.5184 23.2458 32.5158C23.2828 32.5114 23.32 32.5064 23.3561 32.5013C23.3921 32.4963 23.4247 32.4914 23.458 32.4856C23.4648 32.4852 23.4715 32.4842 23.4781 32.4824C23.5177 32.4768 23.5569 32.4698 23.595 32.4623C23.6331 32.4547 23.6723 32.4478 23.7101 32.4396L23.7194 32.4377C23.7408 32.4327 23.7623 32.4283 23.7824 32.4232C23.8056 32.4183 23.8297 32.4127 23.8522 32.4064C23.9232 32.3887 23.993 32.3686 24.0609 32.3473C24.0973 32.336 24.1338 32.3234 24.1696 32.3108C24.2053 32.2982 24.2406 32.2843 24.2746 32.2706L24.2702 31.2163L24.2652 30.0746C24.0262 30.1281 23.7515 30.1658 23.4592 30.1922C22.6087 30.2696 21.6066 30.2482 20.8762 30.2141C20.8586 30.2141 20.8409 30.2129 20.8228 30.2129C20.5357 30.2138 20.2598 30.3241 20.0511 30.5213C19.8425 30.7186 19.7168 30.9878 19.6996 31.2744C19.6825 31.561 19.7752 31.8434 19.9589 32.0641C20.1425 32.2847 20.4034 32.4271 20.6883 32.4623L20.6885 32.4624Z" fill="white"/>
<g opacity="0.35">
<path opacity="0.35" d="M20.6885 32.4623C21.1813 32.522 21.783 32.5726 22.3853 32.5668C22.4268 32.5668 22.4676 32.5668 22.5091 32.5649C22.5505 32.563 22.5965 32.563 22.6399 32.5611C22.6694 32.5611 22.6984 32.5592 22.7267 32.5579L22.8291 32.5523C22.8726 32.5498 22.9159 32.5466 22.9586 32.5435H22.9617C23.0045 32.5403 23.0479 32.5365 23.0907 32.5321C23.1189 32.5296 23.1472 32.5264 23.1748 32.5233C23.1987 32.5214 23.2221 32.5183 23.2458 32.5157C23.283 32.5113 23.32 32.5063 23.3561 32.5014C23.3922 32.4965 23.4246 32.4913 23.458 32.4857C23.4647 32.4853 23.4714 32.4842 23.478 32.4825C23.5177 32.4768 23.5567 32.4699 23.595 32.4623C23.6333 32.4548 23.6723 32.4479 23.71 32.4397L23.7194 32.4378C23.7409 32.4327 23.7621 32.4285 23.7824 32.4234C23.8058 32.4184 23.8297 32.4127 23.8522 32.4064C23.9232 32.3888 23.993 32.3686 24.0609 32.3474C24.0974 32.336 24.1338 32.3234 24.1697 32.3108C24.2056 32.2982 24.2408 32.2844 24.2748 32.2707L24.2704 31.2641C24.2376 31.2773 24.2042 31.2905 24.1697 31.3025C24.1352 31.3145 24.0974 31.3276 24.0609 31.3389C23.993 31.3603 23.9232 31.3805 23.8522 31.3981C23.8291 31.4043 23.805 31.4099 23.7824 31.415C23.7617 31.42 23.7404 31.4244 23.7194 31.4295L23.71 31.4314C23.6723 31.4395 23.6339 31.4471 23.595 31.454C23.5561 31.461 23.5177 31.4685 23.478 31.474C23.4714 31.4757 23.4647 31.4768 23.458 31.4772C23.4246 31.4829 23.3907 31.4879 23.3561 31.4929C23.3214 31.498 23.2832 31.503 23.2458 31.5074C23.2227 31.5099 23.1986 31.5131 23.1748 31.515C23.1472 31.5181 23.1189 31.5213 23.0907 31.5238C23.0479 31.5282 23.0045 31.532 22.9617 31.5351H22.9586C22.9159 31.5383 22.8726 31.5414 22.8291 31.544L22.7267 31.5495C22.6984 31.5507 22.6694 31.552 22.6399 31.5526C22.5965 31.5545 22.5525 31.5558 22.5091 31.5564C22.4656 31.557 22.4268 31.5583 22.3853 31.5583C21.783 31.564 21.1813 31.5137 20.6885 31.454C20.5033 31.4318 20.3265 31.3638 20.1741 31.2562C20.0217 31.1487 19.8984 31.0049 19.8153 30.8379C19.7348 30.9996 19.6943 31.1783 19.6971 31.3589C19.7 31.5396 19.7461 31.7169 19.8316 31.876C19.9172 32.0352 20.0396 32.1715 20.1887 32.2735C20.3378 32.3755 20.5092 32.4403 20.6885 32.4623Z" fill="#371A45"/>
</g>
<path d="M22.2966 32.8081C21.7214 32.8081 21.1495 32.7608 20.6595 32.7013C20.3076 32.6589 19.9859 32.4817 19.762 32.2069C19.5381 31.9321 19.4295 31.5812 19.4591 31.228C19.4886 30.8748 19.654 30.5468 19.9204 30.3131C20.1868 30.0793 20.5335 29.958 20.8876 29.9746C21.9131 30.0219 23.3227 30.0376 24.2143 29.8406C24.3471 29.8113 24.6772 29.8113 24.8758 30.4487C25.0806 31.1074 25.0604 32.2127 24.3661 32.4939C23.7851 32.7293 23.0384 32.8081 22.2966 32.8081ZM20.8227 30.4538C20.5967 30.4544 20.3794 30.5412 20.2151 30.6965C20.0509 30.8517 19.9519 31.0637 19.9385 31.2893C19.925 31.515 19.9981 31.7372 20.1427 31.9109C20.2874 32.0845 20.4928 32.1965 20.7172 32.2241C21.7828 32.353 23.2496 32.4272 24.1855 32.0483L24.2757 32.2711L24.1855 32.0483C24.4271 31.9505 24.4858 31.5591 24.5005 31.3953C24.5452 30.8738 24.3803 30.4126 24.2852 30.3172C23.341 30.5186 21.908 30.5035 20.8659 30.4547C20.8509 30.4539 20.8367 30.4536 20.8227 30.4536V30.4538Z" fill="#371A45"/>
<path d="M23.8908 29.3493V32.8683C23.8917 33.1829 24.0171 33.4844 24.2396 33.7069C24.4621 33.9293 24.7635 34.0547 25.0782 34.0557H31.559C31.8735 34.0546 32.1748 33.9291 32.3971 33.7066C32.6194 33.4842 32.7447 33.1828 32.7456 32.8683V29.3493C32.7446 29.0349 32.6193 28.7336 32.397 28.5113C32.1746 28.289 31.8734 28.1638 31.559 28.1628H25.0785C24.7639 28.1635 24.4624 28.2887 24.2399 28.511C24.0174 28.7334 23.892 29.0347 23.8911 29.3493H23.8908Z" fill="white"/>
<g opacity="0.43">
<path opacity="0.43" d="M23.891 29.3494V32.8687C23.892 33.1833 24.0175 33.4846 24.24 33.707C24.4625 33.9294 24.7639 34.0546 25.0785 34.0555H31.5593C31.8737 34.0544 32.1748 33.9289 32.3971 33.7066C32.6193 33.4843 32.7446 33.1831 32.7456 32.8687V29.3494C32.7447 29.035 32.6194 28.7338 32.3971 28.5116C32.1749 28.2893 31.8737 28.164 31.5593 28.1631H25.0785C24.7639 28.1635 24.4623 28.2886 24.2397 28.511C24.0172 28.7333 23.8918 29.0348 23.891 29.3494Z" fill="white"/>
</g>
<g opacity="0.35">
<path opacity="0.35" d="M23.891 30.9811V32.869C23.892 33.1836 24.0175 33.485 24.24 33.7073C24.4625 33.9297 24.7639 34.055 25.0785 34.0558H31.5593C31.8737 34.0547 32.1748 33.9293 32.3971 33.7069C32.6193 33.4846 32.7446 33.1834 32.7456 32.869V30.1742C31.4763 30.679 32.0766 32.9073 29.5707 32.7602C27.5376 32.6406 27.2341 31.0022 27.2341 31.0022H24.815C24.815 31.0022 24.8216 32.0574 24.4269 32.0651C24.1178 32.0702 23.9864 31.5994 23.891 30.9811Z" fill="#371A45"/>
</g>
<path d="M31.5588 34.2957H25.0785C24.7002 34.2953 24.3375 34.1448 24.07 33.8773C23.8024 33.6098 23.652 33.247 23.6516 32.8687V29.3492C23.652 28.9709 23.8024 28.6082 24.0699 28.3406C24.3375 28.0731 24.7002 27.9226 25.0785 27.9221H31.5596C31.938 27.9226 32.3007 28.0731 32.5682 28.3406C32.8357 28.6082 32.9862 28.9709 32.9866 29.3492V32.8687C32.9862 33.2472 32.8356 33.61 32.5679 33.8775C32.3002 34.1451 31.9373 34.2955 31.5588 34.2957ZM25.0785 28.4028C24.8276 28.4031 24.5871 28.5029 24.4097 28.6803C24.2323 28.8578 24.1325 29.0983 24.1322 29.3492V32.8687C24.1323 33.1198 24.232 33.3605 24.4094 33.5381C24.5868 33.7157 24.8275 33.8156 25.0785 33.8159H31.5596C31.8105 33.8156 32.0511 33.7158 32.2285 33.5384C32.4059 33.361 32.5058 33.1204 32.506 32.8695V29.3492C32.5058 29.0983 32.4059 28.8578 32.2285 28.6803C32.0511 28.5029 31.8105 28.4031 31.5596 28.4028H25.0785Z" fill="#371A45"/>
<path d="M26.746 31.8326C27.1457 31.4329 27.1457 30.7849 26.746 30.3852C26.3464 29.9855 25.6984 29.9855 25.2987 30.3852C24.899 30.7849 24.899 31.4329 25.2987 31.8326C25.6984 32.2322 26.3464 32.2322 26.746 31.8326Z" fill="#22A7F0"/>
<path d="M24.9988 31.1094C24.9986 31.1641 25.0031 31.2186 25.012 31.2725C25.0512 31.0327 25.1743 30.8147 25.3594 30.6574C25.5445 30.5001 25.7795 30.4137 26.0224 30.4137C26.2653 30.4137 26.5003 30.5001 26.6854 30.6574C26.8705 30.8147 26.9936 31.0327 27.0327 31.2725C27.0417 31.2186 27.0461 31.1641 27.046 31.1094C27.046 30.8379 26.9381 30.5775 26.7461 30.3855C26.5541 30.1936 26.2937 30.0857 26.0222 30.0857C25.7507 30.0857 25.4903 30.1936 25.2983 30.3855C25.1063 30.5775 24.9985 30.8379 24.9985 31.1094H24.9988Z" fill="white"/>
<g opacity="0.35">
<path opacity="0.35" d="M24.9998 31.1088C24.9953 31.246 25.0184 31.3827 25.0678 31.5108C25.1172 31.6388 25.1918 31.7557 25.2873 31.8543C25.3827 31.953 25.4971 32.0314 25.6234 32.085C25.7498 32.1385 25.8857 32.1661 26.023 32.1661C26.1602 32.1661 26.2961 32.1385 26.4225 32.085C26.5489 32.0314 26.6632 31.953 26.7586 31.8543C26.8541 31.7557 26.9287 31.6388 26.9781 31.5108C27.0275 31.3827 27.0507 31.246 27.0462 31.1088C27.0464 30.982 27.0226 30.8564 26.9759 30.7385C26.9012 30.9305 26.7703 31.0954 26.6002 31.2117C26.4302 31.328 26.229 31.3902 26.023 31.3902C25.817 31.3902 25.6159 31.328 25.4458 31.2117C25.2758 31.0954 25.1449 30.9305 25.0702 30.7385C25.0235 30.8564 24.9996 30.982 24.9998 31.1088Z" fill="#371A45"/>
</g>
<path d="M26.0223 32.3126C25.7842 32.3126 25.5514 32.242 25.3535 32.1097C25.1555 31.9774 25.0012 31.7894 24.9101 31.5694C24.819 31.3495 24.7952 31.1074 24.8416 30.8739C24.8881 30.6404 25.0027 30.4259 25.1711 30.2575C25.3395 30.0892 25.554 29.9746 25.7875 29.9281C26.021 29.8817 26.2631 29.9056 26.483 29.9967C26.703 30.0878 26.891 30.2422 27.0232 30.4401C27.1555 30.6381 27.2261 30.8709 27.226 31.109C27.2257 31.4281 27.0987 31.734 26.873 31.9597C26.6474 32.1853 26.3414 32.3122 26.0223 32.3126ZM26.0223 30.2651C25.8555 30.2651 25.6924 30.3145 25.5538 30.4072C25.4151 30.4998 25.307 30.6315 25.2432 30.7856C25.1794 30.9397 25.1627 31.1093 25.1952 31.2728C25.2277 31.4364 25.3081 31.5867 25.426 31.7046C25.5439 31.8225 25.6942 31.9028 25.8577 31.9354C26.0213 31.9679 26.1909 31.9512 26.345 31.8874C26.499 31.8236 26.6307 31.7155 26.7234 31.5768C26.8161 31.4381 26.8655 31.2751 26.8655 31.1083C26.8651 30.8849 26.7762 30.6707 26.6181 30.5127C26.46 30.3547 26.2457 30.2659 26.0223 30.2657V30.2651Z" fill="#371A45"/>
<path d="M28.9226 34.2957C28.8589 34.2957 28.7978 34.2704 28.7527 34.2253C28.7076 34.1803 28.6823 34.1192 28.6823 34.0555V32.0124C28.6827 31.8304 28.7252 31.6509 28.8065 31.488C28.8877 31.3251 29.0055 31.1832 29.1507 31.0734L29.7019 30.6587C29.7877 30.5938 29.8574 30.51 29.9054 30.4137C29.9534 30.3174 29.9785 30.2114 29.9788 30.1038V28.1625C29.9788 28.0987 30.0041 28.0376 30.0492 27.9925C30.0943 27.9474 30.1554 27.9221 30.2191 27.9221C30.2829 27.9221 30.344 27.9474 30.3891 27.9925C30.4342 28.0376 30.4595 28.0987 30.4595 28.1625V30.1038C30.459 30.2858 30.4165 30.4653 30.3353 30.6282C30.254 30.7911 30.1362 30.933 29.9911 31.0428L29.4398 31.4575C29.354 31.5224 29.2844 31.6062 29.2363 31.7025C29.1883 31.7988 29.1632 31.9048 29.1629 32.0124V34.0555C29.1629 34.1192 29.1376 34.1803 29.0925 34.2253C29.0474 34.2704 28.9863 34.2957 28.9226 34.2957Z" fill="#371A45"/>
<path d="M36.8094 23.5064C37.3764 25.8604 39.7515 25.641 40.4051 25.4819C41.7686 25.1499 42.2364 23.865 42.2364 23.865L41.1367 22.4116L40.6477 21.6255L40.0637 21.4499C39.6047 20.6134 38.6271 19.6648 38.0658 19.9995C38.0658 19.9992 36.3204 21.4773 36.8094 23.5064Z" fill="white"/>
<g opacity="0.35">
<path opacity="0.35" d="M42.439 23.105C42.439 23.8384 41.4782 24.5039 39.4099 24.2627C38.6815 24.1778 38.082 23.6682 38.082 22.9347C38.082 22.5825 38.2219 22.2447 38.4709 21.9957C38.72 21.7466 39.0577 21.6067 39.4099 21.6067C40.1434 21.6067 42.439 22.3715 42.439 23.105Z" fill="#371A45"/>
</g>
<path d="M42.3659 20.7315C41.823 21.2765 41.3475 21.6783 41.3475 21.6783L39.8237 23.2375L38.7952 20.726C38.7952 20.726 38.7892 20.2192 38.8287 19.5482C38.9058 18.2199 39.1587 16.2494 39.9796 16.3003C41.456 16.3921 40.4792 20.2801 40.4792 20.2801C40.4792 20.2801 42.836 17.1379 43.7799 18.0304C44.3324 18.5528 43.2578 19.8357 42.3659 20.7315Z" fill="white"/>
<g opacity="0.35">
<path opacity="0.35" d="M42.3659 20.7317C41.823 21.2766 41.3475 21.6784 41.3475 21.6784L39.8237 23.2377L38.7952 20.7262C38.7952 20.7262 38.7892 20.2193 38.8287 19.5484C39.2244 19.8612 39.9627 20.429 40.2207 20.7671C40.6653 21.3497 41.77 20.6165 42.3659 20.7317Z" fill="#371A45"/>
</g>
<path d="M39.8235 23.4783C39.7758 23.4782 39.7293 23.4639 39.6897 23.4373C39.6501 23.4108 39.6193 23.3731 39.6011 23.329L38.5728 20.8169C38.5613 20.7888 38.5552 20.7588 38.5548 20.7285C38.5507 20.3617 38.5399 17.1197 39.4211 16.2829C39.5879 16.1245 39.7874 16.0479 39.9953 16.0605C40.2829 16.0785 40.5261 16.2127 40.6987 16.4488C41.1703 17.0936 41.06 18.444 40.908 19.3783C41.538 18.6613 42.5172 17.7007 43.2841 17.6354C43.54 17.6135 43.7697 17.6902 43.9456 17.857C44.0998 18.0028 44.1779 18.2008 44.1714 18.4297C44.1391 19.5896 41.8204 21.5934 41.5119 21.855L39.9955 23.4052C39.9731 23.4283 39.9464 23.4466 39.9169 23.4592C39.8873 23.4717 39.8556 23.4782 39.8235 23.4783ZM39.0352 20.6777L39.9074 22.8083L41.1756 21.51C41.181 21.5047 41.1867 21.4995 41.1925 21.4943C42.1477 20.6866 43.6707 19.1365 43.6907 18.4153C43.6941 18.2958 43.652 18.2402 43.615 18.2054C43.5378 18.1323 43.4452 18.103 43.3242 18.1134C42.5196 18.1818 41.1363 19.8049 40.6712 20.4247C40.6378 20.4691 40.5902 20.5005 40.5363 20.5137C40.4824 20.5269 40.4256 20.5211 40.3756 20.4972C40.3255 20.4733 40.2852 20.4329 40.2616 20.3827C40.238 20.3325 40.2324 20.2757 40.2459 20.2218C40.4318 19.4816 40.8057 17.4102 40.3099 16.7321C40.2207 16.6102 40.1111 16.5493 39.9648 16.5401C39.9175 16.5371 39.8438 16.5434 39.7515 16.6312C39.1432 17.2095 39.0286 19.704 39.0352 20.6777Z" fill="#371A45"/>
<path d="M42.5152 23.5932C42.1529 24.1811 40.6184 24.4555 40.0486 24.0137C39.5638 23.6374 40.0486 23.158 40.1859 23.0361C40.2073 23.0167 40.2207 23.0066 40.2207 23.0066C40.2207 23.0066 39.6309 22.8258 39.5277 22.3294C39.5207 22.2961 39.5163 22.2623 39.5143 22.2283C39.4781 21.6551 41.0087 21.1604 41.7036 21.2723C42.2233 21.3559 42.4213 21.5674 42.4701 21.7937C42.5224 22.0349 42.4052 22.2925 42.327 22.4305C42.2907 22.4935 42.264 22.531 42.264 22.531C42.264 22.531 42.8051 23.1226 42.5152 23.5932Z" fill="white"/>
<g opacity="0.35">
<path opacity="0.35" d="M42.3271 22.4302C41.9167 22.6405 41.0937 22.998 40.1851 23.0361C40.2065 23.0167 40.2199 23.0067 40.2199 23.0067C40.2199 23.0067 39.6301 22.8259 39.5269 22.3294C40.0712 22.4486 41.5744 22.6759 42.4695 21.7939C42.5226 22.035 42.4054 22.2922 42.3271 22.4302Z" fill="#371A45"/>
</g>
<g opacity="0.35">
<path opacity="0.35" d="M42.5152 23.5931C42.1529 24.1811 40.6184 24.4554 40.0485 24.0136C39.8102 23.8287 39.8062 23.6199 39.8799 23.4391C39.9083 23.4703 39.9395 23.499 39.9729 23.5248C40.542 23.9667 42.0773 23.6922 42.4389 23.105C42.4747 23.0476 42.4997 22.9841 42.5125 22.9176C42.6029 23.119 42.6525 23.3695 42.5152 23.5931Z" fill="#371A45"/>
</g>
<path d="M40.883 24.4728C40.4774 24.4728 40.1289 24.38 39.9016 24.2038C39.6507 24.0091 39.5978 23.7886 39.5975 23.6379C39.5975 23.4199 39.7038 23.2241 39.8167 23.0781C39.5805 22.9302 39.3017 22.6675 39.2747 22.2434C39.2658 22.1045 39.3062 21.8923 39.5496 21.6713C40.0622 21.2056 41.1685 20.9421 41.742 21.0342C42.229 21.113 42.5399 21.3078 42.6657 21.6145C42.8053 21.954 42.6657 22.3124 42.5555 22.5141C42.7276 22.7571 43.0017 23.2614 42.7196 23.7193C42.5167 24.0488 42.0326 24.3115 41.4246 24.4219C41.246 24.455 41.0647 24.472 40.883 24.4728ZM41.4796 21.496C40.9887 21.496 40.2139 21.7175 39.8731 22.0276C39.7943 22.0986 39.7517 22.1664 39.7546 22.2133C39.7802 22.6111 40.2872 22.7759 40.2924 22.7775C40.3341 22.7906 40.3715 22.8149 40.4005 22.8477C40.4295 22.8806 40.449 22.9207 40.4568 22.9637C40.4647 23.0068 40.4607 23.0512 40.4453 23.0922C40.4298 23.1332 40.4034 23.1691 40.3691 23.1962C40.2746 23.2714 40.0775 23.4797 40.0785 23.6372C40.0785 23.6782 40.0911 23.742 40.1964 23.8237C40.4043 23.985 40.8636 24.0352 41.3394 23.9497C41.794 23.8672 42.1844 23.6736 42.3109 23.4681C42.4986 23.1633 42.0904 22.6979 42.086 22.6933C42.0488 22.6523 42.0269 22.5996 42.024 22.5442C42.0211 22.4889 42.0375 22.4342 42.0702 22.3895C42.1351 22.2993 42.3038 21.9958 42.2216 21.797C42.1488 21.6216 41.8795 21.5438 41.6665 21.5096C41.6047 21.5 41.5422 21.4954 41.4796 21.4957V21.496Z" fill="#371A45"/>
<path d="M40.4133 23.2525C40.3453 23.2525 40.2763 23.2506 40.2067 23.2464C40.1747 23.2452 40.1432 23.2377 40.1142 23.2243C40.0851 23.2108 40.059 23.1917 40.0375 23.168C40.0159 23.1443 39.9993 23.1165 39.9886 23.0864C39.9779 23.0562 39.9734 23.0241 39.9753 22.9922C39.9771 22.9602 39.9854 22.9289 39.9995 22.9002C40.0136 22.8714 40.0334 22.8458 40.0575 22.8248C40.0817 22.8038 40.1098 22.7878 40.1403 22.7778C40.1707 22.7678 40.2028 22.764 40.2347 22.7666C41.2675 22.8271 42.1329 22.3286 42.1414 22.3236C42.1962 22.2927 42.261 22.2846 42.3218 22.301C42.3825 22.3173 42.4344 22.3568 42.4664 22.411C42.4983 22.4652 42.5077 22.5298 42.4926 22.5909C42.4774 22.6519 42.439 22.7046 42.3854 22.7377C42.3477 22.7594 41.4998 23.2525 40.4133 23.2525Z" fill="#371A45"/>
<path d="M38.0659 19.9994C38.8111 19.5551 40.2881 21.3696 40.3152 22.1847C40.336 22.8063 39.5995 23.3251 38.7194 22.5312C37.8276 21.7279 36.8957 20.6972 38.0659 19.9994Z" fill="white"/>
<path d="M42.2364 23.8654C42.2364 23.8654 41.7685 25.1498 40.4055 25.4818C39.7515 25.6412 37.3767 25.8606 36.8094 23.5063C36.3204 21.4773 38.066 19.9994 38.066 19.9994C38.8111 19.5551 40.2881 21.3696 40.3152 22.1847C40.336 22.8063 39.4118 23.159 38.6378 22.0648C38.6378 22.0648 39.0456 23.0586 38.175 23.7368L40.2264 24.9181L41.7778 24.6152L42.2364 23.8654Z" fill="white"/>
<path d="M38.5803 23.2603L38.5394 23.237C38.5709 23.2127 38.5983 23.1898 38.6251 23.1646C38.6117 23.1961 38.597 23.2282 38.5803 23.2603Z" fill="white"/>
<g opacity="0.35">
<path opacity="0.35" d="M38.6708 21.8805C38.5616 21.4787 39.7155 22.5015 40.3159 22.2387C40.287 22.7427 39.6229 23.0367 38.9587 22.4322C38.9184 22.1087 38.6708 21.8805 38.6708 21.8805Z" fill="#371A45"/>
</g>
<g opacity="0.35">
<path opacity="0.35" d="M41.5163 24.6664L41.7781 24.6156C41.4888 24.9597 41.0456 25.3259 40.4055 25.4818C39.7514 25.6412 37.3764 25.8598 36.8093 23.506C36.4766 22.1255 37.1789 20.9992 37.6617 20.4215C37.2687 21.0482 36.9198 21.9534 37.1734 23.0066C37.7404 25.3607 40.1154 25.1418 40.7696 24.9824C41.034 24.9184 41.2863 24.8117 41.5163 24.6664Z" fill="#371A45"/>
</g>
<path d="M42.2359 23.8664C42.2016 23.954 42.1613 24.0392 42.1155 24.1214L42.0753 24.1294L42.2359 23.8664Z" fill="white"/>
<path d="M42.1422 24.1161C42.1208 24.1416 42.0988 24.1677 42.0753 24.1931C42.0895 24.1683 42.1029 24.1443 42.1155 24.1214L42.1422 24.1161Z" fill="white"/>
<path d="M37.7624 25.1377C37.6304 25.1098 37.5052 25.0563 37.3937 24.9802C37.2818 24.9067 37.1814 24.817 37.0957 24.714C36.9238 24.511 36.7911 24.2777 36.7043 24.0261C36.5368 23.5345 36.4476 23.0096 36.4968 22.4878C36.5424 21.9669 36.7143 21.4669 36.9611 21.0194C37.0844 20.7961 37.2256 20.5832 37.3835 20.3828C37.4619 20.2826 37.5443 20.1856 37.6306 20.0916C37.6741 20.0443 37.7179 19.9985 37.7637 19.9531C37.8095 19.9078 37.8535 19.8653 37.9102 19.816C37.9188 19.8085 37.928 19.8017 37.9377 19.7956L37.9423 19.793C38.0973 19.6996 38.2856 19.6769 38.4409 19.6985C38.5865 19.7201 38.7273 19.7664 38.8572 19.8355C38.9758 19.897 39.0885 19.9693 39.1938 20.0514C39.296 20.1293 39.3932 20.2135 39.485 20.3034C39.6658 20.4793 39.8314 20.67 39.98 20.8737C40.1307 21.0783 40.2618 21.2966 40.3716 21.5258C40.4287 21.6465 40.4753 21.772 40.5108 21.9008C40.53 21.971 40.5432 22.0428 40.55 22.1153L40.5546 22.1731C40.5546 22.1934 40.5533 22.2148 40.5522 22.2361C40.5484 22.2778 40.5503 22.3197 40.5392 22.3612C40.5114 22.5297 40.4146 22.6877 40.2872 22.7995C40.1619 22.91 40.0061 22.9801 39.8403 23.0004C39.8014 23.0074 39.7618 23.0102 39.7222 23.0088C39.6833 23.0104 39.6444 23.0092 39.6057 23.0052C39.5305 22.9935 39.4534 22.9847 39.3852 22.9589C39.35 22.9474 39.3144 22.9367 39.2801 22.9239L39.1831 22.8776C39.1194 22.8474 39.0585 22.8115 39.0012 22.7705C38.7717 22.613 38.5947 22.4125 38.4411 22.2035L38.8597 21.9735C38.8772 22.0187 38.8922 22.0647 38.9048 22.1114C38.9169 22.1547 38.927 22.198 38.9353 22.2415C38.9525 22.3284 38.964 22.4164 38.9697 22.5048C38.9794 22.6853 38.966 22.8663 38.9298 23.0434C38.9141 23.1342 38.8793 23.2211 38.8435 23.3062C38.8219 23.3471 38.7977 23.387 38.7747 23.4268C38.7517 23.4666 38.7188 23.5002 38.6907 23.5371C38.5734 23.68 38.4069 23.774 38.2239 23.8007C38.2119 23.8023 38.1998 23.8016 38.1881 23.7985C38.1764 23.7955 38.1654 23.7901 38.1558 23.7828C38.1462 23.7755 38.1381 23.7663 38.1321 23.7559C38.126 23.7455 38.122 23.7339 38.1204 23.722C38.1189 23.7108 38.1194 23.6995 38.1218 23.6886L38.1255 23.6738C38.1469 23.5826 38.183 23.5177 38.2099 23.4495C38.2368 23.3813 38.2701 23.3244 38.2948 23.2641C38.3519 23.152 38.4008 23.0358 38.4413 22.9167C38.4832 22.7935 38.4998 22.6632 38.4899 22.5335C38.4856 22.4672 38.4769 22.4013 38.4641 22.3361C38.4578 22.3034 38.4502 22.2712 38.4414 22.2397C38.4337 22.2101 38.4216 22.1736 38.4151 22.1564L38.4138 22.1529C38.3936 22.0985 38.3937 22.0385 38.4141 21.9841C38.4346 21.9298 38.474 21.8846 38.5251 21.857C38.5762 21.8294 38.6356 21.8212 38.6923 21.8339C38.749 21.8467 38.7992 21.8795 38.8336 21.9263C38.9621 22.1008 39.1067 22.2605 39.2713 22.373C39.4335 22.4832 39.619 22.5489 39.7743 22.5245C39.8468 22.5173 39.9152 22.4874 39.9698 22.4391C40.0189 22.3942 40.0578 22.3386 40.0673 22.27C40.0737 22.2542 40.0692 22.235 40.0722 22.2178L40.0745 22.1912L40.0715 22.1597C40.0671 22.1136 40.0585 22.0679 40.046 22.0233C40.0178 21.9224 39.9809 21.824 39.9358 21.7294C39.7477 21.3357 39.4688 20.9596 39.151 20.6496C38.9919 20.4954 38.8172 20.3565 38.638 20.2637C38.5574 20.2203 38.4703 20.1906 38.38 20.1758C38.3001 20.1658 38.2397 20.1758 38.1883 20.2059L38.2206 20.1829C38.1859 20.213 38.1418 20.2552 38.1025 20.2941C38.0631 20.333 38.0229 20.3756 37.984 20.4174C37.9065 20.5016 37.8322 20.5893 37.7615 20.6797C37.6197 20.8597 37.4928 21.0509 37.3819 21.2514C37.1614 21.6507 37.0141 22.0862 36.9752 22.5313C36.9325 22.9783 37.003 23.4288 37.18 23.8415C37.266 24.0429 37.3677 24.2373 37.4841 24.4228C37.6018 24.6077 37.7273 24.7833 37.8543 25.0073V25.0086C37.8625 25.0232 37.8664 25.0398 37.8655 25.0566C37.8646 25.0734 37.859 25.0895 37.8492 25.1032C37.8394 25.1168 37.8259 25.1273 37.8103 25.1335C37.7947 25.1398 37.7777 25.1414 37.7612 25.1382L37.7624 25.1377Z" fill="#371A45"/>
<path d="M42.4622 23.9476C42.4417 24.005 42.4182 24.0615 42.3918 24.1166C42.3669 24.169 42.3406 24.22 42.3123 24.2696C42.2839 24.3193 42.2532 24.3674 42.2236 24.4163C42.194 24.4651 42.1584 24.5098 42.1257 24.5563L42.0198 24.6905L41.9048 24.8165C41.8264 24.8993 41.7422 24.9764 41.6528 25.0474C41.5646 25.1193 41.472 25.1857 41.3756 25.2461C41.2748 25.2998 41.1791 25.3599 41.0732 25.4013C40.8676 25.5017 40.6361 25.5364 40.41 25.5008C40.4043 25.4999 40.3993 25.4967 40.3959 25.492C40.3926 25.4873 40.3913 25.4815 40.3922 25.4758C40.393 25.4707 40.3956 25.4662 40.3995 25.4629L40.4006 25.4619C40.5776 25.309 40.7508 25.2187 40.9157 25.1066C41.0013 25.0575 41.0758 24.991 41.154 24.9333C41.2255 24.8655 41.3027 24.8062 41.3681 24.733C41.4021 24.698 41.4364 24.6639 41.467 24.6256C41.4975 24.5873 41.5324 24.5535 41.5615 24.5153L41.65 24.3994L41.734 24.28C41.7864 24.198 41.8387 24.1161 41.8848 24.0312C41.9077 23.9885 41.9321 23.9468 41.9522 23.9038C41.9724 23.8608 41.996 23.8154 42.01 23.7834L42.0163 23.7686C42.0409 23.7108 42.0872 23.6648 42.1453 23.6408C42.2034 23.6167 42.2686 23.6163 42.3269 23.6398C42.3852 23.6633 42.432 23.7087 42.4572 23.7663C42.4824 23.8239 42.484 23.8891 42.4616 23.9479L42.4622 23.9476Z" fill="#371A45"/>
<path d="M38.5032 29.905C38.0579 29.905 36.5453 29.7863 36.0596 28.2161C35.3604 25.9567 36.3859 24.2916 36.43 24.2218C36.4561 24.1827 36.4964 24.1554 36.5424 24.1456C36.5883 24.1358 36.6363 24.1443 36.6761 24.1693C36.7158 24.1944 36.7443 24.234 36.7553 24.2797C36.7663 24.3253 36.759 24.3735 36.7351 24.4139C36.7231 24.4328 35.7564 26.0167 36.4043 28.1095C36.8866 29.6688 38.5271 29.5481 38.5966 29.5428C38.6442 29.5386 38.6915 29.5535 38.7281 29.5842C38.7648 29.6149 38.7877 29.659 38.7919 29.7066C38.796 29.7542 38.7811 29.8015 38.7504 29.8381C38.7197 29.8748 38.6757 29.8977 38.6281 29.9019C38.6246 29.9016 38.5796 29.905 38.5032 29.905Z" fill="#371A45"/>
<path d="M21.2226 30.4089C21.2066 30.4089 21.1907 30.4067 21.1753 30.4025C19.3438 29.9021 18.8817 28.4165 18.8629 28.3535C18.8492 28.3078 18.8543 28.2584 18.8769 28.2164C18.8996 28.1743 18.9381 28.143 18.9839 28.1293C19.0297 28.1156 19.079 28.1206 19.1211 28.1433C19.1631 28.166 19.1945 28.2044 19.2082 28.2502C19.2256 28.3074 19.6397 29.6091 21.2703 30.0547C21.3123 30.0663 21.3488 30.0927 21.3728 30.129C21.3969 30.1654 21.407 30.2092 21.4012 30.2524C21.3955 30.2956 21.3742 30.3353 21.3415 30.3641C21.3087 30.3929 21.2666 30.4088 21.223 30.4089H21.2226Z" fill="#371A45"/>
<path d="M13.2014 17.4832C13.1512 17.4832 13.1019 17.4699 13.0586 17.4446L11.2803 16.4062C11.1803 16.3478 11.0667 16.3168 10.9509 16.3166C10.8952 16.3166 10.8397 16.3239 10.7859 16.3383C10.4389 16.4313 10.0815 16.4799 9.72226 16.4828H9.68572C7.38417 16.4828 5.48189 14.6114 5.44551 12.3111C5.43635 11.7485 5.53926 11.1897 5.74822 10.6673C5.95719 10.1448 6.26804 9.66923 6.66266 9.26814C7.05728 8.86706 7.52778 8.54852 8.04674 8.33109C8.5657 8.11367 9.12274 8.0017 9.68541 8.00171C9.71328 8.00171 9.74085 8.00171 9.76888 8.00171C12.0789 8.04628 13.9437 9.96306 13.9256 12.2748C13.918 13.3121 13.5295 14.3105 12.834 15.0801C12.7382 15.1865 12.6788 15.3208 12.6647 15.4633C12.6505 15.6058 12.6822 15.7491 12.7552 15.8723L13.446 17.0556C13.4715 17.0987 13.485 17.1477 13.4854 17.1978C13.4857 17.2478 13.4728 17.297 13.448 17.3405C13.4231 17.3839 13.3872 17.42 13.3439 17.4451C13.3006 17.4701 13.2515 17.4833 13.2014 17.4832Z" fill="#F9195A"/>
<path d="M9.68538 8.28526C9.71137 8.28526 9.73736 8.28526 9.76413 8.28526C11.9195 8.32684 13.6596 10.1171 13.6429 12.2728C13.6365 13.2409 13.2738 14.1727 12.6242 14.8905C12.4885 15.0418 12.4044 15.2324 12.3841 15.4346C12.3638 15.6368 12.4084 15.8403 12.5112 16.0155L13.2022 17.1988L11.4232 16.1603C11.2799 16.0764 11.1168 16.0321 10.9507 16.0321C10.8702 16.032 10.7899 16.0426 10.7121 16.0636C10.3884 16.1503 10.055 16.1957 9.71988 16.1984H9.6857C7.53882 16.1984 5.76301 14.4563 5.72883 12.3054C5.69386 10.0915 7.47865 8.28526 9.68538 8.28526ZM9.68538 7.71826C9.08518 7.71829 8.49098 7.83775 7.93741 8.06969C7.38383 8.30163 6.88194 8.64141 6.46098 9.06923C6.04001 9.49705 5.70839 10.0044 5.48543 10.5616C5.26247 11.1189 5.15263 11.7149 5.1623 12.3151C5.20105 14.7692 7.23043 16.7658 9.68586 16.7658H9.72492C10.1079 16.7626 10.489 16.7108 10.8589 16.6117C10.8888 16.6037 10.9195 16.5996 10.9504 16.5997C11.016 16.5999 11.0803 16.6175 11.1369 16.6506L12.9152 17.689C13.0234 17.752 13.1494 17.7775 13.2736 17.7614C13.3978 17.7453 13.5131 17.6885 13.6017 17.6C13.6902 17.5115 13.7469 17.3961 13.763 17.2719C13.7791 17.1478 13.7537 17.0218 13.6906 16.9136L12.9997 15.7303C12.9571 15.659 12.9385 15.576 12.9464 15.4933C12.9544 15.4107 12.9886 15.3327 13.0439 15.2709C13.7861 14.4499 14.2009 13.385 14.2094 12.2784C14.2286 9.81207 12.2391 7.76693 9.77469 7.71952C9.74492 7.71952 9.71531 7.71952 9.6857 7.71952L9.68538 7.71826Z" fill="#371A45"/>
<g opacity="0.5">
<path opacity="0.5" d="M9.97126 8.59742C7.72862 8.55426 5.90114 10.3772 5.93674 12.6178C5.94762 13.309 6.14141 13.985 6.49838 14.5771C6.01124 13.9189 5.74217 13.1248 5.72884 12.3061C5.6934 10.065 7.52087 8.24257 9.76336 8.28525C11.1695 8.31234 12.3983 9.08393 13.0786 10.2154C12.3717 9.25655 11.244 8.62199 9.97126 8.59742Z" fill="white"/>
</g>
<g opacity="0.3">
<path opacity="0.3" d="M9.09664 15.3677C9.43177 15.3651 9.76521 15.3198 10.0889 15.2329C10.1368 15.2221 10.1856 15.2157 10.2347 15.2136C10.8243 15.1746 11.3514 14.8579 11.711 14.389C11.7995 14.2735 11.9 14.1702 12.0001 14.0598C12.5555 13.4465 12.9036 12.674 12.9951 11.8517C13.0866 11.0295 12.9169 10.1993 12.51 9.47891C13.217 10.2018 13.6512 11.1916 13.6429 12.2733C13.6366 13.236 13.278 14.1631 12.6349 14.8796C12.3542 15.1929 12.2958 15.646 12.5078 16.0092L13.2027 17.1992L11.4232 16.1602C11.3162 16.0979 11.1979 16.0573 11.0751 16.0409C10.9523 16.0245 10.8275 16.0325 10.7079 16.0646C10.3855 16.1506 10.0536 16.1955 9.72002 16.1982C8.23164 16.2109 6.91778 15.3861 6.23203 14.1664C6.96062 14.9139 7.97917 15.3773 9.09664 15.3677Z" fill="#102770"/>
</g>
<path d="M11.1282 10.9197C10.7239 10.5154 10.0686 10.5879 9.66427 10.992L9.60127 11.055L9.53827 10.992C9.13397 10.5879 8.47861 10.5154 8.07352 10.9197C7.97727 11.0158 7.90091 11.13 7.84881 11.2557C7.79671 11.3813 7.7699 11.516 7.7699 11.6521C7.7699 11.7881 7.79671 11.9228 7.84881 12.0485C7.90091 12.1742 7.97727 12.2883 8.07352 12.3845L8.13652 12.4475L9.40739 13.7185C9.43274 13.7438 9.46283 13.7639 9.49595 13.7777C9.52907 13.7914 9.56456 13.7984 9.60041 13.7984C9.63626 13.7984 9.67175 13.7914 9.70487 13.7777C9.73799 13.7639 9.76808 13.7438 9.79342 13.7185L11.0644 12.4475L11.1274 12.3845C11.2238 12.2884 11.3002 12.1743 11.3523 12.0486C11.4045 11.923 11.4314 11.7883 11.4315 11.6522C11.4315 11.5162 11.4048 11.3815 11.3528 11.2558C11.3007 11.1301 11.2244 11.0159 11.1282 10.9197Z" fill="white"/>
<g opacity="0.5">
<path opacity="0.5" d="M10.9959 11.4764C10.8715 11.3052 10.6301 11.297 10.5571 11.3504C10.4842 11.4038 10.6074 11.4974 10.7318 11.6687C10.8562 11.8401 10.935 12.0234 11.0078 11.9708C11.0805 11.9182 11.1204 11.6478 10.9959 11.4764Z" fill="#FCE5E5"/>
</g>
<g opacity="0.5">
<path opacity="0.5" d="M10.2233 11.1232C10.2215 11.1481 10.2277 11.1728 10.2411 11.1939C10.2544 11.2149 10.2742 11.2312 10.2974 11.2402C10.3206 11.2492 10.3462 11.2505 10.3702 11.2439C10.3942 11.2374 10.4156 11.2233 10.431 11.2037C10.4605 11.1623 10.4341 11.0934 10.3652 11.0668C10.2962 11.0402 10.2296 11.073 10.2233 11.1232Z" fill="#FCE5E5"/>
</g>
</g>
</svg>
