<svg width="53" height="52" viewBox="0 0 53 52" fill="none" xmlns="http://www.w3.org/2000/svg">
<mask id="mask0_2_6896" style="mask-type:alpha" maskUnits="userSpaceOnUse" x="0" y="0" width="53" height="52">
<circle cx="26.5" cy="26" r="26" fill="#C4C4C4"/>
</mask>
<g mask="url(#mask0_2_6896)">
<path d="M74.4999 -18H-26.5001V83H74.4999V-18Z" fill="#0BCBFF"/>
<path d="M38.2425 40.3505H27.655C25.2272 40.3505 23.2592 42.3185 23.2592 44.7462V56.9018C23.2592 59.3296 25.2272 61.2976 27.655 61.2976H38.2425C40.6703 61.2976 42.6383 59.3296 42.6383 56.9018V44.7462C42.6383 42.3185 40.6703 40.3505 38.2425 40.3505Z" fill="white"/>
<path d="M38.2425 40.3505C40.6602 40.3505 42.6382 42.3286 42.6382 44.7463V56.9019C42.6382 59.3196 40.6602 61.2977 38.2425 61.2977H27.6549C25.2372 61.2977 23.2591 59.3196 23.2591 56.9019V44.7463C23.2591 42.3286 25.2372 40.3505 27.6549 40.3505H38.2425ZM38.2425 39.4713H27.6549C24.7463 39.4713 22.3799 41.8377 22.3799 44.7463V56.9019C22.3799 59.8107 24.7463 62.1769 27.6549 62.1769H38.2425C41.151 62.1769 43.5174 59.8107 43.5174 56.9019V44.7463C43.5174 41.8377 41.151 39.4713 38.2425 39.4713Z" fill="#371A45"/>
<path d="M30.2651 38.088L28.0549 42.5557L26.746 45.2045L26.071 46.568C26.071 46.568 25.6923 46.2513 25.0951 45.638C22.6133 43.0878 16.3531 35.4145 17.8279 24.1159C18.6071 18.1468 20.8647 17.406 23.0693 17.2083C26.7844 16.8752 25.7665 20.2065 25.7731 21.7836C25.7764 22.5454 26.0907 24.905 26.669 27.6736C27.4383 31.3551 28.6736 35.7602 30.2651 38.088Z" fill="white"/>
<path d="M26.0705 47.0068C25.9674 47.0069 25.8676 46.9706 25.7887 46.9043C25.6834 46.8162 23.1862 44.7023 20.8846 40.8211C18.7603 37.2386 16.43 31.4225 17.3915 24.0589C18.2187 17.7249 20.7354 16.9755 23.0294 16.77C24.2022 16.6649 25.0448 16.8859 25.6049 17.4451C26.4901 18.3289 26.3646 19.7681 26.2639 20.9223C26.2364 21.2407 26.2101 21.5415 26.2111 21.7808C26.2187 23.7122 27.9445 33.914 30.6266 37.8398C30.6894 37.9362 30.712 38.0533 30.6895 38.1661C30.667 38.2789 30.6012 38.3784 30.5063 38.4432C30.4113 38.5081 30.2947 38.5332 30.1814 38.5132C30.0682 38.4931 29.9673 38.4295 29.9004 38.336C27.1254 34.2738 25.3395 23.77 25.3316 21.7846C25.3316 21.5046 25.3584 21.1844 25.388 20.8456C25.4728 19.8722 25.5786 18.6604 24.984 18.0681C24.6239 17.7088 23.9929 17.5669 23.1071 17.6461C21.0634 17.8292 19.006 18.4837 18.2629 24.173C17.3357 31.2733 19.5784 36.8859 21.6234 40.3439C23.8477 44.1061 26.328 46.2099 26.3528 46.2306C26.4219 46.2886 26.4715 46.3665 26.4949 46.4537C26.5183 46.5409 26.5142 46.6331 26.4833 46.7179C26.4525 46.8027 26.3962 46.876 26.3223 46.9277C26.2483 46.9794 26.1602 47.0072 26.07 47.0071L26.0705 47.0068Z" fill="#371A45"/>
<path d="M40.9526 45.4904C40.2754 46.1994 39.8358 46.5676 39.8358 46.5676L39.3015 45.4871L37.8519 42.5559L35.6415 38.0881C37.2812 35.6894 38.543 31.0848 39.3071 27.3392C39.8411 24.7167 40.1312 22.5142 40.1345 21.7842C40.14 20.2071 39.1222 16.8759 42.8362 17.2089C45.0408 17.4066 47.2984 18.1474 48.0776 24.1165C49.5277 35.2041 43.5233 42.8021 40.9526 45.4904Z" fill="white"/>
<path d="M39.8358 47.0072C39.7455 47.0073 39.6574 46.9795 39.5834 46.9278C39.5094 46.876 39.4532 46.8027 39.4223 46.7179C39.3914 46.633 39.3875 46.5407 39.4109 46.4535C39.4343 46.3663 39.484 46.2884 39.5533 46.2305C39.5886 46.2007 42.0629 44.0974 44.2826 40.3437C46.3278 36.8857 48.5703 31.2731 47.6429 24.1728C46.9 18.4835 44.8424 17.829 42.7986 17.646C41.9149 17.5664 41.2821 17.7086 40.9218 18.0679C40.3272 18.6613 40.4327 19.8728 40.5178 20.8454C40.5473 21.1843 40.5754 21.5044 40.5741 21.7844C40.5663 23.7699 38.7814 34.2736 36.0054 38.3358C35.9396 38.4321 35.8382 38.4983 35.7236 38.5198C35.6091 38.5414 35.4906 38.5165 35.3943 38.4507C35.2981 38.3849 35.2319 38.2836 35.2103 38.169C35.1888 38.0544 35.2136 37.9359 35.2794 37.8397C37.9612 33.914 39.6873 23.7123 39.6949 21.7807C39.6949 21.5405 39.6697 21.2401 39.6419 20.9222C39.5409 19.7665 39.4159 18.3282 40.3012 17.4447C40.862 16.8854 41.7048 16.6648 42.8767 16.7695C45.1706 16.9751 47.687 17.7245 48.5142 24.0585C49.476 31.4221 47.1454 37.239 45.0211 40.8207C42.7199 44.7019 40.2224 46.8158 40.1173 46.9039C40.0386 46.9704 39.9389 47.0069 39.8358 47.0072Z" fill="#371A45"/>
<path d="M42.6274 60.1687C42.3353 64.8023 40.6602 68.638 40.6602 68.638C40.6602 68.638 41.4384 70.9032 41.0283 73.1717C40.7877 74.5061 40.136 75.6128 38.674 75.7656C34.935 76.157 33.9227 72.3616 33.6831 69.8142C33.4447 67.2786 34.535 63.6163 34.403 60.6424C33.4969 60.736 32.5836 60.736 31.6775 60.6424C31.5454 63.6163 32.6347 67.2786 32.3974 69.8142C32.1577 72.3616 31.1455 76.157 27.4064 75.7656C25.9445 75.6141 25.2928 74.5061 25.0521 73.1729C24.6421 70.9045 25.4203 68.638 25.4203 68.638C25.4203 68.638 23.7452 64.8023 23.4508 60.1687C23.1695 55.7184 24.1883 49.8328 25.094 45.6376C25.2127 45.0858 25.3304 44.5627 25.4425 44.0768C25.571 43.5176 25.693 43.0075 25.8028 42.5558H40.2756C40.4041 43.086 40.5493 43.6966 40.7031 44.3705C40.7844 44.7265 40.868 45.1012 40.9516 45.4903C41.8669 49.6952 42.9122 55.6656 42.6274 60.1687Z" fill="white"/>
<path d="M40.9346 44.7253C41.5835 46.6577 42.0426 48.6426 42.3905 50.6487C42.5673 51.6511 42.7188 52.6593 42.8316 53.6739C42.8925 54.1789 42.9379 54.6892 42.9854 55.1975C43.0084 55.452 43.0225 55.7075 43.0405 55.9626C43.0584 56.2176 43.0723 56.4731 43.0819 56.7289C43.1301 57.7515 43.1417 58.7789 43.0884 59.8094C43.0347 60.8387 42.9205 61.8639 42.7463 62.8798C42.5721 63.8927 42.3446 64.8957 42.0645 65.8845C41.9282 66.3797 41.7716 66.8693 41.61 67.3571C41.4431 67.8465 41.2709 68.3219 41.0639 68.8135L41.0828 68.5146C41.233 69.0644 41.351 69.6226 41.4363 70.1861C41.5251 70.7502 41.5748 71.3196 41.5851 71.8905C41.5944 72.4657 41.5545 73.052 41.4199 73.6365C41.3919 73.783 41.3401 73.9282 41.2995 74.0739C41.2427 74.2175 41.1985 74.3637 41.1252 74.5031C40.9925 74.7946 40.815 75.0636 40.5993 75.3003L40.4271 75.4755C40.3652 75.5295 40.2993 75.579 40.2349 75.6303C40.2024 75.6555 40.1703 75.6808 40.137 75.706L40.0317 75.7697C39.9607 75.8111 39.891 75.8553 39.8186 75.8929L39.5946 75.9896C39.557 76.0047 39.5188 76.0227 39.4817 76.0353L39.3666 76.0689L39.1355 76.1343C39.0583 76.1502 38.981 76.1595 38.9035 76.1739C38.826 76.1883 38.7467 76.2024 38.673 76.2062L38.4495 76.2224C38.301 76.2363 38.1488 76.2277 37.9988 76.2305C37.6958 76.2131 37.391 76.1878 37.0916 76.1085C36.4866 75.9625 35.9252 75.6741 35.4541 75.2674C35.2244 75.067 35.0142 74.8452 34.8264 74.6051C34.6456 74.3675 34.4824 74.1171 34.338 73.8557C33.7737 72.8136 33.4939 71.6842 33.3301 70.5634C33.2904 70.2806 33.2556 70.0043 33.2374 69.7142C33.2298 69.5695 33.2164 69.4233 33.2144 69.2794L33.2124 68.8489C33.225 68.2782 33.2695 67.7162 33.3301 67.1604C33.454 66.0509 33.6303 64.9619 33.7661 63.8794C33.902 62.797 34.0032 61.7183 33.9643 60.6608L34.4547 61.0779C34.2095 61.1047 33.982 61.1209 33.7457 61.1335C33.5093 61.1461 33.2765 61.1519 33.0407 61.1522C32.8049 61.1524 32.5698 61.1456 32.3355 61.1335C32.1012 61.1214 31.8716 61.1047 31.6265 61.0779L32.1168 60.6608C32.0779 61.7183 32.1767 62.7975 32.315 63.8794C32.4534 64.9614 32.6271 66.0509 32.7511 67.1604C32.8117 67.7159 32.8561 68.2782 32.8688 68.8489L32.8667 69.2794C32.8647 69.4233 32.8513 69.5695 32.8438 69.7142C32.8256 70.0043 32.7907 70.2806 32.7511 70.5634C32.5872 71.6847 32.3074 72.8136 31.7431 73.8557C31.5988 74.1171 31.4355 74.3675 31.2548 74.6051C31.067 74.8453 30.8568 75.0671 30.6271 75.2674C30.156 75.6741 29.5946 75.9625 28.9896 76.1085C28.6901 76.1878 28.3836 76.2131 28.0824 76.2305C27.9324 76.2277 27.7794 76.2363 27.6317 76.2224L27.4087 76.2078C27.335 76.204 27.2549 76.186 27.1782 76.1754C27.1014 76.1648 27.0234 76.1517 26.9461 76.1358L26.7151 76.0704L26.5999 76.0368C26.5618 76.0242 26.5242 76.0063 26.4871 75.9911L26.2631 75.8944C26.1906 75.8568 26.1209 75.8126 26.05 75.7712L25.9447 75.7075C25.9114 75.6823 25.8793 75.657 25.8467 75.6318C25.7826 75.5813 25.7164 75.5308 25.6548 75.477L25.4826 75.3018C25.2667 75.0651 25.0892 74.7962 24.9564 74.5046C24.8832 74.3645 24.839 74.2183 24.7824 74.0754C24.7415 73.9297 24.6898 73.7845 24.6617 73.6381C24.5272 73.0525 24.4873 72.4672 24.4966 71.892C24.5068 71.3211 24.5566 70.7516 24.6456 70.1876C24.7309 69.6241 24.8489 69.0659 24.9991 68.5161L25.018 68.8151C24.8107 68.3227 24.6393 67.8465 24.4711 67.3564C24.309 66.8678 24.1525 66.3774 24.0166 65.8815C23.7365 64.8909 23.5089 63.8861 23.3349 62.8715C23.1595 61.8542 23.0473 60.8271 22.999 59.796C22.9692 59.2796 22.9723 58.7653 22.9702 58.2505C22.9816 57.7371 22.9915 57.2233 23.023 56.712C23.0344 56.4559 23.0483 56.2002 23.0702 55.9451C23.0922 55.6901 23.1063 55.4346 23.1296 55.1798C23.1788 54.671 23.2238 54.1615 23.2811 53.6542C23.3952 52.6391 23.5156 51.6254 23.6747 50.6179C23.8338 49.6104 24.0282 48.6092 24.2653 47.6182C24.5024 46.6271 24.7829 45.6459 25.1564 44.6892C25.1693 44.6563 25.1936 44.6291 25.2249 44.6125C25.2561 44.5959 25.2923 44.591 25.3268 44.5988C25.3613 44.6065 25.3919 44.6264 25.4131 44.6547C25.4343 44.683 25.4446 44.718 25.4422 44.7533C25.372 45.7752 25.2326 46.7781 25.0839 47.778C24.9309 48.7769 24.7691 49.7728 24.6072 50.7674C24.2663 52.7535 24.0012 54.7546 23.9002 56.7584C23.7803 58.764 23.8578 60.7553 24.2007 62.723C24.3699 63.7073 24.5911 64.6819 24.8632 65.6429C24.9955 66.1247 25.1478 66.6006 25.3049 67.0743C25.4647 67.5437 25.6387 68.0212 25.825 68.4631L25.8864 68.609L25.8439 68.7623C25.7049 69.275 25.5953 69.7952 25.5157 70.3205C25.433 70.8444 25.3866 71.3735 25.3768 71.9039C25.3677 72.4288 25.4064 72.95 25.519 73.4383C25.5422 73.5628 25.5854 73.6772 25.6175 73.7966C25.6632 73.9082 25.697 74.0279 25.7533 74.1314C25.8481 74.3421 25.9755 74.5364 26.1308 74.7074L26.2477 74.8273C26.2896 74.8634 26.3348 74.8955 26.3775 74.9306L26.4426 74.9811L26.5146 75.023C26.5628 75.0503 26.6088 75.0813 26.658 75.1074L26.8135 75.1733C26.8388 75.1839 26.864 75.197 26.8916 75.2061L26.9749 75.2291L27.141 75.2773C27.1984 75.2886 27.2577 75.296 27.3158 75.3058C27.3738 75.3157 27.4299 75.3285 27.4938 75.3311L27.6822 75.3445C27.8084 75.3571 27.9319 75.348 28.0569 75.3518C28.3028 75.3361 28.5497 75.3174 28.7833 75.2541C29.2536 75.1411 29.6899 74.917 30.0557 74.6006C30.2403 74.4385 30.4093 74.2596 30.5607 74.066C30.7129 73.865 30.8506 73.6534 30.9727 73.4328C31.4618 72.5339 31.7302 71.4911 31.8817 70.4394C31.9186 70.1773 31.9524 69.9066 31.9681 69.647C31.9744 69.517 31.987 69.3887 31.9888 69.2574L31.9906 68.8623C31.9787 68.332 31.937 67.7957 31.8782 67.2569C31.7578 66.1774 31.5823 65.0919 31.4439 63.9895C31.3055 62.8871 31.1975 61.7675 31.2396 60.6219L31.2568 60.1533L31.73 60.2038C31.9373 60.2263 32.1638 60.2429 32.3819 60.2543C32.6001 60.2657 32.8223 60.2717 33.0417 60.272C33.2611 60.2722 33.4811 60.2659 33.7012 60.2543C33.9214 60.2427 34.1459 60.2263 34.3532 60.2038L34.8266 60.1533L34.8438 60.6219C34.8857 61.767 34.7797 62.8886 34.6393 63.9895C34.4989 65.0904 34.3254 66.1774 34.2052 67.2569C34.1461 67.7957 34.1042 68.332 34.0926 68.8623L34.0944 69.2574C34.0962 69.3887 34.1088 69.517 34.1151 69.647C34.1307 69.9066 34.1656 70.1773 34.2014 70.4394C34.3529 71.4911 34.6211 72.5339 35.1104 73.4328C35.2326 73.6534 35.3703 73.865 35.5225 74.066C35.6738 74.2596 35.8429 74.4385 36.0275 74.6006C36.3933 74.917 36.8296 75.1411 37.2999 75.2541C37.5334 75.3174 37.7796 75.3361 38.0266 75.3518C38.1513 75.348 38.275 75.3571 38.401 75.3445L38.5894 75.3311C38.6533 75.328 38.7078 75.3131 38.7661 75.3058C38.8245 75.2985 38.8836 75.2886 38.9411 75.2773L39.107 75.2291L39.1903 75.2061C39.2174 75.197 39.2424 75.1839 39.2684 75.1733L39.4239 75.1074C39.4731 75.0821 39.5191 75.0503 39.5673 75.023L39.6395 74.9811L39.7044 74.9306C39.7471 74.8955 39.7923 74.8634 39.8342 74.8273L39.9511 74.7074C40.1069 74.5365 40.2347 74.3421 40.3299 74.1314C40.3862 74.0279 40.42 73.9082 40.4657 73.7966C40.4978 73.6772 40.5415 73.5628 40.5642 73.4383C40.6768 72.95 40.7157 72.4283 40.7063 71.9039C40.6966 71.3735 40.6502 70.8444 40.5675 70.3205C40.4878 69.7952 40.3782 69.275 40.2392 68.7623L40.1968 68.609L40.2582 68.4631C40.4443 68.0217 40.6182 67.545 40.7776 67.0761C40.9369 66.6072 41.0866 66.1282 41.2187 65.6472C41.4907 64.6879 41.7116 63.7148 41.8807 62.7321C42.2251 60.7676 42.2976 58.7784 42.163 56.7781C42.1014 55.7796 42.0119 54.7811 41.8946 53.7827C41.8663 53.5332 41.8378 53.2838 41.8032 53.0348L41.7103 52.2867C41.6396 51.7887 41.577 51.2898 41.5025 50.7919L41.0543 47.801C40.9109 46.8013 40.7609 45.8017 40.6503 44.7904C40.646 44.7542 40.6553 44.7176 40.6765 44.6878C40.6976 44.6581 40.7291 44.6372 40.7648 44.6294C40.8004 44.6215 40.8377 44.6272 40.8694 44.6453C40.9012 44.6634 40.925 44.6926 40.9364 44.7273L40.9346 44.7253Z" fill="#371A45"/>
<g opacity="0.35">
<path opacity="0.35" d="M42.5875 55.7267C41.4122 55.8602 39.8227 55.9403 38.6155 55.6239V56.2299C38.6145 56.6344 38.4536 57.022 38.1677 57.3082C37.8818 57.5943 37.4943 57.7557 37.0899 57.757H28.7553C28.3508 57.7558 27.9632 57.5944 27.6772 57.3083C27.3912 57.0222 27.23 56.6345 27.229 56.2299V55.7454C26.074 55.9221 24.7186 55.8297 23.7129 55.7077C23.6558 55.7007 23.5992 55.6904 23.5432 55.6769C23.5601 55.5399 23.5784 55.4012 23.5983 55.2608C23.7033 54.4781 23.8255 53.661 23.9692 52.8174C24.8934 52.8598 26.1518 52.8863 27.229 52.7921V51.7033C27.2301 51.2989 27.3913 50.9113 27.6773 50.6253C27.9633 50.3393 28.3509 50.1781 28.7553 50.177H37.0899C37.4946 50.1772 37.8826 50.3381 38.1687 50.6243C38.4548 50.9105 38.6155 51.2986 38.6155 51.7033V52.7252C39.6846 52.8802 41.0832 52.8729 42.158 52.831C42.3005 53.6703 42.4224 54.4829 42.5267 55.2606C42.5479 55.4176 42.5679 55.5734 42.5875 55.7267Z" fill="#371A45"/>
</g>
<path d="M28.7571 54.5031C27.589 54.976 25.7813 54.8771 24.5491 54.7281C24.3737 54.7067 24.2044 54.6504 24.0511 54.5626C23.8978 54.4747 23.7637 54.357 23.6566 54.2165C23.5495 54.0759 23.4716 53.9154 23.4275 53.7443C23.3835 53.5731 23.3741 53.395 23.4 53.2202C23.4477 52.8957 23.6143 52.6005 23.8673 52.3918C24.1204 52.1832 24.4419 52.076 24.7696 52.091C25.9222 52.145 27.6511 52.1703 28.7462 51.9276" fill="white"/>
<path d="M26.4336 55.2298C25.7884 55.2258 25.144 55.1837 24.5038 55.1036C24.0668 55.05 23.6676 54.8292 23.3899 54.4876C23.1121 54.146 22.9775 53.7101 23.0142 53.2714C23.051 52.8327 23.2561 52.4252 23.5868 52.1345C23.9174 51.8438 24.3478 51.6925 24.7876 51.7123C26.4793 51.7913 27.856 51.7375 28.6642 51.5572C28.846 51.5168 29.2967 51.5118 29.5533 52.3367C29.804 53.1434 29.7697 54.5014 28.899 54.8539C28.2049 55.1354 27.3154 55.2298 26.4336 55.2298ZM24.707 52.4685C24.4663 52.4688 24.2348 52.5609 24.0597 52.7261C23.8846 52.8913 23.7791 53.1171 23.7648 53.3574C23.7505 53.5977 23.8284 53.8344 23.9827 54.0193C24.137 54.2041 24.3559 54.323 24.5949 54.3519C26.3458 54.564 27.7736 54.4928 28.6152 54.1522C28.8104 54.0731 28.8831 53.7502 28.9053 53.6151C28.9912 53.0934 28.85 52.5041 28.7286 52.3185C27.611 52.544 25.9587 52.5258 24.7525 52.47C24.7368 52.4687 24.7219 52.4685 24.707 52.4685Z" fill="#371A45"/>
<path d="M37.6906 54.5031C38.8586 54.976 40.666 54.8771 41.8985 54.7281C42.0739 54.7067 42.2432 54.6504 42.3965 54.5626C42.5498 54.4747 42.6839 54.357 42.791 54.2165C42.8981 54.0759 42.9759 53.9154 43.02 53.7442C43.064 53.5731 43.0733 53.3949 43.0474 53.2202C42.9997 52.8957 42.8332 52.6004 42.5801 52.3918C42.327 52.1831 42.0055 52.0759 41.6778 52.091C40.5254 52.145 38.7963 52.1703 37.7014 51.9276" fill="white"/>
<path d="M40.014 55.2298C39.1321 55.2298 38.2428 55.1353 37.5484 54.8543C36.678 54.5008 36.6437 53.1439 36.8944 52.3369C37.1507 51.5122 37.6014 51.517 37.7834 51.5576C38.5914 51.7369 39.9683 51.7922 41.6601 51.7127C42.0999 51.6929 42.5303 51.8443 42.8609 52.135C43.1915 52.4257 43.3967 52.8331 43.4334 53.2718C43.4701 53.7105 43.3355 54.1464 43.0578 54.488C42.7801 54.8296 42.3809 55.0504 41.9439 55.104C41.3036 55.1839 40.6592 55.2259 40.014 55.2298ZM37.7196 52.3184C37.5979 52.5048 37.4567 53.0934 37.5428 53.615C37.5653 53.7501 37.638 54.0731 37.8332 54.1521C38.6748 54.4927 40.1024 54.5637 41.8535 54.3521C42.0958 54.322 42.3171 54.1993 42.471 54.0098C42.6249 53.8202 42.6995 53.5785 42.6792 53.3352C42.6588 53.0919 42.5451 52.8659 42.3619 52.7045C42.1787 52.5431 41.9401 52.4589 41.6962 52.4694C40.4882 52.5257 38.8371 52.5439 37.7196 52.3184Z" fill="#371A45"/>
<path d="M38.1417 51.0761V55.204C38.1407 55.5729 37.9938 55.9264 37.733 56.1874C37.4723 56.4483 37.1188 56.5955 36.7499 56.5968H29.1479C28.779 56.5956 28.4255 56.4485 28.1647 56.1875C27.9039 55.9265 27.757 55.5729 27.7561 55.204V51.0761C27.7571 50.7073 27.9041 50.3538 28.1649 50.093C28.4257 49.8322 28.7791 49.6851 29.1479 49.6841H36.7512C37.1203 49.6843 37.4742 49.8311 37.7351 50.0921C37.9961 50.3531 38.1428 50.707 38.143 51.0761H38.1417Z" fill="white"/>
<g opacity="0.35">
<path opacity="0.35" d="M38.1417 51.0762V55.2041C38.1407 55.573 37.9938 55.9265 37.733 56.1875C37.4723 56.4484 37.1188 56.5956 36.7499 56.5969H29.1479C28.779 56.5957 28.4255 56.4486 28.1647 56.1876C27.9039 55.9266 27.757 55.573 27.7561 55.2041V53.8153C29.0676 54.5413 32.1385 55.7369 33.5497 55.0258C34.4413 54.5766 34.4413 53.1409 34.4413 53.1409C34.4413 53.1409 36.3098 51.7688 36.7739 52.896C37.6905 55.1165 37.947 51.0709 38.07 50.6364C38.1174 50.7782 38.1416 50.9267 38.1417 51.0762Z" fill="#371A45"/>
</g>
<path d="M36.7498 56.9754H29.1477C28.6783 56.9748 28.2282 56.7881 27.8962 56.4561C27.5642 56.1241 27.3775 55.6741 27.377 55.2046V51.0762C27.3775 50.6067 27.5642 50.1566 27.8962 49.8247C28.2282 49.4927 28.6783 49.306 29.1477 49.3054H36.7498C37.2192 49.306 37.6693 49.4927 38.0013 49.8247C38.3333 50.1566 38.52 50.6067 38.5205 51.0762V55.2046C38.52 55.6741 38.3333 56.1241 38.0013 56.4561C37.6693 56.7881 37.2192 56.9748 36.7498 56.9754ZM29.1477 50.0629C28.8791 50.0633 28.6216 50.1701 28.4316 50.3601C28.2416 50.55 28.1348 50.8076 28.1345 51.0762V55.2046C28.1348 55.4732 28.2416 55.7307 28.4316 55.9207C28.6216 56.1107 28.8791 56.2175 29.1477 56.2179H36.7498C37.0184 56.2175 37.2759 56.1107 37.4659 55.9207C37.6558 55.7307 37.7627 55.4732 37.763 55.2046V51.0762C37.7627 50.8076 37.6558 50.55 37.4659 50.3601C37.2759 50.1701 37.0184 50.0633 36.7498 50.0629H29.1477Z" fill="#371A45"/>
<path d="M36.1012 54.2493C36.7137 53.9956 37.0045 53.2935 36.7508 52.681C36.4971 52.0685 35.795 51.7776 35.1825 52.0313C34.57 52.285 34.2791 52.9872 34.5328 53.5997C34.7865 54.2122 35.4887 54.503 36.1012 54.2493Z" fill="#22A7F0"/>
<g opacity="0.5">
<path opacity="0.5" d="M36.8424 53.1401C36.8425 53.2391 36.8305 53.3377 36.8065 53.4338C36.741 53.1747 36.5908 52.9449 36.3799 52.7807C36.169 52.6165 35.9094 52.5274 35.6421 52.5274C35.3749 52.5274 35.1153 52.6165 34.9044 52.7807C34.6935 52.9449 34.5433 53.1747 34.4777 53.4338C34.436 53.2687 34.4299 53.0967 34.4597 52.9292C34.4895 52.7616 34.5546 52.6023 34.6507 52.4618C34.7468 52.3213 34.8717 52.2028 35.017 52.1142C35.1624 52.0257 35.3249 51.969 35.4938 51.948C35.6627 51.927 35.8342 51.9422 35.9968 51.9926C36.1594 52.0429 36.3094 52.1272 36.4369 52.2399C36.5645 52.3527 36.6666 52.4912 36.7365 52.6464C36.8064 52.8016 36.8425 52.9699 36.8424 53.1401Z" fill="white"/>
</g>
<path d="M35.6418 54.6563C35.3422 54.6561 35.0494 54.567 34.8004 54.4004C34.5514 54.2338 34.3575 53.9971 34.243 53.7202C34.1285 53.4434 34.0987 53.1388 34.1573 52.845C34.2159 52.5512 34.3603 52.2814 34.5722 52.0696C34.7841 51.8579 35.0541 51.7137 35.3479 51.6553C35.6418 51.597 35.9463 51.6271 36.2231 51.7418C36.4998 51.8565 36.7364 52.0506 36.9028 52.2998C37.0692 52.5489 37.158 52.8417 37.158 53.1413C37.1574 53.5431 36.9973 53.9283 36.7131 54.2123C36.4289 54.4963 36.0436 54.656 35.6418 54.6563ZM35.6418 52.2555C35.467 52.2558 35.2963 52.3078 35.1511 52.4051C35.006 52.5024 34.8929 52.6405 34.8262 52.802C34.7595 52.9635 34.7422 53.1411 34.7764 53.3125C34.8106 53.4838 34.8949 53.6412 35.0186 53.7646C35.1422 53.8881 35.2997 53.9722 35.4711 54.0062C35.6425 54.0402 35.8201 54.0226 35.9815 53.9557C36.1429 53.8887 36.2809 53.7755 36.3779 53.6302C36.475 53.4848 36.5268 53.314 36.5268 53.1393C36.5262 52.9049 36.4328 52.6802 36.2669 52.5145C36.101 52.3489 35.8762 52.2557 35.6418 52.2555Z" fill="#371A45"/>
<path d="M32.2399 56.9123C32.1561 56.9123 32.0759 56.879 32.0167 56.8198C31.9575 56.7606 31.9242 56.6803 31.9242 56.5966V54.6046C31.9236 54.3582 31.8661 54.1151 31.756 53.8946C31.646 53.674 31.4865 53.4818 31.2899 53.3331C31.0154 53.1253 30.7926 52.8569 30.6389 52.5488C30.4852 52.2407 30.4048 51.9013 30.4039 51.557V49.6842C30.4039 49.6005 30.4372 49.5202 30.4964 49.461C30.5556 49.4018 30.6358 49.3686 30.7196 49.3686C30.8033 49.3686 30.8835 49.4018 30.9427 49.461C31.0019 49.5202 31.0352 49.6005 31.0352 49.6842V51.557C31.0358 51.8035 31.0934 52.0466 31.2034 52.2672C31.3135 52.4879 31.4731 52.6801 31.6697 52.8288C31.9442 53.0365 32.167 53.3049 32.3207 53.613C32.4743 53.921 32.5547 54.2604 32.5555 54.6046V56.5966C32.5555 56.6803 32.5222 56.7606 32.463 56.8198C32.4038 56.879 32.3236 56.9123 32.2399 56.9123Z" fill="#371A45"/>
<path d="M51.1672 14.25C49.9263 19.2148 47.3283 23.7364 43.6639 27.3088C39.9995 30.8811 35.4133 33.3633 30.4185 34.4775C15.5448 37.8105 0.786138 28.4514 -2.54509 13.5784C-4.3944 5.31783 -2.32946 -2.90988 2.42259 -9.16229C3.30962 -10.3316 5.17484 -9.77763 5.26473 -8.31212C5.29705 -7.81772 5.34149 -7.32165 5.39805 -6.82388C5.51117 -5.86191 5.67357 -4.90637 5.88462 -3.96104C6.32645 -1.98358 6.98367 -0.0605106 7.84452 1.77374C7.99602 2.09357 8.15274 2.41012 8.31468 2.72339C8.71211 3.48998 9.14187 4.23191 9.60394 4.94918C9.93775 5.46866 10.2878 5.97433 10.6541 6.4662C10.8312 6.70523 11.0125 6.9409 11.198 7.1732C11.6602 7.75546 12.1453 8.31677 12.6531 8.85712C12.9289 9.15322 13.2115 9.44242 13.501 9.72471C13.703 9.92292 13.9093 10.1181 14.1194 10.31C14.8872 11.0169 15.6946 11.6796 16.5376 12.2949C16.6151 12.3522 16.6936 12.4078 16.7712 12.4636C17.2425 12.8002 17.7234 13.1213 18.2139 13.4266C18.3283 13.4978 18.4412 13.5678 18.5571 13.6375C19.0469 13.9344 19.5456 14.2149 20.0531 14.479C20.3274 14.6233 20.6043 14.762 20.8839 14.8952C20.9425 14.9242 21.0013 14.9525 21.0606 14.9797L21.1851 15.0386C21.2752 15.081 21.3661 15.1216 21.4563 15.1623C21.9376 15.3803 22.4248 15.5843 22.918 15.7744C23.066 15.8324 23.215 15.8872 23.3647 15.9413C23.5253 16.0001 23.6866 16.0582 23.849 16.1137C24.2744 16.2604 24.7075 16.3975 25.1403 16.5228C25.816 16.721 26.5 16.8904 27.1911 17.0353C27.9004 17.1825 28.6164 17.3021 29.3391 17.3941C31.2233 17.6339 33.1274 17.6763 35.0203 17.5204C35.21 17.5056 35.4002 17.4888 35.5907 17.4699C35.9998 17.4285 36.4106 17.3782 36.8204 17.3184C37.4951 17.2189 38.1713 17.0952 38.8485 16.9432C38.8932 16.9328 38.9379 16.9235 38.9816 16.9116C40.8763 16.479 42.7199 15.8473 44.4818 15.027C45.9659 14.3377 47.3851 13.5164 48.7223 12.5732C49.9156 11.7313 51.5225 12.8315 51.1672 14.25Z" fill="#FFDA22"/>
<g opacity="0.35">
<path opacity="0.35" d="M0.640224 -6.51117C-2.50113 -0.818052 -3.65733 6.00046 -2.1249 12.8442C1.20582 27.7165 15.9652 37.0749 30.8375 33.7442C37.0933 32.3524 42.6664 28.8187 46.5935 23.754C43.0188 27.0747 38.624 29.3832 33.8611 30.4417C24.9893 32.4289 16.1571 29.8996 9.7686 24.3782C10.1173 24.2602 10.44 24.0761 10.719 23.8361C10.6685 23.8795 10.616 23.9214 10.563 23.961C10.4372 23.8563 10.3123 23.7505 10.1883 23.6436C10.723 23.4659 11.192 23.1316 11.5346 22.6841C12.1949 21.0462 11.6141 18.703 9.96253 16.9095C7.93621 14.7082 5.06403 14.1691 3.54903 15.7058C3.43898 15.8173 3.33831 15.9376 3.24804 16.0656C2.19451 13.9979 1.40555 11.8057 0.899795 9.54076C-0.63187 2.70508 0.51751 -4.10485 3.64851 -9.79367C3.1983 -9.7861 2.74456 -9.5894 2.42035 -9.16242C1.13739 -7.47232 0.0524631 -5.64067 -0.813165 -3.70337C-0.382573 -4.66622 0.102681 -5.60368 0.640224 -6.51117Z" fill="#371A45"/>
</g>
<g opacity="0.35">
<path opacity="0.35" d="M38.2382 25.6044C39.9552 25.5852 41.3338 24.3825 41.3175 22.9181C41.3011 21.4536 39.896 20.282 38.179 20.3012C36.462 20.3204 35.0834 21.5231 35.0998 22.9875C35.1161 24.452 36.5213 25.6236 38.2382 25.6044Z" fill="#371A45"/>
</g>
<g opacity="0.35">
<path opacity="0.35" d="M25.5536 19.4518C25.7567 18.1946 24.2851 16.911 22.2666 16.5848C20.248 16.2586 18.447 17.0132 18.2438 18.2704C18.0406 19.5275 19.5123 20.8111 21.5308 21.1374C23.5493 21.4636 25.3504 20.7089 25.5536 19.4518Z" fill="#371A45"/>
</g>
<path d="M24.9076 20.2607C25.0358 19.471 23.716 18.5997 21.9597 18.3146C20.2034 18.0295 18.6758 18.4386 18.5476 19.2283C18.4194 20.018 19.7392 20.8893 21.4955 21.1744C23.2518 21.4594 24.7795 21.0504 24.9076 20.2607Z" fill="#FFDA22"/>
<path d="M39.2179 25.2794C40.4434 24.8924 41.1838 23.7769 40.8715 22.7879C40.5592 21.799 39.3125 21.311 38.0869 21.698C36.8613 22.0851 36.121 23.2005 36.4333 24.1895C36.7456 25.1784 37.9923 25.6664 39.2179 25.2794Z" fill="#FFDA22"/>
<path d="M26.0997 28.7723C26.1002 29.0336 26.0663 29.2938 25.9987 29.5462C25.5142 31.3625 23.4422 32.3505 21.3699 31.7531C19.8137 31.3036 18.6997 30.0881 18.4477 28.7425L26.0997 28.7723Z" fill="#FFDA22"/>
<path d="M26.1968 28.7721C26.2816 29.7149 25.8385 30.7007 25.0858 31.3178C24.7141 31.6324 24.2735 31.8584 23.8122 32.0041C23.3487 32.1442 22.8646 32.2039 22.381 32.1809C21.4151 32.1353 20.4897 31.7793 19.7424 31.1658C19.3732 30.8636 19.0605 30.4983 18.819 30.0869C18.5791 29.6798 18.426 29.2274 18.3695 28.7582C18.3669 28.7385 18.3719 28.7185 18.3835 28.7023C18.3951 28.6862 18.4124 28.675 18.4319 28.6712C18.4515 28.6673 18.4717 28.671 18.4886 28.6816C18.5055 28.6921 18.5177 28.7087 18.5228 28.7279V28.7294C18.7624 29.5879 19.3103 30.3184 20.0075 30.8252C20.7046 31.332 21.5508 31.6309 22.4045 31.66C22.8298 31.6795 23.2555 31.6298 23.6649 31.5127C24.0734 31.3991 24.4573 31.2108 24.7972 30.9572C25.1411 30.6992 25.4263 30.371 25.6339 29.9944C25.8415 29.6178 25.9667 29.2015 26.0013 28.7729C26.0031 28.7484 26.0141 28.7254 26.0321 28.7087C26.0501 28.692 26.0737 28.6827 26.0983 28.6827C26.1229 28.6827 26.1465 28.692 26.1645 28.7087C26.1825 28.7254 26.1935 28.7484 26.1952 28.7729L26.1968 28.7721Z" fill="#371A45"/>
<path d="M6.37952 13.2709C5.40992 13.1388 4.47314 13.2878 3.67246 13.7597C2.22109 14.6147 1.62873 16.2807 1.77871 18.2267C1.87719 19.5036 2.33017 20.8779 3.15055 22.1682C5.22105 25.4255 8.8477 26.919 11.251 25.503C12.1451 24.9763 12.744 24.1208 13.0367 23.0863C13.5308 21.341 13.0728 19.1402 11.7727 17.0945L6.37952 13.2709Z" fill="#FFDA22"/>
<path d="M3.67373 13.7598C3.30102 14.0209 2.97896 14.3476 2.72332 14.7241C2.47415 15.0942 2.28838 15.5032 2.17362 15.9343C2.05884 16.3628 1.99735 16.8038 1.99056 17.2473C1.98049 17.6914 2.01041 18.1355 2.07995 18.5742C2.15276 19.0116 2.25895 19.4428 2.39759 19.864C2.53801 20.285 2.70994 20.6947 2.91193 21.0899C3.3107 21.8837 3.81786 22.6183 4.41885 23.2725C5.01198 23.929 5.70105 24.5009 6.46562 24.9367C7.22463 25.3798 8.06798 25.6806 8.93431 25.7644C9.36709 25.8052 9.80356 25.7797 10.2286 25.6887C10.6556 25.5952 11.0623 25.4258 11.4293 25.1885C11.8031 24.9472 12.1305 24.6407 12.3958 24.2835C12.6657 23.9164 12.882 23.5127 13.0382 23.0846C12.9913 23.3113 12.9283 23.5344 12.8498 23.7522C12.7678 23.9714 12.6679 24.1836 12.5514 24.3865C12.3108 24.7983 11.9953 25.1614 11.6212 25.4571C11.2374 25.7519 10.8032 25.9744 10.3397 26.1136C9.87261 26.2495 9.38654 26.3086 8.90048 26.2886C7.92886 26.2606 6.99511 25.9399 6.15302 25.4932C5.31169 25.0359 4.56606 24.4231 3.92067 23.7257C3.28321 23.02 2.75077 22.2262 2.33977 21.3686C1.94006 20.5101 1.65196 19.5898 1.5598 18.6416C1.46359 17.6993 1.53227 16.7284 1.85951 15.8316C2.02919 15.3874 2.26503 14.9665 2.57434 14.61C2.61348 14.566 2.65009 14.5203 2.69099 14.4779L2.81724 14.3549C2.90108 14.2734 2.98961 14.1969 3.08237 14.1257C3.17226 14.0514 3.27452 13.9934 3.36921 13.9275C3.46895 13.8681 3.57273 13.8151 3.67373 13.7598Z" fill="#371A45"/>
<path d="M38.1468 25.8274C37.4623 25.8585 36.783 25.6948 36.1879 25.3552C35.887 25.1788 35.6158 24.956 35.3844 24.6949C35.1512 24.4264 34.9708 24.1162 34.8527 23.7806C34.611 23.1022 34.6933 22.3235 35.0264 21.6882C35.1925 21.3688 35.4258 21.091 35.6889 20.8549C35.9522 20.6187 36.2503 20.4244 36.5727 20.2787C36.8937 20.138 37.2312 20.0382 37.5771 19.9818C37.9224 19.9322 38.2724 19.9246 38.6194 19.9591C38.9657 20.0014 39.3054 20.0862 39.631 20.2116C39.9556 20.3416 40.2588 20.5195 40.5306 20.7395C41.0798 21.1688 41.4757 21.8111 41.5767 22.5045C41.6288 22.8487 41.6071 23.2 41.5131 23.5352C41.4663 23.7001 41.4028 23.8598 41.3237 24.0119C41.248 24.1634 41.1417 24.2988 41.046 24.4371C41.0403 24.4457 41.0331 24.4531 41.0246 24.4588C41.0161 24.4646 41.0066 24.4686 40.9965 24.4707C40.9865 24.4728 40.9761 24.4729 40.966 24.4709C40.9559 24.469 40.9463 24.4651 40.9378 24.4595C40.9292 24.4538 40.9218 24.4466 40.9161 24.4381C40.9103 24.4296 40.9063 24.4201 40.9042 24.41C40.9021 24.4 40.902 24.3896 40.904 24.3795C40.9059 24.3695 40.9098 24.3599 40.9154 24.3513L40.9187 24.3465C41.2588 23.8089 41.3942 23.1597 41.2538 22.5613C41.1275 21.9647 40.7566 21.4372 40.2642 21.0802C39.2838 20.3494 37.8852 20.2449 36.7886 20.7537C36.2437 21.0095 35.7594 21.4102 35.4786 21.9328C35.195 22.4477 35.1183 23.0711 35.2917 23.6385C35.4652 24.2059 35.869 24.7038 36.3808 25.0464C36.8941 25.3931 37.513 25.5868 38.1483 25.6345C38.1728 25.6365 38.1956 25.6478 38.2121 25.666C38.2287 25.6841 38.2377 25.7079 38.2374 25.7325C38.2372 25.7571 38.2276 25.7807 38.2106 25.7985C38.1936 25.8163 38.1706 25.827 38.146 25.8284L38.1468 25.8274Z" fill="#371A45"/>
<path d="M42.2764 21.3174C42.665 21.8664 42.8845 22.5171 42.9077 23.1892C42.9329 23.8664 42.7383 24.5469 42.3951 25.1335C42.0557 25.7253 41.552 26.2074 40.9857 26.5727C40.4139 26.9329 39.7776 27.1785 39.1121 27.2959C38.4495 27.412 37.7714 27.407 37.1105 27.2812C36.4492 27.156 35.82 26.8983 35.2607 26.5237C34.7052 26.1505 34.2227 25.6577 33.9 25.0701C33.5813 24.4823 33.4218 23.8076 33.4692 23.1534C33.4706 23.1334 33.4796 23.1147 33.4943 23.1012C33.509 23.0876 33.5283 23.0802 33.5483 23.0804C33.5683 23.0807 33.5875 23.0886 33.6019 23.1026C33.6162 23.1165 33.6247 23.1354 33.6255 23.1554C33.6552 23.7761 33.8467 24.3782 34.181 24.9019C34.5093 25.4198 34.9764 25.8387 35.494 26.1589C36.5369 26.799 37.8246 26.9992 39.0209 26.7803C39.6203 26.6735 40.1943 26.4548 40.7127 26.1357C40.9738 25.9816 41.2089 25.79 41.4313 25.5865C41.5361 25.4786 41.6409 25.3696 41.7376 25.2547L41.875 25.0757C41.8977 25.0459 41.9219 25.0168 41.9434 24.986L42.0025 24.8903L42.1214 24.6987C42.1583 24.6333 42.1873 24.5638 42.2206 24.4967C42.2931 24.3639 42.3355 24.2189 42.3868 24.078C42.4129 24.0075 42.4331 23.9348 42.4471 23.8609L42.4976 23.6407C42.5123 23.491 42.5368 23.341 42.5428 23.1895C42.5681 22.5835 42.4095 21.9689 42.1136 21.4197C42.1021 21.398 42.0993 21.3727 42.1057 21.3489C42.1121 21.3252 42.1273 21.3048 42.1481 21.2918C42.169 21.2788 42.194 21.2742 42.2182 21.2789C42.2423 21.2836 42.2638 21.2973 42.2782 21.3172L42.2764 21.3174Z" fill="#371A45"/>
<g opacity="0.35">
<path opacity="0.35" d="M19.8085 28.7333C19.9489 29.5281 20.6417 30.2326 21.6265 30.4755C22.9395 30.7987 24.2744 30.1808 24.611 29.0956C24.6575 28.9462 24.683 28.7912 24.6868 28.6348C24.7678 26.9299 23.3053 26.1666 22.0911 26.1403C20.7192 26.1118 19.5719 26.9733 19.8085 28.7333Z" fill="#371A45"/>
</g>
<path d="M19.9431 28.8289C20.0835 29.6237 20.7763 30.3282 21.7611 30.5711C23.0741 30.8941 24.4091 30.2762 24.7456 29.191C24.7922 29.0416 24.8177 28.8865 24.8214 28.7301C24.4742 28.1928 23.8778 27.7651 23.1258 27.5793C21.7932 27.2515 20.4377 27.8035 19.9431 28.8289Z" fill="#FFDA22"/>
<path d="M22.8281 26.1289C23.3573 26.2437 23.8422 26.5085 24.225 26.8915C24.4189 27.0883 24.5808 27.3142 24.7047 27.5611C24.8299 27.8143 24.908 28.088 24.9352 28.3691C24.9664 28.6554 24.9348 28.945 24.8426 29.2178C24.7549 29.4937 24.6133 29.7495 24.426 29.9702C24.0432 30.4048 23.5094 30.6787 22.9559 30.7742C21.8449 30.9628 20.6677 30.479 20.0304 29.5622C19.714 29.1077 19.5413 28.5408 19.6042 27.9873C19.6671 27.4339 19.9602 26.9228 20.3892 26.6079C20.4052 26.5968 20.4247 26.592 20.444 26.5945C20.4633 26.597 20.481 26.6066 20.4937 26.6214C20.5063 26.6362 20.5129 26.6552 20.5123 26.6747C20.5116 26.6941 20.5038 26.7126 20.4902 26.7266C20.1408 27.0751 19.937 27.5412 19.9289 28.0116C19.9145 28.4815 20.0943 28.939 20.3779 29.3079C20.9538 30.0455 21.9585 30.4245 22.8645 30.2596C23.3147 30.1768 23.7409 29.9644 24.0381 29.6306C24.3383 29.2935 24.4945 28.8521 24.4729 28.4012C24.4537 27.949 24.2601 27.4988 23.9535 27.1364C23.6505 26.7693 23.2344 26.491 22.7723 26.3143C22.7491 26.3058 22.7299 26.2888 22.7187 26.2667C22.7076 26.2446 22.7053 26.2191 22.7123 26.1953C22.7193 26.1716 22.7352 26.1514 22.7565 26.139C22.7779 26.1265 22.8033 26.1226 22.8274 26.1282L22.8281 26.1289Z" fill="#371A45"/>
<g opacity="0.35">
<path opacity="0.35" d="M10.8718 23.6909C12.512 22.3302 12.3238 19.3977 10.4516 17.141C8.57932 14.8842 5.73196 14.1579 4.09182 15.5186C2.45167 16.8793 2.63982 19.8118 4.51207 22.0685C6.38431 24.3253 9.23166 25.0516 10.8718 23.6909Z" fill="#371A45"/>
</g>
<path d="M10.2325 23.9644C11.3783 22.8447 10.8676 20.464 9.09191 18.6469C7.3162 16.8298 4.94786 16.2644 3.80209 17.3841C2.65631 18.5038 3.16698 20.8845 4.9427 22.7016C6.71841 24.5187 9.08674 25.0841 10.2325 23.9644Z" fill="#FFDA22"/>
<path d="M8.31194 24.3443C8.79169 24.3847 9.27145 24.3369 9.70953 24.1799C10.1443 24.0251 10.5311 23.7595 10.8316 23.4093C11.1298 23.0648 11.3366 22.6447 11.45 22.1973C11.5654 21.7461 11.6062 21.2791 11.571 20.8148C11.5063 19.8806 11.1978 18.9607 10.7228 18.1429C10.2562 17.3175 9.62464 16.597 8.86744 16.0264C8.11878 15.4638 7.22619 15.076 6.31871 15.028C5.87048 15.0007 5.42226 15.0817 5.01202 15.2644C4.6045 15.4494 4.25204 15.7372 3.98914 16.0994C3.7225 16.463 3.54778 16.8983 3.45056 17.3541C3.35335 17.8098 3.33517 18.2883 3.37734 18.764C3.45662 19.7192 3.79472 20.6517 4.27447 21.5026C4.28481 21.5248 4.28673 21.55 4.27986 21.5736C4.273 21.5971 4.25782 21.6173 4.23716 21.6305C4.21649 21.6436 4.19175 21.6488 4.16754 21.6451C4.14333 21.6414 4.1213 21.629 4.10555 21.6102C3.51626 20.7777 3.12519 19.8214 2.96223 18.8145C2.88252 18.3005 2.88337 17.7772 2.96475 17.2634C3.04461 16.7344 3.2393 16.2293 3.53515 15.7835C3.84012 15.3267 4.26183 14.9598 4.75649 14.721C5.25038 14.4816 5.80336 14.3781 6.34093 14.3945C6.8747 14.4128 7.40105 14.5252 7.89582 14.7263C8.38314 14.9211 8.84342 15.1778 9.26538 15.4898C10.1065 16.109 10.7875 16.9195 11.2962 17.8192C11.7959 18.7234 12.1277 19.7382 12.1626 20.7865C12.1849 21.314 12.1195 21.8415 11.9689 22.3475C11.8134 22.854 11.5485 23.336 11.1773 23.7246C10.8055 24.1102 10.3379 24.3902 9.8224 24.5359C9.31311 24.6788 8.78084 24.6829 8.27836 24.5907C8.24715 24.5848 8.21939 24.5671 8.20077 24.5414C8.18216 24.5156 8.17409 24.4837 8.17822 24.4522C8.18235 24.4207 8.19837 24.392 8.223 24.3719C8.24762 24.3519 8.27899 24.342 8.31068 24.3443H8.31194Z" fill="#371A45"/>
<path d="M18.8954 17.3912C18.5762 17.683 18.3503 18.0628 18.3419 18.4625L18.3381 18.6107L18.3581 18.7577C18.363 18.8071 18.3739 18.8557 18.3907 18.9024C18.4061 18.9496 18.4159 18.9983 18.4348 19.0443C18.4775 19.1357 18.5106 19.2301 18.5666 19.3157C18.5937 19.3589 18.6149 19.4046 18.6459 19.4457L18.7383 19.569C18.9908 19.8949 19.3282 20.1631 19.6938 20.379C20.0582 20.6004 20.4584 20.7658 20.8705 20.8913C20.9745 20.9196 21.0773 20.9527 21.1823 20.9774L21.4992 21.0458L21.8196 21.0943C21.9267 21.1077 22.0345 21.116 22.1418 21.1274C22.5719 21.161 23.0044 21.1409 23.4295 21.0676C23.8505 20.9903 24.2651 20.8557 24.6163 20.6221C24.7994 20.5138 24.9483 20.3653 25.0837 20.206C25.2124 20.0379 25.3067 19.8462 25.3614 19.6417L25.3632 19.6351C25.3683 19.616 25.3805 19.5996 25.3973 19.5891C25.4141 19.5786 25.4342 19.5749 25.4536 19.5788C25.473 19.5826 25.4903 19.5936 25.5018 19.6097C25.5134 19.6257 25.5185 19.6455 25.516 19.6652C25.4919 19.906 25.4154 20.1387 25.292 20.3469C25.1639 20.5534 25.0004 20.7357 24.809 20.8852C24.4302 21.1882 23.9802 21.3781 23.5212 21.4885C23.0604 21.6034 22.5849 21.6382 22.1143 21.6205C21.6428 21.6013 21.1756 21.524 20.723 21.3905C20.2673 21.2574 19.8312 21.0643 19.4264 20.8163C19.2234 20.6886 19.0312 20.5444 18.8517 20.3853C18.7623 20.3045 18.678 20.2166 18.5934 20.1303L18.4768 19.9889C18.4366 19.9425 18.3999 19.8933 18.3669 19.8417L18.2659 19.6874C18.2321 19.6369 18.2073 19.5776 18.1781 19.523C18.1169 19.4154 18.0786 19.2937 18.0366 19.1758C18.0197 19.1149 18.0058 19.0531 17.995 18.9907C17.98 18.9291 17.9715 18.866 17.9697 18.8026L17.9612 18.6125L17.9811 18.4226C18.016 18.1731 18.1106 17.9357 18.2571 17.7308C18.3981 17.5343 18.5752 17.3665 18.779 17.2364C18.7995 17.2234 18.8242 17.2186 18.8481 17.2228C18.872 17.2271 18.8934 17.2401 18.9083 17.2593C18.9231 17.2785 18.9302 17.3026 18.9282 17.3268C18.9262 17.351 18.9152 17.3736 18.8974 17.3901L18.8954 17.3912Z" fill="#371A45"/>
<path d="M20.9905 22.4056C21.5274 22.5718 22.0898 22.6402 22.6509 22.6076C23.2053 22.5751 23.7509 22.4541 24.2669 22.249C24.781 22.047 25.2646 21.7614 25.6653 21.3905C26.066 21.0196 26.369 20.5418 26.4326 19.9795V19.976C26.4345 19.9568 26.4434 19.939 26.4576 19.9259C26.4718 19.9128 26.4903 19.9054 26.5096 19.9052C26.5289 19.9049 26.5477 19.9117 26.5622 19.9244C26.5768 19.937 26.5862 19.9546 26.5887 19.9737C26.6321 20.279 26.5818 20.5997 26.4707 20.8933C26.3549 21.1856 26.1874 21.4547 25.9764 21.6877C25.5628 22.1571 25.0285 22.4977 24.4614 22.7323C24.1757 22.8475 23.8798 22.9355 23.5776 22.9949C23.2747 23.0508 22.9669 23.0755 22.659 23.0686C22.0454 23.055 21.4271 22.8999 20.9104 22.581C20.89 22.5687 20.8748 22.5492 20.8678 22.5264C20.8607 22.5036 20.8623 22.4789 20.8721 22.4572C20.882 22.4354 20.8994 22.418 20.9213 22.4083C20.9431 22.3985 20.9677 22.3971 20.9905 22.4043V22.4056Z" fill="#371A45"/>
<g opacity="0.5">
<path opacity="0.5" d="M51.0463 13.1545C50.7092 12.2579 49.559 11.7701 48.6475 12.4127C45.6773 14.5064 42.3218 15.9911 38.7748 16.7809C32.5976 18.1639 26.4396 17.3589 21.1127 14.8784C21.2542 14.9884 21.3965 15.0956 21.5394 15.1998C21.5116 15.1874 21.4836 15.1761 21.4558 15.1634C21.3657 15.1228 21.2748 15.0821 21.1849 15.0397C21.1424 15.0203 21.1018 15.0006 21.0601 14.9809C21.0005 14.9536 20.9417 14.9253 20.8834 14.8963C20.6718 14.7953 20.4625 14.6905 20.2539 14.5834C20.187 14.5491 20.1196 14.5153 20.0519 14.4802C19.5777 14.2322 19.1103 13.9703 18.6498 13.6944C18.6185 13.6757 18.5869 13.6575 18.5558 13.6386C18.4407 13.5689 18.3271 13.4989 18.2127 13.4277C17.7222 13.1231 17.2412 12.802 16.7699 12.4647C16.6924 12.4089 16.6141 12.3534 16.5363 12.2963C16.1155 11.9891 15.7031 11.6698 15.2991 11.3386C15.0971 11.1733 14.8978 11.0049 14.7012 10.8336C14.5046 10.6622 14.31 10.4881 14.1174 10.3111C14.0366 10.2374 13.9571 10.1627 13.8778 10.0879C13.803 10.0181 13.7289 9.94754 13.6553 9.87633C13.6033 9.82583 13.5508 9.77533 13.499 9.72483C13.21 9.44254 12.9274 9.15334 12.6511 8.85724C12.5559 8.75624 12.4625 8.65322 12.3688 8.55045C11.9647 8.10437 11.5745 7.64566 11.1982 7.17433C11.1301 7.08848 11.0627 7.00204 10.9962 6.91501C10.8814 6.76704 10.7672 6.61807 10.6556 6.46733C10.6304 6.4345 10.6074 6.40117 10.5831 6.36835C10.4034 6.12426 10.2275 5.87698 10.0554 5.6265C9.90241 5.40363 9.75243 5.17823 9.60547 4.95031C9.14323 4.23321 8.71398 3.49136 8.31772 2.72477C8.21319 2.52277 8.11218 2.31951 8.01245 2.11524C7.9569 2.00212 7.9016 1.88799 7.84731 1.77487C6.98544 -0.0595942 6.32728 -1.98301 5.88463 -3.96092C5.80484 -4.31846 5.73313 -4.67676 5.66899 -5.03481C5.55991 -5.63146 5.467 -6.22863 5.39806 -6.82352C5.38695 -6.91997 5.37862 -7.01643 5.36852 -7.11288C5.3266 -7.51309 5.29075 -7.91331 5.26474 -8.31175C5.25359 -8.50765 5.20643 -8.69982 5.12561 -8.87861C4.86529 -9.45305 4.28328 -9.78888 3.68788 -9.79317C3.59882 -9.79352 3.50988 -9.78643 3.422 -9.77196C3.36651 -9.7629 3.31155 -9.75085 3.25737 -9.73585C3.19329 -9.71813 3.13045 -9.6962 3.06926 -9.6702C3.03088 -9.65404 2.9935 -9.63611 2.95588 -9.61667C2.91447 -9.59496 2.87382 -9.57122 2.83392 -9.54547C2.67553 -9.44275 2.53632 -9.31311 2.4226 -9.16242C2.40518 -9.1397 2.38877 -9.11647 2.3721 -9.09374C3.27883 -9.37528 4.35802 -8.78898 4.42619 -7.68277C4.45826 -7.18838 4.50194 -6.69146 4.55926 -6.19479C4.67234 -5.23279 4.83483 -4.27725 5.04608 -3.33195C5.48797 -1.35466 6.14546 0.568189 7.00674 2.40208C7.15824 2.7225 7.31454 3.03838 7.47689 3.35173C7.87416 4.11832 8.30341 4.86016 8.76464 5.57726C9.09845 6.09691 9.4485 6.60267 9.81479 7.09454C9.99171 7.33374 10.173 7.56941 10.3587 7.80154C10.8209 8.3838 11.306 8.9452 11.8138 9.48571C12.0897 9.78198 12.3724 10.0712 12.6617 10.3533C12.8637 10.5515 13.07 10.7467 13.2801 10.9386C14.048 11.6454 14.8553 12.3081 15.6983 12.9235C15.7761 12.9808 15.8543 13.0364 15.9319 13.0922C16.4032 13.4288 16.8841 13.7498 17.3746 14.0552C17.489 14.1264 17.6019 14.1964 17.7178 14.266C18.2076 14.563 18.7063 14.8435 19.2139 15.1076C19.4881 15.2519 19.765 15.3906 20.0446 15.5237C20.1034 15.5528 20.162 15.5808 20.2213 15.6083C20.263 15.628 20.3036 15.6475 20.3461 15.6672C20.4362 15.7093 20.5271 15.7502 20.6172 15.7909C21.0982 16.0089 21.5853 16.2129 22.0787 16.403C22.2267 16.461 22.3757 16.5158 22.5254 16.5699C22.686 16.6287 22.8473 16.6868 23.0097 16.7423C23.4351 16.8888 23.8682 17.0259 24.301 17.1514C24.825 17.305 25.3539 17.442 25.8877 17.5622C36.3412 21.4974 47.6411 14.6332 49.1116 14.9008C50.038 15.07 49.835 16.4757 49.4131 17.8139C47.6191 22.6093 44.5324 26.8144 40.4951 29.9632C40.5178 29.9468 40.5413 29.9309 40.564 29.9145L40.5673 29.9122C40.6354 29.8617 40.7019 29.8112 40.7693 29.7607C41.0019 29.5893 41.2313 29.4144 41.4573 29.2358C41.7447 29.0093 42.0273 28.7777 42.3052 28.5409C42.941 27.9975 43.5501 27.4279 44.1323 26.832C44.4966 26.4586 44.8501 26.0754 45.1928 25.6823C45.5355 25.2893 45.8659 24.8875 46.1839 24.4769C46.3433 24.2714 46.4998 24.0637 46.6533 23.854C47.4208 22.8053 48.1136 21.704 48.7266 20.5581C48.8595 20.31 48.9888 20.0597 49.1144 19.8072C49.177 19.6812 49.2388 19.555 49.2997 19.4284C50.094 17.769 50.72 16.0342 51.1682 14.2499C51.2642 13.8822 51.2208 13.4921 51.0463 13.1545Z" fill="white"/>
</g>
<path d="M24.4271 35.5866C18.8895 35.5866 13.4158 33.9279 8.75717 30.7989C3.27236 27.1154 -0.746677 21.6122 -2.55963 15.3027C-2.64043 15.0192 -2.71113 14.7644 -2.77173 14.523C-2.83586 14.273 -2.89798 14.0145 -2.96211 13.7327C-3.00883 13.5264 -3.05301 13.3199 -3.09493 13.1143C-3.13684 12.9088 -3.17623 12.702 -3.21335 12.496C-3.24921 12.296 -3.28304 12.0957 -3.31435 11.8965C-3.33152 11.7887 -3.34768 11.6796 -3.36485 11.5703C-3.37647 11.4913 -3.38732 11.4132 -3.39843 11.3352L-3.40752 11.2698C-3.42192 11.162 -3.4353 11.0572 -3.44817 10.9517C-3.46105 10.8461 -3.47343 10.7461 -3.48479 10.6431C-3.49615 10.5401 -3.50726 10.4378 -3.51736 10.3346C-3.52746 10.2313 -3.53756 10.1313 -3.54665 10.0285C-3.5565 9.91818 -3.56534 9.81844 -3.5719 9.71972L-3.57594 9.66921C-3.58276 9.58362 -3.58932 9.49827 -3.59437 9.41293C-3.59715 9.3796 -3.59967 9.3392 -3.6022 9.2988L-3.61609 9.06397C-3.62215 8.96499 -3.62694 8.86197 -3.63124 8.75895C-3.65346 8.26607 -3.66255 7.76713 -3.65775 7.27753L-3.65548 7.05584C-3.65346 6.92504 -3.65018 6.79702 -3.64563 6.6685C-3.64361 6.59654 -3.64184 6.53114 -3.63881 6.4665C-3.6224 6.03473 -3.59538 5.59538 -3.55852 5.16386L-3.53781 4.93004C-3.53453 4.8952 -3.5315 4.86035 -3.52746 4.82576C-3.51963 4.73587 -3.50878 4.63563 -3.49767 4.53463C-3.45676 4.15108 -3.405 3.75187 -3.34415 3.35015C-3.33001 3.25319 -3.3141 3.15345 -3.29768 3.05397C-3.17143 2.28081 -3.01084 1.49831 -2.81793 0.730966C-2.77147 0.547146 -2.72342 0.363831 -2.67376 0.18102C-2.56518 -0.214647 -2.4513 -0.598446 -2.33515 -0.960531C-2.3099 -1.03881 -2.28466 -1.12036 -2.25713 -1.20167C-2.1324 -1.58042 -1.99377 -1.97179 -1.84631 -2.36317C-1.78294 -2.53007 -1.71855 -2.69495 -1.65214 -2.85958C-1.55796 -3.09542 -1.45923 -3.33277 -1.35924 -3.56381C-1.30874 -3.68147 -1.25597 -3.79989 -1.2032 -3.91731C-0.855506 -4.69324 -0.46716 -5.46412 -0.0475054 -6.20824C0.0961671 -6.46276 0.245394 -6.71778 0.396389 -6.96574C0.482238 -7.1079 0.570614 -7.25081 0.659494 -7.39246C0.754435 -7.54396 0.8519 -7.69546 0.950375 -7.84494C1.12081 -8.10502 1.30034 -8.36863 1.49956 -8.65092C1.62455 -8.82767 1.75206 -9.00165 1.87983 -9.17486C1.94396 -9.26122 2.00885 -9.34732 2.07349 -9.43292C2.11628 -9.48975 2.16213 -9.5442 2.21086 -9.59603C2.21919 -9.60537 2.23131 -9.61876 2.24469 -9.63189C2.26388 -9.65234 2.28383 -9.67128 2.30403 -9.69021C2.31589 -9.70208 2.32928 -9.7137 2.3419 -9.72481C2.35453 -9.73592 2.36311 -9.74349 2.37397 -9.75258L2.39164 -9.76798C2.41689 -9.78919 2.43381 -9.80207 2.45098 -9.8147L2.47143 -9.8306C2.48456 -9.84096 2.49668 -9.85106 2.51082 -9.86065L2.52673 -9.87176C2.84669 -10.0987 3.22739 -10.2243 3.61955 -10.2323C3.62796 -10.2328 3.63639 -10.2328 3.6448 -10.2323H3.69884H3.70692C3.79238 -10.2309 3.87766 -10.2238 3.9622 -10.2111C4.87953 -10.0791 5.57592 -9.37787 5.69384 -8.46508C5.70015 -8.42039 5.70419 -8.37267 5.70748 -8.32419C5.71606 -8.18329 5.72565 -8.04644 5.73702 -7.91034C5.74333 -7.82146 5.75065 -7.73839 5.75848 -7.6538C5.77161 -7.50533 5.78524 -7.35737 5.80166 -7.21016C5.811 -7.1137 5.8211 -7.02381 5.83145 -6.93241C5.89028 -6.41276 5.96553 -5.88958 6.05492 -5.37676C6.06981 -5.28611 6.08521 -5.20001 6.10137 -5.11365C6.11779 -5.02023 6.13496 -4.93109 6.15187 -4.84171C6.19556 -4.6185 6.24075 -4.3968 6.28949 -4.1741L6.31625 -4.05467C6.33368 -3.9769 6.3511 -3.89938 6.36953 -3.82186L6.38014 -3.77641C6.40539 -3.67541 6.42659 -3.5787 6.45109 -3.4825C6.46598 -3.42039 6.48012 -3.36408 6.49452 -3.30853C6.51648 -3.22091 6.5382 -3.13784 6.56042 -3.05401C6.56698 -3.02876 6.57103 -3.01134 6.57582 -2.99492L6.58011 -2.97952C6.60991 -2.86564 6.64122 -2.75227 6.67329 -2.63991C6.70889 -2.51164 6.745 -2.38615 6.78186 -2.26116C6.83236 -2.09274 6.88286 -1.9271 6.93614 -1.76121C6.96341 -1.67502 6.9911 -1.58884 7.01921 -1.50265L7.07602 -1.33272C8.36377 2.50528 10.4487 5.92918 13.2701 8.84556C17.8656 13.5941 23.9986 16.5165 30.5411 17.074C32.0773 17.205 33.6218 17.2039 35.1578 17.0705C35.2192 17.0654 35.2785 17.0596 35.3381 17.0541L35.427 17.0457C35.4717 17.0415 35.5179 17.0367 35.5643 17.0316C35.6686 17.0218 35.7663 17.0112 35.8638 17C35.9247 16.9932 35.984 16.9862 36.0431 16.9788C36.2115 16.9589 36.3756 16.9372 36.5405 16.9139C36.7526 16.8847 36.9634 16.8531 37.1743 16.8193C37.2957 16.7985 37.4215 16.7771 37.5477 16.7551C37.6788 16.7321 37.8091 16.7082 37.9399 16.6826L37.9626 16.6781C38.0914 16.6529 38.2206 16.6276 38.3494 16.6003C38.4719 16.5751 38.5953 16.5486 38.7193 16.5208C39.3857 16.3728 40.0576 16.1963 40.7181 15.9966C40.8287 15.9628 40.936 15.9299 41.0428 15.8956C41.1537 15.8613 41.2607 15.8259 41.3681 15.7903C41.4754 15.7547 41.5748 15.7214 41.6761 15.687L41.6897 15.6822C43.6799 14.997 45.5834 14.0818 47.3614 12.9552L47.4432 12.9032C47.5078 12.8621 47.5725 12.8212 47.6364 12.7793L47.8565 12.6338C47.9717 12.5581 48.0856 12.4823 48.1982 12.4033L48.4726 12.2114C48.7053 12.0462 48.9704 11.9323 49.2503 11.8773C49.2955 11.8685 49.3415 11.8614 49.3877 11.8564C49.4757 11.8449 49.5644 11.8401 49.6531 11.842L49.7682 11.8473C49.905 11.8573 50.0403 11.8812 50.1722 11.9187C50.4546 12.001 50.7167 12.1413 50.9418 12.3306C51.2414 12.5824 51.4614 12.9157 51.5754 13.2901C51.6609 13.5773 51.6804 13.8802 51.6322 14.1761C51.6289 14.2013 51.6226 14.2359 51.6158 14.2695C51.6074 14.3074 51.6009 14.3372 51.593 14.3672C51.5355 14.5983 51.4701 14.8439 51.3946 15.1131C51.3594 15.2378 51.3235 15.3622 51.287 15.4863C51.1794 15.8502 51.0598 16.2228 50.9335 16.5935C50.8401 16.8655 50.7547 17.1038 50.6722 17.3235C50.2722 18.3948 49.8074 19.4409 49.2804 20.4558C49.2253 20.5608 49.1711 20.6646 49.1163 20.7671C49.0529 20.8848 48.99 21.0014 48.9259 21.1166C48.8686 21.2201 48.8097 21.3246 48.7509 21.4291C48.5964 21.6993 48.459 21.9319 48.3295 22.1427C48.0613 22.5836 47.7762 23.0237 47.4831 23.4491C47.4647 23.4762 47.447 23.5019 47.4283 23.5272L47.3377 23.658C47.3089 23.6991 47.2796 23.7403 47.2505 23.7814L47.2409 23.7948C47.2359 23.8026 47.2286 23.8127 47.2197 23.8239L47.1748 23.887C47.1442 23.9309 47.1137 23.9731 47.0829 24.0153L47.0122 24.112C46.9943 24.1372 46.9751 24.1625 46.9559 24.1877C46.923 24.2334 46.889 24.2791 46.8549 24.3251L46.8445 24.339C46.8208 24.371 46.7968 24.4031 46.7718 24.4342C46.74 24.4783 46.7069 24.5218 46.6741 24.5644L46.5908 24.6723C46.5716 24.699 46.5516 24.7248 46.5307 24.7498C46.5196 24.7649 46.5082 24.7796 46.4968 24.794C46.4304 24.8793 46.3635 24.9647 46.2948 25.049C46.2849 25.063 46.2742 25.0764 46.2628 25.0891C46.2206 25.1427 46.1779 25.1954 46.135 25.2482L46.1161 25.2714C46.0883 25.3053 46.0605 25.3394 46.0325 25.3724C45.9588 25.4638 45.8774 25.5616 45.7949 25.6585C45.7817 25.6744 45.7747 25.6838 45.7671 25.6913C45.753 25.7067 45.7419 25.7199 45.7318 25.7328C45.6977 25.7734 45.6643 25.812 45.6308 25.8504C45.5972 25.8888 45.5631 25.9302 45.5257 25.9719C45.509 25.9918 45.4916 26.0118 45.4752 26.0315L45.4346 26.0777C45.3841 26.134 45.3366 26.189 45.2874 26.2438L45.2452 26.2905C45.1889 26.3534 45.128 26.4198 45.0684 26.4855C45.047 26.5107 45.0248 26.5342 45.0028 26.5582L44.9775 26.5867C44.927 26.6425 44.8778 26.694 44.8291 26.745L44.8235 26.7511C44.8023 26.7743 44.7803 26.7981 44.7584 26.8208C44.7218 26.8599 44.6788 26.9051 44.6357 26.9506L44.5773 27.0112C44.5346 27.0554 44.4915 27.1 44.4483 27.1437L44.3879 27.2058C44.318 27.2778 44.2471 27.3485 44.1758 27.4195C44.1632 27.4323 44.1506 27.4447 44.1375 27.4578L43.9607 27.6305C43.9456 27.6462 43.9241 27.6674 43.9016 27.6881L43.761 27.8235C43.7065 27.876 43.6517 27.928 43.5969 27.9795C43.5365 28.0368 43.4736 28.0964 43.4098 28.1542C43.3845 28.1795 43.3565 28.2047 43.329 28.2285C43.2583 28.2939 43.1871 28.3585 43.1148 28.4231C43.0896 28.4456 43.0603 28.4736 43.0303 28.4989L43.0103 28.5163C42.9952 28.5307 42.9732 28.5496 42.9507 28.5691L42.9378 28.5805C42.9149 28.6014 42.8873 28.6262 42.857 28.6517C42.8197 28.6855 42.7735 28.7251 42.7267 28.765L42.7136 28.7764C42.7043 28.7847 42.6952 28.7926 42.6858 28.8016L42.6639 28.8206C42.5881 28.8867 42.5101 28.9526 42.4318 29.018C42.4091 29.0377 42.3791 29.0625 42.3495 29.0862C42.2871 29.139 42.2175 29.196 42.1475 29.2534L42.1041 29.2892C42.0894 29.3018 42.0748 29.3145 42.0599 29.3256C42.0387 29.3435 42.0167 29.3609 41.995 29.3778C41.9306 29.4306 41.866 29.4821 41.8008 29.5331L41.7955 29.5392L41.6993 29.6149C41.6443 29.6579 41.5897 29.7005 41.5339 29.7432C41.5115 29.7616 41.4819 29.7844 41.4506 29.8068C41.3665 29.8717 41.2865 29.9331 41.2052 29.9932C41.1613 30.0273 41.1108 30.0657 41.059 30.1025C41.0115 30.1379 40.961 30.1747 40.9095 30.2124L40.5641 30.4598C40.5525 30.4684 40.533 30.482 40.5136 30.4954C40.4522 30.5383 40.3889 30.5823 40.3252 30.626L40.2616 30.6699C40.0975 30.784 39.9202 30.9027 39.7048 31.0433C39.4551 31.2062 39.2251 31.3511 39.0011 31.4865C38.9254 31.5344 38.8418 31.5842 38.7585 31.6329C38.7448 31.6423 38.7307 31.6509 38.7165 31.6582C38.6724 31.6834 38.6277 31.7107 38.5827 31.7367C38.5378 31.7627 38.4926 31.7902 38.4441 31.8178C38.381 31.8546 38.3128 31.8935 38.2444 31.9319L38.1891 31.9632C38.1037 32.0119 38.0169 32.0602 37.9303 32.1081C37.9136 32.118 37.8934 32.1288 37.8734 32.1389C37.8038 32.1771 37.7343 32.2147 37.6631 32.2528C37.5919 32.2909 37.5091 32.3354 37.4283 32.3773C37.3717 32.4071 37.3187 32.4351 37.2649 32.4624C37.2445 32.4737 37.2243 32.4841 37.2036 32.4942C37.1829 32.5043 37.1569 32.5195 37.1334 32.5298C37.0738 32.5609 37.0139 32.5909 36.9538 32.621C36.8468 32.6745 36.738 32.7285 36.6286 32.781C36.4678 32.8588 36.3049 32.9361 36.1413 33.0106L35.7913 33.1729L35.7875 33.1712L35.7307 33.1964L35.4757 33.3103L35.4724 33.3085C35.4159 33.3338 35.3598 33.3565 35.3038 33.3797L35.1919 33.4274C35.1381 33.4497 35.0909 33.4696 35.0417 33.4885C35.023 33.4969 35.004 33.5045 34.9843 33.5118L34.8846 33.5527L34.824 33.5779C34.7821 33.5946 34.7397 33.6115 34.6978 33.6284C34.6879 33.633 34.676 33.6378 34.6637 33.6426L34.5955 33.6696C34.5321 33.6948 34.4768 33.7158 34.4208 33.7362L34.4028 33.7433C34.3829 33.7509 34.3629 33.7587 34.3427 33.766L34.3203 33.7744C34.2826 33.7893 34.2445 33.8032 34.2054 33.8173C34.1738 33.8299 34.1415 33.8426 34.1097 33.8534L34.0526 33.8736C34.0365 33.8802 34.0198 33.8862 34.0021 33.892C33.9769 33.9016 33.9516 33.9105 33.9264 33.9193C33.8814 33.9362 33.8355 33.9526 33.789 33.9698L33.6299 33.557L33.7754 33.9741L33.6744 34.0105C33.6491 34.0203 33.6239 34.0289 33.5961 34.0372C33.5456 34.0557 33.4951 34.0726 33.4421 34.0897L33.3242 34.1301C33.2509 34.1554 33.1752 34.1806 33.0994 34.2046L32.8684 34.2786C32.7926 34.3026 32.7169 34.3266 32.6394 34.3501C32.5268 34.3847 32.4144 34.4185 32.3018 34.4511C32.2823 34.4579 32.2634 34.4637 32.2442 34.4685L32.1205 34.5041L32.1187 34.5074L31.74 34.6099C31.6587 34.6321 31.5756 34.6541 31.4925 34.6761L31.3269 34.7182C31.2835 34.7303 31.2342 34.7435 31.184 34.7543C31.1524 34.7629 31.1216 34.7705 31.0898 34.7783C31.0327 34.7923 30.9772 34.8055 30.9231 34.818C30.8941 34.8258 30.8663 34.8324 30.8388 34.8379C30.7954 34.8485 30.7524 34.8586 30.7095 34.8687L30.6883 34.874C30.6353 34.8861 30.5823 34.8993 30.5282 34.9096C30.4848 34.9197 30.4338 34.9311 30.3828 34.9422L30.3232 34.9553C30.2818 34.9644 30.2399 34.9738 30.1969 34.9823L30.1038 35.0018L30.0985 35.0116L29.8778 35.0477C29.796 35.0646 29.7152 35.0801 29.6344 35.0955C29.5806 35.1058 29.5334 35.1146 29.4849 35.1235L29.4281 35.1338C29.3569 35.147 29.2839 35.1591 29.2122 35.1727L29.1809 35.1783C29.1655 35.1811 29.1501 35.1838 29.1344 35.1861C29.0397 35.203 28.9352 35.2202 28.8314 35.2366L28.7615 35.2477C28.6807 35.2606 28.6004 35.273 28.5201 35.2848C28.4555 35.2947 28.387 35.3045 28.3181 35.3141L27.9053 35.3699C27.8015 35.3836 27.6982 35.3952 27.5949 35.4075C27.523 35.4161 27.4508 35.424 27.3785 35.4328L27.2879 35.4426C26.3374 35.5401 25.3825 35.5881 24.4271 35.5866ZM2.92366 -9.06149L2.9171 -9.05543C2.9022 -9.04154 2.89185 -9.03371 2.88478 -9.02462L2.85372 -8.99155C2.82683 -8.96345 2.80154 -8.93386 2.77797 -8.90292C2.71434 -8.81858 2.65172 -8.73425 2.58834 -8.65042C2.46411 -8.48209 2.34131 -8.31291 2.21995 -8.14289C2.02704 -7.86944 1.85306 -7.61416 1.6897 -7.36292C1.59476 -7.21773 1.50057 -7.07255 1.40866 -6.92534C1.32206 -6.78747 1.23621 -6.64885 1.15238 -6.50998C1.00567 -6.26833 0.861242 -6.02139 0.723125 -5.77545C0.316853 -5.05406 -0.0596237 -4.30767 -0.396206 -3.55699C-0.446706 -3.44412 -0.497206 -3.32974 -0.547706 -3.21611C-0.644414 -2.99316 -0.73986 -2.76363 -0.831517 -2.53436C-0.896158 -2.37377 -0.957767 -2.2147 -1.01938 -2.05461C-1.16229 -1.67586 -1.29713 -1.29711 -1.41807 -0.927959C-1.44332 -0.850695 -1.46858 -0.77646 -1.49181 -0.700709C-1.60543 -0.347209 -1.71577 0.0252285 -1.82006 0.408019C-1.86803 0.5846 -1.91449 0.762023 -1.95943 0.940288C-2.14628 1.68365 -2.30284 2.4409 -2.42429 3.19133C-2.4402 3.28677 -2.45509 3.3807 -2.46873 3.47413C-2.52807 3.86575 -2.57806 4.25157 -2.6177 4.62401C-2.62856 4.72072 -2.63866 4.8149 -2.64725 4.90984C-2.65154 4.94847 -2.65381 4.97625 -2.65659 5.00402L-2.67654 5.23127C-2.71239 5.65017 -2.73865 6.07563 -2.75456 6.4968C-2.75734 6.56068 -2.7591 6.62103 -2.76087 6.68113V6.694C-2.76525 6.81672 -2.76836 6.9391 -2.77021 7.06114L-2.77248 7.28006C-2.77703 7.75425 -2.76844 8.23703 -2.74723 8.71527C-2.74319 8.8145 -2.73865 8.91146 -2.73284 9.00893L-2.71946 9.23618C-2.71694 9.27304 -2.71466 9.30965 -2.71189 9.34627C-2.70658 9.43313 -2.70027 9.51367 -2.69396 9.59447L-2.68967 9.64825C-2.6826 9.74421 -2.67401 9.8394 -2.66568 9.93459C-2.65583 10.0439 -2.64624 10.1434 -2.63614 10.2424C-2.62604 10.3414 -2.61543 10.4429 -2.60457 10.5421C-2.59372 10.6413 -2.5816 10.7393 -2.56922 10.8388C-2.5566 10.9421 -2.54397 11.0433 -2.53034 11.1448L-2.52125 11.2079C-2.51064 11.2837 -2.50004 11.3594 -2.48893 11.4352C-2.47327 11.5405 -2.45762 11.6463 -2.4407 11.7516C-2.41015 11.9458 -2.37707 12.1404 -2.34248 12.3338C-2.30662 12.5333 -2.26799 12.7328 -2.22784 12.9333C-2.18769 13.1338 -2.14452 13.3315 -2.09932 13.5309C-2.03721 13.8049 -1.97686 14.0554 -1.91474 14.297C-1.85465 14.5308 -1.78849 14.7783 -1.70895 15.0545C1.66495 26.7958 12.3626 34.7021 24.3521 34.7023C25.3014 34.7023 26.25 34.653 27.1942 34.5546L27.2836 34.5448C27.3533 34.5372 27.423 34.5296 27.4924 34.5215C27.5934 34.5099 27.6919 34.4983 27.7909 34.4854L28.1949 34.4309C28.2605 34.4215 28.3262 34.4122 28.3921 34.4023C28.4716 34.3907 28.5474 34.3786 28.6231 34.3667L28.6946 34.3551C28.7932 34.3398 28.892 34.3235 28.991 34.3061L29.0228 34.3006C29.0382 34.2976 29.0536 34.2948 29.0693 34.2925C29.1289 34.2819 29.1988 34.2695 29.2677 34.2567L29.3276 34.2455C29.3718 34.2375 29.416 34.2296 29.4599 34.2203L29.5235 34.2082L29.5306 34.195L29.774 34.1589C29.8523 34.143 29.9354 34.1256 30.0182 34.1084C30.0581 34.1004 30.0954 34.092 30.1328 34.0832L30.1944 34.0698C30.2401 34.0597 30.2873 34.0493 30.3348 34.0382L30.4712 34.0079L30.4936 34.0026C30.5414 33.9913 30.5888 33.9802 30.6368 33.9683L30.6621 33.9627C30.6734 33.9607 30.6845 33.9577 30.6966 33.9544L30.7141 33.9499C30.7676 33.9375 30.8221 33.9246 30.8762 33.9115C30.905 33.9044 30.9282 33.8991 30.9519 33.892L30.9731 33.8867C31.0158 33.8766 31.0577 33.8665 31.0994 33.8547L31.2686 33.8115C31.3443 33.791 31.4264 33.7698 31.5077 33.7476L31.6996 33.6951C31.8006 33.6666 31.9044 33.6373 32.0061 33.6077L32.043 33.5964C32.1546 33.5648 32.2664 33.5312 32.3785 33.4954C32.453 33.4726 32.5275 33.4492 32.6015 33.4259L32.8219 33.3552C32.8957 33.33 32.9691 33.307 33.0426 33.2823L33.1615 33.2416C33.2098 33.2257 33.2552 33.2108 33.2997 33.1944L33.3249 33.1855C33.336 33.1823 33.3466 33.179 33.3572 33.1749L33.4618 33.1378C33.4757 33.1325 33.4903 33.1275 33.5049 33.1227C33.5405 33.1103 33.5807 33.0957 33.6208 33.0808L33.6385 33.0744C33.657 33.0684 33.6751 33.0618 33.6933 33.0547L33.7527 33.0328C33.7723 33.0262 33.792 33.0191 33.811 33.0123C33.8362 33.0037 33.8582 32.9952 33.8804 32.9871L33.8951 32.9815C33.9314 32.9684 33.9668 32.9563 34.0016 32.9416L34.0357 32.929C34.0511 32.9235 34.0665 32.9176 34.0814 32.9116L34.1099 32.9007C34.1655 32.8805 34.215 32.8611 34.2645 32.8416L34.368 32.8002C34.4107 32.7838 34.4533 32.7669 34.4958 32.7497L34.5548 32.7262C34.5844 32.7141 34.6177 32.701 34.6503 32.6869L34.7089 32.6631C34.7546 32.6454 34.8 32.6268 34.8455 32.6078L34.9581 32.5598C35.0275 32.5311 35.0909 32.5043 35.1535 32.4773C35.1919 32.4604 35.2318 32.4429 35.2709 32.4268L35.3692 32.3836L35.5994 32.2808L35.7982 32.1685L35.8191 32.1798C35.9625 32.114 36.1038 32.0473 36.2428 31.9796C36.3484 31.9291 36.4529 31.8776 36.5564 31.8251C36.6145 31.796 36.6716 31.7675 36.7284 31.738L36.7433 31.7304C36.7592 31.7228 36.7756 31.7145 36.7912 31.7051L36.8132 31.6943C36.8233 31.6892 36.8331 31.6842 36.8432 31.6786L36.8556 31.6721C36.9079 31.6453 36.9597 31.618 37.0114 31.591C37.0952 31.5473 37.1705 31.5074 37.245 31.467C37.3195 31.4266 37.3866 31.3913 37.4543 31.3534L37.4937 31.3327C37.5833 31.2822 37.6672 31.2365 37.7502 31.1888L37.8073 31.1567C37.8719 31.1198 37.9366 31.0835 38.0012 31.0456C38.0484 31.0186 38.0901 30.9951 38.132 30.9699C38.1812 30.9413 38.2247 30.9161 38.2676 30.8906L38.2954 30.8731C38.3767 30.8254 38.4575 30.777 38.5368 30.7275C38.7569 30.5941 38.9789 30.4545 39.2203 30.2982C39.4283 30.1626 39.599 30.0482 39.7566 29.9386L39.8217 29.8937C39.8831 29.8513 39.9445 29.8091 40.0056 29.7675C40.0222 29.7558 40.0308 29.7495 40.0407 29.7422L40.3078 29.5503C40.3876 29.4922 40.4638 29.4369 40.5391 29.3814C40.5896 29.346 40.6308 29.3135 40.6729 29.2804C40.7578 29.2175 40.8353 29.1577 40.9128 29.0981L40.9315 29.0842C40.9507 29.0706 40.9688 29.0562 40.9873 29.0413C41.0491 28.9938 41.1017 28.9526 41.1542 28.9115L41.2385 28.8446C41.3059 28.7917 41.3732 28.7383 41.4405 28.6842L41.4506 28.6762C41.4637 28.666 41.4774 28.6557 41.4898 28.6446L41.5867 28.5648C41.6539 28.5098 41.7208 28.4547 41.7887 28.3984C41.8175 28.3752 41.8392 28.357 41.8609 28.3386C41.9422 28.2709 42.0155 28.2078 42.0882 28.1446L42.1531 28.0886C42.1937 28.0537 42.2341 28.0194 42.2735 27.984C42.3056 27.9563 42.3286 27.9361 42.3518 27.9149L42.3717 27.8977C42.3871 27.8841 42.4023 27.8709 42.4174 27.857L42.4442 27.8318C42.4695 27.8088 42.496 27.7861 42.5215 27.7626C42.5972 27.6952 42.6659 27.6323 42.7343 27.5692L42.7447 27.5598C42.7634 27.5437 42.7813 27.5273 42.799 27.5093L42.8113 27.4977C42.8722 27.4429 42.9318 27.3864 42.9914 27.3298C43.0459 27.2793 43.0972 27.2288 43.1487 27.1801L43.2966 27.0379C43.3151 27.0208 43.3262 27.0096 43.3376 26.998L43.5522 26.7862C43.6196 26.719 43.6873 26.6519 43.7542 26.5842L43.8173 26.519C43.8612 26.4746 43.9019 26.4327 43.942 26.391L43.9968 26.334C44.0377 26.291 44.0784 26.2486 44.1188 26.2052C44.1415 26.1817 44.1574 26.164 44.1733 26.1469L44.1852 26.134C44.2357 26.0804 44.2811 26.033 44.3263 25.9825L44.3516 25.9603C44.369 25.9413 44.3867 25.9221 44.4039 25.9024L44.4129 25.8918C44.4723 25.8272 44.5321 25.7618 44.5912 25.6961L44.6346 25.6482C44.6771 25.6007 44.7225 25.5489 44.768 25.4967C44.7748 25.4888 44.7816 25.4815 44.7884 25.4742L44.8109 25.4489C44.8243 25.4335 44.8377 25.4184 44.8503 25.403L44.8647 25.3863C44.898 25.3495 44.9298 25.3106 44.9616 25.2745C44.9934 25.2384 45.0237 25.2028 45.0525 25.1682C45.072 25.1449 45.0922 25.1207 45.1129 25.0982C45.1151 25.0949 45.1222 25.0864 45.1298 25.078C45.1997 24.9952 45.2767 24.903 45.3527 24.8091C45.3841 24.772 45.4083 24.7419 45.4325 24.7124L45.451 24.6899C45.4936 24.6372 45.5378 24.5826 45.5818 24.5271L45.6123 24.4887C45.6759 24.4099 45.7386 24.3301 45.8009 24.2498C45.808 24.241 45.8146 24.2332 45.8204 24.2246L45.8509 24.1857C45.8605 24.1748 45.8691 24.1632 45.8777 24.1513L45.9749 24.0251C46.004 23.9877 46.033 23.9493 46.0608 23.911L46.0772 23.8895C46.0974 23.8643 46.1166 23.839 46.1355 23.8138L46.1436 23.8029C46.1772 23.7568 46.2105 23.7115 46.2433 23.6671L46.2524 23.6547C46.2643 23.6395 46.2764 23.6239 46.287 23.608L46.3678 23.4974C46.3958 23.459 46.4239 23.4216 46.4511 23.3817L46.5302 23.2709C46.5595 23.2297 46.5887 23.1886 46.6175 23.1474L46.6743 23.0656L46.7109 23.0128C46.7289 22.9876 46.741 22.9704 46.7531 22.9527C47.0395 22.5371 47.3152 22.1114 47.5758 21.6834C47.702 21.4784 47.8343 21.2542 47.9828 20.9943C48.0388 20.8933 48.0964 20.7923 48.1532 20.6891C48.2161 20.5762 48.2772 20.4618 48.3378 20.3507C48.3906 20.2517 48.4439 20.1502 48.4971 20.0477C49.0077 19.0639 49.458 18.0499 49.8455 17.0114C49.9255 16.7985 50.0081 16.568 50.098 16.3044C50.2202 15.9459 50.3351 15.5848 50.4394 15.232C50.475 15.1124 50.5093 14.9919 50.5434 14.8715C50.6166 14.6101 50.6797 14.3725 50.7368 14.1445C50.7426 14.1218 50.7462 14.1044 50.7499 14.087C50.7527 14.0738 50.7555 14.0589 50.7575 14.0443C50.7865 13.8759 50.7766 13.7032 50.7285 13.5393C50.6639 13.3288 50.5397 13.1415 50.3709 13.0002C50.2412 12.8913 50.0903 12.8106 49.9278 12.7631C49.8347 12.7366 49.7385 12.7224 49.6417 12.7209H49.6096C49.5732 12.7212 49.5367 12.7238 49.5006 12.7285L49.4844 12.7305C49.4627 12.7325 49.4412 12.7363 49.4198 12.7404C49.2603 12.7723 49.1095 12.8379 48.9774 12.9328L48.7029 13.1247C48.584 13.2072 48.4646 13.2873 48.3449 13.3661L48.1237 13.5125C48.0542 13.558 47.9861 13.6014 47.9176 13.6448L47.8366 13.6953C46.0001 14.8596 44.0339 15.8055 41.9781 16.514L41.9634 16.5188C41.8576 16.5549 41.7511 16.5915 41.644 16.6261C41.537 16.6607 41.4228 16.6991 41.3097 16.7344C41.2022 16.7685 41.0918 16.8023 40.9815 16.8354C40.2944 17.0432 39.6003 17.2253 38.913 17.3783C38.7867 17.4066 38.6605 17.4333 38.5327 17.4598C38.3974 17.4884 38.2623 17.5151 38.1287 17.5414L38.1057 17.5459C37.9709 17.5712 37.8371 17.5964 37.7017 17.6202C37.5755 17.6427 37.4475 17.6641 37.32 17.6858C37.0985 17.7214 36.8811 17.754 36.6635 17.7838C36.4935 17.8091 36.3226 17.8305 36.1509 17.8507C36.088 17.8583 36.0246 17.8661 35.963 17.8729C35.862 17.8846 35.758 17.8959 35.655 17.9055C35.6093 17.9103 35.5603 17.9156 35.5106 17.9204L35.4217 17.9287C35.3586 17.9345 35.2954 17.9406 35.2331 17.9457C33.6473 18.0834 32.0526 18.0847 30.4666 17.9494C23.7115 17.3735 17.3788 14.3569 12.6356 9.45459C9.72172 6.44378 7.56941 2.90701 6.23873 -1.05724L6.1799 -1.23273C6.15086 -1.3211 6.12233 -1.40948 6.09405 -1.49987C6.03976 -1.67132 5.98624 -1.84251 5.93523 -2.01522C5.8971 -2.14324 5.85948 -2.27429 5.82287 -2.40559C5.79055 -2.51972 5.75823 -2.63587 5.72742 -2.75328C5.71959 -2.78055 5.71252 -2.80807 5.70571 -2.83585C5.68374 -2.91842 5.66101 -3.00553 5.63905 -3.09365C5.6239 -3.15122 5.60849 -3.21334 5.5936 -3.27495C5.56835 -3.37039 5.54537 -3.47215 5.52164 -3.57391L5.51103 -3.61809C5.49083 -3.70319 5.47265 -3.78449 5.45447 -3.8658L5.42493 -3.99912C5.37645 -4.21829 5.32999 -4.4468 5.28529 -4.67531C5.26661 -4.76899 5.24868 -4.86418 5.23151 -4.95963C5.21485 -5.04825 5.19843 -5.14067 5.18328 -5.23334C5.09163 -5.75929 5.01386 -6.30015 4.95301 -6.83696C4.94215 -6.93291 4.93154 -7.0276 4.9222 -7.12305C4.90604 -7.27076 4.8914 -7.42605 4.87776 -7.57931C4.86993 -7.66794 4.86211 -7.75606 4.85579 -7.8457C4.84418 -7.98382 4.83408 -8.12699 4.82549 -8.27066C4.82372 -8.29591 4.82145 -8.32444 4.81767 -8.35297C4.7404 -8.94963 4.26848 -9.27839 3.83468 -9.34075C3.78969 -9.34749 3.74432 -9.35145 3.69884 -9.35262L3.64354 -9.35111C3.42497 -9.34741 3.21264 -9.2776 3.03451 -9.15087L2.92366 -9.06149ZM29.8457 34.6245L29.8402 34.6008L29.8457 34.6245ZM46.5183 23.286L46.514 23.2921L46.5183 23.286Z" fill="#371A45"/>
<path d="M5.34203 4.52081C5.42662 3.77038 5.37991 2.92172 5.17917 2.04151C4.57671 -0.599893 2.81729 -2.5247 1.24901 -2.25755C-0.319269 -1.99041 -1.10227 0.368446 -0.499806 3.00884C0.102659 5.64923 1.86208 7.57479 3.43036 7.3079L5.34203 4.52081Z" fill="#FFDA22"/>
<path d="M0.857896 -2.03599C0.465764 -1.76506 0.178923 -1.36838 -0.0170169 -0.93484C-0.212957 -0.501297 -0.325067 -0.0258396 -0.389202 0.452395C-0.449716 0.933169 -0.466618 1.41843 -0.439702 1.90225C-0.426824 2.14389 -0.404855 2.38554 -0.369 2.62213C-0.35082 2.7403 -0.33062 2.85796 -0.302593 2.96932C-0.265728 3.08496 -0.233155 3.20111 -0.19528 3.31575C0.105195 4.23005 0.516264 5.11052 1.09828 5.85766C1.24077 6.04506 1.39726 6.2214 1.56641 6.38514C1.73152 6.54988 1.91251 6.6979 2.10676 6.82701C2.29839 6.9568 2.50664 7.06016 2.72589 7.1343C2.94866 7.20582 3.18217 7.23803 3.41598 7.2295H3.41774C3.43722 7.22821 3.45648 7.23422 3.47177 7.24636C3.48706 7.2585 3.49727 7.2759 3.50043 7.29517C3.50358 7.31444 3.49944 7.33418 3.48883 7.35056C3.47821 7.36695 3.46187 7.37879 3.44299 7.38377C3.18736 7.45275 2.91987 7.46584 2.65873 7.42215C2.3972 7.37662 2.14441 7.29039 1.90956 7.16662C1.67738 7.04382 1.45906 6.89644 1.25836 6.72702C1.06152 6.55708 0.878008 6.3723 0.709426 6.1743C0.0433311 5.37968 -0.389959 4.42144 -0.619734 3.43291C-0.650792 3.30969 -0.67301 3.18445 -0.695483 3.05946C-0.723005 2.92967 -0.741943 2.80267 -0.757598 2.67566C-0.789161 2.4219 -0.805069 2.1694 -0.811634 1.91639C-0.825602 1.41035 -0.791785 0.904112 -0.710634 0.404421C-0.627056 -0.0950236 -0.488685 -0.591187 -0.257647 -1.04998C-0.0266095 -1.50877 0.309719 -1.9254 0.750584 -2.19835C0.772097 -2.21103 0.797666 -2.21495 0.821991 -2.20929C0.846315 -2.20363 0.867529 -2.18883 0.881232 -2.16795C0.894935 -2.14707 0.900075 -2.12172 0.895589 -2.09715C0.891104 -2.07258 0.877335 -2.05068 0.857138 -2.03599H0.857896Z" fill="#371A45"/>
<g opacity="0.35">
<path opacity="0.35" d="M0.552318 2.04847C0.639935 2.85647 0.908594 3.62256 1.28002 4.22957C1.71609 4.94111 2.29305 5.43626 2.88542 5.52515C3.98354 5.69129 4.72008 4.4048 4.5297 2.65119C4.34866 0.977873 3.3889 -0.516169 2.34608 -0.793667C2.29687 -0.807333 2.24686 -0.817958 2.19634 -0.825482C1.09822 -0.99188 0.361933 0.294608 0.552318 2.04847Z" fill="#371A45"/>
</g>
<path d="M3.98641 6.02301C4.69435 5.66865 4.75277 4.35158 4.11691 3.08123C3.48105 1.81089 2.39168 1.06833 1.68375 1.42269C0.975812 1.77704 0.917385 3.09412 1.55325 4.36446C2.18911 5.6348 3.27848 6.37736 3.98641 6.02301Z" fill="#FFDA22"/>
<path d="M4.39937 3.80613C4.41943 3.24938 4.34786 2.69311 4.18752 2.15958C4.04013 1.631 3.80682 1.13026 3.49693 0.6774C3.34325 0.460834 3.16534 0.262516 2.96668 0.0862964C2.77049 -0.0828785 2.5493 -0.216703 2.32255 -0.277555C2.10699 -0.342913 1.87484 -0.325906 1.6711 -0.229832C1.47239 -0.135397 1.307 0.0431197 1.18126 0.257492C1.05551 0.471865 0.971679 0.723607 0.918149 0.981662C0.864884 1.24448 0.839493 1.51218 0.842399 1.78032C0.837349 1.91541 0.852752 2.05125 0.858307 2.1871C0.876992 2.32193 0.883558 2.45853 0.913353 2.59261C0.959417 2.86293 1.02456 3.12965 1.10828 3.39076C1.19663 3.65038 1.30416 3.90307 1.42997 4.14675C1.55733 4.38759 1.7084 4.61513 1.88093 4.82597C2.05259 5.03402 2.25815 5.21159 2.48895 5.35117C2.71797 5.48449 2.98006 5.56479 3.24645 5.53979H3.24797C3.26789 5.53761 3.28789 5.54315 3.30385 5.55527C3.31981 5.5674 3.33051 5.58518 3.33375 5.60496C3.33698 5.62474 3.33251 5.645 3.32125 5.66158C3.30999 5.67816 3.2928 5.68979 3.27322 5.69407C2.97173 5.76275 2.6498 5.70417 2.37381 5.5759C2.09783 5.44763 1.8529 5.25851 1.63979 5.04716C1.43308 4.83042 1.24977 4.59252 1.09288 4.33739C0.93901 4.08197 0.807473 3.81374 0.699736 3.5357C0.598736 3.25593 0.503291 2.97263 0.450266 2.67846C0.415168 2.53353 0.40103 2.38405 0.376538 2.23633C0.365175 2.08685 0.344723 1.93813 0.344975 1.78689C0.33263 1.48284 0.356275 1.1784 0.415421 0.879904C0.474506 0.578924 0.568688 0.277691 0.728016 -0.00384623C0.887343 -0.285384 1.12369 -0.546468 1.44335 -0.699231C1.76302 -0.851993 2.14 -0.869415 2.46244 -0.772707C2.78488 -0.676 3.05935 -0.49218 3.28988 -0.283868C3.51567 -0.0760603 3.71367 0.160045 3.87896 0.418587C4.03789 0.673027 4.17466 0.940651 4.28776 1.21851C4.39053 1.49828 4.48395 1.78057 4.54026 2.07095C4.66247 2.64791 4.69176 3.24785 4.59076 3.82734C4.58654 3.85167 4.57322 3.87348 4.55351 3.88835C4.53379 3.90322 4.50916 3.91003 4.4846 3.90739C4.46005 3.90476 4.43742 3.89288 4.42131 3.87416C4.4052 3.85545 4.39681 3.8313 4.39785 3.80663L4.39937 3.80613Z" fill="#371A45"/>
<g opacity="0.35">
<path opacity="0.35" d="M44.1454 36.5427C44.1295 38.0121 43.8163 39.4631 43.2249 40.8083C42.6335 42.1535 41.776 43.3651 40.7041 44.3702C40.2678 44.7799 39.7988 45.1534 39.3017 45.4868C37.648 46.594 35.7233 47.2284 33.7354 47.3215C31.7474 47.4146 29.7719 46.9628 28.022 46.0149C26.2721 45.0671 24.8144 43.6591 23.8063 41.9432C22.7983 40.2273 22.2782 38.2686 22.3022 36.2786C22.3451 32.754 24.053 29.6391 26.6689 27.6729C27.4383 31.3549 28.6735 35.76 30.265 38.0878L28.0549 42.5555H37.8519L35.6415 38.0878C37.2812 35.689 38.543 31.0845 39.307 27.3389C42.2638 29.325 44.1914 32.7159 44.1454 36.5427Z" fill="#371A45"/>
</g>
<path d="M43.8066 39.1973C43.747 39.1866 43.694 39.1527 43.6593 39.1031C43.6246 39.0534 43.611 38.992 43.6215 38.9324L44.7719 32.4525C44.7825 32.3928 44.8163 32.3398 44.866 32.3051C44.9157 32.2704 44.9771 32.2568 45.0368 32.2674C45.3467 32.3224 45.6427 32.438 45.908 32.6074C46.1732 32.7769 46.4025 32.9969 46.5827 33.2549C46.7629 33.513 46.8905 33.804 46.9583 34.1114C47.026 34.4188 47.0325 34.7365 46.9775 35.0464L46.5854 37.256C46.4743 37.8819 46.1191 38.4381 45.598 38.8021C45.0769 39.1661 44.4325 39.3083 43.8066 39.1973Z" fill="white"/>
<path d="M44.2308 39.3137C44.0839 39.3136 43.9373 39.3007 43.7927 39.2751C43.7124 39.2608 43.6411 39.2152 43.5945 39.1483C43.5478 39.0815 43.5295 38.9989 43.5437 38.9186L44.6941 32.4387C44.7084 32.3584 44.754 32.287 44.8208 32.2404C44.8877 32.1937 44.9704 32.1755 45.0506 32.1897C45.3709 32.2464 45.6768 32.3656 45.9509 32.5406C46.225 32.7156 46.4619 32.9429 46.6481 33.2095C46.8343 33.4761 46.9661 33.7768 47.036 34.0944C47.1059 34.412 47.1125 34.7402 47.0555 35.0604L46.6634 37.27C46.5617 37.8418 46.2625 38.3596 45.8178 38.7332C45.3732 39.1067 44.8115 39.3122 44.2308 39.3137ZM43.8205 39.1196C44.4257 39.227 45.0489 39.0896 45.5529 38.7376C46.0569 38.3856 46.4004 37.8478 46.5078 37.2425L46.9002 35.0326C46.9534 34.7329 46.947 34.4256 46.8815 34.1283C46.8159 33.8311 46.6925 33.5496 46.5181 33.3001C46.3438 33.0506 46.122 32.8378 45.8655 32.674C45.6089 32.5101 45.3226 32.3984 45.0229 32.3452C44.9839 32.3384 44.9438 32.3473 44.9113 32.37C44.8788 32.3926 44.8567 32.4272 44.8497 32.4662L43.6993 38.9461C43.6924 38.9852 43.7012 39.0254 43.724 39.0579C43.7467 39.0904 43.7814 39.1126 43.8205 39.1196Z" fill="#371A45"/>
<g opacity="0.35">
<path opacity="0.35" d="M46.7695 36.2201L46.5859 37.2553C46.4744 37.8811 46.119 38.4371 45.5979 38.8011C45.0767 39.1651 44.4324 39.3073 43.8064 39.1965C43.7467 39.1858 43.6937 39.1519 43.6591 39.1021C43.6244 39.0523 43.6109 38.9909 43.6216 38.9312L43.9266 37.2086C43.9373 37.2513 43.96 37.29 43.9921 37.3201C44.0242 37.3502 44.0643 37.3704 44.1076 37.3783L44.2614 37.4053C44.7508 37.4924 45.2551 37.4251 45.7045 37.2128C46.1539 37.0004 46.5261 36.6535 46.7695 36.2201Z" fill="#371A45"/>
</g>
<path d="M44.2316 39.6746C44.0634 39.6746 43.8955 39.6597 43.7299 39.6302C43.5556 39.5989 43.4009 39.4998 43.2997 39.3545C43.1985 39.2093 43.159 39.0298 43.1901 38.8555L44.3402 32.3756C44.3713 32.2012 44.4704 32.0462 44.6157 31.9448C44.761 31.8434 44.9406 31.8038 45.1151 31.8347C45.8559 31.9661 46.5141 32.3864 46.945 33.0032C47.3759 33.6199 47.5442 34.3825 47.4129 35.1233L47.0205 37.3329C46.9041 37.988 46.5613 38.5814 46.0519 39.0094C45.5425 39.4374 44.899 39.6728 44.2336 39.6746H44.2316ZM44.0932 38.7909C44.5747 38.8233 45.0512 38.6768 45.4314 38.3795C45.8115 38.0822 46.0684 37.655 46.1529 37.1799L46.545 34.9703C46.6295 34.495 46.5355 34.0053 46.2809 33.5952C46.0264 33.1851 45.6292 32.8835 45.1659 32.7483L44.0932 38.7909Z" fill="#371A45"/>
<path d="M23.6486 28.4707C23.6782 28.4758 23.7065 28.4867 23.7318 28.5028C23.7571 28.5189 23.779 28.5399 23.7962 28.5645C23.8134 28.5892 23.8256 28.617 23.8319 28.6463C23.8383 28.6757 23.8388 28.706 23.8334 28.7355L22.6833 35.2152C22.6782 35.2448 22.6673 35.2731 22.6512 35.2985C22.6351 35.3239 22.6141 35.3458 22.5895 35.363C22.5648 35.3802 22.537 35.3924 22.5077 35.3988C22.4783 35.4052 22.4479 35.4057 22.4184 35.4003C22.1085 35.3453 21.8124 35.2297 21.5471 35.0603C21.2818 34.8909 21.0525 34.6709 20.8722 34.4128C20.692 34.1547 20.5643 33.8637 20.4965 33.5563C20.4287 33.2489 20.4222 32.9312 20.4772 32.6212L20.8696 30.4116C20.9246 30.1017 21.0401 29.8056 21.2095 29.5404C21.3789 29.2751 21.599 29.0458 21.857 28.8655C22.1151 28.6853 22.4061 28.5576 22.7135 28.4899C23.0209 28.4221 23.3386 28.4156 23.6486 28.4707Z" fill="white"/>
<path d="M22.4583 35.4828C22.4402 35.4828 22.4222 35.4812 22.4045 35.478C21.7583 35.3625 21.1843 34.9955 20.8084 34.4574C20.4324 33.9193 20.2854 33.254 20.3994 32.6075L20.7918 30.3979C20.8484 30.0777 20.9676 29.7718 21.1426 29.4977C21.3175 29.2236 21.5448 28.9866 21.8114 28.8004C22.078 28.6142 22.3786 28.4823 22.6962 28.4124C23.0138 28.3425 23.342 28.3358 23.6622 28.3928C23.7424 28.4071 23.8137 28.4527 23.8604 28.5196C23.9071 28.5864 23.9253 28.6691 23.9111 28.7493L22.7608 35.229C22.7481 35.3001 22.7109 35.3644 22.6556 35.4108C22.6003 35.4572 22.5304 35.4827 22.4583 35.4828ZM23.2246 28.512C22.681 28.5135 22.1551 28.706 21.7389 29.0557C21.3227 29.4054 21.0425 29.8902 20.9473 30.4254L20.5549 32.6351C20.4475 33.2403 20.5849 33.8635 20.9369 34.3675C21.2889 34.8715 21.8267 35.215 22.432 35.3224C22.471 35.3293 22.5112 35.3205 22.5437 35.2978C22.5763 35.2751 22.5985 35.2405 22.6055 35.2015L23.7556 28.7216C23.7624 28.6826 23.7536 28.6424 23.7309 28.61C23.7082 28.5775 23.6736 28.5554 23.6347 28.5483C23.4993 28.5241 23.3621 28.512 23.2246 28.512Z" fill="#371A45"/>
<g opacity="0.35">
<path opacity="0.35" d="M23.0029 33.4176L22.6835 35.2154C22.6728 35.2751 22.6388 35.3281 22.5891 35.3627C22.5393 35.3974 22.4778 35.4109 22.4181 35.4002C22.1083 35.3453 21.8123 35.2299 21.5471 35.0606C21.2819 34.8913 21.0527 34.6714 20.8724 34.4134C20.6922 34.1555 20.5646 33.8646 20.4968 33.5574C20.429 33.2501 20.4224 32.9325 20.4774 32.6227L20.6418 31.692C20.7559 32.1383 20.9961 32.5423 21.3337 32.8558C21.6713 33.1692 22.0921 33.3788 22.5456 33.4595L22.7822 33.5014C22.8231 33.5085 22.8652 33.5045 22.904 33.4897C22.9429 33.475 22.977 33.4501 23.0029 33.4176Z" fill="#371A45"/>
</g>
<path d="M22.4597 35.8433C22.4204 35.8434 22.3812 35.8399 22.3426 35.833C21.6021 35.701 20.9443 35.2805 20.5135 34.664C20.0827 34.0474 19.9141 33.2851 20.0448 32.5444L20.4369 30.3348C20.5685 29.594 20.9888 28.9358 21.6056 28.5049C22.2223 28.0741 22.9849 27.9058 23.7258 28.0371C23.9001 28.0683 24.055 28.1673 24.1564 28.3125C24.2579 28.4578 24.2976 28.6373 24.2669 28.8117L23.1162 35.2921C23.0886 35.4463 23.0078 35.5859 22.8878 35.6867C22.7679 35.7874 22.6164 35.8428 22.4597 35.8433ZM23.2266 28.8728C22.7674 28.8739 22.3233 29.0364 21.9717 29.3318C21.6202 29.6272 21.3837 30.0367 21.3035 30.4888L20.9111 32.6987C20.8273 33.1739 20.9217 33.6633 21.1761 34.0732C21.4306 34.4832 21.8273 34.7849 22.2903 34.9207L23.3629 28.8789C23.3162 28.8743 23.2705 28.8728 23.2253 28.8728H23.2266Z" fill="#371A45"/>
<path d="M41.6589 41.7642C46.0385 37.3845 46.0385 30.2837 41.6589 25.9041C37.2793 21.5244 30.1784 21.5244 25.7988 25.9041C21.4191 30.2837 21.4192 37.3845 25.7988 41.7642C30.1784 46.1438 37.2793 46.1438 41.6589 41.7642Z" fill="white"/>
<path d="M33.7488 45.1326C32.8122 45.132 31.8793 45.0156 30.9713 44.7859C28.046 44.0494 25.5826 42.2178 24.0348 39.6284C22.487 37.039 22.0401 34.0017 22.7771 31.0764C24.2979 25.0374 30.4478 21.3615 36.4879 22.8823C39.4133 23.6189 41.8767 25.4507 43.4243 28.0401C44.9719 30.6295 45.419 33.6666 44.682 36.5921C43.9455 39.5173 42.1136 41.9807 39.5242 43.5285C37.78 44.5768 35.7837 45.1313 33.7488 45.1326ZM33.7298 22.697C28.7482 22.697 24.2007 26.0696 22.9301 31.1148C22.2037 33.9994 22.6443 36.994 24.1702 39.5483C25.696 42.1026 28.1251 43.9077 31.0096 44.6342C33.8942 45.3606 36.8886 44.92 39.4419 43.3939C41.9951 41.8678 43.8013 39.439 44.5275 36.5547C45.2537 33.6704 44.8136 30.6755 43.2874 28.1212C41.7613 25.5669 39.3325 23.7618 36.4482 23.0353C35.5595 22.811 34.6464 22.6974 33.7298 22.697Z" fill="#371A45"/>
<g opacity="0.35">
<path opacity="0.35" d="M44.879 35.0409C44.8232 35.5573 44.7313 36.0692 44.604 36.5728C43.0907 42.5788 36.9959 46.2216 30.9899 44.7096C24.984 43.1976 21.3412 37.1018 22.8529 31.0956C22.8963 30.9229 22.9438 30.7509 22.995 30.5827C22.3951 36.062 25.9112 41.2812 31.4066 42.6651C37.2403 44.1337 43.1564 40.7398 44.879 35.0409Z" fill="#371A45"/>
</g>
<path d="M33.7495 45.4934C32.7829 45.4927 31.82 45.3726 30.8828 45.1358C27.8642 44.3755 25.322 42.4846 23.725 39.8131C22.1279 37.1417 21.6671 34.0056 22.4271 30.9882C23.9964 24.7565 30.343 20.964 36.5747 22.5325C39.5933 23.2925 42.1355 25.1838 43.7326 27.855C45.3296 30.5262 45.7904 33.6625 45.0304 36.6798C44.2704 39.6972 42.3792 42.2406 39.708 43.838C37.8768 44.9323 35.8286 45.4934 33.7495 45.4934ZM33.7298 23.0577C28.9096 23.0577 24.5092 26.3208 23.2798 31.2029C21.829 36.9644 25.3362 42.8323 31.0977 44.2824C33.8886 44.9851 36.7863 44.5601 39.2568 43.0825C41.7272 41.6049 43.475 39.2556 44.1777 36.4645C44.8804 33.6733 44.4555 30.7759 42.9779 28.3052C41.5002 25.8345 39.15 24.0879 36.3601 23.3847C35.5002 23.1677 34.6167 23.0578 33.7298 23.0577Z" fill="#371A45"/>
<path d="M44.499 36.843C43.9955 38.9789 42.8345 40.7984 41.2617 42.1596C40.0825 43.18 35.9203 44.471 31.398 43.4474C27.205 42.4985 23.924 39.3698 23.3248 37.93C22.5259 36.011 22.3002 33.863 22.8039 31.7271C24.1369 26.0746 29.5457 24.8765 35.537 26.2892C41.5283 27.702 45.8319 31.1908 44.499 36.843Z" fill="#371A45"/>
<g opacity="0.5">
<path opacity="0.5" d="M42.4739 35.8199C42.9117 34.815 42.6763 33.7432 41.948 33.426C41.2198 33.1087 40.2746 33.6662 39.8368 34.6711C39.3991 35.6759 39.6345 36.7477 40.3627 37.065C41.091 37.3822 42.0362 36.8248 42.4739 35.8199Z" fill="white"/>
</g>
<g opacity="0.5">
<path opacity="0.5" d="M39.2039 39.0729C39.4666 38.6438 39.3811 38.1132 39.0129 37.8877C38.6447 37.6622 38.1333 37.8273 37.8705 38.2564C37.6078 38.6855 37.6933 39.2161 38.0615 39.4416C38.4297 39.667 38.9411 39.502 39.2039 39.0729Z" fill="white"/>
</g>
<g opacity="0.35">
<path opacity="0.35" d="M43.6326 31.0724C44.6603 32.6505 45.034 34.5725 44.499 36.8428C43.994 38.9792 42.834 40.7987 41.2619 42.1599C40.0825 43.1803 35.92 44.4711 31.3978 43.4477C29.801 43.0866 28.337 42.4091 27.1022 41.6284C32.6883 42.7677 37.763 41.1752 39.2253 39.9094C41.2215 38.182 42.6949 35.8724 43.3337 33.1618C43.4981 32.4761 43.5981 31.7766 43.6326 31.0724Z" fill="#111A28"/>
</g>
<path d="M44.734 32.0455C44.6761 32.0456 44.619 32.0323 44.5671 32.0067C44.5153 31.9812 44.47 31.944 44.4348 31.898L44.4037 31.8576L44.3833 31.8089C43.164 28.8253 39.9832 26.5289 35.6569 25.5088C31.3071 24.4831 27.4284 25.1646 25.0153 27.3788L24.9781 27.4088C24.8987 27.4653 24.8006 27.489 24.7042 27.475C24.6078 27.4609 24.5205 27.4103 24.4604 27.3336C24.4003 27.2568 24.3722 27.1599 24.3817 27.0629C24.3913 26.966 24.4379 26.8764 24.5118 26.8129C27.1125 24.4326 31.2379 23.6882 35.8309 24.7715C40.3945 25.8476 43.7654 28.3047 45.0809 31.5132C45.1061 31.5708 45.1165 31.6338 45.1112 31.6965C45.1059 31.7591 45.0852 31.8195 45.0507 31.8721C45.0163 31.9247 44.9693 31.9679 44.914 31.9978C44.8587 32.0277 44.7969 32.0434 44.734 32.0435V32.0455Z" fill="#371A45"/>
<g opacity="0.5">
<path opacity="0.5" d="M24.4471 35.6643C24.4471 35.6643 24.0113 29.6755 27.5405 28.162C31.0697 26.6486 35.391 27.677 35.2246 27.9305C35.2246 27.9305 30.1648 27.9606 27.3996 31.3029C25.2675 33.8804 24.4471 35.6643 24.4471 35.6643Z" fill="white"/>
</g>
<path d="M27.2689 16.9026C27.81 17.549 28.2847 19.6861 26.9699 20.483C25.1029 21.615 19.3192 19.9459 19.0561 17.095C18.8836 15.2237 20.0956 15.183 21.2079 15.1229C22.3201 15.0628 25.9423 15.3186 27.2689 16.9026Z" fill="#FFA92C"/>
<path d="M27.1964 16.3888C27.6393 17.063 27.8529 19.1466 26.5161 19.7582C24.6163 20.627 19.3045 18.4005 19.3704 15.6619C19.4138 13.8646 20.5703 13.9603 21.6338 14.0262C22.6973 14.0921 26.1114 14.7367 27.1964 16.3888Z" fill="white"/>
<g opacity="0.35">
<path opacity="0.35" d="M19.3909 16.1334C19.8898 18.6493 24.706 20.5759 26.4952 19.7583C27.8335 19.146 27.6186 17.0631 27.1757 16.3884C27.1437 16.3379 27.1086 16.2904 27.0712 16.2432C26.9827 16.5391 26.8083 16.802 26.57 16.9985C25.2479 18.0898 21.167 17.76 19.3909 16.1334Z" fill="#371A45"/>
</g>
<path d="M38.675 16.1501C38.2811 16.8538 38.2147 18.9473 39.5924 19.4629C41.5487 20.1952 46.6896 17.5982 46.4298 14.8712C46.2594 13.0815 45.1128 13.2587 44.0563 13.3999C42.9999 13.541 39.6406 14.4253 38.675 16.1501Z" fill="white"/>
<g opacity="0.35">
<path opacity="0.35" d="M46.422 15.3446C46.1021 17.8893 41.4343 20.152 39.5919 19.4629C38.2142 18.9471 38.2806 16.8543 38.6745 16.1499C38.703 16.0994 38.7346 16.0489 38.7684 15.9984C38.8777 16.2872 39.0703 16.5371 39.3219 16.7162C40.7188 17.7106 44.7661 17.0927 46.422 15.3446Z" fill="#371A45"/>
</g>
<path d="M40.3928 20.0283C40.0433 20.0283 39.7201 19.9803 39.4383 19.8748C38.8591 19.6579 38.4283 19.2014 38.1905 18.5537C37.8526 17.6316 37.9764 16.4983 38.2915 15.9355C39.401 13.9534 43.0751 13.0876 43.998 12.9641L44.0384 12.9588C44.7454 12.8636 45.5496 12.7568 46.1569 13.2388C46.5636 13.562 46.7962 14.0822 46.8674 14.8296C46.9782 15.9954 46.2773 17.2213 44.8931 18.282C43.6379 19.2438 41.803 20.0283 40.3928 20.0283ZM44.9522 13.7567C44.7037 13.7567 44.4272 13.7938 44.1553 13.8302L44.1147 13.8357C43.064 13.9761 39.9143 14.8361 39.0588 16.365C38.8775 16.6887 38.7579 17.547 39.0159 18.2512C39.1644 18.6552 39.4101 18.9254 39.7464 19.0511C40.7289 19.4188 42.8408 18.7481 44.3586 17.5841C45.4769 16.7271 46.0723 15.7535 45.9922 14.9129C45.9458 14.4231 45.817 14.0915 45.6102 13.9282C45.4484 13.7986 45.2161 13.7567 44.9522 13.7567Z" fill="#371A45"/>
<path d="M25.4645 20.3889C24.0972 20.3889 22.3754 19.7667 21.1447 18.9552C19.689 17.9957 18.9028 16.8218 18.931 15.6512C18.9492 14.9008 19.1441 14.3652 19.5272 14.0143C20.0988 13.4901 20.9074 13.5403 21.6207 13.585L21.6613 13.5875C22.591 13.6451 26.3172 14.2491 27.564 16.1474C27.9175 16.6867 28.1218 17.8083 27.8501 18.7522C27.6592 19.4147 27.2613 19.9008 26.6989 20.1581C26.35 20.3174 25.9276 20.3889 25.4645 20.3889ZM20.9927 14.4382C20.6359 14.4382 20.3163 14.4834 20.1216 14.6622C19.9269 14.8409 19.8221 15.1806 19.8102 15.6722C19.7898 16.5163 20.4526 17.4452 21.6282 18.2209C23.2245 19.2736 25.3789 19.7942 26.3326 19.3572C26.6593 19.2077 26.8853 18.9218 27.0047 18.5075C27.2123 17.7866 27.0322 16.9392 26.828 16.6289C25.8665 15.1644 22.6637 14.5296 21.6058 14.4637L21.5649 14.4612C21.374 14.4503 21.1778 14.4382 20.9927 14.4382Z" fill="#371A45"/>
</g>
</svg>
